<?xml version="1.0" encoding="utf-8"?>
<!-- Generator: Adobe Illustrator 22.0.0, SVG Export Plug-In . SVG Version: 6.00 Build 0)  -->
<svg version="1.1" id="Capa_1" xmlns="http://www.w3.org/2000/svg" xmlns:xlink="http://www.w3.org/1999/xlink" x="0px" y="0px"
	 viewBox="0 0 45 45" style="enable-background:new 0 0 45 45;" xml:space="preserve">
<style type="text/css">
	.st0{display:none;fill:#101012;}
</style>
<path class="st0" d="M23.3,31.8V29H21v2.8c-2.5,0.5-4.5,2.5-5.1,5H1v2.3h14.8c0.4,3.2,3.2,5.7,6.5,5.7s6.1-2.5,6.5-5.7H44v-2.3H28.7
	C28.1,34.2,26,32.2,23.3,31.8z M22.3,42.6c-2.4,0-4.3-1.9-4.3-4.3c0-2.4,1.9-4.3,4.3-4.3s4.3,1.9,4.3,4.3
	C26.6,40.7,24.7,42.6,22.3,42.6z M40.6,0.1H4.4c-2,0-3.6,1.6-3.6,3.6v20.2c0,2,1.6,3.6,3.6,3.6h36.3c2,0,3.6-1.6,3.6-3.6V3.7
	C44.2,1.7,42.6,0.1,40.6,0.1z M42,23.9c0,0.7-0.6,1.3-1.3,1.3H4.4c-0.7,0-1.3-0.6-1.3-1.3L3,3.7C3,3,3.6,2.4,4.4,2.4h36.3
	C41.4,2.4,42,3,42,3.7V23.9L42,23.9z"/>
<path d="M27.8,31c0,0.3-0.1,0.5-0.1,0.7c-0.3,0.9-0.9,1.4-1.8,1.6c-0.2,0-0.2,0.1-0.2,0.3c0,1.2,0,2.4,0,3.6c0,0.1,0,0.2,0,0.2
	c0,0.2-0.2,0.4-0.5,0.4c-0.2,0-0.5-0.1-0.5-0.4c0-0.1,0-0.2,0-0.3c0-1.2,0-2.3,0-3.5c0-0.1,0-0.2,0-0.3c-1.2,0-2.3,0-3.5,0
	c0,0.1,0,0.2,0,0.3c0,1.2,0,2.4,0,3.6c0,0.3-0.1,0.5-0.4,0.6c-0.3,0.1-0.6-0.1-0.6-0.5c0-0.3,0-0.7,0-1c0-0.9,0-1.8,0-2.8
	c0-0.2,0-0.2-0.2-0.2c-1.1-0.2-1.8-1-1.8-2.1c0,0,0-0.1,0-0.1c-0.1,0-0.2,0-0.3,0c-3.3,0-6.7,0-10,0C7.3,31,7,30.8,7,30.2
	c0-2.5,0-4.9,0-7.4c0-3.3,0-6.6,0-9.9c0-0.8,0-1.6,0-2.4C7,10,7.3,9.8,7.8,9.8c1.8,0,3.5,0,5.3,0c0.2,0,0.3,0,0.3-0.3
	c0-0.4,0-0.7,0-1.1c-0.1,0-0.2,0-0.3,0c-0.8,0-1.6,0-2.5,0c-0.4,0-0.6-0.3-0.5-0.6c0.1-0.2,0.2-0.3,0.4-0.4c0,0,0.1,0,0.1,0
	c2.1,0,4.3,0,6.4,0c0.3,0,0.5,0.2,0.6,0.5c0,0.3-0.2,0.6-0.6,0.6c-0.8,0-1.6,0-2.4,0c-0.1,0-0.2,0-0.3,0c0,0.5,0,0.9,0,1.3
	c2.6,0,5.1,0,7.7,0c0-0.4,0-0.9,0-1.3c-0.1,0-0.2,0-0.2,0c-0.8,0-1.6,0-2.5,0c-0.4,0-0.6-0.3-0.5-0.6c0-0.2,0.2-0.4,0.5-0.4
	c0.5,0,1,0,1.5,0c1.6,0,3.3,0,4.9,0c0.4,0,0.6,0.2,0.6,0.4c0,0.3-0.2,0.6-0.5,0.6c-0.8,0-1.6,0-2.4,0c-0.1,0-0.2,0-0.3,0
	c0,0.5,0,0.9,0,1.4c2.6,0,5.3,0,7.9,0c0-0.5,0-1,0-1.5c-0.1,0-0.2,0-0.3,0c-0.8,0-1.6,0-2.4,0c-0.3,0-0.5-0.2-0.6-0.4
	c0-0.3,0.2-0.5,0.5-0.6c0,0,0.1,0,0.1,0c2.1,0,4.2,0,6.3,0c0.4,0,0.6,0.2,0.6,0.5c0,0.3-0.2,0.6-0.6,0.6c-0.8,0-1.6,0-2.4,0
	c-0.1,0-0.2,0-0.3,0c0,0.5,0,1,0,1.5c0.3,0,0.6,0,0.9,0c1.5,0,2.9,0,4.4,0c0.5,0,0.7,0.2,0.7,0.7c0,3.7,0,7.4,0,11.1
	c0,2.9,0,5.7,0,8.6c0,0.6-0.2,0.8-0.8,0.8c-3,0-6.1,0-9.1,0C28,31,27.9,31,27.8,31z M8,10.8C8,17.2,8,23.6,8,30c9.7,0,19.3,0,29,0
	c0-6.4,0-12.8,0-19.2C27.4,10.8,17.7,10.8,8,10.8z M26.8,31.1c-2.5,0-5,0-7.6,0c0,0.1,0,0.1,0,0.1c0,0.6,0.6,1.2,1.3,1.2
	c0.9,0,1.9,0,2.8,0c0.7,0,1.5,0,2.2,0C26.2,32.4,26.8,31.8,26.8,31.1z"/>
</svg>
