<?xml version="1.0" encoding="utf-8"?>
<!-- Generator: Adobe Illustrator 22.0.0, SVG Export Plug-In . SVG Version: 6.00 Build 0)  -->
<svg version="1.1" id="Capa_1" xmlns="http://www.w3.org/2000/svg" xmlns:xlink="http://www.w3.org/1999/xlink" x="0px" y="0px"
	 viewBox="0 0 53 47" style="enable-background:new 0 0 53 47;" xml:space="preserve">
<style type="text/css">
	.st0{display:none;fill:#101012;}
</style>
<path class="st0" d="M48.7,15L37,15c-0.2-3-1-5.8-2.4-7.9c-1.4-2.2-3.5-3.8-6-4v0h-0.4c0,0,0,0,0,0c0,0,0,0,0,0H16.8
	c-0.3-1.6-1.7-2.8-3.3-2.8h-3.1C8.5,0.4,7,1.9,7,3.8v5.7H2.1c-0.6,0-1.1,0.5-1.1,1.1c0,0.6,0.5,1.1,1.1,1.1H7v9.4H2.1
	c-0.6,0-1.1,0.5-1.1,1.1l0,0c0,0.6,0.5,1.1,1.1,1.1H7V28c0,1.9,1.5,3.4,3.4,3.4h3.1c1.4,0,2.7-0.9,3.2-2.2h11.6c0,0,0,0,0,0
	c0,0,0,0,0,0h0.4v0c2.4-0.2,4.5-1.7,6-4c1.4-2.1,2.2-4.9,2.4-7.9h11.6c0.6,0,1.1,0.5,1.1,1.1v19.4c0,0.6-0.5,1.1-1.1,1.1H24
	c-1.9,0-3.4,1.5-3.4,3.4v4.2h2.3l0-4.2c0-0.6,0.5-1.1,1.1-1.1h24.7c1.9,0,3.4-1.5,3.4-3.4l0-19.4C52.1,16.6,50.5,15,48.7,15z
	 M14.6,28c0,0.6-0.5,1.1-1.1,1.1h-3.1c-0.6,0-1.1-0.5-1.1-1.1V3.8c0-0.6,0.5-1.1,1.1-1.1h3.1c0.6,0,1.1,0.5,1.1,1.1V28z M16.9,26.9
	V5.4h6.3h3.2v0.4v20.6v0.4h-3.2H16.9z M32.7,24c-1.2,1.8-2.6,2.8-4.1,2.9V5.5c1.5,0.2,2.9,1.2,4.1,2.9c1.3,1.9,2.1,4.7,2.1,7.8
	C34.8,19.3,34,22,32.7,24z"/>
<g>
	<path d="M3.5,23.5c0-6.8,0-13.5,0-20.3c0-1.7,0.7-2.5,2.5-2.5c6.6,0,13.2,0,19.9,0c1.8,0,2.5,0.7,2.5,2.6c0,2.9,0,5.8,0,8.7
		c0,0.6-0.1,1.1-0.8,1.2c-0.6,0.1-1.1-0.3-1.1-1.1c0-1.8,0-3.6,0-5.4c0-1.2,0-2.3,0-3.5c0-0.4-0.1-0.6-0.5-0.6c-0.2,0-0.5,0-0.7,0
		c-6.3,0-12.5,0-18.8,0c-1.1,0-1.1,0-1.1,1.1c0,13.2,0,26.4,0,39.6c0,1,0,1,1,1c1.1,0,1.1,0.2,1.1-1.1c0-2.4,0-4.9,0-7.3
		c0-1,0.3-1.3,1.3-1.3c2,0,4.1,0,6.1,0c1,0,1.2,0.3,1.2,1.2c0,2.6,0,5.1,0,7.7c0,0.5,0.1,0.7,0.7,0.7c1.2,0,2.5,0,3.7,0
		c0.6,0,0.7-0.2,0.7-0.8c0-8.7,0-17.4,0-26.1c0-1.7,0.8-2.5,2.5-2.5c7.4,0,14.8,0,22.2,0c1.7,0,2.4,0.8,2.4,2.4c0,8.8,0,17.6,0,26.4
		c0,1.5-0.8,2.3-2.3,2.4c-0.2,0-0.4,0-0.6,0c-13,0-26.1,0-39.1,0c-0.4,0-0.7,0-1.1,0c-1.2-0.2-1.8-0.9-1.8-2.3c0-4.6,0-9.3,0-13.9
		C3.5,27.9,3.5,25.7,3.5,23.5C3.5,23.5,3.5,23.5,3.5,23.5z M46.5,30.7c0-4.3,0-8.6,0-12.9c0-0.7-0.2-0.9-0.8-0.9
		c-7.2,0-14.5,0-21.7,0c-0.6,0-0.8,0.2-0.8,0.8c0,4.8,0,9.5,0,14.3c0,3.8,0,7.6,0,11.4c0,0.9,0,0.9,0.9,0.9c0.1,0,0.1,0,0.2,0
		c0.6,0.1,0.8-0.1,0.8-0.8c0-2.5,0-5.1,0-7.7c0-0.9,0.3-1.2,1.2-1.2c2,0,4.1,0,6.1,0c1,0,1.3,0.3,1.3,1.3c0,2.6,0,5.1,0,7.7
		c0,0.5,0.1,0.8,0.7,0.8c3.7,0,7.5,0,11.2,0c0.6,0,0.8-0.1,0.8-0.8C46.4,39.3,46.5,35,46.5,30.7z M9.5,36.6
		c-0.1,0.1-0.1,0.1-0.1,0.2c0,2.4,0,4.8,0,7.2c0,0.1,0.2,0.3,0.3,0.3c1.5,0,3,0,4.5,0c0-2.5,0-5,0-7.4c0-0.1-0.2-0.3-0.3-0.3
		C12.4,36.6,10.9,36.6,9.5,36.6z M26.9,36.6c0,2.5,0,5,0,7.4c0,0.1,0.3,0.3,0.4,0.3c1.3,0,2.6,0,3.9,0c0.4,0,0.5-0.1,0.5-0.5
		c0-2.3,0-4.5,0-6.8c0-0.2-0.3-0.4-0.4-0.4C29.9,36.6,28.5,36.6,26.9,36.6z"/>
	<path d="M9.8,17.3c-0.4,0-0.8,0-1.2,0c-0.7-0.1-1.2-0.5-1.2-1.1c0-0.6,0.4-1.1,1.1-1.1c0.8,0,1.7,0,2.5,0c0.6,0,1.1,0.5,1.1,1.1
		c0,0.7-0.4,1-1,1.1C10.7,17.3,10.2,17.3,9.8,17.3C9.8,17.3,9.8,17.3,9.8,17.3z"/>
	<path d="M9.8,20.3c0.4,0,0.8,0,1.2,0c0.7,0.1,1.1,0.5,1.1,1.1c0,0.6-0.4,1.1-1.1,1.1c-0.8,0.1-1.7,0.1-2.5,0
		c-0.7,0-1.2-0.6-1.1-1.2c0-0.6,0.5-1,1.2-1.1C9,20.3,9.4,20.3,9.8,20.3C9.8,20.3,9.8,20.3,9.8,20.3z"/>
	<path d="M16.3,22.5c-0.4,0-0.9,0-1.3,0c-0.6-0.1-1.1-0.5-1.1-1.1c0-0.5,0.4-1.1,1-1.1c0.9-0.1,1.8-0.1,2.7,0c0.6,0,1,0.4,1,1.1
		c0,0.6-0.4,1-0.9,1.1C17.2,22.5,16.7,22.5,16.3,22.5C16.3,22.5,16.3,22.5,16.3,22.5z"/>
	<path d="M22.3,12c-0.4,0-0.8,0-1.2,0c-0.7-0.1-1.2-0.5-1.2-1.1c0-0.6,0.5-1.1,1.2-1.1c0.8,0,1.6,0,2.3,0c0.7,0,1.2,0.5,1.2,1.1
		c0,0.6-0.4,1.1-1.2,1.1C23,12.1,22.6,12,22.3,12C22.3,12,22.3,12,22.3,12z"/>
	<path d="M16.3,17.3c-0.4,0-0.9,0-1.3,0c-0.7-0.1-1.1-0.6-1.1-1.1c0-0.6,0.4-1.1,1.1-1.1c0.8,0,1.7,0,2.5,0c0.7,0,1.1,0.5,1.1,1.1
		c0,0.6-0.4,1-1.1,1.1C17.1,17.3,16.7,17.3,16.3,17.3z"/>
	<path d="M16.3,12.1c-0.5,0-0.9,0-1.4-0.1c-0.6-0.1-0.9-0.5-1-1.1c0-0.5,0.4-1.1,1-1.1c0.9-0.1,1.8-0.1,2.7,0c0.6,0,1,0.4,1.1,1.1
		c0,0.6-0.4,1-1.1,1.1C17.1,12,16.7,12,16.3,12.1C16.3,12,16.3,12,16.3,12.1z"/>
	<path d="M9.8,30.7c0.4,0,0.8,0,1.2,0c0.7,0,1.2,0.5,1.2,1.1c0,0.6-0.5,1-1.1,1.1c-0.8,0-1.7,0-2.5,0c-0.7,0-1.1-0.5-1.1-1.1
		c0-0.6,0.5-1.1,1.2-1.1C9,30.7,9.4,30.7,9.8,30.7z"/>
	<path d="M9.8,6.9c-0.4,0-0.9,0-1.3,0c-0.6-0.1-1-0.4-1-1c0-0.6,0.3-1.1,0.9-1.1c1-0.1,1.9-0.1,2.9,0c0.6,0,1,0.5,0.9,1.1
		c0,0.6-0.4,1-1,1C10.7,6.9,10.2,6.9,9.8,6.9C9.8,6.9,9.8,6.9,9.8,6.9z"/>
	<path d="M16.3,4.7c0.4,0,0.8,0,1.2,0c0.7,0,1.1,0.5,1.1,1.1c0,0.6-0.4,1.1-1.1,1.1c-0.8,0-1.7,0-2.5,0c-0.7,0-1.1-0.5-1.1-1.1
		c0-0.6,0.5-1,1.1-1.1C15.5,4.7,15.9,4.7,16.3,4.7z"/>
	<path d="M9.8,12c-0.4,0-0.9,0-1.3,0c-0.6-0.1-1.1-0.5-1.1-1.1c0-0.6,0.4-1,1-1.1c1-0.1,1.9-0.1,2.9,0c0.6,0,0.9,0.5,0.9,1.1
		c0,0.6-0.4,1-1,1.1C10.7,12,10.3,12,9.8,12C9.8,12,9.8,12,9.8,12z"/>
	<path d="M16.2,27.8c-0.4,0-0.8,0-1.2,0c-0.6,0-1.1-0.5-1.1-1c0-0.6,0.4-1.1,1.1-1.1c0.9,0,1.7,0,2.6,0c0.6,0,1,0.5,1,1.1
		c0,0.6-0.5,1-1.1,1.1c-0.2,0-0.5,0-0.7,0C16.7,27.8,16.4,27.8,16.2,27.8C16.2,27.8,16.2,27.8,16.2,27.8z"/>
	<path d="M16.3,32.9c-0.4,0-0.9,0-1.3,0c-0.6,0-1-0.4-1-1c-0.1-0.5,0.4-1.1,0.9-1.1c1-0.1,1.9-0.1,2.9,0c0.6,0,1,0.5,0.9,1.1
		c0,0.6-0.4,1-1,1C17.2,33,16.7,32.9,16.3,32.9z"/>
	<path d="M22.3,4.7c0.4,0,0.8,0,1.2,0c0.7,0,1.2,0.5,1.2,1.1c0,0.6-0.4,1.1-1.1,1.1c-0.8,0-1.7,0-2.5,0c-0.7,0-1.1-0.5-1.1-1.1
		c0-0.6,0.4-1.1,1.1-1.1C21.4,4.7,21.8,4.7,22.3,4.7z"/>
	<path d="M9.9,27.8c-0.5,0-0.9,0-1.4,0c-0.6-0.1-1.1-0.5-1.1-1.1c0-0.6,0.4-1.1,1.1-1.1c0.8,0,1.7,0,2.5,0c0.7,0,1.1,0.5,1.1,1.1
		c0,0.6-0.5,1-1.1,1.1C10.7,27.8,10.3,27.8,9.9,27.8C9.9,27.8,9.9,27.8,9.9,27.8z"/>
	<path d="M41.9,31.7c-0.5,0-1,0-1.4,0c-0.8,0-1.3-0.5-1.3-1.1c0-0.6,0.5-1.1,1.3-1.1c0.9,0,1.9,0,2.8,0c0.8,0,1.3,0.5,1.3,1.1
		c0,0.6-0.5,1.1-1.3,1.1C42.8,31.7,42.4,31.7,41.9,31.7C41.9,31.7,41.9,31.7,41.9,31.7z"/>
	<path d="M41.8,36.6c-0.5,0-1,0-1.4,0c-0.7,0-1.2-0.5-1.2-1c0-0.6,0.4-1.1,1.1-1.2c1.1-0.1,2.2-0.1,3.2,0c0.7,0,1.1,0.5,1.1,1.1
		c0,0.6-0.5,1-1.1,1.1C42.9,36.6,42.3,36.6,41.8,36.6C41.8,36.6,41.8,36.6,41.8,36.6z"/>
	<path d="M27.9,31.6c-0.5,0-1,0-1.5,0c-0.8-0.1-1.2-0.5-1.2-1.1c0-0.6,0.5-1.1,1.2-1.1c1,0,2,0,3,0c0.8,0,1.2,0.5,1.2,1.2
		c0,0.6-0.5,1-1.2,1.1C28.9,31.7,28.4,31.6,27.9,31.6z"/>
	<path d="M35,29.4c0.5,0,1,0,1.4,0c0.8,0,1.3,0.5,1.3,1.1c0,0.6-0.5,1.1-1.2,1.1c-1,0-2,0-3,0c-0.7,0-1.2-0.5-1.2-1.1
		c0-0.6,0.4-1,1.2-1.1c0.1,0,0.1,0,0.2,0C34,29.4,34.5,29.4,35,29.4C35,29.4,35,29.4,35,29.4z"/>
	<path d="M34.9,21.6c-0.5,0-1,0-1.5,0c-0.7,0-1.2-0.5-1.2-1.1c0-0.6,0.4-1.1,1.2-1.1c1,0,2.1,0,3.1,0c0.7,0,1.1,0.5,1.2,1
		c0,0.6-0.5,1.1-1.1,1.1C36,21.6,35.4,21.6,34.9,21.6z"/>
	<path d="M35,24.4c0.5,0,1,0,1.5,0c0.7,0,1.1,0.5,1.2,1.1c0,0.6-0.5,1.1-1.2,1.1c-1,0-2.1,0-3.1,0c-0.7,0-1.2-0.5-1.2-1.1
		c0-0.6,0.5-1,1.2-1.1c0,0,0.1,0,0.1,0C34,24.4,34.5,24.4,35,24.4C35,24.4,35,24.4,35,24.4z"/>
	<path d="M27.9,21.6c-0.5,0-1.1,0-1.6,0c-0.7,0-1.2-0.5-1.2-1.1c0-0.6,0.5-1,1.1-1.1c1.1,0,2.1,0,3.2,0c0.7,0,1.1,0.5,1.1,1.1
		c0,0.6-0.5,1.1-1.2,1.1C29,21.6,28.5,21.6,27.9,21.6z"/>
	<path d="M41.8,21.6c-0.5,0-1,0-1.5,0c-0.7,0-1.1-0.5-1.1-1.1c0-0.6,0.4-1.1,1.1-1.1c1.1,0,2.2,0,3.2,0c0.6,0,1.1,0.5,1.1,1.1
		c0,0.6-0.5,1-1.1,1.1c0,0-0.1,0-0.1,0C42.8,21.6,42.3,21.6,41.8,21.6C41.8,21.6,41.8,21.6,41.8,21.6z"/>
	<path d="M41.8,26.6c-0.5,0-1,0-1.5,0c-0.7,0-1.2-0.5-1.2-1.1c0-0.6,0.4-1.1,1.1-1.1c1.1,0,2.2,0,3.2,0c0.6,0,1.1,0.5,1.1,1.1
		c0,0.5-0.5,1-1.1,1.1C42.9,26.6,42.4,26.6,41.8,26.6C41.8,26.6,41.8,26.6,41.8,26.6z"/>
	<path d="M27.9,26.6c-0.5,0-1,0-1.5,0c-0.7,0-1.2-0.5-1.2-1.1c0-0.6,0.5-1.1,1.2-1.1c1,0,2.1,0,3.1,0c0.7,0,1.2,0.5,1.2,1.1
		c0,0.6-0.5,1-1.2,1.1c0,0-0.1,0-0.1,0C28.8,26.6,28.4,26.6,27.9,26.6C27.9,26.6,27.9,26.6,27.9,26.6z"/>
</g>
</svg>
