<?xml version="1.0" encoding="utf-8"?>
<!-- Generator: Adobe Illustrator 22.0.0, SVG Export Plug-In . SVG Version: 6.00 Build 0)  -->
<svg version="1.1" id="Capa_1" xmlns="http://www.w3.org/2000/svg" xmlns:xlink="http://www.w3.org/1999/xlink" x="0px" y="0px"
	 viewBox="0 0 21 19" style="enable-background:new 0 0 21 19;" xml:space="preserve">
<style type="text/css">
	.st0{fill:#00E500;}
</style>
<path class="st0" d="M12.5,17.7l8.2-14.1c0.8-1.4-0.1-2.9-1.7-2.9H2.7c-1.2,0-2,0.7-2,1.7c0,0.4,0.1,0.8,0.3,1.1l8.2,14.1
	c0.4,0.7,1,1.1,1.7,1.1S12.1,18.4,12.5,17.7L12.5,17.7z M10.6,16.9L2.5,2.8C2.4,2.6,2.4,2.5,2.4,2.5l0,0c0,0,0.1-0.1,0.3-0.1H19
	c0.2,0,0.3,0.1,0.3,0.1c0,0,0,0.1-0.1,0.3l-8.2,14.1c-0.1,0.2-0.2,0.3-0.2,0.3C10.8,17.2,10.7,17.1,10.6,16.9L10.6,16.9z"/>
</svg>
