<?xml version="1.0" encoding="utf-8"?>
<!-- Generator: Adobe Illustrator 22.0.0, SVG Export Plug-In . SVG Version: 6.00 Build 0)  -->
<svg version="1.1" id="Capa_1" xmlns="http://www.w3.org/2000/svg" xmlns:xlink="http://www.w3.org/1999/xlink" x="0px" y="0px"
	 viewBox="0 0 134 84" style="enable-background:new 0 0 134 84;" xml:space="preserve">
<style type="text/css">
	.st0{display:none;fill:#101012;}
	.st1{opacity:0.9992;}
	.st2{fill:#9B6B74;}
</style>
<path class="st0" d="M130.3,63.9c-1.7,0-3.1-0.7-3.1-1.5s1.4-1.5,3.1-1.5s3.1,0.7,3.1,1.5C133.4,63.2,132,63.9,130.3,63.9z
	 M124.3,61.5c-0.6-0.6-0.1-2.1,1.1-3.3s2.7-1.7,3.3-1.1c0.6,0.6,0.1,2.1-1.1,3.3C126.3,61.6,124.9,62.1,124.3,61.5z M86.7,61.9h34.4
	v1H86.7V61.9z M117,47.3l-2.2-12.1l-1.5,11.6l-1.8-0.2l2-15.9l1.9,0.2l2.2,12.1l1.5-11.6l1.8,0.2l-2,15.9L117,47.3z M107.1,41.3
	c-0.2,1.9-0.6,3.2-1.3,3.9c-0.7,0.7-1.6,1-2.7,0.9s-2-0.5-2.5-1.3s-0.7-2.2-0.6-4.1l0.6-6.4c0.2-1.9,0.6-3.2,1.3-3.9
	c0.7-0.7,1.6-1,2.7-0.9s2,0.5,2.5,1.3s0.7,2.2,0.6,4.1L107.1,41.3z M104.5,30.9c-0.6-0.1-1,0.1-1.4,0.6c-0.4,0.4-0.6,1.3-0.7,2.5
	l-0.6,7.1c-0.1,1.2,0,2.1,0.2,2.6c0.3,0.5,0.7,0.8,1.2,0.8c1.2,0.1,1.9-0.9,2-3.1l0.6-7.1C106.1,32.2,105.7,31,104.5,30.9z
	 M92.6,30.1c-1.1-0.1-1.7,0.7-1.8,2.4c0,0.7,0,1.3,0.1,1.8s0.4,0.9,0.9,1.3l1.7,1.5c0.4,0.3,0.7,0.6,1,0.9c0.2,0.3,0.5,0.7,0.7,1.4
	c0.2,0.6,0.3,1.3,0.2,2.2c-0.1,1.5-0.5,2.5-1.1,3c-0.7,0.6-1.5,0.8-2.6,0.7s-1.9-0.5-2.5-1.2s-0.9-2-0.9-3.8l1.7-0.2
	c0,1.3,0.1,2.2,0.4,2.8s0.7,0.9,1.3,0.9c1.2,0.1,1.8-0.7,1.9-2.3c0.1-1.2-0.3-2.2-1.1-2.9l-1.8-1.5c-1.3-1.1-1.9-2.5-1.8-4.4
	c0.1-1.6,0.5-2.7,1.1-3.3c0.6-0.6,1.5-0.9,2.5-0.8s1.8,0.4,2.4,1c0.5,0.6,0.8,1.7,0.9,3.2L94,33.1C94.2,31.2,93.7,30.2,92.6,30.1z
	 M92.9,12.4l-1.8-1.8l-1.8,1.8L88.8,12l1.8-1.8l-1.8-1.8l0.5-0.5l1.8,1.8l1.8-1.8l0.5,0.5l-1.8,1.8l1.8,1.8L92.9,12.4z M87.6,77.1
	l-0.7,0.2c-0.1-0.4-0.1-0.7-0.3-0.9c-0.1-0.2-0.3-0.2-0.5-0.2s-0.4,0.1-0.5,0.3c-0.1,0.2-0.2,0.6-0.1,1.1l0.1,3
	c0,0.5,0.1,0.9,0.2,1.1s0.3,0.3,0.5,0.3c0.5,0,0.7-0.5,0.7-1.4v-1.2h-0.8v-0.6l1.5-0.1l0.1,3.6h-0.5l-0.2-0.6
	c-0.2,0.5-0.5,0.8-1,0.8c-0.4,0-0.7-0.1-1-0.4c-0.2-0.3-0.4-0.9-0.4-1.7l-0.1-2.7c0-0.9,0.1-1.5,0.3-1.8c0.3-0.3,0.6-0.5,1-0.5
	s0.8,0.1,1,0.3C87.4,76.1,87.5,76.5,87.6,77.1z M81.3,14.1c-0.7,0-1.2-0.2-1.6-0.7c-0.3-0.4-0.5-0.9-0.5-1.4l0.4-3.8
	c0-0.3-0.1-0.6-0.2-0.8c-0.2-0.2-0.4-0.3-0.8-0.3s-0.7,0.2-0.9,0.5c-0.3,0.3-0.4,0.7-0.5,1.2c-0.4,3.1-0.6,4.8-0.7,5.1h-2.3l0.1-0.5
	c-0.5,0.4-1,0.5-1.7,0.5s-1.2-0.2-1.6-0.7c-0.3-0.4-0.5-0.9-0.5-1.4L70.9,8c0-0.3-0.1-0.6-0.2-0.8c-0.2-0.2-0.4-0.3-0.8-0.3
	S69.2,7,69,7.3c-0.2,0.3-0.4,0.6-0.5,1.1c-0.1,0.7-0.2,1.6-0.4,2.9c-0.2,1.3-0.3,2.1-0.3,2.4h-2.3C66.3,7,66.8,2.7,67,1.1
	C67.2,1,67.6,1,68,1c0.9,0,1.3,0.3,1.3,0.8v0.1c-0.2,1.8-0.4,3.4-0.6,4.7C69.3,6,70,5.7,70.8,5.7s1.4,0.2,1.8,0.6s0.7,0.9,0.7,1.5
	c0,0.2,0,0.5-0.1,0.9c-0.3,1.7-0.4,2.7-0.4,3c0,0.5,0.2,0.8,0.5,0.8s0.6-0.2,1-0.6c0.1-0.1,0.2-0.2,0.3-0.4l0.7-5.6
	c0.5-0.1,0.8-0.2,1.1-0.2c0.8,0,1.2,0.3,1.2,0.8c0.6-0.5,1.2-0.8,2-0.8s1.4,0.2,1.8,0.6C81.8,6.7,82,7.2,82,7.8c0,0.2,0,0.5-0.1,0.9
	c-0.3,1.7-0.4,2.8-0.4,3c0,0.5,0.2,0.8,0.5,0.8c0.8,0,1.4-0.8,1.8-2.4c0.4,0.4,0.6,0.7,0.7,1C83.9,13.1,82.8,14.1,81.3,14.1z
	 M71.2,29.7h-3.9v5.8h3.6V37h-3.6v5.8h4v1.5h-5.8l-0.1-16h5.7L71.2,29.7z M65.6,63.3c0,0.7-0.1,1.1-0.3,1.4
	c-0.2,0.3-0.5,0.4-0.9,0.4s-0.7-0.1-0.9-0.4s-0.3-0.7-0.3-1.4V61c0-0.7,0.1-1.1,0.3-1.4c0.2-0.3,0.5-0.4,0.9-0.4s0.7,0.1,0.9,0.4
	c0.2,0.3,0.3,0.7,0.3,1.4V63.3z M64.9,60.9c0-0.8-0.2-1.2-0.6-1.2c-0.2,0-0.4,0.1-0.5,0.2c-0.1,0.2-0.2,0.5-0.2,0.9v2.5
	c0,0.4,0.1,0.7,0.2,0.9c0.1,0.2,0.3,0.2,0.5,0.2c0.4,0,0.6-0.4,0.6-1.2V60.9z M60.7,14.1c-1.2,0-2.2-0.3-2.9-1
	c-0.6-0.6-0.9-1.3-1-2.1c-0.1,0-0.2,0.1-0.2,0.1c-0.4,0.2-0.8,0.3-1,0.4l-0.6,4c-0.2,1.1-0.5,1.9-1.2,2.4c-0.6,0.5-1.3,0.8-2.1,0.8
	s-1.4-0.3-1.8-0.8c-0.4-0.6-0.7-1.2-0.7-1.9c0-1.8,1.3-3.4,3.9-4.8l0.2-1.4c0.2-2,0.4-3.7,0.7-5.1c-0.7,0.3-1.3,0.4-2.1,0.4
	s-1.3-0.2-1.7-0.6S49.5,3.6,49.5,3s0.2-1.1,0.7-1.5s1-0.5,1.7-0.5c0.4,0,1,0.1,1.8,0.4s1.4,0.4,1.8,0.4c0.8,0,1.4-0.2,2-0.6
	C57.8,1.5,58,2,58,2.6c0,0.1,0,0.2,0,0.3c-0.2-0.1-0.4-0.1-0.5-0.1c-0.2,0-0.3,0.1-0.5,0.3S56.7,3.6,56.7,4l-0.9,6
	c0.4-0.2,0.7-0.3,1-0.5c0.1-1,0.6-1.9,1.3-2.6c0.9-0.9,2-1.3,3.4-1.3c1.1,0,1.9,0.3,2.6,1s1.1,1.5,1.1,2.5c0,1.5-0.4,2.7-1.3,3.5
	C62.9,13.7,61.9,14.1,60.7,14.1z M50.5,15.8c0,0.3,0.1,0.6,0.2,0.8c0.2,0.3,0.4,0.4,0.7,0.4s0.5-0.1,0.7-0.3
	c0.2-0.2,0.3-0.4,0.4-0.8l0.4-3.2C51.3,13.7,50.5,14.7,50.5,15.8z M52.5,3.2C52,3.1,51.7,3,51.7,3c-0.3,0-0.4,0.1-0.4,0.4
	c0,0.2,0.1,0.3,0.3,0.4C51.7,4,52,4.1,52.4,4.1s0.9-0.2,1.5-0.5C53.4,3.5,53,3.3,52.5,3.2z M62.3,7.9c-0.3-0.5-0.7-0.7-1.2-0.7
	s-1,0.3-1.4,0.9s-0.6,1.4-0.6,2.3c0,0.7,0.1,1.2,0.4,1.6c0.3,0.4,0.7,0.7,1.2,0.7s1-0.3,1.4-0.9c0.4-0.6,0.6-1.3,0.6-2.1
	C62.7,8.9,62.5,8.3,62.3,7.9z M45.2,39.2l-1,0.1l0.3,5.7h-1.9l-0.9-16l2.8-0.2c1.1-0.1,2,0.3,2.7,1s1,2,1.1,4v0.1
	c0.1,1.9-0.1,3.3-0.7,4C47.2,38.7,46.3,39.2,45.2,39.2z M46.6,34.3v-0.7c-0.1-2.2-0.8-3.3-1.9-3.3l-1,0.1l0.4,7.4l1-0.1
	C46.2,37.7,46.8,36.6,46.6,34.3z M44.7,12.4l-1.8-1.8L41,12.4L40.6,12l1.8-1.8l-1.8-1.8L41,7.9l1.8,1.8l1.8-1.8l0.5,0.5l-1.8,1.8
	l1.8,1.8L44.7,12.4z M30.8,29.9l5.7-0.5l0.1,1.5l-3.9,0.3l0.5,5.8l3.6-0.3l0.1,1.5l-3.6,0.3l0.5,5.8l4-0.3l0.1,1.5L32.1,46
	L30.8,29.9z M26,46.5l-1.8,0.2l-1.7-14.5l-2.2,0.3L20.1,31l6.2-0.7l0.2,1.5L24.3,32L26,46.5z M15,48.3c-1.1,0.2-2-0.1-2.7-0.7
	c-0.7-0.6-1.3-1.8-1.7-3.5l1.7-0.6c0.3,1.3,0.6,2.2,1,2.7s0.9,0.7,1.4,0.6c1.2-0.2,1.7-1.1,1.4-2.7c-0.2-1.2-0.7-2.1-1.6-2.6l-2-1.1
	c-1.5-0.8-2.4-2.1-2.7-4c-0.2-1.6-0.1-2.7,0.4-3.4s1.3-1.2,2.3-1.3c1-0.2,1.9,0,2.5,0.5c0.7,0.5,1.2,1.5,1.5,3l-1.7,0.6
	c-0.4-1.9-1.1-2.8-2.1-2.6c-1.1,0.2-1.5,1.1-1.2,2.7c0.1,0.7,0.3,1.3,0.5,1.7s0.6,0.8,1.1,1.1l2,1.1c0.5,0.2,0.9,0.5,1.1,0.7
	c0.3,0.2,0.6,0.6,0.9,1.2c0.3,0.6,0.6,1.2,0.7,2.1c0.2,1.4,0.1,2.5-0.5,3.2C16.9,47.7,16.1,48.1,15,48.3z M9.8,61.5
	c-0.6,0.6-2.1,0.1-3.3-1.1c-1.2-1.2-1.7-2.7-1.1-3.3C6,56.5,7.5,57,8.7,58.2S10.4,60.9,9.8,61.5z M6.8,62.4c0,0.8-1.4,1.5-3.1,1.5
	s-3.1-0.7-3.1-1.5s1.4-1.5,3.1-1.5S6.8,61.5,6.8,62.4z M9.8,63.3c0.6,0.6,0.1,2.1-1.1,3.3S6,68.3,5.4,67.7s-0.1-2.1,1.1-3.3
	C7.7,63.2,9.1,62.7,9.8,63.3z M47.1,62.9H12.9v-1h34.3L47.1,62.9L47.1,62.9z M33.3,76.8c0.1-0.9,0.2-1.4,0.5-1.7
	c0.3-0.3,0.7-0.4,1.1-0.4c0.4,0,0.8,0.2,1,0.4c0.2,0.2,0.3,0.7,0.3,1.3l-0.7,0.1c0-0.4-0.1-0.7-0.2-0.9c-0.1-0.2-0.3-0.3-0.5-0.3
	s-0.4,0.1-0.5,0.3c-0.1,0.2-0.2,0.6-0.3,1.1l-0.2,3c0,0.5,0,0.9,0.1,1.1s0.3,0.3,0.5,0.3c0.5,0,0.8-0.4,0.9-1.3l0.1-1.2l-0.8-0.1
	v-0.6l1.5,0.1l-0.3,3.6h-0.5l-0.1-0.7c-0.2,0.5-0.6,0.8-1.1,0.7c-0.4,0-0.7-0.2-0.9-0.6c-0.2-0.3-0.3-0.9-0.2-1.8L33.3,76.8z
	 M39.7,75.2c0.5,0,0.9,0.2,1.1,0.5c0.2,0.3,0.3,0.9,0.3,1.7l0,0c-0.1,1-0.3,1.6-0.9,1.9l0.6,2.9L40,82.1l-0.6-2.7h-0.5L38.8,82H38
	l0.4-6.9L39.7,75.2z M39.5,78.8c0.5,0,0.8-0.4,0.8-1.3v-0.3c0-0.5,0-0.9-0.1-1.1s-0.3-0.3-0.5-0.3h-0.4l-0.2,3L39.5,78.8z M45,75.5
	l0.9,7h-0.8l-0.2-1.8l-1.4-0.1l-0.4,1.8h-0.8l1.6-6.8L45,75.5z M44.9,79.9l-0.4-3.5l-0.8,3.4L44.9,79.9z M49.2,75.7
	c0.5,0,0.9,0.2,1.1,0.5c0.3,0.3,0.4,0.9,0.3,1.7l0,0c0,0.8-0.2,1.4-0.5,1.7c-0.3,0.3-0.7,0.4-1.2,0.4h-0.4l-0.1,2.4h-0.8l0.3-6.9
	L49.2,75.7z M49,79.5c0.5,0,0.8-0.5,0.8-1.4v-0.3c0-1-0.2-1.5-0.7-1.5h-0.4l-0.1,3.2L49,79.5z M53.3,75.8L53.2,79h1.5l0.1-3.1h0.8
	l-0.2,6.9h-0.8l0.1-3.1h-1.5l-0.2,3h-0.8l0.2-6.9L53.3,75.8z M58.5,76l-0.2,6.9h-0.8l0.2-6.9H58.5z M60,62.1l-1.4,2.3h1.9v0.5h-2.4
	v-0.4c0-0.3,0-0.5,0.1-0.7s0.3-0.6,0.6-1l0.7-1c0.3-0.4,0.4-0.8,0.4-1.2c0-0.3,0-0.5-0.2-0.6c-0.1-0.1-0.2-0.2-0.4-0.2
	S59,59.9,58.9,60c-0.1,0.2-0.2,0.4-0.2,0.8l-0.6-0.1c0-0.5,0.2-0.9,0.4-1.1c0.2-0.2,0.5-0.3,0.8-0.3c0.4,0,0.7,0.1,0.9,0.3
	s0.3,0.5,0.3,1C60.5,61.1,60.4,61.6,60,62.1z M59.9,28.3l0.4,16h-1.8l-0.2-7.2l-3.5,0.1l0.2,7.2h-1.8l-0.4-16l1.8-0.1l0.2,7.3
	l3.5-0.1l-0.2-7.3L59.9,28.3z M60.9,76.3c0.3-0.3,0.6-0.5,1.1-0.5c0.4,0,0.8,0.1,1,0.4c0.2,0.2,0.4,0.6,0.4,1.2l-0.7,0.2
	c0-0.4-0.1-0.7-0.2-0.9c-0.1-0.2-0.3-0.2-0.5-0.2s-0.4,0.1-0.5,0.3c-0.1,0.2-0.2,0.6-0.2,1.1V81c0,0.5,0,0.9,0.2,1.1
	c0.1,0.2,0.3,0.3,0.5,0.3s0.4-0.1,0.5-0.3c0.1-0.2,0.2-0.5,0.2-1l0.7,0.1c-0.1,0.7-0.2,1.1-0.5,1.4c-0.2,0.3-0.6,0.4-1,0.4
	s-0.8-0.2-1.1-0.5s-0.4-0.9-0.4-1.8V78C60.5,77.2,60.6,76.7,60.9,76.3z M69.4,65.1c-0.4,0-0.7-0.1-0.9-0.4c-0.2-0.3-0.3-0.7-0.3-1.4
	V61c0-0.7,0.1-1.1,0.3-1.4c0.2-0.3,0.5-0.4,0.9-0.4s0.7,0.1,0.9,0.4c0.2,0.3,0.3,0.7,0.3,1.4v2.3c0,0.7-0.1,1.1-0.3,1.4
	C70.1,64.9,69.8,65.1,69.4,65.1z M70,60.9c0-0.8-0.2-1.2-0.6-1.2c-0.2,0-0.4,0.1-0.5,0.2c-0.1,0.2-0.2,0.5-0.2,0.9v2.5
	c0,0.4,0.1,0.7,0.2,0.9c0.1,0.2,0.3,0.2,0.5,0.2c0.4,0,0.6-0.4,0.6-1.2V60.9z M70.1,76.5c0.3,0.3,0.4,0.9,0.4,1.7v2.5
	c0,0.8-0.1,1.4-0.4,1.7C69.9,82.8,69.5,83,69,83h-1.3v-6.9H69C69.4,76.1,69.8,76.2,70.1,76.5z M68.4,82.3H69c0.5,0,0.8-0.5,0.8-1.4
	v-2.8c0-0.9-0.3-1.4-0.8-1.4h-0.6V82.3z M75,76.6h-1.7v2.5h1.5v0.6h-1.5v2.5H75v0.6h-2.5V76H75V76.6z M74.4,65.1
	c-0.4,0-0.7-0.1-0.9-0.4c-0.2-0.2-0.3-0.7-0.3-1.3v-2.3c0-0.7,0.1-1.2,0.3-1.4c0.2-0.3,0.5-0.4,0.9-0.4s0.6,0.1,0.8,0.3
	c0.2,0.2,0.3,0.5,0.4,1L75,60.7c0-0.3-0.1-0.6-0.2-0.7c-0.1-0.1-0.2-0.2-0.4-0.2s-0.3,0-0.4,0.2s-0.2,0.5-0.2,0.9v1
	c0.2-0.2,0.4-0.3,0.8-0.3c0.3,0,0.6,0.1,0.8,0.4c0.2,0.2,0.3,0.7,0.3,1.3s-0.1,1.1-0.3,1.3C75.1,64.9,74.8,65.1,74.4,65.1z
	 M75.1,63.3c0-0.7-0.2-1.1-0.6-1.1s-0.6,0.3-0.6,1v0.3c0,0.7,0.2,1.1,0.6,1.1s0.6-0.4,0.6-1.1V63.3z M78.3,28.4l3.4,11.8L82,28.5
	h1.8l-0.4,16l-1.9-0.1l-3.4-11.8l-0.3,11.7H76l0.4-16L78.3,28.4z M77.9,82c0.1,0.2,0.3,0.3,0.6,0.3c0.5,0,0.8-0.4,0.8-1.1
	c0-0.5-0.2-0.9-0.6-1.2l-0.8-0.6c-0.6-0.4-0.9-1-0.9-1.8c0-0.7,0.1-1.2,0.4-1.4c0.3-0.3,0.6-0.4,1.1-0.4s0.8,0.1,1.1,0.4
	c0.3,0.2,0.4,0.7,0.5,1.4l-0.7,0.2c0-0.8-0.3-1.3-0.8-1.2c-0.5,0-0.7,0.4-0.7,1.1c0,0.3,0,0.6,0.1,0.8c0.1,0.2,0.2,0.4,0.4,0.5
	l0.8,0.6c0.2,0.1,0.3,0.2,0.5,0.4c0.1,0.1,0.2,0.3,0.3,0.6c0.1,0.3,0.2,0.6,0.2,0.9c0,0.6-0.1,1.1-0.4,1.3c-0.4,0-0.8,0.2-1.3,0.2
	s-0.8-0.1-1.1-0.4c-0.3-0.3-0.4-0.8-0.5-1.6l0.7-0.1C77.7,81.4,77.8,81.8,77.9,82z M82.8,82.7H82l-0.2-6.9h0.8L82.8,82.7z
	 M92.4,80.5l-0.3-5h0.8l0.4,6.9h-0.8l-1.9-4.9l0.3,5h-0.8l-0.4-6.9h0.8L92.4,80.5z M97.5,75.7l-1.7,0.1l0.2,2.5l1.5-0.1v0.6L96.1,79
	l0.2,2.5l1.7-0.1V82l-2.5,0.2L95,75.3l2.5-0.2V75.7z M101.9,75.3c0.3,0.3,0.5,0.8,0.5,1.6V77c0.1,1-0.1,1.6-0.6,2l1,2.8l-0.8,0.1
	l-1-2.6h-0.5l0.2,2.6L99.9,82l-0.4-7l1.2-0.1C101.2,74.8,101.6,75,101.9,75.3z M100.5,78.5h0.4c0.5,0,0.7-0.5,0.7-1.4v-0.3
	c0-0.5-0.1-0.8-0.3-1c-0.2-0.2-0.3-0.3-0.6-0.3h-0.4L100.5,78.5z M127.5,64.4c1.2,1.2,1.7,2.7,1.1,3.3c-0.6,0.6-2.1,0.1-3.3-1.1
	c-1.2-1.2-1.7-2.7-1.1-3.3C124.9,62.7,126.3,63.2,127.5,64.4z"/>
<g>
	<g class="st1">
		<path class="st2" d="M60.7,81.7c-10.3-1.3-19.5-6.6-26-14.9c-0.1-0.1-0.2-0.1-0.3,0s-0.1,0.2,0,0.3c3.2,4.1,7.1,7.5,11.6,10.1
			c4.6,2.6,9.5,4.3,14.8,5l0,0c0.1,0,0.2-0.1,0.2-0.2S60.9,81.7,60.7,81.7z"/>
		<path class="st2" d="M97,66.6c-0.1-0.1-0.3-0.1-0.3,0C90.2,75,80.8,80.4,70.4,81.7c-0.1,0-0.2,0.1-0.2,0.3c0,0.1,0.1,0.2,0.2,0.2
			l0,0c5.3-0.6,10.3-2.3,15-5c4.5-2.6,8.5-6.1,11.7-10.2C97.2,66.9,97.1,66.7,97,66.6z"/>
		<path class="st2" d="M70.5,1.8c9.7,1.2,18.6,6.1,25,13.6c0,0.1,0.1,0.1,0.2,0.1s0.1,0,0.2-0.1s0.1-0.2,0-0.4
			C89.4,7.4,80.4,2.5,70.6,1.3c-0.1,0-0.3,0.1-0.3,0.2C70.3,1.7,70.4,1.8,70.5,1.8z"/>
		<path class="st2" d="M60.7,1.3c-9.7,1.2-18.6,6-25,13.5c-0.1,0.1-0.1,0.3,0,0.4c0,0,0.1,0.1,0.2,0.1c0.1,0,0.1,0,0.2-0.1
			C42.4,7.7,51.2,3,60.7,1.8c0.1,0,0.2-0.1,0.2-0.3C60.9,1.4,60.8,1.3,60.7,1.3z"/>
		<path class="st2" d="M65.7,0c-0.7,0-1.2,0.6-1.2,1.3s0.6,1.3,1.2,1.3C66.4,2.6,67,2,67,1.3S66.4,0,65.7,0z M65.7,2.1
			c-0.4,0-0.8-0.3-0.8-0.8c0-0.4,0.3-0.8,0.8-0.8c0.4,0,0.8,0.3,0.8,0.8C66.5,1.7,66.1,2.1,65.7,2.1z"/>
		<path class="st2" d="M65.7,80.7c-0.7,0-1.2,0.6-1.2,1.3c0,0.7,0.6,1.3,1.2,1.3c0.7,0,1.2-0.6,1.2-1.3C67,81.3,66.4,80.7,65.7,80.7
			z M65.7,82.7c-0.4,0-0.8-0.3-0.8-0.8c0-0.4,0.3-0.8,0.8-0.8c0.4,0,0.8,0.3,0.8,0.8C66.5,82.4,66.1,82.7,65.7,82.7z"/>
		<path class="st2" d="M94.9,28.7L94.9,28.7L94.9,28.7L94.9,28.7z"/>
		<path class="st2" d="M106.9,42L106.9,42L106.9,42z"/>
		<path class="st2" d="M102.2,61.6L102.2,61.6L102.2,61.6L102.2,61.6z"/>
		<path class="st2" d="M105.7,34.9L105.7,34.9L105.7,34.9L105.7,34.9z"/>
		<polygon class="st2" points="100.1,24.7 100.1,24.7 100.1,24.7 		"/>
		<path class="st2" d="M100.1,24.7L100.1,24.7L100.1,24.7z"/>
		<path class="st2" d="M97.9,22L97.9,22L97.9,22L97.9,22z"/>
		<path class="st2" d="M93.9,20.6L93.9,20.6L93.9,20.6z"/>
		<path class="st2" d="M99.9,33.2L99.9,33.2L99.9,33.2z"/>
		<path class="st2" d="M101.2,56.4L101.2,56.4L101.2,56.4z"/>
		<path class="st2" d="M97.6,21.6L97.6,21.6L97.6,21.6z"/>
		<path class="st2" d="M109,48.3c-1.9,0.2-2.9,2.3-3.9,3.8l0,0l0,0l0,0l0,0l0,0l0,0l0,0l0,0l0,0l0,0l0,0c-0.4,0.5-0.8,1-1.2,1.5
			c0.5-2.1,0.9-4.2,1.1-6.4c0,0,0,0,0,0.1c0-0.1,0-0.1,0-0.2l0,0c0-0.3,0.1-0.7,0.1-1c0.5-0.5,1.1-0.7,1.6-1.1c0,0,0,0,0.1,0l0,0
			l0,0l0,0c1.2-0.9,2.4-2.1,2.7-3.6c0.1-1.1-0.8-2-1.7-1.1c-1.1,1.6-1.6,3.5-2.6,5.2c0.1-2,0.1-4-0.2-6c2-1.9,4.1-4.7,3.6-7.6
			c-0.2-0.7-0.9-1.5-1.6-0.9l0,0c-1,1-0.9,2.7-1.2,4.1v0.1l0,0c0,0,0,0,0,0.1l0,0l0,0l0,0l0,0l0,0c-0.3,1.2-0.4,2.6-0.9,3.7
			c-0.3-2.1-0.4-4.2-1.2-6.1c3.6-6.3,0.2-10.9-0.7-6.9c-0.2,2.1,0.7,4,0.4,6.1c-0.5-2-1.6-3.7-2.7-5.4c0-0.1,0.1-0.3,0.1-0.4l0,0
			c2.3-6.5-2.4-7.3-0.8-1.5l0,0l0,0l0,0l0,0l0,0l0,0l0,0l0,0c0.1,0.5,0.3,1,0.4,1.5c-0.8-1-1.7-2.1-2.6-3c0-0.4-0.1-0.8,0-1.2l0,0
			l0,0c0.1-1.4,0.8-5.3-1.5-5.1l0,0l0,0l0,0c-1.3,1,0,3.3,0.4,4.6l0,0c0,0.1,0,0.1,0.1,0.2l0,0v0.1l0,0c0,0.1,0.1,0.2,0.1,0.3l0,0
			c0.1,0.2,0.1,0.4,0.2,0.5c-0.7-0.8-1.6-1.3-2.4-1.9c-1.1-1.2-2.5-2.2-4-2.8l0,0c-1.1-0.4-2.9,0.4-1.6,1.5s3.2,1,4.7,1.3
			c0.2,0,0.5,0.2,0.7,0.2c1.5,0.9,2.7,2.1,3.8,3.3c-1.6-0.9-5.3-1.4-6.1,0.8c0.5,0.9,1.6,0.9,2.5,0.7c1.3-0.2,2.6-1,3.9-1.1
			c0.4,0.5,0.9,1,1.3,1.6l0,0c0.5,0.7,0.9,1.4,1.4,2.1c-1.6-1.3-4-1.7-5.9-1.2c-1.8,0.6-1.2,2.3,0.5,2.1l0,0l0,0l0,0l0,0l0,0l0,0
			c6.7-0.7,5.5-2.2,7.9,6.1c-1.2-2.1-3.4-3.9-5.9-3.8c-0.8,0.2-1.4,0.9-0.6,1.6l0,0l0,0l0,0l0,0c1.5,2.2,4.6,1.5,6.6,2.8
			c0.3,2.4,0.7,4.8,0.7,7.2c-0.9-2.2-5.2-6.7-7.5-4.5c0,0-0.1,0.1,0,0.1c0,0.2,0.1,0.4,0.2,0.6l0,0l0,0l0,0c1.1,2.8,4.6,2.4,6.7,3.9
			l0.1,0.1l0,0c0.2,0.2,0.4,0.3,0.5,0.5c0,2.1-0.2,4.3-0.5,6.4c-0.1-0.2-0.2-0.5-0.3-0.7l0,0l0,0v-0.1l0,0c-1.8-6.8-8.5-6.9-5-2.5
			c1.6,1.2,3.4,2.2,5,3.6l0,0c0.1,0.1,0.1,0.1,0.2,0.2c-0.2,2.5-1.2,5-2.1,7.4c-0.5-8.3-6.5-9.3-3.9-4c1.2,1.6,2.8,2.9,3.5,4.9
			c-0.2,0.4-0.4,0.9-0.6,1.3c-0.2,0.4-0.4,0.8-0.6,1.3c-0.2,0.4-0.5,0.8-0.7,1.2c-0.3,0.4-0.5,0.8-0.8,1.2s-0.6,0.8-0.9,1.2
			c-0.1,0.2-0.1,0.3,0,0.4s0.2,0.1,0.4-0.2c0.2-0.3,0.7-0.8,0.9-1.1c0.1-0.2,0.3-0.4,0.4-0.6l0,0c8.4,0.3,8.8-8.6,2.5-2.7l0,0l0,0
			l0,0l0,0l0,0l0,0l0,0c-0.6,0.5-1.1,1-1.7,1.5c0.6-1,1-2,1.5-3.1c0.1,0,0.1-0.1,0.1-0.2c0.6-1.4,1.1-2.8,1.5-4.2
			c2.5-0.7,6.4-1.7,6.7-4.8C110.4,49,109.8,48.2,109,48.3z M109,40.3c0.9,2.2-1.9,4.2-3.5,5.1c1.2-1.7,2.6-3.3,3.4-5.3
			C108.9,40.2,108.9,40.3,109,40.3z M105.9,44.2c0.5-0.7,0.7-1.4,1-2.2l0,0l0,0l0,0c0.4-0.7,0.8-2,1.8-1.9c-0.3,1-0.9,1.9-1.5,2.8
			l0,0c0,0.1-0.1,0.1-0.1,0.2l0,0l0,0l0,0l0,0l0,0l0,0l0,0c-0.2,0.3-0.4,0.5-0.5,0.8l0,0c-0.4,0.5-0.8,1.1-1.2,1.6
			C105.5,45,105.7,44.6,105.9,44.2z M107.5,31.1L107.5,31.1c0-0.1,0-0.1,0-0.2c0,0,0.1,0,0.1,0.1c1.8,2-0.6,5.9-2.2,7.4
			C106.5,36.1,107.3,33.6,107.5,31.1z M105.3,38.1c0.7-1.7,0.5-6.6,2-7.1c-0.1,1.7-0.6,3.4-1.1,5.1c-0.3,0.9-0.6,1.8-1.1,2.6
			C105.3,38.4,105.3,38.2,105.3,38.1z M100.5,25.4c-0.3-1.3-1.1-3.4,0-4.5c-0.1,1.6-0.1,3.1,0,4.7C100.5,25.6,100.5,25.5,100.5,25.4
			z M92.9,20.2c-1-0.2-4.2-0.4-3.8-1.8c1.5,0.2,2.8,1.2,4.2,1.8C93.2,20.2,93,20.2,92.9,20.2z M93.3,19.8c-1.4-0.6-2.8-1.7-4.3-1.7
			c1.7-0.9,3.4,0.8,4.7,1.8C93.6,19.9,93.4,19.9,93.3,19.8z M97.3,22.1L97.3,22.1c-0.1-0.3-0.2-0.7-0.4-1l0,0c0,0,0,0,0-0.1l0,0l0,0
			l0,0l0,0l0,0l0,0l0,0c0,0,0,0,0-0.1l0,0c-0.3-1.1-1.2-2.8-0.4-3.8c0,0.1,0.1,0.3,0.1,0.4l0,0l0,0l0,0c0.1,0.9,0.2,1.9,0.4,2.8l0,0
			c0.1,0.4,0.1,0.8,0.2,1.2l0,0l0,0l0,0c0.1,0.3,0.1,0.7,0.1,1C97.5,22.4,97.4,22.2,97.3,22.1z M97.7,21.8L97.7,21.8
			C97.7,21.9,97.7,21.8,97.7,21.8C97.7,21.9,97.7,21.9,97.7,21.8c0,0-0.1-0.1-0.1-0.2c-0.2-0.5-0.2-1-0.4-1.5l0,0
			c-0.4-1-0.2-2-0.6-3h0.1C98.3,18,97.6,20.3,97.7,21.8L97.7,21.8z M97.9,24.4c-1.1,0.3-2.2,0.8-3.4,1l0,0l0,0l0,0
			c-0.7,0.1-1.5,0.2-1.9-0.5c0.7,0.1,1.5,0,2.2-0.2l0,0c0.5-0.1,0.9-0.1,1.4-0.2l0,0l0,0l0,0c0.6-0.1,1.2-0.3,1.8-0.2
			C98,24.4,97.9,24.4,97.9,24.4z M98.2,24.2c-0.9-0.1-1.7,0.1-2.6,0.1l0,0c-1,0.1-2,0.4-3,0.3c0-0.1,0.1-0.2,0.2-0.2
			c1.5-1.3,3.9-1.1,5.6-0.2C98.2,24.2,98.2,24.2,98.2,24.2z M100.7,20.9C100.7,20.9,100.7,21,100.7,20.9c0.2,0,0.2,0.1,0.3,0.2
			c0.8,1.5,0.2,3.5-0.2,5l0,0C100.7,24.4,100.7,22.7,100.7,20.9z M100.6,28.3L100.6,28.3c-0.1,0-0.1,0-0.2,0
			c-1.4,0.2-2.8,0.5-4.2,0.6l0,0c-0.4,0-0.9,0-1.3-0.2l0,0l0,0l0,0c-0.2-0.1-0.4-0.4-0.4-0.6c2.1,0.4,4.3-0.5,6.3,0.2
			C100.7,28.3,100.7,28.3,100.6,28.3z M95.7,28c-0.2,0-0.5,0-0.7,0l0,0h-0.1l0,0c-0.1,0-0.2,0-0.3,0l0,0l0,0l0,0h-0.1v-0.1
			c1.4-1.7,5.2-0.8,6.7,0.3C99.4,27.6,97.5,28,95.7,28z M104.1,24.6c2.1,1.8,0.6,5.4-0.4,7.5C104.2,29.6,104,27.1,104.1,24.6
			C104,24.5,104.1,24.6,104.1,24.6z M103.5,29.3c-0.1-0.8-0.3-1.6-0.3-2.5c0-0.8-0.1-1.9,0.7-2.3c0,2.4,0.2,4.9-0.3,7.3
			C103.6,31,103.7,30.1,103.5,29.3z M103,34.9c-1.9-0.5-4.9-0.5-5.6-2.7c0.3,0.1,0.5,0.4,0.8,0.4l0,0c0.3,0.1,0.6,0.2,0.9,0.3l0,0
			c0.1,0,0.2,0.1,0.3,0.1l0,0h0.1l0,0h0.1l0,0h0.1l0,0l0,0l0,0c0.1,0,0.1,0,0.2,0.1l0,0l0,0l0,0l0,0c0.9,0.3,1.7,0.7,2.4,1.2l0,0
			c0,0,0,0,0.1,0l0,0c0.3,0.2,0.6,0.3,0.9,0.6C103.2,35,103.1,34.9,103,34.9z M99.3,32.9L99.3,32.9c-0.2-0.1-0.5-0.2-0.7-0.2l0,0
			l0,0l0,0c-0.1,0-0.2-0.1-0.3-0.1l0,0c-0.1,0-0.1,0-0.2-0.1l0,0c0,0,0,0-0.1,0l0,0c-0.1-0.1-0.3-0.1-0.4-0.2l0,0
			c-0.1-0.1-0.2-0.1-0.3-0.2l0.1-0.1c2.1-1.1,4.7,1.1,6,2.8l0,0l0,0l0,0l0,0l0,0l0,0l0,0l0,0l0,0l0.1,0.1l0,0l0,0l0,0
			c0,0,0,0,0.1,0.1C102.3,34.1,100.9,33.3,99.3,32.9z M103.7,42.5c-2-1.1-5-0.9-6.1-3.3l0,0c-0.1-0.2-0.1-0.3-0.2-0.5
			c1.1,0.8,2.4,1.2,3.7,1.8c0.9,0.7,1.9,1.3,2.8,2.1C103.8,42.6,103.7,42.6,103.7,42.5z M100.1,39.9
			C100.1,39.9,100.2,39.9,100.1,39.9c-0.9-0.4-1.8-0.8-2.7-1.4l0,0c2.5-1.5,5.8,2.3,6.9,4.3C103.2,41.5,101.7,40.5,100.1,39.9z
			 M102.9,49.1c-1.6-1.4-4.6-2.1-4.7-4.6c1.9,1.3,3.4,3.1,4.9,4.7C103.1,49.2,103,49.2,102.9,49.1z M100.7,46.2L100.7,46.2
			L100.7,46.2L100.7,46.2L100.7,46.2L100.7,46.2L100.7,46.2L100.7,46.2L100.7,46.2L100.7,46.2C100.6,46.2,100.6,46.2,100.7,46.2
			C100.6,46.1,100.6,46.1,100.7,46.2c-0.8-0.7-1.5-1.4-2.3-1.9c0.1,0,0.1-0.1,0.2-0.1c2.6-0.3,4.2,2.8,5,4.9
			C102.7,48,101.6,47.1,100.7,46.2z M102.1,61c1.1-0.9,2.3-2.3,3.8-2.2c-1.1,1.5-3.1,2.2-4.7,3C101.5,61.5,101.8,61.3,102.1,61z
			 M102.2,61.6c1.4-0.7,3-1.4,3.9-2.7c0.1,0.1,0.1,0.3,0.1,0.5c-0.4,2.4-3.8,3.3-5.8,3.2C101,62.2,101.6,61.9,102.2,61.6z
			 M101.2,57.2c-1.1-1.9-4.1-3.4-3.3-6c0.9,1.5,1.6,3.2,2.7,4.6l0,0c0.4,0.6,0.7,1.2,0.8,1.9C101.4,57.5,101.3,57.3,101.2,57.2z
			 M101.2,56.4c-1.1-1.7-2.2-3.5-3.1-5.4c0.1,0,0.2,0,0.3,0c2.5,0.9,3,4.6,3.4,7C101.6,57.5,101.4,56.9,101.2,56.4z M104.5,53.1
			c1.5-1.4,2.5-4.8,5-4.3c-1.3,2.1-3.4,3.5-5.4,5C104.2,53.5,104.4,53.3,104.5,53.1z M110,50c-0.6,2.2-3.2,3.3-5.3,3.8
			c1.6-1.1,3.1-2.2,4.3-3.7l0,0c0,0,0-0.1,0.1-0.1l0,0c0.3-0.3,0.5-0.7,0.7-1C110,49.2,110,49.6,110,50z"/>
		<path class="st2" d="M109,49.9L109,49.9L109,49.9z"/>
		<path class="st2" d="M99.6,33.1L99.6,33.1L99.6,33.1z"/>
		<path class="st2" d="M96.7,17.6L96.7,17.6L96.7,17.6z"/>
		<path class="st2" d="M97.4,21.5L97.4,21.5L97.4,21.5z"/>
		<path class="st2" d="M36.3,28.7L36.3,28.7L36.3,28.7z"/>
		<path class="st2" d="M24.3,42L24.3,42L24.3,42z"/>
		<path class="st2" d="M33.2,22L33.2,22L33.2,22L33.2,22z"/>
		<path class="st2" d="M30,56.4L30,56.4L30,56.4z"/>
		<path class="st2" d="M25.4,34.9L25.4,34.9L25.4,34.9L25.4,34.9z"/>
		<path class="st2" d="M29,61.6C28.9,61.6,28.9,61.6,29,61.6C28.9,61.6,28.9,61.6,29,61.6C28.9,61.6,28.9,61.6,29,61.6z"/>
		<polygon class="st2" points="31,24.7 31,24.7 31,24.7 		"/>
		<path class="st2" d="M31,24.7L31,24.7L31,24.7z"/>
		<path class="st2" d="M37.2,20.6L37.2,20.6L37.2,20.6z"/>
		<path class="st2" d="M31.3,33.2L31.3,33.2L31.3,33.2z"/>
		<path class="st2" d="M33.6,21.6L33.6,21.6L33.6,21.6z"/>
		<path class="st2" d="M33.7,33c0.8-0.7,0.2-1.4-0.6-1.6c-2.5-0.1-4.7,1.7-5.9,3.8c2.4-8.3,1.2-6.8,7.9-6.1l0,0l0,0l0,0l0,0l0,0l0,0
			c1.7,0.2,2.3-1.5,0.5-2.1c-1.9-0.5-4.3-0.1-5.9,1.2c0.4-0.7,0.8-1.5,1.4-2.1l0,0c0.4-0.5,0.8-1,1.3-1.6c1.3,0.1,2.6,0.9,3.9,1.1
			c0.9,0.2,2,0.3,2.5-0.7c-0.7-2.1-4.5-1.7-6-0.8c1.1-1.3,2.3-2.5,3.8-3.3c0.2,0.1,0.4-0.2,0.7-0.2c1.6-0.3,3.4-0.2,4.8-1.3
			c1.4-1.2-0.5-2-1.6-1.5l0,0c-1.5,0.6-2.9,1.6-4,2.8c-0.8,0.6-1.7,1.1-2.4,1.9c0.1-0.2,0.1-0.4,0.2-0.5l0,0c0-0.1,0.1-0.2,0.1-0.3
			l0,0v-0.1l0,0c0-0.1,0-0.1,0.1-0.2l0,0c0.4-1.3,1.6-3.6,0.4-4.6l0,0l0,0l0,0c-2.2-0.2-1.5,3.7-1.5,5.1l0,0l0,0
			c0.1,0.4,0,0.8,0,1.2c-0.9,0.9-1.8,2-2.6,3c0.1-0.5,0.3-1,0.4-1.5l0,0l0,0l0,0l0,0l0,0l0,0l0,0l0,0c1.6-5.9-3-5.1-0.8,1.5l0,0
			c0,0.1,0.1,0.3,0.1,0.4c-1.1,1.7-2.2,3.4-2.7,5.4c-0.3-2.1,0.6-4,0.4-6.1c-0.9-4-4.3,0.6-0.7,6.9c-0.7,2-0.9,4.1-1.2,6.1
			c-0.5-1.2-0.6-2.5-0.9-3.7l0,0l0,0l0,0l0,0l0,0c0,0,0,0,0-0.1l0,0v-0.1c-0.3-1.3-0.1-3-1.2-4.1l0,0c-0.7-0.6-1.4,0.3-1.6,0.9
			c-0.5,2.9,1.6,5.7,3.6,7.6c-0.2,2-0.3,4-0.2,6c-1-1.7-1.5-3.6-2.6-5.2c-0.9-0.9-1.9,0-1.7,1.1c0.3,1.5,1.5,2.7,2.7,3.6l0,0l0,0
			l0,0c0,0,0,0,0.1,0c0.5,0.4,1.2,0.6,1.6,1.1c0,0.3,0.1,0.7,0.1,1l0,0c0,0.1,0,0.1,0,0.2c0,0,0,0,0-0.1c0.2,2.2,0.6,4.3,1.1,6.4
			c-0.3-0.6-0.7-1-1.2-1.5l0,0l0,0l0,0l0,0l0,0l0,0l0,0l0,0l0,0l0,0l0,0c-1-1.4-2-3.5-3.9-3.8c-0.8-0.1-1.4,0.7-1.3,1.5
			c0.4,3.1,4.3,4.1,6.7,4.8c0.4,1.4,1,2.9,1.5,4.2c0,0.1,0,0.2,0.1,0.2c0.4,1,0.9,2.1,1.5,3.1c-0.6-0.5-1.1-1-1.7-1.5l0,0l0,0l0,0
			l0,0l0,0l0,0l0,0c-6.3-5.9-5.9,2.9,2.5,2.7l0,0c0.2,0.2,0.3,0.4,0.4,0.6c0.2,0.3,0.7,0.9,0.9,1.1c0.3,0.3,0.4,0.3,0.4,0.2
			c0.1-0.1,0.1-0.2,0-0.4c-0.3-0.4-0.6-0.8-0.9-1.2c-0.3-0.4-0.5-0.8-0.8-1.2S31,61.4,30.8,61s-0.4-0.8-0.6-1.3
			c-0.2-0.4-0.4-0.9-0.6-1.3c0.8-1.9,2.3-3.2,3.5-4.9c2.6-5.2-3.4-4.2-3.9,4c-0.9-2.4-1.9-4.9-2.1-7.4c0.1-0.1,0.1-0.1,0.2-0.2l0,0
			c1.5-1.3,3.3-2.4,5-3.6c3.6-4.4-3.2-4.2-5,2.5l0,0v0.1l0,0l0,0c-0.1,0.2-0.2,0.5-0.3,0.7c-0.3-2.1-0.5-4.3-0.5-6.4
			c0.1-0.2,0.3-0.3,0.5-0.5l0,0l0.1-0.1c2-1.6,5.6-1.2,6.7-3.9l0,0l0,0l0,0c0.1-0.2,0.2-0.4,0.2-0.6c0-0.1,0-0.1,0-0.1
			c-2.3-2.1-6.6,2.4-7.5,4.5c0-2.4,0.4-4.8,0.7-7.2C29.1,34.5,32.2,35.2,33.7,33L33.7,33L33.7,33L33.7,33L33.7,33z M36.3,28.7
			L36.3,28.7L36.3,28.7L36.3,28.7c-0.4,0.2-0.9,0.2-1.3,0.2l0,0c-1.4-0.1-2.8-0.4-4.2-0.6c-0.1,0-0.1,0-0.2,0l0,0
			c-0.1,0-0.1,0-0.2,0c2.1-0.6,4.3,0.2,6.3-0.2C36.6,28.3,36.5,28.6,36.3,28.7z M36.7,27.8L36.7,27.8c0,0.1-0.1,0.1-0.1,0.1l0,0l0,0
			l0,0c-0.1,0-0.2,0-0.3,0l0,0h-0.1l0,0c-0.2,0-0.5,0-0.7,0c-1.8,0.1-3.7-0.3-5.5,0.2C31.5,27,35.3,26.1,36.7,27.8z M36.7,25.4
			L36.7,25.4L36.7,25.4C36.6,25.4,36.6,25.4,36.7,25.4c-1.2-0.2-2.2-0.7-3.4-1h-0.1c0.6-0.1,1.2,0,1.8,0.2l0,0l0,0l0,0
			c0.5,0.1,0.9,0.1,1.4,0.2l0,0c0.7,0.1,1.5,0.3,2.3,0.2C38.2,25.6,37.4,25.5,36.7,25.4z M38.4,24.4c0.1,0.1,0.1,0.1,0.2,0.2
			c-1,0.1-2-0.2-3-0.3l0,0c-0.9-0.1-1.7-0.2-2.6-0.1h-0.1C34.5,23.4,37,23.1,38.4,24.4z M38.2,20.2c-0.1,0-0.2,0-0.4,0
			c1.4-0.6,2.7-1.6,4.2-1.8C42.4,19.8,39.2,20,38.2,20.2z M42.2,18.2c-1.5-0.1-2.9,1.1-4.3,1.7c-0.1,0.1-0.3,0.1-0.4,0.2
			C38.8,19,40.5,17.2,42.2,18.2z M34.6,17.2c0.9,1,0,2.7-0.4,3.8l0,0c0,0,0,0,0,0.1l0,0l0,0l0,0l0,0l0,0l0,0l0,0c0,0,0,0,0,0.1l0,0
			c-0.1,0.3-0.3,0.7-0.4,1l0,0c-0.1,0.2-0.1,0.3-0.2,0.5c0-0.3,0.1-0.7,0.1-1l0,0l0,0l0,0c0.1-0.4,0.2-0.8,0.2-1.2l0,0
			c0.3-0.9,0.3-1.8,0.4-2.8l0,0l0,0l0,0C34.5,17.4,34.6,17.3,34.6,17.2z M34.4,17.1L34.4,17.1c-0.3,0.9-0.1,2-0.5,3l0,0
			c-0.1,0.5-0.2,1-0.4,1.5c0,0.1-0.1,0.2-0.1,0.3l0,0l0,0v-0.1l0,0C33.5,20.3,32.8,18,34.4,17.1z M30.7,21c1.2,1.1,0.3,3.2,0,4.5
			c0,0.1,0,0.1,0,0.2C30.7,24.1,30.7,22.5,30.7,21z M30.2,21.1c0.1-0.1,0.1-0.1,0.2-0.2c0,0,0,0,0.1,0c0,1.7,0,3.5,0,5.2l0,0
			C30,24.6,29.4,22.6,30.2,21.1z M27,24.6h0.1c0,2.5-0.2,5.1,0.3,7.5C26.4,30,24.9,26.3,27,24.6z M27.3,24.6
			c0.8,0.4,0.7,1.5,0.7,2.3s-0.2,1.6-0.3,2.5c-0.2,0.8-0.1,1.7-0.1,2.6C27.1,29.5,27.3,27,27.3,24.6z M23.5,31
			C23.5,31,23.6,30.9,23.5,31c0.1,0,0.1,0.1,0.1,0.1l0,0c0.2,2.5,1,5,2,7.3C24.2,36.9,21.7,32.9,23.5,31z M24.9,36
			c-0.5-1.7-1-3.3-1.1-5.1c1.6,0.5,1.4,5.5,2,7.1c0,0.2,0.1,0.3,0.1,0.5C25.5,37.8,25.2,36.9,24.9,36z M22.2,40.3
			c0.1-0.1,0.1-0.1,0.2-0.2c0.7,2,2.1,3.7,3.4,5.3C24.1,44.6,21.2,42.5,22.2,40.3z M24.7,43.8L24.7,43.8c-0.2-0.2-0.3-0.5-0.5-0.8
			l0,0l0,0l0,0l0,0l0,0l0,0l0,0c0-0.1-0.1-0.1-0.1-0.2l0,0c-0.6-0.9-1.2-1.8-1.5-2.8c1,0,1.4,1.2,1.8,1.9l0,0l0,0l0,0
			c0.3,0.8,0.5,1.5,1,2.2c0.2,0.4,0.4,0.8,0.6,1.2C25.5,44.9,25.1,44.3,24.7,43.8z M21.2,50c-0.1-0.4,0-0.8,0.3-1.1
			c0.2,0.4,0.4,0.7,0.7,1l0,0c0,0,0,0.1,0.1,0.1l0,0c1.2,1.5,2.7,2.7,4.3,3.7C24.4,53.3,21.8,52.2,21.2,50z M21.6,48.7
			c2.5-0.5,3.5,2.9,5,4.3c0.2,0.2,0.3,0.4,0.4,0.6C25.1,52.3,23,50.8,21.6,48.7z M29.1,61c0.3,0.3,0.6,0.5,0.9,0.8
			c-1.6-0.8-3.6-1.5-4.7-3C26.8,58.7,27.9,60.1,29.1,61z M30.7,62.6c-2.1,0-5.4-0.8-5.8-3.2c0-0.2,0-0.3,0.1-0.5
			c0.9,1.3,2.5,1.9,3.9,2.7C29.6,61.9,30.2,62.2,30.7,62.6z M30,57.2c-0.1,0.2-0.2,0.3-0.3,0.5c0.2-0.7,0.4-1.3,0.8-1.9l0,0
			c1.1-1.4,1.9-3,2.7-4.6C34,53.7,31.1,55.2,30,57.2z M32.8,51c0.1,0,0.2,0,0.3,0c-0.9,1.9-2,3.6-3.1,5.4c-0.3,0.5-0.5,1.1-0.6,1.7
			C29.7,55.6,30.2,51.9,32.8,51z M28.2,49.1c-0.1,0-0.1,0.1-0.2,0.1c1.5-1.7,3.1-3.4,4.9-4.7C32.9,47.1,29.8,47.7,28.2,49.1z
			 M32.6,44.2c0.1,0,0.1,0.1,0.2,0.1c-0.9,0.5-1.5,1.2-2.3,1.9l0,0l0,0l0,0l0,0l0,0l0,0l0,0l0,0l0,0l0,0l0,0c-1,0.9-2,1.8-2.8,2.9
			C28.4,46.9,30,43.8,32.6,44.2z M33.6,39.2L33.6,39.2c-1,2.4-4.1,2.2-6.1,3.3c-0.1,0-0.1,0.1-0.2,0.1c0.9-0.8,1.9-1.4,2.8-2.1
			c1.3-0.5,2.6-1,3.7-1.8C33.7,38.9,33.6,39.1,33.6,39.2z M33.7,38.4C33.7,38.5,33.7,38.5,33.7,38.4c-0.8,0.6-1.8,1-2.7,1.4l0,0
			c-1.6,0.7-3,1.7-4.2,2.9C27.9,40.7,31.2,37,33.7,38.4z M27.5,34.9L27.5,34.9C27.5,34.9,27.6,34.9,27.5,34.9
			C27.6,34.9,27.6,34.9,27.5,34.9c0.1-0.1,0.1-0.1,0.1-0.1l0,0l0,0l0,0l0,0l0,0l0,0l0,0l0,0c1.3-1.7,3.8-3.9,6-2.8l0.1,0.1
			c-0.1,0-0.2,0.1-0.3,0.2l0,0c-0.1,0.1-0.3,0.2-0.4,0.2l0,0c0,0,0,0-0.1,0l0,0c-0.1,0-0.1,0-0.2,0.1l0,0c-0.1,0-0.2,0.1-0.3,0.1
			l0,0l0,0l0,0c-0.2,0.1-0.5,0.1-0.7,0.2l0,0C30.3,33.3,28.9,34.1,27.5,34.9C27.5,35,27.5,35,27.5,34.9z M28.2,34.9
			c-0.1,0-0.2,0.1-0.3,0.1c0.3-0.2,0.6-0.3,0.9-0.6l0,0c0,0,0,0,0.1,0l0,0c0.7-0.5,1.6-0.9,2.4-1.2l0,0l0,0l0,0l0,0
			c0.1,0,0.2,0,0.2-0.1l0,0l0,0l0,0h0.1l0,0h0.1l0,0h0.1l0,0c0.1,0,0.2-0.1,0.3-0.1l0,0c0.3-0.1,0.6-0.2,0.9-0.3l0,0
			c0.3-0.1,0.5-0.3,0.8-0.4C33.1,34.4,30.1,34.4,28.2,34.9z"/>
		<path class="st2" d="M22.1,49.9L22.1,49.9L22.1,49.9L22.1,49.9z"/>
		<path class="st2" d="M31.5,33.1L31.5,33.1L31.5,33.1L31.5,33.1z"/>
		<path class="st2" d="M34.5,17.6L34.5,17.6L34.5,17.6z"/>
		<path class="st2" d="M33.8,21.5L33.8,21.5L33.8,21.5z"/>
	</g>
	<g>
		<g>
			<path class="st2" d="M60,46.4c0.1-0.1,0.1-0.2,0.2-0.3c0-0.1,0-0.1-0.1-0.2c-0.2,0-0.4,0.1-0.6,0.3c-0.1,0.2-0.2,0.4-0.2,0.6
				c0,0.4,0.1,0.6,0.4,0.8c0.2,0.2,0.5,0.4,0.8,0.6c0.6-0.3,1.2-0.5,1.8-0.7s1.3-0.4,1.9-0.5c0.1,0,0.2,0,0.2,0.1s0,0.1-0.1,0.2
				c-0.6,0.2-1.2,0.3-1.8,0.5s-1.2,0.4-1.8,0.7c0.3,0.3,0.5,0.6,0.4,0.9c0,0.3-0.2,0.6-0.4,0.9c-0.2,0.3-0.5,0.5-0.9,0.7
				c-0.3,0.2-0.7,0.3-1,0.3c-0.2,0-0.4,0-0.6-0.2C58.1,51.2,58,51,58,50.8s0.1-0.5,0.2-0.7c0.1-0.2,0.3-0.4,0.5-0.6
				c0.2-0.2,0.4-0.4,0.7-0.5c0.2-0.1,0.5-0.3,0.7-0.4c-0.3-0.2-0.6-0.4-0.8-0.7s-0.3-0.6-0.3-1c0-0.3,0.1-0.6,0.3-0.8
				c0.2-0.3,0.5-0.4,0.8-0.4c0.2,0,0.4,0.1,0.5,0.2c0.1,0.2,0,0.4-0.2,0.7c-0.1,0.1-0.2,0.1-0.3,0C59.9,46.5,59.9,46.5,60,46.4z
				 M60.2,48.8c-0.2,0.1-0.4,0.2-0.6,0.3c-0.2,0.1-0.4,0.3-0.6,0.5c-0.2,0.2-0.3,0.3-0.5,0.5c-0.1,0.2-0.2,0.4-0.2,0.6
				c0,0.3,0.2,0.4,0.5,0.4c0.2,0,0.4-0.1,0.7-0.2c0.3-0.2,0.5-0.4,0.7-0.6c0.2-0.2,0.3-0.5,0.4-0.8C60.6,49.3,60.5,49.1,60.2,48.8z"
				/>
			<path class="st2" d="M58.8,51.7c-0.2,0-0.5-0.1-0.7-0.2c-0.2-0.2-0.3-0.4-0.3-0.7s0.1-0.5,0.2-0.8c0.1-0.2,0.3-0.5,0.5-0.7
				s0.4-0.4,0.7-0.5c0.1-0.1,0.2-0.2,0.4-0.2c-0.2-0.2-0.4-0.3-0.5-0.5c-0.3-0.3-0.4-0.7-0.4-1.1c0-0.3,0.1-0.7,0.4-1
				c0.3-0.3,0.6-0.5,1-0.5s0.6,0.2,0.7,0.4c0.1,0.2,0.1,0.5-0.3,0.9c-0.2,0.2-0.4,0.2-0.6,0.1c-0.1-0.1-0.2-0.2-0.2-0.3s0-0.1,0-0.2
				c0,0,0,0,0,0.1c-0.1,0.2-0.2,0.3-0.1,0.5c0,0.3,0.1,0.5,0.3,0.7s0.4,0.4,0.7,0.5c0.6-0.2,1.2-0.4,1.8-0.6
				c0.6-0.2,1.3-0.4,1.9-0.5c0.3-0.1,0.4,0,0.5,0.2c0,0.1,0,0.2,0,0.3s-0.1,0.2-0.3,0.2c-0.6,0.2-1.2,0.3-1.8,0.5
				c-0.5,0.1-1,0.3-1.4,0.5c0.2,0.3,0.3,0.6,0.2,0.8c0,0.4-0.2,0.7-0.5,1.1c-0.3,0.3-0.6,0.6-1,0.8C59.6,51.6,59.2,51.7,58.8,51.7
				L58.8,51.7z M60.2,49.1c-0.1,0.1-0.3,0.2-0.5,0.3s-0.4,0.3-0.6,0.4c-0.2,0.2-0.3,0.3-0.4,0.5c-0.1,0.2-0.2,0.3-0.2,0.5
				c0,0.1,0,0.2,0.3,0.2c0.2,0,0.3-0.1,0.6-0.2c0.2-0.1,0.4-0.3,0.6-0.5c0.2-0.2,0.3-0.4,0.3-0.7C60.3,49.4,60.3,49.3,60.2,49.1z
				 M60.4,48.7c0.3,0.3,0.4,0.6,0.4,1c0,0.2-0.1,0.3-0.1,0.4c0.1-0.2,0.2-0.4,0.2-0.6c0-0.2-0.1-0.5-0.3-0.7L60.4,48.7L60.4,48.7z
				 M59.8,48.2c0.1,0.1,0.2,0.2,0.3,0.3l0.1,0.1l0,0C60.1,48.4,59.9,48.3,59.8,48.2z M60,46.4l0.2,0.2l0,0L60,46.4z"/>
		</g>
		<g>
			<path class="st2" d="M67.6,47c0-0.2-0.1-0.3-0.2-0.3c-0.1-0.1-0.3-0.1-0.5-0.1s-0.4,0-0.6,0s-0.4,0.1-0.5,0.1
				c-0.2,0.1-0.5,0.2-0.7,0.3c-0.3,0.2-0.5,0.3-0.8,0.5c-0.2,0.2-0.4,0.4-0.6,0.6c-0.2,0.2-0.3,0.4-0.3,0.7c0,0.2,0,0.3,0.1,0.4
				c0.1,0.1,0.2,0.1,0.3,0.1s0.3,0,0.4-0.1c0.2-0.1,0.3-0.1,0.4-0.2c0.3-0.2,0.6-0.4,0.9-0.7s0.5-0.5,0.6-0.8c0-0.1,0.1-0.2,0.3-0.2
				c0.2,0,0.2,0.1,0.3,0.2c0,0.1,0.1,0.3,0.1,0.4c0.1,0.2,0.2,0.4,0.3,0.5c0.1,0.1,0.3,0.3,0.6,0.3c0.3,0.1,0.6,0.1,1.1,0
				c0.6-0.1,1.1-0.3,1.7-0.6c0.5-0.3,1-0.6,1.4-0.9c0.1-0.1,0.1-0.1,0.2,0s0.1,0.1,0,0.2l-0.5,0.3c-0.4,0.3-0.9,0.5-1.4,0.8
				c-0.5,0.2-1,0.4-1.6,0.5c-0.5,0.1-1,0-1.4-0.1c-0.4-0.2-0.7-0.5-0.9-1.1c-0.2,0.4-0.6,0.7-1,1s-0.8,0.5-1.3,0.7
				c-0.4,0.1-0.7,0.2-1,0.1c-0.3-0.1-0.4-0.3-0.3-0.7c0.2-0.5,0.5-1,1.1-1.4c0.6-0.4,1.2-0.7,1.8-0.9c0.2-0.1,0.4-0.1,0.7-0.2
				c0.3,0,0.6-0.1,0.9-0.1s0.5,0.1,0.7,0.2c0.2,0.1,0.3,0.3,0.3,0.5c0,0.1-0.1,0.2-0.3,0.2C67.7,47.1,67.6,47.1,67.6,47z"/>
			<path class="st2" d="M63.4,49.8c-0.1,0-0.3,0-0.4-0.1c-0.2-0.1-0.3-0.2-0.4-0.3c-0.1-0.2-0.1-0.4,0-0.7c0.2-0.6,0.6-1.1,1.1-1.5
				c0.6-0.4,1.2-0.8,1.9-1c0.2-0.1,0.4-0.1,0.7-0.2c0.4,0,0.7,0,0.9,0c0.3,0,0.6,0.1,0.8,0.2c0.3,0.2,0.4,0.4,0.4,0.8
				c0,0.2-0.1,0.4-0.6,0.4c-0.1,0-0.3,0-0.4-0.2c-0.1-0.1-0.1-0.2-0.1-0.2c0-0.1,0-0.1-0.1-0.1c-0.1-0.1-0.3-0.1-0.4-0.1
				c-0.2,0-0.4,0-0.6,0s-0.4,0.1-0.5,0.1c-0.2,0.1-0.4,0.2-0.7,0.3c-0.3,0.2-0.5,0.3-0.7,0.5s-0.4,0.4-0.6,0.6
				c-0.1,0.2-0.2,0.3-0.2,0.5c-0.1,0.2,0,0.2,0,0.2h0.1c0.1,0,0.2,0,0.4-0.1c0.1-0.1,0.3-0.1,0.4-0.2c0.3-0.2,0.6-0.4,0.8-0.6
				c0.2-0.2,0.4-0.5,0.6-0.8c0-0.1,0.2-0.3,0.5-0.3s0.4,0.1,0.5,0.4c0,0.1,0.1,0.3,0.1,0.4c0.1,0.2,0.1,0.3,0.3,0.4
				c0.1,0.1,0.3,0.2,0.5,0.3s0.6,0.1,1,0c0.6-0.1,1.1-0.3,1.6-0.6s1-0.6,1.4-0.9c0.1-0.1,0.3-0.1,0.5,0c0.1,0.1,0.2,0.2,0.2,0.3
				s0,0.2-0.2,0.3l-0.5,0.3c-0.4,0.3-0.9,0.6-1.4,0.8c-0.5,0.3-1.1,0.4-1.6,0.5c-0.6,0.1-1.1,0-1.5-0.2s-0.7-0.4-0.9-0.9
				c-0.2,0.3-0.5,0.5-0.7,0.7c-0.4,0.3-0.9,0.6-1.4,0.7C63.9,49.7,63.7,49.8,63.4,49.8z M63.2,48.4c-0.1,0.1-0.2,0.3-0.2,0.5
				c0,0.1,0,0.3,0,0.3s0,0.1,0.1,0.1h0.1c-0.1-0.1-0.2-0.3-0.1-0.6C63.1,48.6,63.2,48.5,63.2,48.4z M72,47.3L72,47.3L72,47.3z
				 M67.9,46.9L67.9,46.9c0.1-0.1,0-0.2,0-0.2s-0.1,0-0.1-0.1C67.8,46.7,67.8,46.8,67.9,46.9z"/>
		</g>
		<g>
			<path class="st2" d="M74.5,46.7c0.1-0.2,0.1-0.3,0-0.4c-0.1,0-0.3,0-0.5,0c-0.7,0.1-1.3,0.4-1.7,0.9c-0.4,0.5-0.6,1-0.7,1.6
				c0,0.4,0.1,0.6,0.3,0.7c0.3,0.1,0.6,0.1,0.9,0c0.4-0.1,0.9-0.4,1.4-0.7s0.9-0.6,1.3-0.9c-0.2-0.6-0.4-1.5-0.5-2.6
				s-0.2-2.4-0.1-3.7c0-1.4,0.2-2.7,0.4-4.1c0.2-1.4,0.6-2.7,1.1-3.8c0.5-1.2,1.2-2.1,2-2.8c0.8-0.7,1.8-1.1,3-1.1
				c0.6,0,1.1,0.1,1.5,0.3c0.4,0.2,0.8,0.5,1,0.8c0.3,0.3,0.5,0.7,0.6,1.1c0.1,0.4,0.2,0.8,0.2,1.2c0,0.7-0.1,1.5-0.4,2.3
				c-0.3,0.9-0.6,1.8-1.1,2.7c-0.4,0.9-1,1.8-1.5,2.8c-0.6,0.9-1.2,1.8-1.8,2.7c-0.6,0.9-1.3,1.7-1.9,2.4s-1.3,1.4-1.8,1.9
				c0.1,0.3,0.2,0.6,0.4,0.9c0.2,0.3,0.4,0.5,0.6,0.7s0.5,0.3,0.8,0.4c0.3,0.1,0.7,0.1,1.1-0.1c0.4-0.1,0.8-0.3,1.3-0.5
				c0.4-0.2,0.8-0.5,1.2-0.7c0.4-0.3,0.8-0.5,1.1-0.8c0.4-0.3,0.7-0.5,0.9-0.7c0.1-0.1,0.1-0.1,0.2,0s0.1,0.1,0,0.2
				c-0.3,0.3-0.7,0.6-1.1,0.9c-0.4,0.3-0.9,0.6-1.3,0.9c-0.5,0.3-1,0.5-1.4,0.8c-0.5,0.2-1,0.3-1.4,0.4c-0.7,0.1-1.3-0.1-1.8-0.5
				s-0.9-0.9-1.1-1.5c-0.2,0.2-0.5,0.4-0.8,0.6c-0.3,0.2-0.6,0.4-0.9,0.6c-0.3,0.2-0.6,0.3-0.9,0.4c-0.4,0-0.7,0-1,0
				c-0.4,0-0.7-0.1-0.9-0.3c-0.2-0.2-0.3-0.5-0.3-0.8s0.1-0.6,0.2-0.9c0.2-0.3,0.4-0.6,0.6-0.9c0.3-0.3,0.6-0.5,0.9-0.7
				s0.7-0.3,1.1-0.4c0.3-0.1,0.6,0,0.9,0.1s0.3,0.3,0.2,0.6C74.7,46.8,74.6,46.9,74.5,46.7C74.5,46.8,74.5,46.8,74.5,46.7z
				 M76.1,47.6c0.6-0.5,1.2-1.2,1.8-1.9c0.6-0.7,1.2-1.5,1.8-2.3c0.6-0.8,1.2-1.7,1.7-2.6c0.5-0.9,1-1.8,1.4-2.7s0.7-1.8,1-2.6
				s0.4-1.6,0.4-2.3c0-0.4,0-0.7-0.1-1.1s-0.3-0.7-0.5-1s-0.5-0.5-0.8-0.7C82.4,30.1,82,30,81.5,30c-1,0-1.9,0.3-2.7,1
				c-0.7,0.7-1.3,1.6-1.8,2.7c-0.5,1.1-0.8,2.3-1,3.6s-0.4,2.7-0.4,4c-0.1,1.3,0,2.5,0.1,3.6C75.7,46.1,75.9,46.9,76.1,47.6z"/>
			<path class="st2" d="M78.2,50.5c-0.6,0-1.1-0.2-1.6-0.5c-0.5-0.4-0.8-0.8-1.1-1.3c-0.2,0.1-0.4,0.3-0.6,0.4
				c-0.3,0.2-0.6,0.4-1,0.6c-0.3,0.2-0.7,0.3-1,0.4c-0.9,0.3-1.6,0.2-2-0.2c-0.2-0.3-0.3-0.6-0.3-0.9c0-0.3,0.1-0.7,0.3-1
				c0.2-0.3,0.4-0.6,0.7-0.9c0.3-0.3,0.6-0.5,1-0.7s0.8-0.3,1.2-0.4c0.4-0.1,0.7,0,1,0.1l0,0c0-0.2,0-0.3-0.1-0.5
				c-0.1-1.1-0.2-2.4-0.1-3.8c0-1.4,0.2-2.8,0.4-4.2c0.2-1.4,0.6-2.7,1.1-3.9s1.2-2.2,2-2.9c0.9-0.8,1.9-1.2,3.2-1.2
				c0.6,0,1.1,0.1,1.6,0.3c0.4,0.2,0.8,0.5,1.1,0.8c0.3,0.3,0.5,0.7,0.7,1.2c0.1,0.4,0.2,0.9,0.2,1.3c0,0.7-0.1,1.5-0.4,2.4
				s-0.6,1.8-1.1,2.7c-0.4,0.9-1,1.9-1.6,2.8c-0.6,0.9-1.2,1.8-1.8,2.7c-0.6,0.9-1.3,1.7-1.9,2.4s-1.2,1.3-1.7,1.8
				c0.1,0.3,0.2,0.5,0.3,0.8c0.1,0.3,0.3,0.5,0.5,0.7s0.4,0.3,0.7,0.4c0.3,0.1,0.6,0,0.9-0.1c0.4-0.1,0.8-0.3,1.2-0.5
				c0.4-0.2,0.8-0.4,1.2-0.7c0.4-0.2,0.8-0.5,1.1-0.8c0.4-0.3,0.7-0.5,0.9-0.7c0.2-0.1,0.3-0.1,0.5,0c0.1,0.1,0.2,0.2,0.2,0.3
				s0,0.2-0.1,0.3c-0.3,0.3-0.7,0.6-1.1,0.9c-0.4,0.3-0.9,0.6-1.3,0.9c-0.5,0.3-1,0.5-1.5,0.8c-0.5,0.2-1,0.4-1.5,0.4
				C78.5,50.5,78.3,50.5,78.2,50.5z M71.7,47.6c-0.1,0.1-0.2,0.3-0.3,0.5c-0.1,0.3-0.2,0.6-0.2,0.8c0,0.3,0.1,0.5,0.2,0.6
				c0,0.1,0.1,0.1,0.2,0.1c-0.1-0.2-0.3-0.4-0.2-0.8C71.4,48.5,71.5,48,71.7,47.6z M74.3,46.6c-0.1,0-0.2,0-0.3,0
				c-0.6,0.1-1.1,0.4-1.5,0.9s-0.6,0.9-0.6,1.5c0,0.4,0.1,0.5,0.2,0.5c0.2,0.1,0.5,0.1,0.8,0c0.4-0.1,0.9-0.4,1.3-0.7
				s0.8-0.5,1.1-0.8c-0.1-0.3-0.2-0.5-0.2-0.9c-0.1,0.1-0.3,0.1-0.5,0.1c-0.1,0-0.2-0.1-0.3-0.3C74.3,46.8,74.3,46.7,74.3,46.6
				L74.3,46.6L74.3,46.6z M75.8,47.9l0.1,0.3c0.2,0.5,0.4,0.9,0.7,1.2c-0.1-0.1-0.2-0.3-0.3-0.4c-0.2-0.3-0.3-0.6-0.4-0.9l0,0
				l-0.1-0.4c-0.2-0.7-0.3-1.6-0.4-2.7c-0.1-1.1-0.1-2.4-0.1-3.7c0.1-1.3,0.2-2.7,0.4-4c0.2-1.4,0.6-2.6,1-3.7
				c0.2-0.5,0.4-0.9,0.7-1.3c-0.3,0.4-0.6,0.9-0.8,1.5c-0.5,1.1-0.9,2.4-1.1,3.8c-0.2,1.4-0.4,2.8-0.4,4.1s0,2.6,0.1,3.7
				C75.4,46.5,75.6,47.3,75.8,47.9L75.8,47.9z M83.7,47.1L83.7,47.1L83.7,47.1z M81.5,30.2c-1,0-1.8,0.3-2.5,1s-1.3,1.5-1.7,2.6
				c-0.4,1.1-0.8,2.3-1,3.6s-0.4,2.7-0.4,3.9c-0.1,1.3,0,2.5,0.1,3.6c0.1,0.9,0.2,1.6,0.3,2.2c0.5-0.5,1-1,1.5-1.6
				c0.6-0.7,1.2-1.5,1.8-2.3c0.6-0.8,1.2-1.7,1.7-2.6c0.5-0.9,1-1.8,1.4-2.7s0.7-1.8,1-2.6c0.2-0.8,0.4-1.6,0.4-2.3
				c0-0.3,0-0.7-0.1-1c-0.1-0.3-0.2-0.6-0.4-0.9c-0.2-0.3-0.4-0.5-0.7-0.7C82.3,30.4,81.9,30.3,81.5,30.2z M74.4,46.5L74.4,46.5
				L74.4,46.5z M83.8,31c0.2,0.3,0.3,0.6,0.4,0.9c0.1,0.4,0.2,0.8,0.2,1.2c0,0.7-0.1,1.5-0.4,2.4c-0.3,0.8-0.6,1.7-1,2.6
				c-0.1,0.2-0.2,0.5-0.3,0.7c0.2-0.3,0.3-0.6,0.4-0.9c0.4-0.9,0.8-1.8,1-2.6c0.3-0.8,0.4-1.6,0.4-2.3c0-0.4-0.1-0.8-0.2-1.1
				C84.2,31.6,84,31.3,83.8,31z"/>
		</g>
		<g>
			<path class="st2" d="M83.6,47.1c0,0,0.1-0.1,0.2-0.2c0.1-0.1,0.2-0.1,0.3-0.2c0.3-0.1,0.5,0,0.5,0.3c0,0.2,0,0.4,0,0.7
				s-0.1,0.6-0.1,0.8c0,0.3,0,0.5,0.1,0.7s0.2,0.2,0.4,0.2c0.3-0.1,0.6-0.2,0.9-0.4s0.7-0.4,1-0.6c0.3-0.2,0.7-0.5,1-0.7
				s0.6-0.5,0.8-0.6c0.1-0.1,0.1-0.1,0.2,0s0.1,0.1,0,0.2c-0.2,0.2-0.4,0.4-0.8,0.7c-0.3,0.3-0.7,0.5-1.1,0.8s-0.8,0.5-1.2,0.7
				c-0.4,0.2-0.7,0.3-1,0.3s-0.5-0.1-0.6-0.3S84,49.1,84,48.8s0-0.6,0-0.9c0-0.3,0-0.5,0-0.7h-0.1l-0.1,0.1c-0.1,0.1-0.2,0.1-0.2,0
				C83.6,47.3,83.6,47.2,83.6,47.1z M84.1,45.7c0.2-0.2,0.3-0.4,0.5-0.4s0.2,0,0.1,0.1s-0.1,0.2-0.1,0.2c0,0.1-0.1,0.1-0.1,0.2
				C84.4,46,84.3,46,84.1,46C84,45.9,84,45.8,84.1,45.7z"/>
			<path class="st2" d="M84.9,50c-0.5,0-0.7-0.2-0.8-0.4c-0.1-0.2-0.2-0.5-0.2-0.8s0-0.6,0-0.9c0-0.1,0-0.2,0-0.3
				c-0.1,0-0.2,0-0.2,0c-0.1,0-0.2-0.1-0.2-0.2c-0.1-0.2,0-0.3,0.1-0.4l0,0c0,0,0.1-0.1,0.3-0.2c0.1-0.1,0.2-0.1,0.4-0.2
				c0.3,0,0.5,0,0.6,0.1s0.2,0.2,0.2,0.4s0,0.4,0,0.7s0,0.6,0,0.8s0,0.4,0.1,0.6c0,0.1,0,0.1,0.1,0c0.2-0.1,0.5-0.2,0.9-0.4
				c0.3-0.2,0.7-0.4,1-0.6c0.3-0.2,0.7-0.5,1-0.7s0.6-0.5,0.8-0.6c0.1-0.1,0.3-0.1,0.5,0c0.1,0.1,0.2,0.2,0.2,0.3s0,0.2-0.1,0.3
				c-0.2,0.2-0.4,0.4-0.8,0.7c-0.3,0.3-0.7,0.5-1.1,0.8s-0.8,0.5-1.2,0.7C85.5,49.9,85.2,50,84.9,50z M84.3,47.1L84.3,47.1
				c0,0.3,0,0.5,0,0.8s0,0.6,0,0.8c0,0.1,0,0.1,0,0.2c0-0.1,0-0.2,0-0.2c0-0.3,0-0.5,0.1-0.8C84.4,47.6,84.4,47.4,84.3,47.1
				C84.4,47.1,84.4,47.1,84.3,47.1L84.3,47.1C84.4,47.1,84.4,47.1,84.3,47.1z M88.9,47.3L88.9,47.3L88.9,47.3z M88.8,47.1L88.8,47.1
				L88.8,47.1z M84.3,46.2c-0.1,0-0.1,0-0.2,0c-0.1-0.1-0.2-0.2-0.3-0.3c0-0.1,0-0.2,0.1-0.3c0.2-0.3,0.4-0.5,0.7-0.5
				c0.1,0,0.3,0,0.4,0.1c0,0,0.1,0.2,0,0.3s-0.1,0.1-0.1,0.2c0,0.1-0.1,0.1-0.1,0.2C84.6,46.2,84.4,46.2,84.3,46.2z M84.1,45.7
				l0.2,0.2l0,0L84.1,45.7z"/>
		</g>
		<g>
			<path class="st2" d="M92.2,47c0-0.2-0.1-0.3-0.2-0.3c-0.1-0.1-0.3-0.1-0.5-0.1s-0.4,0-0.6,0s-0.4,0.1-0.5,0.1
				c-0.2,0.1-0.5,0.2-0.7,0.3c-0.3,0.2-0.5,0.3-0.8,0.5c-0.2,0.2-0.4,0.4-0.6,0.6c-0.2,0.2-0.3,0.4-0.3,0.7c0,0.2,0,0.3,0.1,0.4
				c0.1,0.1,0.2,0.1,0.3,0.1c0.1,0,0.3,0,0.4-0.1c0.2-0.1,0.3-0.1,0.4-0.2c0.3-0.2,0.6-0.4,0.9-0.7s0.5-0.5,0.6-0.8
				c0-0.1,0.1-0.2,0.3-0.2c0.2,0,0.3,0.1,0.3,0.2c0,0.1,0.1,0.3,0.1,0.4c0.1,0.2,0.2,0.4,0.3,0.5c0.1,0.1,0.3,0.3,0.6,0.3
				c0.3,0.1,0.6,0.1,1.1,0c0.6-0.1,1.1-0.3,1.7-0.6c0.5-0.3,1-0.6,1.4-0.9c0.1-0.1,0.1-0.1,0.2,0s0.1,0.1,0,0.2l-0.5,0.3
				c-0.4,0.3-0.9,0.5-1.4,0.8c-0.5,0.2-1,0.4-1.6,0.5c-0.5,0.1-1,0-1.4-0.1c-0.4-0.2-0.7-0.5-0.9-1.1c-0.2,0.4-0.6,0.7-0.9,1
				c-0.4,0.3-0.8,0.5-1.3,0.7c-0.4,0.1-0.7,0.2-1,0.1c-0.3-0.1-0.4-0.3-0.3-0.7c0.2-0.5,0.5-1,1.1-1.4s1.2-0.7,1.8-0.9
				c0.2-0.1,0.4-0.1,0.7-0.2c0.3,0,0.6-0.1,0.9-0.1s0.5,0.1,0.7,0.2c0.2,0.1,0.3,0.3,0.3,0.5c0,0.1-0.1,0.2-0.3,0.2
				C92.2,47.1,92.1,47.1,92.2,47z"/>
			<path class="st2" d="M87.9,49.8c-0.1,0-0.3,0-0.4-0.1c-0.2-0.1-0.3-0.2-0.4-0.3c-0.1-0.2-0.1-0.4,0-0.7c0.2-0.5,0.6-1.1,1.2-1.5
				s1.2-0.8,1.9-1c0.2-0.1,0.4-0.1,0.7-0.2c0.3-0.1,0.6-0.1,0.9-0.1s0.6,0.1,0.8,0.2c0.3,0.2,0.4,0.4,0.4,0.8c0,0.2-0.1,0.4-0.6,0.4
				c-0.1,0-0.3,0-0.4-0.2c-0.1-0.1-0.1-0.2-0.1-0.2c0-0.1,0-0.1-0.1-0.1c-0.1-0.1-0.3-0.1-0.4-0.1c-0.2,0-0.4,0-0.6,0
				s-0.4,0.1-0.5,0.1c-0.2,0.1-0.4,0.2-0.7,0.3c-0.3,0.2-0.5,0.3-0.7,0.5s-0.4,0.4-0.6,0.6c-0.1,0.2-0.2,0.4-0.2,0.5
				c-0.1,0.3,0,0.2,0,0.2h0.1c0.1,0,0.2,0,0.3-0.1c0.1-0.1,0.3-0.1,0.4-0.2c0.3-0.2,0.6-0.4,0.8-0.6c0.2-0.2,0.4-0.5,0.6-0.8
				c0.1-0.2,0.3-0.3,0.5-0.3c0.3,0,0.4,0.1,0.5,0.4c0,0.1,0.1,0.3,0.1,0.4c0.1,0.2,0.1,0.3,0.3,0.4c0.1,0.1,0.3,0.2,0.5,0.3
				s0.6,0.1,1,0c0.6-0.1,1.1-0.3,1.6-0.6s1-0.6,1.4-0.9c0.1-0.1,0.3-0.1,0.5,0c0.1,0.1,0.2,0.2,0.2,0.3s0,0.2-0.2,0.3l-0.5,0.3
				c-0.4,0.3-0.9,0.6-1.4,0.8c-0.5,0.3-1.1,0.4-1.6,0.5c-0.6,0.1-1.1,0-1.5-0.2S91,48.5,90.8,48c-0.2,0.2-0.5,0.5-0.7,0.7
				c-0.4,0.3-0.9,0.6-1.4,0.7C88.5,49.7,88.2,49.8,87.9,49.8z M87.8,48.4c-0.1,0.2-0.2,0.3-0.2,0.5c0,0.1,0,0.3,0,0.3s0,0.1,0.1,0.1
				h0.1c-0.1-0.1-0.2-0.3-0.1-0.6C87.7,48.6,87.7,48.5,87.8,48.4z M96.6,47.3L96.6,47.3L96.6,47.3z M92.4,46.9L92.4,46.9
				c0.1-0.1,0-0.2,0-0.2h-0.1C92.3,46.7,92.4,46.8,92.4,46.9z M92.3,46.9L92.3,46.9L92.3,46.9z"/>
		</g>
	</g>
	<g>
		<path class="st2" d="M53.8,51.8c3.9-3.1,6.2-10.8,3.8-15.9c1.8,6.1-0.8,12-3.8,14.9V51.8L53.8,51.8z M53.8,41.6v-0.9
			c0.5,0.2,1,0.3,1.6,0.3c2.2-0.5,1-4.9-0.4-5.4c-0.3-0.1-0.8,0-1.2,0.1v-1.2c1-0.4,1.9,0,2.6,1.2C58.5,39.2,56.9,42.5,53.8,41.6z
			 M44.9,35.7c0.8,0.2,4.1,1.8,4.6,2.9C47,43,44.1,53.4,50.3,53.3c1.2,0,2.4-0.6,3.5-1.4v-1c-1.3,1.2-2.6,1.8-3.7,1.7
			c-5.4,0-1.3-11.9,0.3-13.4c1.2,1.4,2.4,2.1,3.4,2.5v-0.9c-1.5-0.5-2.4-1.6-2.8-2.1c0.5-1.1,1.7-2.4,2.8-2.9v-1.2
			c-1,0.4-2.2,1.4-3.5,3.1c-0.6-0.5-3.5-2.7-5.2-2.8L44.9,35.7L44.9,35.7z M42,48v-0.5c1.1-0.6,2.1-1.7,2.9-3.1
			C44.2,46.3,43.2,47.5,42,48L42,48z M42,35.5v-0.7c0.4-0.1,0.7-0.1,1.1-0.2L43,35.4C42.7,35.4,42.3,35.5,42,35.5z M42,34.8v0.7
			c-6.8,1.2-7.9,9.2-3.3,11.9l-0.1,0.4C34.8,46.2,32.8,36.7,42,34.8L42,34.8z M42,47.5c-0.3,0.2-0.7,0.3-1.1,0.3l-0.1,0.4
			c0.4,0,0.8-0.1,1.1-0.2L42,47.5L42,47.5z"/>
		<path class="st2" d="M44.9,35.7c0.8,0.2,4.1,1.8,4.6,2.9C47,43,44.1,53.4,50.3,53.3c5.8-0.2,10.4-10.9,7.3-17.3
			c2.5,8.7-3.8,17-7.5,16.6c-5.4,0-1.3-11.9,0.3-13.4c5,5.6,8.9,1.3,6-3.5c-1.4-2.3-3.4-1.4-6.1,1.9c-0.6-0.5-3.5-2.7-5.2-2.8
			L44.9,35.7L44.9,35.7z M40.8,48.2c1.8-0.1,3.2-1.3,4-3.9c-1,1.8-2.3,3.2-3.9,3.5L40.8,48.2L40.8,48.2z M38.6,47.4
			c-4.8-2.8-3.4-11.5,4.4-12l0.1-0.8c-10.5,1.3-8.4,11.6-4.6,13.2L38.6,47.4L38.6,47.4z M55.4,40.9c-2.5,0-3.9-1.7-4.4-2.4
			c0.7-1.6,2.8-3.4,4-3C56.4,36,57.6,40.4,55.4,40.9z"/>
	</g>
	<path class="st2" d="M36.5,57.1c-0.2,1,0.7,1.2,1,0.1c2.5-8.1,5-16.2,7.5-24.3c0.3-1.5-0.5-2.5-1.1-2.4c-0.8,0-1.5,1.4-1.7,3.5H43
		c0.2-0.5,0.4-1,0.5-1.6c0.7-0.4,0.7,0.8-0.3,3.8c-0.7,0.4-0.7-0.4-1.4-0.1L36.5,57.1z"/>
	<g>
		<path class="st2" d="M52.9,7l0.8-0.2c0.3-0.1,0.5-0.1,0.7-0.1s0.3,0.1,0.4,0.2c0,0.1,0.1,0.3,0.2,0.5l0.3,1.2
			c0.1,0.2,0.1,0.5,0.1,0.6c0,0.2-0.1,0.3-0.2,0.4c-0.1,0.1-0.3,0.2-0.6,0.3l-0.8,0.2L52.9,7z M54.5,9.5c0.1,0,0.2-0.1,0.2-0.1
			c0-0.1,0.1-0.1,0.1-0.2c0-0.1,0-0.2-0.1-0.3l-0.4-1.3c0-0.1-0.1-0.2-0.1-0.3c0-0.1-0.1-0.1-0.1-0.1c-0.1,0-0.1,0-0.3,0h-0.1
			L54.5,9.5L54.5,9.5z"/>
		<path class="st2" d="M56.5,5.9l1.4-0.3L58,6.1l-0.8,0.2l0.2,0.9L58,7l0.1,0.5l-0.6,0.1l0.2,1l0.8-0.2l0.1,0.5l-1.4,0.3L56.5,5.9z"
			/>
		<path class="st2" d="M60.2,8.4C60,8.3,59.9,8,59.9,7.7l0.6-0.2c0,0.2,0.1,0.4,0.1,0.5c0.1,0.1,0.1,0.1,0.3,0.1C60.9,8.1,61,8,61,8
			c0-0.1,0-0.1,0-0.2s-0.1-0.2-0.1-0.3c-0.1-0.1-0.2-0.2-0.3-0.3l-0.4-0.3c-0.2-0.1-0.3-0.2-0.4-0.3c-0.1-0.1-0.1-0.3-0.2-0.5
			c0-0.3,0-0.5,0.2-0.7c0.1-0.2,0.3-0.3,0.6-0.3s0.5,0,0.6,0.2s0.2,0.4,0.3,0.6l-0.6,0.2c0-0.2-0.1-0.3-0.1-0.4s-0.1-0.1-0.2-0.1
			c-0.1,0-0.1,0-0.2,0.1c0,0.1,0,0.1,0,0.2s0,0.2,0.1,0.3c0.1,0.1,0.1,0.1,0.3,0.2L61,6.7c0.2,0.1,0.3,0.3,0.4,0.4
			c0.1,0.1,0.2,0.3,0.2,0.5s0,0.3-0.1,0.4s-0.1,0.2-0.3,0.3c-0.1,0.1-0.3,0.1-0.4,0.2C60.6,8.6,60.4,8.6,60.2,8.4z"/>
		<path class="st2" d="M63.1,5h0.7L64,8.3h-0.7L63.1,5z"/>
		<path class="st2" d="M65.8,8c-0.1-0.2-0.2-0.5-0.2-0.9V6c0-0.4,0.1-0.7,0.2-0.9c0.2-0.2,0.4-0.3,0.8-0.3c0.3,0,0.6,0.1,0.7,0.3
			c0.1,0.2,0.2,0.4,0.2,0.7V6h-0.7V5.8c0-0.2,0-0.3,0-0.3c0-0.1-0.1-0.1-0.2-0.1s-0.2,0-0.2,0.1s-0.1,0.2-0.1,0.4v1.5
			c0,0.2,0,0.3,0.1,0.4c0,0.1,0.1,0.1,0.2,0.1s0.2,0,0.2-0.1c0.1-0.1,0.1-0.2,0.1-0.4V7h-0.3V6.6h0.9v1.7h-0.4L67,8
			c-0.1,0.2-0.3,0.3-0.6,0.3C66.1,8.3,65.9,8.2,65.8,8z"/>
		<path class="st2" d="M69.5,5.1H70L70.5,7l0.2-1.7l0.6,0.1l-0.4,3.3l-0.4-0.1L70,6.7l-0.2,1.8l-0.6-0.1L69.5,5.1z"/>
		<path class="st2" d="M73.1,5.6l1.4,0.3l-0.1,0.5l-0.8-0.2l-0.2,0.9L74,7.2v0.5l-0.6-0.1l-0.2,1L74,8.8l-0.1,0.5L72.5,9L73.1,5.6z"
			/>
		<path class="st2" d="M76.3,6.4l0.8,0.3c0.3,0.1,0.6,0.2,0.7,0.4C78,7.2,78,7.5,77.9,7.8c-0.1,0.2-0.1,0.4-0.2,0.5
			s-0.2,0.2-0.4,0.2v1.7L76.6,10l0.1-1.6l-0.2-0.1L76,9.8l-0.6-0.2L76.3,6.4z M76.7,8c0.2,0,0.3,0,0.4,0c0.1-0.1,0.1-0.2,0.2-0.3
			c0-0.2,0.1-0.3,0-0.4c0-0.1-0.1-0.2-0.3-0.2L76.8,7l-0.3,0.9L76.7,8z"/>
	</g>
	<g>
		<path class="st2" d="M47.7,69.6l0.7,0.5c0.3,0.2,0.4,0.4,0.5,0.6s0,0.4-0.1,0.7c-0.2,0.4-0.5,0.5-0.8,0.3c0.3,0.3,0.3,0.6,0.1,1
			c-0.2,0.3-0.4,0.4-0.6,0.5c-0.2,0-0.5,0-0.7-0.2L46,72.4L47.7,69.6z M46.9,72.5c0.1,0.1,0.3,0.1,0.4,0.1c0.1,0,0.2-0.1,0.3-0.3
			c0.1-0.2,0.1-0.3,0.1-0.4s-0.1-0.2-0.2-0.3l-0.2-0.1l-0.6,0.9L46.9,72.5z M47.7,71.2c0.1,0.1,0.3,0.1,0.3,0.1
			c0.1,0,0.2-0.1,0.3-0.3c0.1-0.1,0.1-0.2,0.1-0.3c0-0.1-0.1-0.2-0.2-0.3L48,70.3l-0.5,0.8L47.7,71.2z"/>
		<path class="st2" d="M50.2,73.3l0.3-2.1l0.6,0.3l-0.2,1.2l0.8-0.9l0.6,0.3l-1.5,1.5l-0.6,1.2l-0.6-0.3L50.2,73.3z"/>
		<path class="st2" d="M53.5,74.3l-0.4,0.9L52.6,75l0.4-0.9L53.5,74.3z"/>
		<path class="st2" d="M58,74.2l0.7,0.2l-0.1,3.4L58,77.6v-0.7l-0.5-0.1l-0.3,0.7l-0.6-0.2L58,74.2z M58.1,76.5l0.1-1.4l-0.5,1.3
			L58.1,76.5z"/>
		<path class="st2" d="M60.7,74.8l0.7,0.1L61,77.7l0.8,0.1l-0.1,0.5l-1.4-0.2L60.7,74.8z"/>
		<path class="st2" d="M63.6,78.2c-0.1-0.2-0.2-0.5-0.2-0.8l0.1-1.2c0-0.4,0.1-0.6,0.3-0.8c0.2-0.2,0.4-0.3,0.8-0.2
			c0.3,0,0.6,0.1,0.7,0.3c0.1,0.2,0.2,0.4,0.2,0.7v0.3h-0.7v-0.3c0-0.1,0-0.2,0-0.2c0-0.1,0-0.1-0.1-0.2c0,0-0.1-0.1-0.2-0.1
			s-0.2,0-0.2,0.1s-0.1,0.2-0.1,0.4L64,77.6c0,0.2,0,0.3,0,0.4s0.1,0.1,0.2,0.1s0.2,0,0.2-0.1s0.1-0.2,0.1-0.3v-0.3h0.7v0.3
			c0,0.3-0.1,0.6-0.2,0.7c-0.1,0.2-0.4,0.2-0.7,0.2C63.9,78.5,63.7,78.4,63.6,78.2z"/>
		<path class="st2" d="M67.3,75.2H68l0.8,3.3h-0.6L68,77.8h-0.5l-0.1,0.7h-0.6L67.3,75.2z M67.7,74.1h0.6L67.8,75h-0.4L67.7,74.1z
			 M68,77.3L67.7,76l-0.1,1.4L68,77.3z"/>
		<path class="st2" d="M70.1,75l0.5-0.1l1,1.6l-0.2-1.7l0.6-0.1l0.5,3.3l-0.4,0.1l-1-1.7l0.3,1.8l-0.6,0.1L70.1,75z"/>
		<path class="st2" d="M73.8,74.8l-0.5,0.1l-0.1-0.5l1.7-0.4l0.1,0.5l-0.5,0.1l0.7,2.8l-0.7,0.2L73.8,74.8z"/>
		<path class="st2" d="M76.6,73.5l0.7-0.2l1.7,3l-0.6,0.2L78,75.8L77.5,76l0.1,0.7L77,76.9L76.6,73.5z M77.8,75.4l-0.6-1.2l0.2,1.3
			L77.8,75.4z"/>
		<path class="st2" d="M79.2,72.5l0.8-0.4c0.3-0.2,0.6-0.2,0.8-0.2c0.2,0,0.4,0.2,0.5,0.5c0.1,0.2,0.1,0.4,0.1,0.5s-0.1,0.3-0.2,0.4
			l1.1,1.3L81.8,75l-1-1.2l-0.2,0.1l0.6,1.4l-0.6,0.3L79.2,72.5z M80.6,73.4c0.1-0.1,0.2-0.1,0.3-0.2c0-0.1,0-0.2-0.1-0.4
			c-0.1-0.1-0.1-0.2-0.2-0.3c-0.1,0-0.2,0-0.3,0L80,72.6l0.4,0.9L80.6,73.4z"/>
		<path class="st2" d="M82.7,70.7l0.6-0.4l2.2,2.6L85,73.2l-0.5-0.6L84,72.9l0.3,0.7l-0.5,0.3L82.7,70.7z M84.3,72.3l-0.8-1.1
			l0.5,1.3L84.3,72.3z"/>
	</g>
</g>
</svg>
