<?xml version="1.0" encoding="utf-8"?>
<!-- Generator: Adobe Illustrator 22.0.0, SVG Export Plug-In . SVG Version: 6.00 Build 0)  -->
<svg version="1.1" id="Capa_1" xmlns="http://www.w3.org/2000/svg" xmlns:xlink="http://www.w3.org/1999/xlink" x="0px" y="0px"
	 viewBox="0 0 127 105" style="enable-background:new 0 0 127 105;" xml:space="preserve">
<style type="text/css">
	.st0{display:none;fill:#101012;}
	.st1{fill:#959595;}
	.st2{fill:url(#SVGID_1_);}
	.st3{fill:#FDCF9D;}
	.st4{fill:#2B2A29;}
	.st5{fill:#2C2B29;}
	.st6{fill:#2C2B2A;}
	.st7{fill:#2F2E2C;}
	.st8{fill:#90896C;}
	.st9{fill:#FEE7B4;}
	.st10{fill:#FEF4C1;}
	.st11{fill:#FEEAB7;}
	.st12{fill:#986633;}
	.st13{fill:#FE0000;}
	.st14{fill:#CB6633;}
	.st15{fill:#CB6533;}
	.st16{fill:#CCAB82;}
	.st17{fill:#FEFEFE;}
	.st18{fill:#FDECB9;}
	.st19{fill:#FEFE00;}
	.st20{fill:#FDFD00;}
	.st21{fill:#FCE2B0;}
	.st22{fill:#FCFCFC;}
	.st23{fill:#FBFBFB;}
	.st24{fill:#F6E8B6;}
	.st25{fill:#D5D500;}
	.st26{fill:#F9F9F9;}
	.st27{fill:#FAFAFA;}
	.st28{fill:#F3D9A8;}
	.st29{fill:#9D9474;}
	.st30{fill:#ADADAD;}
	.st31{fill:#A49271;}
	.st32{fill:#F7EEBC;}
	.st33{fill:#FDF5C2;}
	.st34{fill:#FBF3C1;}
	.st35{fill:#F4ECBC;}
	.st36{fill:#F7EDBC;}
	.st37{fill:#F8F0BF;}
	.st38{fill:#F5EDBC;}
	.st39{fill:#F3EABA;}
	.st40{fill:#FAF0BE;}
	.st41{fill:#FAE8B6;}
</style>
<path class="st0" d="M126.4,24l-9.2,11l-1.3-1.1l4.2-10.2l-6.7,8l-1.2-1l9.2-11l1.3,1.1l-4.2,10.2l6.7-8L126.4,24z M108.7,23.2
	c-0.9,1.5-1.7,2.4-2.5,2.7c-0.8,0.3-1.7,0.2-2.6-0.3c-0.9-0.5-1.4-1.2-1.6-2c-0.2-0.8,0.2-2,1.1-3.5l2.9-5c0.9-1.5,1.7-2.4,2.5-2.7
	c0.8-0.3,1.7-0.2,2.6,0.3c0.9,0.5,1.4,1.2,1.6,2s-0.2,2-1.1,3.5L108.7,23.2z M110.3,13.8c-0.4-0.3-0.9-0.3-1.3,0
	c-0.5,0.2-1,0.8-1.5,1.8l-3.2,5.6c-0.6,1-0.8,1.7-0.8,2.2c0,0.5,0.3,0.9,0.7,1.1c0.9,0.5,1.9-0.1,2.8-1.8l3.2-5.6
	C111.2,15.4,111.3,14.3,110.3,13.8z M97.4,10.5c0.6-1.7,0.4-2.7-0.5-3c-0.9-0.3-1.6,0.2-2.1,1.6c-0.2,0.6-0.3,1.1-0.4,1.6
	c0,0.4,0.1,0.9,0.4,1.3l1.1,1.7c0.3,0.4,0.5,0.7,0.6,1.1c0.1,0.3,0.2,0.8,0.2,1.3c0,0.6-0.1,1.2-0.4,1.9c-0.5,1.2-1,2-1.8,2.3
	c-0.7,0.3-1.5,0.3-2.4,0c-0.9-0.3-1.5-0.9-1.8-1.7c-0.3-0.8-0.2-1.9,0.2-3.5l1.5,0.3c-0.4,1.1-0.5,1.9-0.4,2.5
	c0.1,0.6,0.4,0.9,0.8,1.1c1,0.4,1.8-0.1,2.3-1.5c0.4-1,0.3-1.9-0.2-2.7L93.5,13c-0.9-1.2-1-2.7-0.4-4.3c0.5-1.3,1.1-2.2,1.8-2.5
	c0.7-0.3,1.5-0.4,2.4,0C98.2,6.5,98.7,7,99,7.7c0.3,0.7,0.3,1.7-0.1,3L97.4,10.5z M87.2,37.3c-0.6,0-1.1-0.2-1.4-0.6
	c-0.3-0.4-0.5-0.8-0.5-1.2l0.4-3.4c0-0.3-0.1-0.5-0.2-0.7c-0.1-0.2-0.4-0.3-0.7-0.3c-0.3,0-0.6,0.1-0.8,0.4
	c-0.2,0.2-0.4,0.5-0.5,0.9c-0.3,2.6-0.5,4.2-0.6,4.8h-2l0.6-5.1c0-0.3-0.1-0.5-0.2-0.7c-0.1-0.2-0.4-0.3-0.7-0.3
	c-0.3,0-0.6,0.2-0.9,0.5c-0.2,0.3-0.4,0.7-0.4,1.1c-0.4,2.5-0.6,4.1-0.6,4.5h-2.1l0.1-0.7c-0.1,0.1-0.1,0.1-0.2,0.2
	c-0.5,0.4-1,0.6-1.5,0.6c-0.9,0-1.6-0.3-1.9-1c-0.5,0.7-1.2,1-2.1,1c-0.8,0-1.5-0.3-2.1-0.8c-0.1-0.1-0.2-0.2-0.3-0.3
	c-0.1,0.1-0.2,0.3-0.3,0.4c-0.5,0.5-1.1,0.8-1.8,0.8c-0.7,0-1.2-0.2-1.5-0.5c-0.2-0.2-0.3-0.5-0.4-0.8c-0.3,0.3-0.6,0.6-1,0.9
	c-0.5,0.3-1.1,0.4-1.7,0.4c-0.6,0-1.1-0.2-1.5-0.5c-0.2-0.2-0.4-0.5-0.4-0.9c-0.3,0.4-0.6,0.7-1.1,1c-0.5,0.3-1.1,0.4-1.7,0.4
	s-1.1-0.2-1.5-0.5c-0.1-0.1-0.2-0.3-0.2-0.4c0,0.1-0.1,0.1-0.1,0.2c-0.5,0.5-1.1,0.8-1.8,0.8s-1.2-0.2-1.5-0.5
	c-0.3-0.3-0.5-0.8-0.5-1.3c0-0.1,0-0.2,0-0.4l0.6-4.7c0.1-0.2,0.3-0.3,0.6-0.4c0.3-0.1,0.6-0.1,0.9-0.1c0.3,0,0.5,0,0.7,0.1
	c-0.4,3.1-0.6,4.6-0.6,4.7c-0.1,0.2-0.1,0.4-0.1,0.5s0,0.3,0,0.4c0,0.3,0.2,0.4,0.6,0.4c0.3,0,0.6-0.2,0.9-0.7c0,0,0-0.1,0.1-0.1
	c0.1-0.7,0.3-3,0.8-7.1c0.1-1.2,0.5-2,1.2-2.3c0.3-0.2,0.6-0.2,1-0.2c1.4,0,2,0.6,2,1.9c0,0.1,0,0.2,0,0.3c-0.1,1.4-1,2.8-2.6,4.2
	c-0.1,0.5-0.1,1-0.2,1.5c-0.1,1.1-0.2,1.6-0.2,1.8c0,0.5,0.2,0.8,0.7,0.8c0.5,0,1-0.3,1.4-0.9c0.3-0.4,0.5-0.8,0.7-1.3
	c0.1-1.2,0.4-3.1,0.7-5.7c0.1-1.2,0.5-2,1.2-2.3c0.3-0.2,0.6-0.2,1-0.2c1.4,0,2,0.6,2,1.9c0,0.1,0,0.2,0,0.3c-0.1,1.4-1,2.8-2.6,4.2
	c-0.1,0.5-0.1,1-0.2,1.5c-0.1,1.1-0.2,1.6-0.2,1.8c0,0.5,0.2,0.8,0.7,0.8c0.5,0,1-0.3,1.4-0.9c0.2-0.3,0.4-0.6,0.6-1l0.4-3.6
	c0.1-0.2,0.3-0.3,0.6-0.4c0.3-0.1,0.6-0.1,0.9-0.1c0.3,0,0.5,0,0.7,0.1c-0.4,3.1-0.6,4.6-0.6,4.7c-0.1,0.2-0.1,0.4-0.1,0.5
	s0,0.3,0,0.4c0,0.3,0.2,0.4,0.6,0.4s0.6-0.2,0.9-0.7c0,0,0-0.1,0.1-0.1c-0.1-0.3-0.1-0.6-0.1-0.9c0-1.3,0.4-2.4,1.2-3.2
	c0.8-0.8,1.8-1.2,3-1.2c0,0,0.1,0,0.1,0c0.5,0,1,0.1,1.4,0.3c0.3-0.2,0.6-0.3,1-0.3c0.4,0,0.7,0.1,0.9,0.2c-0.1,0.8-0.2,1.5-0.3,2.2
	c-0.1,0.7-0.2,1.3-0.2,1.6C75.1,34.5,75,35,75,35.3c0,0.4,0.2,0.6,0.5,0.6c0.3,0,0.5-0.2,0.8-0.5c0.3-0.3,0.5-0.8,0.7-1.4l0.5-4
	c0.4-0.1,0.8-0.2,1-0.2c0.6,0,1,0.2,1.1,0.6c0.5-0.4,1.1-0.6,1.6-0.6c1.2,0,1.9,0.4,2.3,1.1c0.5-0.7,1.2-1.1,2.2-1.1
	c0.7,0,1.2,0.2,1.6,0.5c0.4,0.4,0.6,0.8,0.6,1.3c0,0.2,0,0.4-0.1,0.8c-0.2,1.5-0.4,2.4-0.4,2.7c0,0.5,0.2,0.7,0.5,0.7
	c0.3,0,0.5-0.2,0.9-0.5c0.3-0.4,0.5-0.9,0.7-1.6c0.3,0.4,0.6,0.7,0.6,0.9C89.5,36.4,88.6,37.3,87.2,37.3z M59.3,27.6
	c0-0.5-0.2-0.7-0.6-0.7c-0.2,0-0.4,0.2-0.5,0.5c-0.1,0.3-0.1,0.8-0.2,1.4c-0.1,0.6-0.1,1-0.1,1.2l0,0.5
	C58.8,29.4,59.3,28.5,59.3,27.6z M64,27.6c0-0.5-0.2-0.7-0.6-0.7c-0.2,0-0.4,0.2-0.5,0.5c-0.1,0.3-0.1,0.8-0.2,1.4
	c-0.1,0.6-0.1,1-0.1,1.2l0,0.5C63.5,29.4,64,28.5,64,27.6z M72.5,31.1c-0.7,0-1.2,0.2-1.6,0.7c-0.4,0.5-0.6,1.2-0.7,2.2
	c0,0.1,0,0.2,0,0.3c0,0.5,0.1,0.9,0.4,1.2c0.2,0.3,0.5,0.4,0.9,0.4c0.6,0,1.1-0.5,1.5-1.4l0.4-3.3C73.1,31.1,72.8,31.1,72.5,31.1z
	 M81.1,16.7L79.7,5.8l-2,10.3l-1.6-0.3l2.7-14.1L80.6,2L81.9,13l2-10.3L85.4,3L82.7,17L81.1,16.7z M67.5,25.9
	c0.2,0.2,0.4,0.5,0.4,0.9c0,0.3-0.1,0.6-0.4,0.9C67.3,27.9,67,28,66.7,28c-0.3,0-0.6-0.1-0.9-0.4c-0.2-0.2-0.4-0.5-0.4-0.9
	c0-0.3,0.1-0.6,0.4-0.9c0.2-0.2,0.5-0.4,0.9-0.4C67,25.6,67.3,25.7,67.5,25.9z M66.5,2l-0.2,5.2l3.2,0.1l0,1.3l-3.2-0.1l-0.2,5.2
	l3.6,0.1l0,1.3l-5.2-0.2l0.5-14.3L70,0.8l0,1.3L66.5,2z M53.7,25.6c0.3,0,0.6,0.1,0.9,0.4c0.2,0.2,0.4,0.5,0.4,0.9
	c0,0.3-0.1,0.6-0.4,0.9C54.3,27.9,54,28,53.7,28c-0.3,0-0.6-0.1-0.9-0.4c-0.2-0.2-0.4-0.5-0.4-0.9c0-0.3,0.1-0.6,0.4-0.9
	C53.1,25.7,53.4,25.6,53.7,25.6z M54.9,8.9l-3.1,0.4l0.8,6.4L51,15.9L49.3,1.6L51,1.4l0.8,6.5l3.1-0.4L54,1.1l1.6-0.2l1.7,14.2
	l-1.6,0.2L54.9,8.9z M50.5,25.5c0.6,0,0.9,0.3,0.9,1c0,1.1-0.2,2.7-0.5,4.8c-0.3,1.8-0.6,3.1-1.1,3.9c-0.2,0.4-0.5,0.7-0.7,1
	c-0.6,0.7-1.4,1-2.4,1c-1,0-1.8-0.4-2.2-1.3c-0.6,0.9-1.4,1.3-2.6,1.3c-0.7,0-1.3-0.2-1.7-0.6c-0.4-0.4-0.6-1-0.6-1.7
	c0-0.1,0-0.2,0-0.4l0.6-4.3c-1.1-0.8-1.6-1.7-1.6-2.7c0-0.6,0.2-1.1,0.6-1.5c0.4-0.4,1-0.6,1.6-0.6c1.3,0,2,0.7,2,2c0,0,0,0,0,0.1
	c0,0,0,0.1,0,0.1c0,0.1,0,0.1,0,0.2c0,0.1,0,0.2-0.1,0.4c0,0.2-0.1,0.4-0.1,0.6c0,0.2-0.1,0.5-0.1,0.8c0,0.3-0.1,0.7-0.2,1.1
	c-0.1,0.4-0.1,0.9-0.2,1.5c-0.1,0.6-0.2,1.1-0.2,1.5c-0.1,0.4-0.1,0.7-0.1,0.9c0,0.7,0.3,1,0.8,1c0.7,0,1.2-0.7,1.4-2l1-7.8
	c0.3-0.2,0.7-0.2,1.2-0.2c0.7,0,1,0.3,1,0.8l0,0.2c-0.4,3-0.6,4.8-0.8,5.5c-0.2,1.1-0.3,2-0.3,2.6s0.3,0.9,0.8,0.9
	c0.4,0,0.8-0.3,1.2-0.9c0.3-0.6,0.6-1.4,0.8-2.3c0.4-1.9,0.5-3.6,0.5-5c0-0.7-0.1-1.2-0.2-1.7C49.4,25.7,49.9,25.5,50.5,25.5z
	 M40.1,26.8c-0.2,0-0.3,0.1-0.4,0.2s-0.1,0.3-0.1,0.5c0,0.5,0.3,0.9,0.8,1.4l0.1-0.6c0-0.3,0.1-0.7,0.1-1
	C40.4,27,40.3,26.8,40.1,26.8z M40.5,13l-0.9,0.2l1.4,4.9l-1.6,0.4L35.5,4.8L38,4.1c1-0.3,1.8-0.2,2.5,0.3c0.7,0.5,1.3,1.6,1.8,3.2
	l0,0.1c0.5,1.7,0.5,2.9,0.2,3.7C42.1,12.2,41.4,12.7,40.5,13z M40.8,8.5l-0.2-0.6c-0.5-1.9-1.3-2.8-2.3-2.5l-0.9,0.2l1.8,6.4
	l0.9-0.2C41.1,11.5,41.4,10.4,40.8,8.5z M22.5,9.9l4.7-2.1L27.7,9l-3.2,1.4l2.1,4.8l2.9-1.3l0.5,1.2l-2.9,1.3l2.1,4.7l3.3-1.5
	l0.5,1.2L28.3,23L22.5,9.9z M20,27.7l-7-11l-1.7,1.1l-0.7-1.1l4.7-3l0.7,1.1l-1.7,1.1l7,11L20,27.7z M11.6,29.8
	c0.9,1,1.3,1.9,1.2,2.6c-0.1,0.8-0.5,1.5-1.2,2.1c-0.7,0.6-1.5,0.9-2.3,0.8c-0.8-0.1-1.8-0.7-3-1.8l1-1.2c0.8,0.8,1.5,1.3,2,1.5
	c0.5,0.2,1,0.1,1.4-0.2c0.8-0.7,0.7-1.6-0.2-2.7c-0.7-0.8-1.6-1.2-2.5-1.1l-2,0.2C4.4,30,3.1,29.5,2,28.2c-0.9-1.1-1.4-2-1.4-2.8
	S1,24,1.7,23.3c0.7-0.6,1.4-0.9,2.2-0.9c0.7,0,1.6,0.6,2.6,1.5l-0.9,1.3c-1.2-1.3-2.2-1.6-2.9-0.9C1.9,25,2,25.9,3,27
	c0.4,0.5,0.8,0.8,1.2,1.1c0.4,0.2,0.8,0.3,1.4,0.3l2-0.2c0.5,0,0.9-0.1,1.2,0c0.3,0,0.8,0.2,1.3,0.4C10.6,28.8,11.1,29.2,11.6,29.8z
	 M27.6,67.1c2.9-0.8,5.9-1.5,9-2.1l0.8,2.3c-6,1.2-11.6,2.7-16.8,4.4l-0.3-10.3l-6.2-7.3c2.8-0.9,5.7-1.8,8.7-2.6L27.6,67.1z
	 M29.7,88.9c0.1,0.2,0.3,0.3,0.5,0.3c0.5,0,0.7-0.3,0.7-1c0-0.5-0.2-0.9-0.5-1.1l-0.7-0.5c-0.6-0.4-0.8-1-0.8-1.7
	c0-0.6,0.1-1.1,0.4-1.3c0.2-0.3,0.6-0.4,1-0.4s0.7,0.1,1,0.4c0.2,0.2,0.4,0.7,0.4,1.3L31,84.9c0-0.8-0.3-1.2-0.7-1.2
	c-0.4,0-0.6,0.3-0.6,1c0,0.3,0,0.5,0.1,0.7c0.1,0.2,0.2,0.4,0.4,0.5l0.7,0.5c0.2,0.1,0.3,0.2,0.4,0.3c0.1,0.1,0.2,0.3,0.3,0.5
	c0.1,0.2,0.1,0.5,0.1,0.9c0,0.6-0.1,1-0.4,1.2c-0.3,0.2-0.6,0.4-1,0.4c-0.4,0-0.8-0.1-1-0.4c-0.2-0.3-0.4-0.8-0.5-1.5l0.7-0.1
	C29.5,88.3,29.6,88.7,29.7,88.9z M35.4,89.7h-0.7v-6.5h0.7V89.7z M40.9,88v-4.7h0.7v6.5h-0.8L39.3,85v4.7h-0.7v-6.5h0.8L40.9,88z
	 M46,83.2c0.4,0,0.7,0.1,0.9,0.3c0.2,0.2,0.4,0.6,0.4,1.2l-0.7,0.2c0-0.4-0.1-0.7-0.2-0.8c-0.1-0.2-0.3-0.2-0.5-0.2
	c-0.2,0-0.4,0.1-0.5,0.3c-0.1,0.2-0.2,0.5-0.2,1.1V88c0,0.5,0.1,0.8,0.2,1c0.1,0.2,0.3,0.3,0.5,0.3s0.4-0.1,0.5-0.2
	c0.1-0.2,0.2-0.5,0.2-0.9l0.6,0.1c-0.1,0.6-0.2,1.1-0.4,1.3c-0.2,0.3-0.5,0.4-1,0.4s-0.8-0.2-1-0.5c-0.2-0.3-0.4-0.9-0.4-1.7v-2.5
	c0-0.8,0.1-1.4,0.4-1.7C45.3,83.3,45.6,83.2,46,83.2z M52.6,89.2v0.6h-2.3v-6.5h2.3v0.6H51v2.4h1.4v0.6H51v2.3H52.6z M76.5,83.7
	c-0.2,0-0.4,0.1-0.5,0.3c-0.1,0.2-0.2,0.5-0.2,1l-0.6-0.1c0.1-0.6,0.2-1.1,0.4-1.3c0.2-0.2,0.6-0.4,1-0.4c0.4,0,0.8,0.1,1,0.3
	c0.2,0.2,0.4,0.6,0.4,1.2s-0.2,1.2-0.6,1.8l-1.7,2.7h2.2v0.6h-2.8v-0.4c0-0.3,0.1-0.6,0.2-0.8c0.1-0.2,0.3-0.6,0.7-1.2l0.8-1.2
	c0.3-0.4,0.5-0.9,0.5-1.4c0-0.4-0.1-0.6-0.2-0.7C76.9,83.8,76.7,83.7,76.5,83.7z M48.3,101.9l0.6-0.6l-1.6-0.3l0.1-0.5l1.9,0.4
	l0.6-0.6l-1.6-0.3l0.1-0.5l1.9,0.4l0.6-0.6l-1.6-0.3l0.1-0.5l1.9,0.4l12.3-12.4L48.9,72.2l-0.6,1.6l-2-4.6l0,0l0,0l4.6,2l-1.7,0.6
	l14.6,14.5l14.4-14.5l-1.6-0.6l4.6-2l0,0l0,0l-2,4.6l-0.6-1.7L64.1,86.7l12.3,12.2l1.8-0.4l0.1,0.5l-1.5,0.3l0.6,0.6l1.8-0.4
	l0.1,0.5l-1.5,0.3l0.6,0.6l1.8-0.4l0.1,0.5l-1.5,0.3l0.6,0.6l1.8-0.4l0.1,0.5l-1.7,0.4l0,0l-0.4,1.8l-0.5-0.1l0.4-1.9l-0.6-0.6
	l-0.3,1.6l-0.5-0.1l0.4-1.9l-0.6-0.6l-0.3,1.6l-0.5-0.1l0.4-1.9l-0.6-0.6l-0.3,1.6l-0.5-0.1l0.4-1.9L63.8,87L51.5,99.3l0.4,1.8
	l-0.5,0.1l-0.3-1.5l-0.6,0.6l0.4,1.8l-0.5,0.1l-0.3-1.5l-0.6,0.6l0.4,1.8l-0.5,0.1l-0.3-1.5l-0.6,0.6l0.4,1.8l-0.5,0.1l-0.4-1.7l0,0
	l-1.8-0.4l0.1-0.5L48.3,101.9z M63.8,103.3l0.9-5.4h0.7l-1.2,6.5h-0.9L62.1,98h0.7L63.8,103.3z M80.8,87.8v-2.6
	c0-0.8,0.1-1.3,0.4-1.6c0.2-0.3,0.6-0.4,1.1-0.4c0.5,0,0.8,0.1,1.1,0.4c0.2,0.3,0.4,0.8,0.4,1.6v2.6c0,0.8-0.1,1.3-0.4,1.6
	c-0.2,0.3-0.6,0.4-1.1,0.4c-0.5,0-0.8-0.1-1.1-0.4C80.9,89.1,80.8,88.6,80.8,87.8z M81.5,88c0,0.5,0.1,0.9,0.2,1
	c0.1,0.2,0.3,0.3,0.5,0.3c0.5,0,0.7-0.4,0.7-1.3v-2.9c0-0.9-0.2-1.3-0.7-1.3c-0.2,0-0.4,0.1-0.5,0.3c-0.1,0.2-0.2,0.5-0.2,1V88z
	 M88.1,83.2c0.5,0,0.8,0.1,1.1,0.4s0.4,0.8,0.4,1.6v2.6c0,0.8-0.1,1.3-0.4,1.6s-0.6,0.4-1.1,0.4c-0.5,0-0.8-0.1-1.1-0.4
	c-0.2-0.3-0.4-0.8-0.4-1.6v-2.6c0-0.8,0.1-1.3,0.4-1.6C87.3,83.3,87.6,83.2,88.1,83.2z M87.4,88c0,0.5,0.1,0.9,0.2,1
	c0.1,0.2,0.3,0.3,0.5,0.3c0.5,0,0.7-0.4,0.7-1.3v-2.9c0-0.9-0.2-1.3-0.7-1.3c-0.2,0-0.4,0.1-0.5,0.3c-0.1,0.2-0.2,0.5-0.2,1V88z
	 M24.3,47.1c11.8-2.8,24.9-4.4,38.8-4.4c14.8,0,28.7,1.7,41.2,4.9l-5.2,18c-10.4-2.8-22.7-4.4-35.9-4.4c-12.3,0-23.9,1.4-33.8,3.9
	L24.3,47.1z M82.2,56.5l0.3-2.4l0.4,0.1l0.4,2.5l0.7,0.1L83.7,54c0.5-0.2,0.8-0.7,0.9-1.7l0,0c0.1-0.7,0-1.3-0.2-1.6
	c-0.2-0.3-0.5-0.5-1-0.6L82.3,50l-0.8,6.4L82.2,56.5z M78.5,56l0.1-0.6L77,55.3l0.2-2.3l1.4,0.1l0.1-0.6l-1.4-0.1l0.2-2.3l1.6,0.1
	l0.1-0.6l-2.3-0.2l-0.6,6.4L78.5,56z M70.7,55.4l0.3-4.7l1.2,4.8l0.8,0l0.4-6.4l-0.7,0l-0.3,4.7L71.1,49l-0.8,0L70,55.4L70.7,55.4z
	 M64.4,55c0.2,0.3,0.5,0.5,0.9,0.5c0.5,0,0.8-0.2,1-0.7l0.1,0.6l0.5,0l0.1-3.4l-1.4,0l0,0.6l0.8,0l0,1.1c0,0.8-0.3,1.2-0.7,1.2
	c-0.2,0-0.4-0.1-0.5-0.3c-0.1-0.2-0.2-0.5-0.2-1l0-2.8c0-0.5,0.1-0.9,0.2-1.1c0.1-0.2,0.3-0.3,0.5-0.3c0.2,0,0.3,0.1,0.4,0.2
	c0.1,0.2,0.2,0.4,0.2,0.8l0.7-0.2c0-0.6-0.2-0.9-0.4-1.2c-0.2-0.2-0.5-0.3-0.9-0.3c-0.4,0-0.7,0.1-1,0.4c-0.3,0.3-0.4,0.8-0.4,1.7
	l0,2.6C64.1,54.1,64.2,54.7,64.4,55z M60.3,55.3l0.7,0L61,48.8l-0.7,0L60.3,55.3z M55.9,55c-0.2,0-0.4-0.1-0.5-0.3
	c-0.1-0.2-0.2-0.6-0.3-1.1l-0.7,0.2c0.1,0.7,0.3,1.2,0.5,1.5c0.3,0.3,0.6,0.4,1,0.4c0.4,0,0.8-0.2,1-0.4c0.2-0.3,0.4-0.7,0.3-1.3
	c0-0.3-0.1-0.6-0.2-0.9c-0.1-0.2-0.2-0.4-0.3-0.5c-0.1-0.1-0.3-0.2-0.4-0.3l-0.8-0.5c-0.2-0.1-0.3-0.3-0.4-0.5
	c-0.1-0.2-0.1-0.4-0.1-0.7c0-0.7,0.2-1,0.6-1c0.4,0,0.7,0.4,0.7,1.1l0.7-0.2c-0.1-0.6-0.2-1-0.5-1.3c-0.2-0.2-0.6-0.3-1-0.3
	c-0.4,0-0.7,0.2-1,0.4c-0.2,0.3-0.3,0.7-0.3,1.4c0,0.8,0.3,1.3,0.9,1.7l0.8,0.5c0.3,0.2,0.5,0.6,0.5,1.1
	C56.6,54.6,56.3,54.9,55.9,55z M49.3,55.9l2.3-0.2l0-0.6L50,55.2l-0.2-2.3l1.4-0.1l0-0.6l-1.4,0.1L49.6,50l1.6-0.1l0-0.6l-2.3,0.2
	L49.3,55.9z M43.6,56.5l1.2-0.2c0.5-0.1,0.8-0.2,1-0.6c0.2-0.3,0.3-0.9,0.2-1.7l-0.3-2.3c-0.1-0.8-0.3-1.3-0.6-1.6S44.5,49.9,44,50
	l-1.2,0.2L43.6,56.5z M45,51.8l0.3,2.6c0.1,0.9-0.1,1.3-0.6,1.4l-0.5,0.1l-0.6-5.2l0.5-0.1C44.6,50.5,44.9,50.9,45,51.8z M83.4,50.7
	c0.2,0,0.4,0.1,0.5,0.3c0.1,0.2,0.1,0.5,0.1,1l0,0.3c-0.1,0.8-0.4,1.2-0.9,1.2l-0.4-0.1l0.4-2.8L83.4,50.7z M61.8,75.3v-6.5H63
	l0.8,4.5l0.8-4.5h1.1v6.5h-0.7v-5.8l-0.8,4.4h-0.8l-0.8-4.4v5.8H61.8z M101,67.5l4.7-15.5c3,0.8,5.9,1.6,8.7,2.5l-6.2,7.3l-0.3,10.3
	c-5.2-1.8-10.8-3.2-16.8-4.4l0.8-2.3C95.1,66,98.1,66.7,101,67.5z M93.8,83.2c0.4,0,0.7,0.1,1,0.3c0.2,0.2,0.4,0.6,0.4,1.2l-0.7,0.2
	c0-0.4-0.1-0.7-0.2-0.8c-0.1-0.2-0.3-0.2-0.5-0.2s-0.4,0.1-0.5,0.3c-0.1,0.2-0.2,0.5-0.2,1.1v1.2c0.2-0.2,0.5-0.3,0.9-0.3
	c0.4,0,0.7,0.1,0.9,0.4c0.2,0.3,0.4,0.8,0.4,1.5c0,0.7-0.1,1.3-0.4,1.5c-0.3,0.3-0.6,0.4-1.1,0.4c-0.5,0-0.8-0.1-1.1-0.4
	c-0.2-0.3-0.4-0.8-0.4-1.5v-2.6c0-0.8,0.1-1.3,0.4-1.7S93.4,83.2,93.8,83.2z M93.2,88c0,0.8,0.2,1.3,0.7,1.3c0.5,0,0.7-0.4,0.7-1.3
	v-0.2c0-0.8-0.2-1.3-0.7-1.3c-0.5,0-0.7,0.4-0.7,1.2V88z"/>
<g>
	<path class="st1" d="M24.8,77.4C24.9,77.4,24.9,77.4,24.8,77.4c0.1,0.1,0.1,0.1,0.1,0.2c0,0.4,0,0.9,0,1.3c0,0.1,0,0.2-0.1,0.2l0,0
		l0,0C24.8,78.6,24.8,78,24.8,77.4z"/>
	<path d="M24.9,79.2c0-0.6,0-1.2,0-1.8c0.1-5.6,0.1-11.3,0.2-16.9c0.1-7.8,0.2-15.6,0.3-23.3c0.1-7.6,0.2-15.3,0.3-22.9
		c0-0.1,0-0.3,0.2-0.3c0.1,0,0.2-0.1,0.3-0.2c2-1.1,3.7-2.4,5.4-3.9c0.9-0.7,1.8-1.4,2.7-2.3c1.3-1.3,2.5-2.8,3.5-4.3
		c0.6-0.8,1.1-1.7,1.7-2.5c0.2-0.4,0.2-0.3,0.6-0.2C40.8,0.9,41.4,1,42,1.1c1.4,0.3,2.7,0.8,4.1,1.1c1.7,0.5,3.5,0.8,5.3,1
		c1.6,0.1,3.2,0.3,4.7,0.5c1.6,0.2,3.3,0.3,4.9,0.4c0.8,0,1.6,0.1,2.4,0.1c1.1,0.1,2.2-0.1,3.3-0.1c1,0,2.1-0.1,3.1-0.2
		C71,4,72.1,3.8,73.3,3.7c1-0.1,2-0.2,3-0.3c1.6-0.2,3.3-0.5,4.9-0.9c2.6-0.6,5.2-1.1,7.8-1.9c0.4-0.1,0.5-0.1,0.8,0.3
		c1.2,2.1,2.6,4,4,5.8C94.3,7.4,95,8,95.7,8.7c1.1,1,2.2,2,3.4,2.9c0.8,0.6,1.6,1,2.4,1.6c0.6,0.4,1.2,0.8,1.9,1.2
		c0.1,0.1,0.1,0.2,0.1,0.3c0,2.2,0,4.4,0,6.6c-0.1,19.2-0.2,38.5-0.3,57.7c0,0.6-0.2,1.1-0.3,1.7c0,0.2-0.1,0.4-0.1,0.6
		c-0.1,0.6-0.4,1.1-0.6,1.6c-0.7,1.4-1.7,2.5-2.7,3.7c-0.3,0.3-0.6,0.5-0.9,0.8c-1.1,1.1-2.5,1.8-3.8,2.5c-1.6,0.9-3.3,1.7-5,2.4
		c-1,0.4-2.1,0.7-3.1,1.1c-3.1,1.1-6.2,2.2-9.3,3.2c-0.9,0.3-1.8,0.9-2.7,1.3c-1.8,0.9-3.6,1.8-5.4,2.9c-0.3,0.2-0.6,0.4-0.9,0.7
		c-1.4,1.1-2.5,2.3-3.7,3.6c-0.1,0.1-0.1,0.3-0.3,0.4c-0.2-0.2-0.4-0.3-0.5-0.5c-1.5-1.6-3.3-2.8-5.2-4c-1.5-0.9-3-1.8-4.5-2.7
		c-0.9-0.5-1.9-0.8-2.8-1.2c-2.2-0.9-4.2-1.9-6.4-2.7c-1.1-0.4-2.3-0.8-3.4-1.2c-2.7-1-5.4-2.3-7.9-3.8c-1.7-1-3.3-2.1-4.8-3.4
		c-0.2-0.2-0.3-0.4-0.5-0.6c-1.5-1.6-2.5-3.4-3.1-5.5C25.1,79.7,25,79.4,24.9,79.2z"/>
	<linearGradient id="SVGID_1_" gradientUnits="userSpaceOnUse" x1="64.1974" y1="104.2871" x2="64.1974" y2="1.391">
		<stop  offset="0" style="stop-color:#FEF4C1"/>
		<stop  offset="1" style="stop-color:#FDCF9D"/>
	</linearGradient>
	<path class="st2" d="M25.7,78.5c0-0.6,0-1.2,0-1.7c0.1-5.5,0.1-11.1,0.2-16.6c0.1-7.6,0.2-15.3,0.3-22.9c0.1-7.5,0.2-15,0.3-22.5
		c0-0.1,0-0.3,0.2-0.3c0.1,0,0.2-0.1,0.3-0.2c1.9-1,3.6-2.4,5.3-3.8c0.9-0.7,1.8-1.4,2.6-2.2c1.3-1.3,2.4-2.7,3.5-4.2
		c0.6-0.8,1.1-1.6,1.7-2.4c0.2-0.3,0.2-0.3,0.6-0.2c0.6,0.2,1.1,0.3,1.7,0.4c1.3,0.3,2.6,0.7,4,1.1c1.7,0.5,3.4,0.8,5.2,1
		c1.6,0.1,3.1,0.3,4.7,0.5C57.8,4.8,59.4,4.9,61,5c0.8,0,1.6,0.1,2.4,0.1c1.1,0.1,2.2-0.1,3.3-0.1c1,0,2.1-0.1,3.1-0.2
		c1.1-0.1,2.2-0.2,3.4-0.3c1-0.1,2-0.2,3-0.3c1.6-0.2,3.2-0.5,4.8-0.9c2.5-0.6,5.1-1.1,7.6-1.9c0.4-0.1,0.5-0.1,0.8,0.3
		c1.2,2,2.6,3.9,4,5.7c0.5,0.7,1.2,1.3,1.9,1.9c1.1,1,2.2,1.9,3.3,2.8c0.7,0.6,1.6,1,2.3,1.5c0.6,0.4,1.2,0.8,1.8,1.1
		c0.1,0.1,0.1,0.2,0.1,0.3c0,2.2,0,4.3,0,6.5c-0.1,18.9-0.2,37.7-0.3,56.6c0,0.6-0.2,1.1-0.3,1.7c0,0.2-0.1,0.4-0.1,0.6
		c-0.1,0.6-0.4,1.1-0.6,1.6c-0.7,1.3-1.6,2.5-2.6,3.6c-0.3,0.3-0.6,0.5-0.9,0.8c-1.1,1.1-2.4,1.8-3.8,2.5c-1.6,0.9-3.3,1.7-4.9,2.4
		c-1,0.4-2,0.7-3,1c-3,1.1-6.1,2.1-9.1,3.2c-0.9,0.3-1.7,0.8-2.6,1.3c-1.8,0.9-3.6,1.8-5.2,2.8c-0.3,0.2-0.6,0.4-0.8,0.7
		c-1.4,1-2.5,2.3-3.6,3.5c-0.1,0.1-0.1,0.3-0.3,0.4c-0.2-0.2-0.3-0.3-0.5-0.5c-1.5-1.5-3.3-2.8-5.1-3.9c-1.5-0.9-2.9-1.8-4.4-2.6
		c-0.9-0.5-1.9-0.8-2.8-1.2c-2.1-0.8-4.2-1.8-6.3-2.7c-1.1-0.4-2.2-0.8-3.3-1.2c-2.7-1-5.3-2.3-7.7-3.7c-1.6-1-3.2-2-4.7-3.3
		c-0.2-0.2-0.3-0.4-0.5-0.6c-1.4-1.5-2.4-3.4-3.1-5.3C25.9,79,25.8,78.8,25.7,78.5z"/>
	<path class="st3" d="M102.5,50.2c0-0.1,0-0.2,0-0.3c0-3,0-6.1,0-9.1c0-0.1,0-0.2,0-0.3c0,0.5,0,1.1,0,1.6c0,2.6,0,5.2,0,7.8
		C102.5,50,102.5,50.1,102.5,50.2z"/>
	<path class="st3" d="M26.1,45.3c0,0.7,0,1.5,0,2.2c0,0,0,0.1,0,0.1C26.1,46.9,26.1,46.1,26.1,45.3z"/>
	<path class="st3" d="M26.1,50.3c0,0.7,0,1.5,0,2.2c0,0,0,0.1,0,0.1C26,51.8,26,51,26.1,50.3z"/>
	<path class="st3" d="M26.2,40.4c0,0.7,0,1.5,0,2.2c0,0,0,0.1,0,0.1C26.1,42,26.1,41.2,26.2,40.4z"/>
	<path d="M67.3,39.2c0,0.4,0,0.8,0,1.2c0.1,0.4,0,0.8,0,1.2c0,0.4,0,0.8,0,1.3c0.1,0.4,0,0.8,0,1.1c0,0.2,0,0.5,0,0.7
		c0,0.1,0,0.2-0.2,0.1c-0.9-0.4-1.7-0.7-2.6-1.2c-0.4-0.2-0.8-0.2-1.2-0.1c-1.1,0.4-2.1,0.7-3.2,1.1c0-0.6,0.1-1.2,0.1-1.7
		c0-0.5,0-0.9,0.1-1.4c0-0.4,0-0.8,0.1-1.2c0-0.1,0-0.1,0-0.2c0-0.5,0-1,0.1-1.4c0.1-0.8,0.1-1.6,0.1-2.4c0-0.7,0.1-1.4,0.1-2.1
		c0.2-2.6,0.3-5.2,0.5-7.9c0-0.7,0.1-1.4,0.1-2.1c0-0.4-0.1-0.6-0.5-0.6c0.1-0.3-0.1-0.6-0.2-0.9c0,0.3,0,0.6,0,0.9
		c0,0.1,0,0.2-0.1,0.2c-1.1,0.1-2.1,0.6-3.2,0.9c-0.6,0.2-0.6,0.1-0.8-0.4c-0.4-0.8-0.6-1.7-0.7-2.6c0-0.1,0.1-0.3-0.2-0.3
		c-0.3,0-0.3,0-0.3,0.3c0,0.2,0,0.4,0,0.6c-0.2,0.8-0.1,1.5,0.2,2.2c0.2,0.5,0.2,0.5-0.2,0.9c-0.1,0.1-0.3,0.3-0.5,0.3
		c-0.7,0.2-1.3,0.6-1.9,1c-0.2,0.1-0.3,0.1-0.4,0c-0.6-0.6-1.2-1.2-1.8-1.9c-0.1-0.1-0.2-0.2-0.3-0.4c-0.3-0.6-0.7-1.2-1.3-1.6
		c-0.4-0.3-0.9-0.7-1.3-1c-0.3-0.3-0.5-0.7-0.7-1.1c-0.4-0.8-0.7-1.6-1.1-2.4c-0.2-0.3-0.1-0.6-0.2-0.9c0-0.1,0-0.2,0-0.3
		c-0.1-0.4-0.1-0.7,0.2-1c0.1-0.1,0.1-0.3,0-0.5c-0.2-0.4-0.3-0.9-0.4-1.4c0-0.2,0-0.2,0.1-0.3c1.5-1,3-1.9,4.7-2.5
		c0.2-0.1,0.4,0,0.5,0.2c0.1,0.2,0.2,0.3,0.2,0.5c0.3,0.7,0.7,1.4,1.3,1.9c0.3,0.3,0.4,0.7,0.5,1.1c0,0.2,0.1,0.3,0.3,0.3
		c0.2,0,0.4,0,0.6,0c0,0,0-0.1-0.1-0.1c-0.4-0.4-0.6-0.9-0.8-1.5c-0.2-0.6-0.5-1.2-0.8-1.7c-0.2-0.4-0.2-0.8,0.1-1.3
		c0.2-0.4,0.6-0.6,1-0.7c1.8-0.4,3.6-0.7,5.4-1.1c0.1,0,0.2,0,0.2,0.1c0.2,0.6,0.4,1.2,0.3,1.9c-0.1,0.6,0.1,1.1,0.4,1.7
		c0.3,0.7,0.5,1.4,0.6,2.1c0,0.2,0.1,0.2,0.3,0.2c0.2,0,0.1-0.2,0.1-0.3c-0.2-1.2-0.4-2.4-0.6-3.5c0-0.2-0.1-0.4-0.2-0.5
		c-0.2-0.4-0.3-0.8-0.1-1.3c0-0.2,0-0.3,0.2-0.5c0.1-0.1,0.2,0,0.3,0c0.4,0,0.4,0,0.4-0.4c0-0.5-0.1-1-0.1-1.5c0-0.2,0-0.2,0.2-0.4
		c0.1-0.1,0.2,0,0.3,0.1c0.7,0.4,1.4,0.8,2.2,0.8c0.8,0.1,1.7,0.1,2.5-0.1c0.1,0,0.3-0.1,0.4-0.2c0.5-0.3,1.1-0.5,1.7-0.8
		c0,0.5-0.1,1-0.1,1.5c-0.1,0.7-0.1,0.6,0.6,0.7c0.7,0.1,1.4,0.1,2.1,0.1c0.2,0,0.2,0,0.2,0.2c-0.2,1.1-0.4,2.2-0.6,3.3
		c0,0.2,0,0.4,0,0.6c0,0.7-0.1,1.3-0.2,2c0,0.3-0.2,0.5-0.3,0.8c0,0,0,0,0.1,0c0.3,0,0.4-0.1,0.6-0.4c0.3-0.6,0.4-1.1,0.4-1.8
		c0-0.7,0-1.4-0.2-2.2c0-0.1,0-0.3,0-0.4c0.2-0.5,0.3-0.9,0.5-1.4c0.1-0.4,0.2-0.4,0.7-0.4c0.2,0,0.4,0,0.6,0.1c0.1,0,0.3,0,0.4,0.1
		c0.4,0.4,1,0.4,1.5,0.4c0.7,0.1,1.3,0.2,1.9,0.4c0.8,0.3,1.5,0.6,2.1,1.1c0,0,0.1,0.1,0.1,0.1c0,0.4,0.2,0.9-0.2,1.2
		c-0.4,0.4-0.5,0.9-0.7,1.4c-0.1,0.4-0.4,0.7-0.6,1.1c0.5,0,0.5,0,0.7-0.3c0.2-0.5,0.5-0.9,0.6-1.4c0.1-0.4,0.4-0.8,0.6-1.1
		c0.1-0.1,0.2-0.2,0.4-0.2c0.4,0.1,0.9,0.2,1.3,0.3c0.1,0,0.2,0.1,0.2,0.1c0.1,0.2,0.4,0.3,0.6,0.3c0.6,0.2,1.2,0.5,1.6,1.1
		c0.1,0.2,0.2,0.3,0.3,0.4c0.1,0.1,0.1,0.1,0.2,0.2c0.4,0.1,0.8,0.4,1.2,0.6c0.2,0.1,0.3,0.4,0.5,0.6c0.1,0.1,0,0.1,0,0.2
		c-0.3,0.5-0.6,0.8-1.2,1c-0.6,0.3-1.1,0.7-1.3,1.4c-0.2,0.5-0.5,0.9-0.7,1.3c-0.2,0.3-0.4,0.6-0.5,0.9c-0.2,0.3-0.3,0.6-0.6,0.9
		c0,0-0.1,0.1-0.1,0.1c0,0,0,0.1-0.1,0.1c-0.3,0.2-0.6,0.3-0.8,0.7c-0.1,0.2-0.2,0.3-0.4,0.4c-0.8,0.4-1.3,1.1-2,1.7
		C77,24.7,77,24.8,77,24.9c-0.3,0.9-0.8,1.6-1.3,2.4c-0.1,0.1-0.1,0.2-0.3,0.1c-1-0.5-2-1-2.9-1.7c-0.1-0.1-0.2-0.2-0.1-0.3
		c0.4-1,0.8-1.9,1.3-2.8c0.2-0.3,0.5-0.6,0.7-1c-0.1-0.1-0.1,0-0.2,0c-0.5,0-0.5,0-0.5,0.4c0,0.1,0,0.1-0.1,0.2
		c-0.2,0.3-0.4,0.7-0.6,1.1c0,0.1-0.1,0.2-0.2,0.2c-0.5,0.2-0.7,0.7-0.9,1.2c-0.1,0.2-0.1,0.2-0.3,0.2c-0.9-0.1-1.9-0.2-2.8-0.5
		c-0.5-0.2-0.9-0.5-1.3-0.8c0,0,0-0.1,0-0.1c0-0.4-0.1-0.8,0.1-1.2c0.1-0.1,0.2-0.3,0.3-0.5c-0.4,0.1-0.7,0.3-0.9,0.6
		c-0.1,0.1,0,0.2,0,0.3c0.1,3.4,0.2,6.9,0.2,10.3c0,1.2,0,2.3,0.1,3.5c0,0.1,0,0.3,0,0.4c0,0.4,0,0.8,0,1.2
		C67.4,38.4,67.3,38.8,67.3,39.2z"/>
	<path d="M31.1,31c0.2-0.2,0.4-0.4,0.6-0.6c0.1-0.1,0.2-0.2,0.2-0.3c0.2-1.3,0.9-2.3,1.7-3.4c0.3-0.3,0.3-0.7,0.4-1.1
		c0.1-0.8,0.6-1.3,0.9-2c0-0.1,0.1-0.1,0.2-0.1c0.2-0.1,0.5-0.3,0.7-0.4c0.3-0.2,0.6-0.5,0.7-0.9c0.2-0.7,0.7-1.1,1.1-1.6
		c0.1-0.1,0.1-0.2,0.2-0.2c0.1-0.1,0.1-0.2,0.2-0.2c0.2,0,0.3,0.1,0.3,0.3c0,0.1,0.1,0.2,0.1,0.3c0.3,0.4,0.5,0.9,0.5,1.4
		c0,0.1,0.1,0.2,0.1,0.3c0.4,0.7,0.8,1.5,1.1,2.2c0.2,0.5,0.3,1,0.4,1.5c0,0.1,0.1,0.2,0.2,0.3c0.8,0.2,1.6,0.4,2.4,0.6
		c0.4,0.1,0.8,0,1.1,0c0.1,0,0.1,0,0.1-0.1c0.3-0.7,0.9-1.1,1.3-1.6c0.2-0.2,0.4-0.5,0.7-0.5c-0.4,0-0.8,0.1-1.1,0.4
		c-0.5,0.5-1,0.9-1.3,1.5c-0.1,0.1-0.1,0.1-0.3,0.1c-0.8-0.1-1.6-0.2-2.4-0.3c-0.2,0-0.3-0.1-0.4-0.3c-0.6-1.3-1.2-2.5-1.8-3.8
		c-0.4-0.8-0.6-1.7-1-2.6c-0.1-0.1,0-0.2,0.1-0.2c0.6-0.6,1.2-1.2,1.9-1.7c0.6-0.4,1-0.9,1.5-1.4c0.5-0.5,1.1-0.9,1.7-1.2
		c0.3-0.2,0.6-0.3,0.9-0.5c0.3-0.1,0.5-0.1,0.7,0.1c0.2,0.2,0.5,0.4,0.6,0.7c0.2,0.5,0,1-0.1,1.4c-0.2,0.7,0,1.4,0,2
		c0,0.1,0.1,0.1,0.1,0.2c0.4,0.3,0.6,0.7,0.8,1.1c0,0.1,0.1,0.2,0.1,0.3c0.7,0.8,0.6,1.7,0.4,2.6c-0.1,0.5-0.2,0.9-0.3,1.4
		c0.3-0.1,0.5-0.3,0.6-0.5c0.1-0.3,0.2-0.5,0.3-0.8c0.1-0.3,0.3-0.4,0.6-0.1c0.5,0.6,1.1,1.1,1.7,1.4c0.1,0.1,0.2,0.2,0.3,0.3
		c0.3,0.6,0.7,1.1,1,1.6c0.1,0.1,0.1,0.2,0.1,0.4c0,0.3,0.1,0.7,0,1c-0.1,0.4-0.5,0.4-0.7,0.7c-0.6,0.7-1.4,1.2-2.1,1.9
		c-0.2,0.2-0.4,0.5-0.6,0.8c-0.2,0.4-0.5,0.9-0.7,1.4c-0.1-0.1-0.2-0.3-0.2-0.4c-0.5-0.9-1.1-1.6-1.9-2.3C45.2,30,45.1,30,45,29.9
		c-0.3-0.1-0.7-0.2-1-0.4c-0.5-0.2-0.9-0.4-1.3-0.8c-0.3-0.4-0.7-0.6-1.1-1c0.2-0.1,0.3-0.2,0.5-0.4c0,0,0,0,0,0
		c-0.2,0.1-0.4,0.1-0.7,0.2c-0.2,0.1-0.3,0.2,0,0.4c0.7,0.5,1.2,1.2,1.9,1.7c0.2,0.2,0.4,0.4,0.5,0.7c0.1,0.1,0.2,0.2,0.4,0.3
		c0.7,0.1,1.3,0.5,1.7,1.1c0.3,0.5,0.8,0.8,1.2,1.3c0.1,0.1,0.2,0.2,0,0.3c-0.5,0.6-0.9,1.3-1.1,2.1c-0.1,0.1-0.1,0.2-0.3,0.2
		c-0.1,0-0.1,0-0.2,0c-0.4,0.1-0.8,0-1.1-0.4c-0.1-0.1-0.2-0.1-0.3-0.2c-1-0.4-2.1-0.5-3.1-0.6c-0.7-0.1-1.5-0.2-2.1-0.6
		c-0.5-0.2-1-0.4-1.5-0.5c-0.8-0.2-1.4-0.7-2.1-1.1c-1.1-0.6-2.3-0.9-3.5-0.9C31.6,31.1,31.4,31.1,31.1,31z"/>
	<path d="M80.3,21.9C80.3,21.9,80.3,21.9,80.3,21.9c0.9-0.6,1.4-1.3,1.7-2.2c0.3-0.7,0.6-1.3,0.8-1.9c0-0.1,0.1-0.2,0.2-0.2
		c0.6-0.2,1-0.5,1.5-0.9c0.3-0.3,0.8-0.5,1.2-0.4c0.4,0.1,0.8,0.1,1,0.5c0.1,0.2,0.3,0.4,0.5,0.4c0.2,0,0.2,0.1,0.3,0.3
		c0,0.1,0.1,0.2,0.1,0.3c0.1,0.6,0.5,0.8,1,0.9c0.4,0.1,0.7,0.3,0.7,0.7c0,0.3,0.2,0.6,0.3,0.9c-0.3,0-0.6-0.1-0.8-0.1
		c-0.1,0-0.2,0-0.3,0c-0.3,0-0.5-0.1-0.4,0.3c0,0,0,0,0,0c-0.5,0.5-0.7,1.2-1.2,1.7c-0.5,0.5-0.9,0.9-1.5,1.2
		c-0.1,0.1-0.2,0.1-0.2,0.2c-0.5,0.7-1.2,1.1-2,1.2c-0.2,0-0.3,0.1-0.6,0c0.2,0.4,0,0.7,0,1.1c0,0.1-0.1,0.1-0.2,0.2
		c-0.5,0.4-1,0.7-1.5,1c-0.5,0.3-0.9,0.7-1.1,1.2c-0.2,0.4-0.5,0.6-0.8,0.8c-0.4,0.3-0.7,0.2-1.2,0c-0.7-0.4-1.2-0.9-1.5-1.6
		c-0.1-0.3-0.2-0.5,0-0.8c0.6-1.1,1.4-2.2,2.2-3.1c0.3-0.4,0.8-0.6,1.2-0.9c0.1-0.1,0.3-0.1,0.4,0c0.2,0.1,0.4,0.1,0.5,0.1
		c0,0,0,0,0,0C80,22.8,80.2,22.3,80.3,21.9z"/>
	<path d="M93.8,25.9c0,0.5-0.2,0.8-0.4,1.2c0,0.1-0.1,0.1-0.2,0.1c-0.1,0-0.3,0.1-0.4,0.1c-0.8,0.2-1.6,0.5-2.2,1.1
		c-0.1,0.1-0.2,0.1-0.2,0.2c-1.4,0.7-2.9,1.4-4.4,2c-0.5,0.2-0.9,0.4-1.2,0.7c-0.7,0.5-1.4,0.9-2.2,1.2c-0.4,0.2-0.9,0.1-1.3,0.2
		c0,0-0.1,0-0.1,0c0,0-0.1,0-0.1-0.1c-0.8-0.5-1.4-1.1-1.8-2c-0.1-0.3-0.3-0.5-0.4-0.7c-0.1-0.1-0.1-0.2,0.1-0.2c0,0,0,0,0,0
		c1-0.4,1.8-1,2.5-1.8c0,0,0-0.1,0.1-0.1c0.8-0.4,1.1-1.2,1.5-2c0.1-0.2,0.2-0.3,0.4-0.4c1.2-0.5,2.3-1.2,3.4-1.9
		c0.1-0.1,0.2-0.2,0.3-0.3c0.5-0.8,1.2-1.5,1.9-2.2C89,21,89.1,21,89.2,21c0.3,0,0.6-0.1,0.9-0.1c0.2,0,0.4,0,0.6,0.1
		c0.1,0.1,0.2,0.2,0.3,0.2c0.4,0.2,0.6,0.4,0.7,0.9c0.1,0.3,0.3,0.5,0.5,0.7c0.4,0.4,0.7,0.9,0.9,1.4c0.2,0.4,0.5,0.8,0.6,1.2
		C93.8,25.6,93.8,25.7,93.8,25.9z"/>
	<path d="M98.2,36.4c0,0.2,0.1,0.5,0.1,0.7c0,0.2,0,0.5,0,0.7c-0.1,0.4-0.2,0.7-0.3,1.1c0,0.2-0.1,0.2-0.3,0.2c-1.4,0-2.8,0-4.3,0
		c-0.6,0-1.2,0.1-1.8,0.2c-0.4,0.1-0.8-0.1-1.2-0.1c-0.4,0-0.7-0.1-1.1-0.1c-1.3-0.1-2.4,0.3-3.6,0.8c-0.3,0.1-0.6,0.3-0.9,0.5
		c-0.1,0.2-0.2,0.2-0.3,0.1c-0.4-0.1-0.8-0.1-1.2-0.2c-0.3,0-0.3-0.1-0.3-0.3c0.1-0.4,0.1-0.8,0.1-1.2c0-0.2,0.1-0.5,0.1-0.7
		c0-0.1,0.2-0.3,0.3-0.2c0.4,0,0.8,0,1.2-0.2c0.8-0.5,1.8-0.8,2.7-1.1c0,0,0.1,0,0.1-0.1c0.9-0.2,1.8-0.2,2.6-0.4
		c1-0.3,2.1-0.5,3-0.9c0.5-0.2,1.1-0.3,1.6-0.4c0.8-0.1,1.6-0.4,2.4-0.6c0.2,0,0.3,0,0.4,0.1c0.4,0.4,0.5,0.8,0.5,1.4
		C98.2,35.9,98.1,36.2,98.2,36.4z"/>
	<path d="M90.4,35.1c-0.5,0-1.1,0-1.6,0c-0.2,0-0.2,0-0.2-0.2c0-0.5,0-1-0.3-1.4c-0.1-0.2,0-0.4,0.1-0.6c0-0.2,0-0.3-0.2-0.4
		c-0.3-0.1-0.6-0.3-0.9-0.4c-0.1,0-0.1-0.1-0.1-0.2c0.3-0.5,0.5-1,0.9-1.5c0-0.1,0.1-0.1,0.2-0.1c0.5-0.2,1-0.5,1.5-0.7
		c1.1-0.3,2.1-0.8,3.1-1.4c0.1,0,0.2-0.1,0.2-0.1c0.1-0.4,0.6-0.5,0.9-0.7c0.1-0.1,0.3-0.2,0.4-0.2c0.1-0.1,0.3,0,0.4,0.1
		c0.4,0.6,0.9,1.1,1.1,1.8c0.1,0.3,0.1,0.6,0.2,0.9c0,0.3,0.1,0.6,0.3,0.9c0.3,0.6,0.5,1.3,0.8,1.9c0.1,0.1,0,0.2-0.1,0.3
		c-0.3,0.4-0.8,0.6-1.1,1c-0.1,0.1-0.3,0.1-0.5,0.1c-0.6,0-1.2,0.2-1.7,0.5c-0.5,0.3-1.2,0.4-1.8,0.4C91.4,35.1,90.9,35.1,90.4,35.1
		z"/>
	<path d="M37.3,36.3c-0.1,0.3-0.2,0.5-0.4,0.7c-0.2,0.2-0.4,0.2-0.6,0.3c-0.3,0.2-0.7,0.2-1.1,0.3c-0.1,0-0.2,0-0.3,0
		c-1.5,0-3,0-4.5,0c-0.1,0-0.2,0-0.3,0c-0.2-0.2-0.3-0.3-0.5-0.5c-0.2-0.1-0.2-0.2-0.1-0.4c0-0.1,0.1-0.2,0.1-0.3
		c0.4-1.4,1.1-2.6,1.4-4c0.1-0.2,0-0.5,0.1-0.7c0.1-0.1,0.2-0.2,0.4-0.2c0.6,0.2,1.2,0.4,1.8,0.4c0.1,0,0.1,0,0.2,0.1
		c0.5,0.2,1,0.4,1.6,0.5c0.2,0,0.3,0.1,0.5,0.2c0.6,0.4,1.2,0.8,1.8,1c0.1,0.1,0.2,0.1,0.2,0.3C37.7,34.8,37.4,35.5,37.3,36.3z"/>
	<path d="M45.2,36.3c0,0.1,0.1,0.2,0,0.3c-0.3,0.7-0.3,1.4-0.5,2c0,0.2-0.1,0.2-0.2,0.3c-0.8,0.4-1.6,0.4-2.5,0.3
		c-1.7-0.1-3.4-0.6-4.9-1.5c-0.4-0.2-0.4-0.2-0.1-0.5c0.2-0.2,0.3-0.3,0.5-0.5c0.1-0.1,0.1-0.3,0.2-0.5c0.2-0.6,0.2-1.2,0.2-1.8
		c0-0.4,0.1-0.5,0.5-0.4c1,0.2,2,0.3,3.1,0.5c0.3,0,0.5,0.1,0.7,0.2c0.7,0.3,1.5,0.5,2.2,0.6c0.2,0,0.3,0.1,0.4,0.3
		C44.9,35.9,45.1,36.1,45.2,36.3z"/>
	<path d="M86.5,36.2c-0.8,0.6-1.7,0.9-2.6,1.2c-0.2,0.1-0.4,0.1-0.7,0.1c-0.2,0-0.3,0-0.4-0.2c-0.2-0.3-0.4-0.6-0.5-1
		c-0.1-0.4-0.1-0.8-0.3-1.2c-0.1-0.3-0.4-0.5-0.6-0.8c-0.2-0.2-0.1-0.4-0.1-0.6c0-0.1,0.1-0.1,0.2-0.1c1.3-0.5,2.5-1,3.8-1.6
		c0.4-0.2,0.6-0.5,1-0.7c0.1,0,0.1-0.2,0.2-0.1c0.1,0.1,0.2,0.1,0.2,0.2c0,0.4-0.1,0.9,0.1,1.4c0,0.2,0.1,0.3,0.3,0.2
		c0.3-0.1,0.4,0.2,0.6,0.3c0.3,0.2,0.5,0.4,0.4,0.8c0,0.2,0,0.3,0,0.5c0.1,0.6-0.1,1-0.5,1.4c-0.1,0.1-0.1,0.1-0.2,0.1
		c-0.2,0-0.4,0-0.6,0C86.6,36.1,86.5,36.1,86.5,36.2z"/>
	<path d="M45.9,71.5c0.1-0.6,0.2-1.2,0.3-1.9c0.2-1.7,0.4-3.5,0.7-5.2c0.2-1.7,0.4-3.5,0.7-5.2c0.1-0.5,0.1-1.1,0.2-1.6
		c0-0.1,0-0.2,0.2-0.2c0.4,0,0.8-0.1,1.2-0.1c0.2,0,0.3,0.2,0.3,0.3c-0.3,2.7-0.7,5.4-1,8.1c-0.2,1.9-0.5,3.7-0.7,5.6
		c0,0,0,0.1,0,0.1c0.1,0.3,0,0.6,0,0.8c0,0.5-0.1,1.1-0.2,1.6c0,0.2,0,0.3,0.2,0.3c0.1,0,0.2,0,0.3,0c0,0,0-0.1,0,0c0,0,0,0,0,0
		c-0.6,0-0.6,0-0.5-0.6c0.1-0.6,0.2-1.2,0.2-1.8c0-0.1,0-0.2,0.1-0.3c0.1-0.7,0.2-1.3,0.3-2c0.2-1.7,0.4-3.3,0.6-5
		c0.2-1.8,0.4-3.7,0.7-5.5c0.1-0.7,0.2-1.5,0.3-2.3c0-0.1,0-0.2,0.2-0.1c0.1,0.1,0.3,0.2,0.4,0.3c0.1,0.1,0.2,0.1,0.1,0.3
		c-0.1,0.2-0.2,0.1-0.3,0c0,0-0.1,0-0.1-0.1c-0.2,1.4-0.3,2.7-0.5,4c0.1,0.2,0,0.4,0,0.6c-0.3,2.7-0.7,5.4-1,8.1
		c-0.1,1.2-0.3,2.3-0.4,3.5c0,0.1,0,0.1,0,0.2c0,0.3,0,0.3,0.3,0.3c0.9,0,1.8-0.1,2.7-0.1c0.8-0.1,1.6-0.2,2.4-0.5
		c0.1,0,0.1,0,0.2,0c0.6-0.1,1.3-0.3,1.9-0.3c0.1,0,0.2,0,0.3,0c0.5-0.1,1,0,1.5-0.1c0.7-0.2,1.3-0.1,2,0c0.8,0.1,1.7,0.2,2.5,0.6
		c0.8,0.5,1.7,0.7,2.5,1.2c0.1,0.1,0.3,0.1,0.4,0c0.8-0.6,1.7-1,2.6-1.4c0.2-0.1,0.4-0.2,0.6-0.2c0.7-0.1,1.5-0.3,2.2-0.3
		c1.1,0,2.1,0.1,3.2,0.3c0.9,0.2,1.8,0.4,2.7,0.5c1.2,0.1,2.4,0.4,3.6,0.6c0.2,0,0.4,0,0.6,0c0.2,0,0.2-0.1,0.2-0.2
		c-0.1-1-0.2-2-0.3-3.1c-0.1-1.2-0.2-2.3-0.4-3.5c-0.1-1.1-0.2-2.2-0.3-3.3c-0.1-1.1-0.2-2.3-0.4-3.4c-0.1-0.9-0.2-1.9-0.3-2.8
		c0,0.5,0.1,1,0.1,1.4c0.1,1,0.2,2,0.2,3c0.1,0.9,0.2,1.9,0.2,2.8c0.1,0.9,0.2,1.9,0.2,2.8c0.1,1,0.2,1.9,0.2,2.9
		c0.1,0.7,0.1,1.5,0.2,2.2c0,0.2,0,0.4,0.1,0.5c0,0.2-0.1,0.3-0.3,0.3c-0.7,0-1.5,0.1-2.2-0.1c-0.9-0.1-1.8-0.1-2.7-0.3
		c-1-0.2-2.1-0.4-3.1-0.6c-1.1-0.2-2.3-0.2-3.4,0c-0.6,0.1-1.2,0.2-1.7,0.4c-0.2,0.1-0.4,0.2-0.6,0.3c-0.4,0.3-0.8,0.6-1.2,0.9
		c-0.2,0.1-0.4,0.2-0.7,0c-0.5-0.2-1-0.4-1.4-0.7c-0.6-0.4-1.3-0.7-2-0.8c-0.2,0-0.4-0.1-0.6-0.1c-0.5-0.1-1,0-1.5-0.1
		c-0.4-0.1-0.8,0-1.2,0.1c-0.5,0.1-1,0-1.5,0.1c-0.1,0-0.3,0.1-0.4,0.1c-0.6,0.1-1.2,0.2-1.8,0.3c-0.8,0.2-1.6,0.4-2.5,0.5
		c-0.8,0.1-1.5,0.1-2.3,0.1c-0.3,0-0.4-0.1-0.3-0.4c0.2-1.7,0.4-3.5,0.6-5.2c0.3-2.1,0.5-4.2,0.8-6.3c0-0.2,0-0.4,0.1-0.6
		c0.1-0.6,0.2-1.3,0.3-1.9c0.1-0.9,0.2-1.7,0.3-2.6c0-0.2,0.2-0.3,0.4-0.3c1,0,2.1,0,3.1-0.2c0.6-0.1,1.1-0.3,1.7-0.4
		c1-0.2,1.9-0.6,2.9-0.8c0.5-0.1,1.1-0.2,1.6-0.3c1-0.2,2,0,2.9,0.4c0.3,0,0.5,0.2,0.8,0.4c0.3,0.2,0.6,0.3,1,0
		c0.3-0.2,0.6-0.3,0.9-0.5c0.1,0,0.1-0.1,0.2-0.1c0.5-0.1,1-0.3,1.5-0.4c0,0,0.1,0,0.1,0c0.5,0,0.7-0.3,0.9-0.6
		c0.2-0.2,0.4-0.5,0.5-0.7c0.1-0.1,0.1-0.2,0.2-0.1c0.1,0,0.2,0,0.3,0.2c0.2,0.4,0.3,0.8,0.4,1.3c0,0.2,0.2,0.2,0.3,0.2
		c0.2,0,0.1-0.2,0.1-0.3c0-0.7,0.2-1.4,0.5-2c0.2-0.3,0.4-0.6,0.6-0.8c0.3-0.3,0.6-0.6,0.9-0.9c0.1-0.1,0.1-0.2,0.3-0.2
		c0.2,0,0.3,0.1,0.3,0.4c0.1,0.4,0.2,0.9,0.3,1.3c0.1,0.6,0,1.1-0.3,1.6c0,0.1-0.1,0.2-0.1,0.4c0.3-0.2,0.6-0.3,0.9-0.5
		c0.1-0.1,0-0.2,0-0.3c-0.1-0.8-0.1-1.5,0.3-2.2c0.4-0.8,0.9-1.6,1.6-2.2c0.3-0.3,0.6-0.5,0.9-0.7c0.1-0.1,0.4,0.1,0.4,0.2
		c0.2,0.9,0.2,1.7-0.1,2.5c0,0.1-0.1,0.3-0.1,0.4c0.2,0,0.3-0.2,0.3-0.3c0.3-0.4,0.7-0.7,1.2-0.9c0.9-0.6,1.9-0.8,3-0.9
		c0.3,0,0.6,0,0.8,0c0.1,0,0.2,0.2,0.2,0.4c-0.2,0.5-0.4,0.9-0.8,1.2c-0.6,0.7-1.4,1.2-2.3,1.5c-0.4,0.2-0.9,0.2-1.3,0.3
		c-0.1,0-0.2,0-0.2,0.1c0.7,0,1.4,0.2,2.1,0.4c0.3,0.1,0.6,0.2,0.9,0.3c0.1,0,0.1,0.3,0,0.4c-0.4,0.5-0.9,0.7-1.4,1
		c-0.5,0.3-1.1,0.5-1.7,0.5c-0.2,0,0,0.1-0.1,0.2c-0.2,0.2-0.4,0.5-0.6,0.7c0,0.1-0.1,0.1-0.2,0.1c0,0,0,0.1,0.1,0.1
		c0.5,0.1,1.1,0.1,1.6,0.2c0.2,0,0.3,0.1,0.3,0.3c0,0.2,0.1,0.2,0.2,0.1c0.2-0.1,0.3,0,0.3,0.2c0.3,3.1,0.6,6.3,1,9.4
		c0.2,1.7,0.3,3.3,0.5,5c0,0.1,0,0.1,0,0.2c0.1,0.1,0.1,0.2,0.1,0.3c0.1,0.6,0.1,1.3,0.2,1.9c0,0,0,0.1,0,0.1c0,0.1,0.1,0.2,0.2,0.2
		c0.2,0,0.1-0.1,0.1-0.2c-0.1-0.6-0.2-1.2-0.2-1.8c0-0.2-0.1-0.4,0-0.6c-0.1-0.8-0.2-1.6-0.3-2.4c-0.2-1.7-0.4-3.3-0.6-5
		c-0.2-1.6-0.4-3.3-0.6-4.9c-0.1-0.6-0.1-1.2-0.2-1.8c0-0.1,0-0.2,0.1-0.1c0.5,0.1,0.9,0.1,1.4,0.2c0.1,0,0.2,0.1,0.2,0.2
		c0.2,1.6,0.4,3.1,0.5,4.7c0.2,1.7,0.4,3.5,0.6,5.2c0.2,1.3,0.3,2.6,0.5,3.8c0,0.1,0,0.2,0,0.3c0.1,0.9,0.2,1.8,0.3,2.7
		c0,0.3,0.1,0.7,0.1,1c0,0.2,0,0.2-0.2,0.2c-1.4,0-2.8-0.1-4.2-0.3c-1.5-0.3-3.1-0.6-4.6-0.7c-0.7-0.1-1.5,0-2.2-0.2
		c-0.2,0-0.3,0-0.5,0.1c-0.2,0-0.5,0.1-0.7,0.1c-1.9,0-3.5,0.7-5,1.7c-0.2,0.1-0.4,0.2-0.7,0.2c-0.9,0.1-1.8-0.1-2.6-0.7
		c-0.8-0.6-1.9-0.8-2.8-1.1c-0.5-0.2-1.1-0.2-1.6-0.3c-1.4-0.1-2.7,0.1-4.1,0.3c0,0-0.1,0-0.1,0c-1-0.1-1.9,0.2-2.8,0.4
		c-0.4,0.1-0.9,0.1-1.3,0.1c-0.3,0-0.7,0-1,0.1c-1,0.2-2,0.1-3,0.1c-0.1,0-0.1-0.1-0.1-0.2c0.1-1.1,0.3-2.3,0.4-3.4
		C45.9,71.8,45.9,71.7,45.9,71.5z"/>
	<path d="M70.1,81.5c0-1.2,0-2.4,0-3.6c0-0.2,0-0.3,0.2-0.3c1,0,2,0,3,0c0.2,0,0.2,0.1,0.2,0.3c0,2.1,0,4.2,0,6.3
		c0,0.2-0.1,0.2-0.2,0.2c-1,0-2,0-3,0c-0.2,0-0.3-0.1-0.4-0.2c-1.3-1.2-2.6-2.3-4-3.5c-0.1,0.1,0,0.2,0,0.3c0,1,0,2.1,0,3.1
		c0,0.2,0,0.3-0.2,0.3c-1,0-1.9,0-2.9,0c-0.2,0-0.2,0-0.2-0.2c0-2.1,0-4.3,0-6.4c0-0.2,0.1-0.2,0.2-0.2c0.9,0,1.8,0,2.7,0
		c0.2,0,0.3,0,0.4,0.2c1.3,1.2,2.6,2.3,4,3.5C69.9,81.4,70,81.5,70.1,81.5z"/>
	<path d="M49.1,80.3c0-0.9,0-1.7,0-2.4c0-0.2,0-0.2,0.2-0.2c1,0,2,0,3.1,0c0.2,0,0.2,0.1,0.2,0.2c0,1.4,0,2.8,0,4.2
		c0,0.2,0.1,0.4,0.3,0.5c0.2,0.2,0.6,0.3,0.8,0.5c0,0,0.1,0,0.2,0c0.5,0,0.9,0,1.4,0c0.1,0,0.3,0.1,0.4-0.1c0.4,0,0.5-0.4,0.8-0.5
		c0.1-0.1,0.1-0.2,0.1-0.2c0-1.4,0-2.8,0-4.2c0-0.2,0.1-0.3,0.3-0.3c1,0,2.1,0,3.2,0c0.2,0,0.2,0,0.2,0.2c0,1.4,0,2.7,0,4.1
		c0,0.1,0,0.2-0.1,0.2c0,0,0,0,0,0.1c0.1,0.3-0.2,0.5-0.2,0.7c0,0.2-0.1,0.1-0.2,0.2c-0.2,0.3-0.5,0.5-0.7,0.6
		c-0.2,0.1-0.6,0.2-0.7,0.5c0,0,0,0-0.1,0c-0.4-0.1-0.8,0.3-1.2,0.2c-0.1,0-0.3-0.1-0.3,0.1c0,0-0.1,0-0.2,0c-1.2,0-2.4,0-3.6,0
		c-0.1,0-0.2,0-0.2-0.1c0-0.1-0.1-0.1-0.2-0.1c-0.2,0-0.3,0-0.5,0c-0.2,0-0.4,0.1-0.4-0.2c0,0-0.1,0-0.1,0c-0.3,0-0.5-0.1-0.8-0.3
		c-0.3-0.2-0.6-0.4-0.9-0.6c-0.2-0.1-0.4-0.3-0.5-0.6C49,82,49.2,81.1,49.1,80.3z"/>
	<path d="M83.7,71.6c0.4-0.1,0.7,0,1.1,0c0.2-0.1,0.3,0,0.5,0c0.3,0,0.6,0.1,0.9,0c0.2-0.2,0.4-0.2,0.6-0.1c0.3,0.1,0.6,0.1,0.9,0.2
		c0.2-0.1,0.4,0,0.6,0c0.5,0,0.9,0.1,1.4-0.1c0.1,0,0.1,0,0.2,0c0.3-0.1,0.5-0.2,0.8-0.3c-0.2-0.1-0.4-0.3-0.6-0.4
		c-0.1-0.1-0.1,0-0.2,0c-0.6,0.4-1.3,0.2-2,0.2c-0.1,0-0.2-0.1-0.2-0.1c-0.2-0.1-0.4-0.2-0.7-0.3c-0.2-0.1-0.4-0.1-0.7,0
		c-0.6,0.3-1.3,0.4-2.1,0.4c-0.1,0-0.1,0-0.2-0.1c-0.3-0.5-0.5-1.1-0.3-1.7c0.1-0.3,0.1-0.5,0-0.7c-0.1-0.2-0.1-0.3,0.1-0.5
		c0.2-0.2,0.2-0.4,0.1-0.7c-0.1-0.4-0.1-0.8-0.1-1.2c0-0.1,0.1-0.3,0.3-0.4c0.4-0.2,0.9-0.2,1.3-0.1c0.6,0.1,1.1,0.2,1.7,0.4
		c0.5,0.1,0.9,0,1.4-0.1c0.5-0.2,1.1-0.2,1.6-0.3c0.1,0,0.1,0.1,0.2,0.1c0.1,0.1,0.2,0.3,0.4,0.3c0.6,0.3,0.6,0.8,0.7,1.3
		c0,0.3,0,0.6,0,0.9c0.2-0.4,0.3-0.9,0.1-1.4c-0.1-0.3-0.1-0.6-0.1-0.8c0-0.2,0.1-0.3,0.3-0.3c0.6,0,1.2,0,1.7,0
		c0.2,0,0.3,0.1,0.4,0.2c0.3,0.2,0.7,0.2,1.1,0.1c0.6-0.1,1.1-0.3,1.6-0.4c0.7-0.1,1.3-0.1,2,0.1c0.2,0.1,0.3,0.2,0.3,0.4
		c0,1.3,0,2.5,0,3.8c0,0.3-0.2,0.4-0.4,0.5c-0.3,0.1-0.7,0.3-1,0.4c-0.1,0.1-0.2,0.1-0.3,0.1c-0.6,0-1.2,0-1.9,0c-0.1,0-0.1,0-0.2,0
		c-0.3-0.4-0.7-0.1-1-0.2c-0.3,0-0.5,0-0.7-0.2c-0.1-0.1-0.2-0.1-0.4,0c-0.3,0.3-0.7,0.3-1.1,0.2c-0.3,0-0.5-0.2-0.7-0.4
		c-0.1-0.1-0.1-0.2-0.1-0.4c0-0.3,0-0.6,0-1c-0.1,0.1-0.2,0.2-0.2,0.4c0,0.5,0,1-0.2,1.5c0,0.2,0,0.3,0.2,0.2c0.2,0,0.5,0.1,0.7,0.1
		c0.4,0.1,0.8,0.1,1.1-0.1c0.1,0,0.1,0,0.2,0c0.3,0.1,0.7,0.2,1,0.2c0.1,0,0.2,0,0.2,0.1c0.2,0,0.4,0.2,0.6-0.1c0-0.1,0.1,0,0.2,0
		c0.8,0,1.6,0,2.4,0c0.3,0,0.6,0,0.9-0.1c0.2-0.1,0.4-0.1,0.6-0.1c0.1,0,0.1,0,0.2,0.1c0,0.4,0,0.8,0,1.2c0,0.1,0,0.2-0.2,0.3
		c-0.1,0-0.2,0.1-0.1,0.3c0.1,0.3,0.1,0.6,0.3,0.8c0.1,0.2,0.1,0.4-0.1,0.7C99,74.9,99,75,98.9,75.1c-0.2,0.3-0.5,0.5-0.8,0.6
		c-0.6,0.2-1.2,0.3-1.8,0.4c0,0-0.1,0-0.1,0c-0.2-0.1-0.5,0-0.6-0.2c-0.6-0.1-1.3-0.2-1.9-0.3c-0.5-0.1-1,0-1.5,0
		c-0.1,0-0.2,0.1-0.2,0.2c-0.1,0.1-0.1,0.2-0.3,0.2c-0.8,0.1-1.5-0.2-2.3-0.3c-0.7-0.1-1.5-0.1-2.2-0.1c-0.2,0-0.5,0.2-0.7,0.3
		c-0.4,0.2-0.8,0.3-1.3,0.3c-0.4,0-0.8,0-1.2,0c-0.2,0-0.2,0-0.3-0.2c-0.2-0.6-0.2-1.3-0.1-1.9c0.1-0.7,0.2-1.3,0-2
		C83.5,71.9,83.7,71.8,83.7,71.6z"/>
	<path d="M79.7,81.1c0,1.1,0,2.1,0,3.2c0,0.2,0,0.2-0.2,0.2c-1.1,0-2.1,0-3.2,0c-0.2,0-0.2-0.1-0.2-0.3c0-2.1,0-4.2,0-6.3
		c0-0.2,0.1-0.3,0.3-0.3c1,0,2.1,0,3.1,0c0.2,0,0.3,0,0.3,0.3C79.7,79,79.7,80.1,79.7,81.1z"/>
	<path d="M29.2,71.6c0.2-0.2,0.4-0.2,0.7-0.2c0.4-0.1,0.7-0.1,1.1,0c0.4,0.1,0.8,0,1.2-0.1c0.1,0,0.3,0,0.4,0
		c0.3,0.1,0.7,0.1,1.1,0.1c0.9,0,1.8,0.1,2.7-0.2c0.2,0,0.3,0,0.5,0.1c0.6,0.1,1.2,0.2,1.7,0c0.2-0.1,0.4,0,0.6,0.1
		c0.2,0.1,0.4,0.2,0.5,0.3c0.2,0.1,0.4,0,0.6,0c0.8-0.1,1.6-0.1,2.4-0.1c0.6,0,1.1-0.1,1.6-0.3c0.1,0,0.3-0.1,0.4-0.1
		c0,0.1,0,0.2,0,0.3c0,0.1,0,0.2,0,0.3c0,0.3,0,0.6-0.3,0.8c-0.1,0.1-0.1,0.2-0.1,0.3c0,0.4,0,0.8,0.2,1.2c0.1,0.2-0.1,0.7-0.3,0.8
		c-0.5,0.4-1.1,0.6-1.7,0.8c-0.1,0-0.1,0-0.2,0c-0.7-0.1-1.4-0.2-2.1-0.3c-0.3,0-0.6-0.2-0.9-0.3c-0.1,0-0.2-0.1-0.3-0.1
		c-0.4,0.1-0.9,0.1-1.3,0.3c-0.5,0.3-1.1,0.2-1.7,0.4c-0.1,0-0.1,0-0.2-0.1c-0.6-0.4-1.4-0.4-2.1-0.5c-0.1,0-0.3,0-0.4,0
		c-0.5-0.1-0.9,0.1-1.3,0.3c-0.4,0.3-0.9,0.3-1.4,0.3c-0.5,0.1-1.1-0.1-1.6-0.1c-0.1,0-0.1-0.1-0.1-0.2c0-1.3,0-2.5,0.1-3.8
		C29.2,71.9,29.2,71.7,29.2,71.6z"/>
	<path d="M96.2,76.1C96.3,76.1,96.3,76.1,96.2,76.1c0.5,0.1,0.9,0.2,1.3,0.1c0.6-0.1,1.2-0.2,1.8-0.4c0.1,0,0.2,0,0.2,0
		c0.1,0,0.2,0.1,0.3,0.1c0.2,0.1,0.4,0.1,0.4,0.3c0.1,0.2,0.1,0.5,0,0.8c-0.1,0.2-0.1,0.5-0.3,0.6c-0.1,0.1-0.1,0.1,0,0.2
		c0.1,0.1,0.1,0.2,0.2,0.3c0.3,0.4,0.4,0.7,0.2,1.2c-0.1,0.1-0.1,0.3-0.3,0.3c-0.3,0-0.7,0.1-1,0.1c-0.2,0-0.3,0.1-0.5,0.2
		c-0.2,0.2-0.5,0.2-0.7,0.3c-1.1,0.3-2.2,0-3.2-0.3c-0.5-0.1-1-0.1-1.5,0c-0.4,0.1-0.9,0.1-1.3,0.2c-0.1,0-0.2,0-0.2-0.2
		c0-1.1,0-2.2,0-3.3c0-0.2,0.1-0.3,0.3-0.3c0.5,0,1,0.1,1.5-0.1c0.6-0.3,1.3-0.2,2-0.2C95.7,76,96,76.1,96.2,76.1z"/>
	<path d="M41.9,80.1c-0.6,0.1-1.4-0.1-2.1-0.3c-0.5-0.1-1-0.1-1.6,0C38,80,37.7,80,37.4,80.1c-0.1,0-0.2,0-0.3-0.1
		c-0.1-0.2-0.3-0.4-0.4-0.6c-0.1-0.1-0.1-0.2-0.1-0.2c0-0.8-0.1-1.6,0.1-2.4c0.1-0.4,0.1-0.5,0.5-0.5c0.7-0.1,1.3-0.4,2-0.6
		c0.1,0,0.2-0.1,0.3,0c1.4,0.6,2.9,0.6,4.4,0.3c0.1,0,0.1,0,0.2,0c0.4-0.1,0.6,0,0.9,0.2c0.3,0.3,0.4,0.6,0.2,0.9
		c-0.2,0.5,0,0.9,0.2,1.3c0.2,0.5,0.2,0.5-0.1,0.8c-0.2,0.2-0.4,0.3-0.6,0.4c-0.2,0.1-0.5,0.1-0.7,0.2c-0.3,0.1-0.5,0.3-0.8,0.3
		C42.8,80.2,42.4,80.1,41.9,80.1z"/>
	<path d="M84.7,76.5c0.4,0,0.7,0,1.1,0c0.4,0,0.9,0,1.3-0.1c0.4-0.1,0.8,0,1.2,0c0.9-0.1,1.8,0.2,2.6,0.5c0.1,0,0.1,0.1,0.1,0.2
		c0,0.1,0,0.2-0.1,0.4c-0.1,0.5-0.1,0.9,0,1.4c0,0.2,0,0.4,0,0.6c-0.1,0.2-0.1,0.5-0.1,0.8c0,0.1,0,0.2-0.2,0.2
		c-0.8,0-1.6,0.1-2.3-0.3c-0.3-0.1-0.6-0.1-0.8,0.1c-0.5,0.4-1.1,0.4-1.6,0.3c-0.7-0.1-1.3-0.2-2-0.2c-0.3,0-0.6-0.1-0.9-0.2
		c-0.1,0-0.1-0.1-0.1-0.1c-0.1-0.6-0.5-1.2-0.7-1.8c0-0.1,0-0.2,0-0.4c0.1-0.4,0.2-0.8,0.4-1.2c0.1-0.1,0.2-0.2,0.3-0.2
		C83.5,76.5,84.1,76.5,84.7,76.5z"/>
	<path d="M36.2,77.9c0,0.3,0,0.7,0,1c0,0.3-0.1,0.6-0.2,0.9c0,0.1-0.1,0.1-0.2,0.1c-0.3,0-0.7,0-1-0.1c-0.8-0.2-1.6-0.2-2.4,0.1
		c-0.9,0.3-1.9,0.3-2.8,0.1c-0.4-0.1-0.9-0.4-1.2-0.8c-0.4-0.6-0.5-1.2-0.7-1.8c0-0.1,0-0.2,0-0.3c0.1-0.3,0.3-0.6,0.4-1
		c0.1-0.2,0.2-0.3,0.4-0.2c0.9,0.1,1.9,0.3,2.8,0.1c1.1-0.2,2.2-0.1,3.3-0.1c0.5,0,0.9,0.2,1.4,0.4c0.1,0,0.1,0.1,0.1,0.2
		C36.2,77,36.2,77.5,36.2,77.9z"/>
	<path class="st4" d="M38.4,85.8c0.1-0.3,0.2-0.6,0.4-0.8c0.1-0.1,0.1-0.2,0.2-0.1c0.4,0.2,0.4,0.2,0.2,0.6
		c-0.2,0.5-0.4,0.9-0.6,1.4C38.6,87,38.6,87,38.4,87c-0.3-0.1-0.4-0.3-0.5-0.6c0-0.3-0.1-0.6-0.2-1c-0.1,0.3-0.3,0.6-0.4,0.9
		c-0.1,0.2-0.1,0.2-0.3,0.1c-0.4-0.2-0.4-0.2-0.2-0.5c0.2-0.5,0.4-1,0.6-1.4c0.1-0.2,0.1-0.2,0.3-0.1c0.3,0.1,0.4,0.3,0.5,0.6
		C38.2,85.2,38.3,85.5,38.4,85.8C38.4,85.8,38.4,85.8,38.4,85.8z"/>
	<path class="st4" d="M70.4,89c0-0.3,0-0.6,0-0.9c0-0.2,0-0.2,0.2-0.2c0.5,0,0.4-0.1,0.4,0.4c0,0.5,0,1,0.1,1.5
		c0,0.2-0.1,0.2-0.2,0.2c-0.3,0-0.5,0-0.7-0.3c-0.2-0.3-0.4-0.5-0.6-0.8c0,0.3,0,0.6,0,0.9c0,0.2,0,0.3-0.2,0.2c-0.1,0-0.2,0-0.2,0
		c-0.1,0-0.2,0-0.2-0.2c0-0.6,0-1.2-0.1-1.8c0-0.1,0-0.2,0.2-0.2c0.3,0,0.6,0,0.7,0.3C70,88.5,70.2,88.7,70.4,89z"/>
	<path class="st4" d="M59.7,89.2c0-0.3,0-0.6,0-0.9c0-0.2,0.1-0.2,0.2-0.2c0.1,0,0.1,0,0.2,0c0.2,0,0.2,0.1,0.2,0.2
		c0,0.6,0,1.2,0,1.8c0,0.2,0,0.2-0.2,0.2c-0.3,0-0.5-0.1-0.7-0.4c-0.1-0.3-0.3-0.5-0.6-0.8c0,0.3,0,0.6,0,0.9c0,0.2-0.1,0.2-0.2,0.2
		c-0.1,0-0.1,0-0.2,0c-0.2,0-0.3,0-0.3-0.3c0-0.6,0-1.1,0-1.7c0-0.2,0-0.2,0.2-0.2c0.3,0,0.5,0.1,0.6,0.3
		C59.2,88.7,59.4,88.9,59.7,89.2C59.6,89.2,59.6,89.2,59.7,89.2z"/>
	<path class="st4" d="M46.2,88.1c0.3,0.3,0.3,0.6,0.4,0.9c0,0.1,0,0.1-0.1,0.1c-0.2,0-0.3-0.1-0.5-0.1c-0.1,0-0.2-0.1-0.2-0.2
		c-0.1-0.2-0.1-0.4-0.2-0.6c0-0.1-0.1-0.2-0.2-0.2c-0.1,0-0.1,0.1-0.1,0.2c0,0.1-0.1,0.3-0.1,0.4c0,0.2-0.1,0.2-0.2,0.2
		c-0.5-0.1-0.5-0.1-0.4-0.6c0.1-0.5,0.2-1,0.2-1.4c0-0.2,0.1-0.2,0.3-0.2c0.3,0.1,0.7,0.1,1,0.2c0.4,0.1,0.6,0.3,0.6,0.6
		C46.8,87.7,46.6,87.9,46.2,88.1z"/>
	<path class="st4" d="M50.3,89.3c0-0.5,0.1-1,0.1-1.5c0-0.3,0.1-0.3,0.4-0.3c0.3,0,0.6,0.1,0.9,0.1c0.1,0,0.2,0,0.2,0.1
		c0.4,0.2,0.6,0.7,0.5,1.3c-0.1,0.4-0.4,0.7-0.8,0.7c-0.4,0-0.7,0-1.1-0.1C50.1,89.6,50.3,89.4,50.3,89.3z"/>
	<path class="st4" d="M77.7,87.5c0.9,0,1.4,0.5,1.2,1.4c-0.1,0.4-0.4,0.7-0.8,0.7c-0.3,0-0.6,0-1,0.1c-0.1,0-0.2,0-0.2-0.1
		c0-0.6-0.1-1.3-0.1-1.9c0-0.1,0.1-0.1,0.2-0.1C77.2,87.5,77.4,87.5,77.7,87.5z"/>
	<path class="st4" d="M55.6,90.1c-0.2,0-0.6,0.1-0.7-0.1c-0.1-0.2,0-0.5,0-0.7c0-0.4,0-0.8,0.1-1.2c0-0.2,0-0.2,0.2-0.2
		c0.3,0,0.7,0,1,0.1c0.1,0,0.2,0,0.2,0.1c0.4,0.2,0.6,0.7,0.5,1.3c-0.1,0.4-0.4,0.7-0.8,0.8C55.9,90.1,55.7,90.1,55.6,90.1z"/>
	<path class="st4" d="M66.4,89.1c0-0.7,0.4-1.1,1.1-1.1c0.7,0,1.1,0.4,1.1,1.2c0,0.7-0.4,1.1-1.2,1.1C66.8,90.2,66.4,89.8,66.4,89.1
		z"/>
	<path class="st4" d="M90.4,86.9c-0.4,0-0.7-0.2-0.8-0.5c-0.2-0.4-0.4-0.7-0.5-1.1c-0.1-0.1,0-0.1,0.1-0.2c0.5-0.3,0.5-0.3,0.7,0.2
		c0.1,0.2,0.2,0.5,0.3,0.7c0.1,0.3,0.3,0.3,0.5,0.2c0.2-0.1,0.3-0.3,0.1-0.6c-0.1-0.3-0.3-0.6-0.4-0.9c-0.1-0.2-0.1-0.2,0.1-0.3
		c0.4-0.2,0.4-0.2,0.6,0.2c0.1,0.3,0.3,0.5,0.4,0.8c0.2,0.5,0.1,0.9-0.4,1.2C90.8,86.8,90.6,86.9,90.4,86.9z"/>
	<path class="st4" d="M35.9,85.8c-0.4-0.1-0.7-0.2-1-0.6c-0.2-0.2-0.2-0.5,0-0.8c0.2-0.4,0.4-0.8,0.6-1.1c0-0.1,0.1-0.1,0.2-0.1
		c0.5,0.2,0.5,0.2,0.2,0.7c-0.1,0.2-0.3,0.5-0.4,0.7c-0.1,0.2-0.1,0.4,0.1,0.5c0.2,0.1,0.4,0.1,0.5-0.2c0.2-0.3,0.4-0.7,0.5-1
		c0.1-0.1,0.1-0.2,0.3-0.1c0.4,0.2,0.4,0.2,0.2,0.6c-0.1,0.3-0.3,0.5-0.4,0.8C36.5,85.6,36.3,85.8,35.9,85.8z"/>
	<path class="st4" d="M44.6,86.7c0,0.3-0.1,0.3-0.4,0.3c-0.2,0-0.4-0.1-0.6-0.1c-0.1,0-0.2,0-0.2,0.1c0,0.1,0,0.2,0.1,0.2
		c0.2,0,0.4,0.1,0.7,0.1c0.2,0,0.1,0.2,0.1,0.3c0,0.1-0.1,0.2-0.2,0.2c-0.2-0.1-0.5-0.1-0.7-0.2c-0.2,0-0.2,0-0.2,0.1
		c0,0.1-0.1,0.2,0.1,0.3c0.3,0.1,0.6,0.1,0.8,0.2c0.2,0,0.2,0.1,0.1,0.2c0,0.1,0,0.3-0.2,0.3c-0.5-0.1-1-0.2-1.5-0.3
		c-0.1,0-0.2-0.1-0.1-0.2c0.1-0.6,0.3-1.2,0.4-1.8c0-0.1,0.1-0.2,0.2-0.1c0.5,0.1,1,0.2,1.4,0.3C44.6,86.6,44.7,86.6,44.6,86.7z"/>
	<path class="st4" d="M80.6,87.2c0.1,0,0.3,0,0.3,0.2c0,0.2,0,0.2-0.2,0.2c-0.2,0-0.5,0.1-0.7,0.1c-0.1,0-0.2,0-0.2,0.2
		c0,0.1,0,0.2,0.2,0.2c0.2,0,0.5,0,0.7-0.1c0.2,0,0.2,0.1,0.2,0.2c0,0.1,0,0.2-0.2,0.2c-0.2,0-0.4,0.1-0.6,0.1
		c-0.2,0-0.2,0.1-0.2,0.3c0,0.2,0.2,0.2,0.3,0.1c0.2,0,0.5,0,0.7-0.1c0.2,0,0.2,0.1,0.2,0.3c0,0.1,0,0.2-0.2,0.2
		c-0.5,0-1,0.1-1.5,0.2c-0.1,0-0.2,0-0.2-0.2c-0.1-0.6-0.1-1.2-0.2-1.8c0-0.2,0-0.2,0.2-0.2C79.7,87.3,80.1,87.3,80.6,87.2z"/>
	<path class="st4" d="M47.9,89.4c-0.2,0-0.4-0.1-0.7-0.2c-0.1,0-0.2-0.1-0.2-0.2c-0.1-0.2-0.2-0.4-0.1-0.5c0.1-0.1,0.4,0,0.6,0
		c0.1,0,0.1,0.1,0.1,0.1c0,0.1,0.1,0.2,0.2,0.2c0.2,0.1,0.3,0.1,0.4-0.1c0.1-0.2-0.1-0.3-0.2-0.3c-0.2-0.1-0.4-0.2-0.6-0.3
		c-0.2-0.1-0.3-0.3-0.3-0.6c0.1-0.3,0.2-0.4,0.5-0.5c0.4-0.1,0.7,0,1,0.1c0.1,0,0.1,0.1,0.2,0.1c0.1,0.1,0.1,0.3,0.1,0.4
		c0,0.1-0.1,0.1-0.1,0c-0.2-0.1-0.4,0.1-0.5-0.2c0-0.1-0.1-0.2-0.3-0.2c-0.1,0-0.2,0-0.2,0.1c0,0.1,0.1,0.2,0.1,0.2
		c0.2,0.1,0.3,0.1,0.5,0.2c0.4,0.2,0.6,0.5,0.5,0.8C48.7,89.2,48.4,89.4,47.9,89.4z"/>
	<path class="st4" d="M72.5,89.6c-0.2,0-0.5,0-0.5,0.3c0,0.2-0.2,0.1-0.3,0.1c-0.4,0-0.4,0-0.3-0.3c0.2-0.5,0.4-1.1,0.5-1.6
		c0.1-0.2,0.1-0.3,0.3-0.2c0,0,0.1,0,0.1,0c0.3-0.1,0.4,0,0.5,0.3c0.2,0.5,0.4,1.1,0.7,1.6c0.1,0.2,0.1,0.3-0.1,0.3
		c-0.1,0-0.2,0-0.3,0c-0.1,0-0.1,0-0.1-0.1C72.9,89.6,72.7,89.6,72.5,89.6z"/>
	<path class="st4" d="M92,86.1c-0.2-0.7-0.4-1.4-0.6-2.1c0-0.1,0-0.1,0.1-0.2c0.4-0.4,0.4-0.4,0.9-0.1c0.5,0.3,1,0.6,1.5,1
		c-0.1,0.2-0.3,0.3-0.5,0.4c-0.1,0.1-0.2,0-0.2-0.1c-0.1-0.1-0.2-0.1-0.3,0c-0.1,0.1-0.2,0.1-0.3,0.2c-0.2,0.1-0.2,0.2-0.1,0.4
		c0.1,0.1,0,0.2-0.1,0.2C92.3,85.9,92.1,86,92,86.1z"/>
	<path class="st4" d="M54.6,90.1c-0.2,0-0.3,0-0.5,0c-0.2,0-0.3-0.1-0.3-0.2c0-0.1-0.1-0.2-0.2-0.2c-0.1,0-0.2,0-0.3,0
		c-0.2,0-0.3,0-0.3,0.2c0,0.1-0.1,0.2-0.2,0.1c-0.2,0-0.3,0-0.5-0.1c0.3-0.7,0.6-1.3,0.9-2c0-0.1,0.1-0.1,0.2-0.1
		c0.6,0,0.6,0,0.7,0.6C54.3,88.9,54.4,89.5,54.6,90.1z"/>
	<path class="st4" d="M62.8,90.3c-0.2,0-0.3,0-0.4,0c-0.2,0-0.4,0-0.4-0.2c0-0.1-0.1-0.1-0.2-0.1c-0.1,0-0.3,0-0.4,0
		c-0.2,0-0.3,0-0.3,0.2c0,0.1-0.1,0.2-0.2,0.2c-0.2,0-0.3,0-0.5,0c0.3-0.7,0.5-1.4,0.8-2.1c0-0.1,0.1-0.1,0.2-0.1
		C62,88,62,88,62.2,88.6C62.4,89.1,62.6,89.7,62.8,90.3z"/>
	<path class="st4" d="M85.4,88.6c0-0.5,0.1-0.9,0.1-1.3c0-0.3,0.1-0.5,0.1-0.8c0-0.1,0.1-0.2,0.2-0.3c0.5-0.1,0.5-0.1,0.8,0.3
		c0.3,0.4,0.6,0.9,0.9,1.3c0.1,0.1,0.1,0.2-0.1,0.2c-0.1,0-0.2,0-0.3,0.1c-0.1,0-0.2,0-0.3-0.1c-0.1-0.2-0.2-0.2-0.3-0.1
		c-0.1,0-0.2,0.1-0.4,0.1c-0.1,0-0.2,0.1-0.2,0.2c0,0.2-0.1,0.3-0.2,0.3C85.7,88.5,85.5,88.6,85.4,88.6z"/>
	<path class="st4" d="M63.6,89.2c0,0.4,0.1,0.6,0.4,0.6c0.2,0,0.4,0,0.4-0.2c0.1-0.2,0.2-0.2,0.3-0.1c0.4,0.1,0.4,0.2,0.2,0.5
		c-0.3,0.4-0.8,0.4-1.2,0.3c-0.4-0.1-0.6-0.4-0.7-0.8c-0.1-0.2,0-0.4,0-0.7c0.1-0.4,0.4-0.7,0.9-0.8c0.5-0.1,0.9,0.1,1.1,0.4
		c0.1,0.1,0.1,0.2-0.1,0.3c-0.2,0-0.4,0.1-0.5-0.1c-0.1-0.2-0.5-0.1-0.6,0.2C63.6,88.9,63.6,89.1,63.6,89.2z"/>
	<path class="st4" d="M88.5,85.4c0.3,0,0.5,0.2,0.6,0.5c0.1,0.3,0,0.6-0.2,0.7c-0.2,0.1-0.3,0.2-0.5,0.3c-0.1,0-0.1,0.1-0.1,0.2
		c0,0.1,0,0.1,0.1,0.2c0.2,0.5,0.2,0.4-0.3,0.6c-0.1,0.1-0.2,0-0.3-0.1c-0.2-0.6-0.4-1.1-0.6-1.7c-0.1-0.1-0.1-0.2,0.1-0.3
		c0.3-0.1,0.6-0.2,0.9-0.3C88.3,85.5,88.4,85.5,88.5,85.4z"/>
	<path class="st4" d="M41.3,87.2c0.2-0.4,0.5-0.7,0.7-1.1c0.1-0.2,0.2-0.3,0.4-0.2c0.1,0.1,0.2,0.1,0.4,0.1
		c-0.4,0.5-0.8,1.1-1.2,1.6c-0.1,0.1-0.1,0.3-0.3,0.3c-0.2,0-0.4-0.1-0.6-0.2c-0.1,0,0-0.1-0.1-0.1c-0.1-0.7-0.1-1.3-0.2-2
		c0-0.2,0-0.2,0.2-0.1c0.5,0.1,0.5,0.1,0.5,0.6C41.2,86.5,41.2,86.8,41.3,87.2C41.2,87.2,41.3,87.2,41.3,87.2z"/>
	<path class="st4" d="M83.1,87c0-0.1,0-0.1,0.1-0.1c0.6-0.1,1.1-0.2,1.7-0.3c0.2,0,0.2,0.1,0.2,0.2c0,0.1,0.2,0.3-0.1,0.3
		c-0.2,0-0.4,0-0.5,0.1c-0.1,0.1,0,0.3,0.1,0.5c0.1,0.3,0.1,0.6,0.2,0.9c0,0.1,0,0.2-0.1,0.2c-0.5,0.1-0.5,0.1-0.6-0.4
		c-0.1-0.3-0.1-0.6-0.2-1c0-0.1-0.1-0.2-0.2-0.1c0,0-0.1,0-0.2,0C83.2,87.4,83.1,87.3,83.1,87z"/>
	<path class="st5" d="M73.9,88.7c0-0.3,0-0.6,0-0.9c0-0.1,0-0.2,0.2-0.2c0.5,0,0.5,0,0.5,0.5c0,0.3,0,0.7,0,1c0,0.1,0,0.2,0.2,0.2
		c0.2,0,0.5,0,0.7,0c0.2,0,0.2,0.2,0.2,0.3c0,0.1,0.1,0.3-0.1,0.3c-0.5,0-0.9,0-1.4,0c-0.1,0-0.2,0-0.2-0.2
		C73.9,89.4,73.9,89,73.9,88.7C73.9,88.7,73.9,88.7,73.9,88.7z"/>
	<path class="st6" d="M66,89.2c0,0.3,0,0.6,0,0.9c0,0.2,0,0.2-0.2,0.2c-0.5,0-0.5,0-0.5-0.4c0-0.5,0-1,0-1.5c0-0.2,0-0.2,0.2-0.2
		c0.5,0,0.5,0,0.5,0.5C66,88.8,66,89,66,89.2C66,89.2,66,89.2,66,89.2z"/>
	<path class="st5" d="M49.1,89.3c0.1-0.6,0.2-1.2,0.2-1.8c0-0.1,0-0.1,0.2-0.1c0.1,0,0.3,0,0.4,0c0.1,0,0.1,0.1,0.1,0.2
		c-0.1,0.6-0.2,1.2-0.2,1.8c0,0.2-0.1,0.2-0.2,0.2c-0.1,0-0.2,0-0.2,0C49.1,89.5,49,89.5,49.1,89.3z"/>
	<path class="st5" d="M83.2,89c0,0.1,0,0.1-0.1,0.1c0,0,0,0-0.1,0c-0.5,0.1-0.5,0.1-0.5-0.4c-0.1-0.5-0.1-1-0.2-1.5
		c0-0.2,0-0.2,0.2-0.2c0.5-0.1,0.5-0.1,0.5,0.4C83,87.9,83.1,88.4,83.2,89z"/>
	<path class="st4" d="M39.8,85.2c0.2,0.1,0.3,0.1,0.5,0.2c0.1,0,0,0.1,0,0.2c-0.2,0.6-0.4,1.2-0.6,1.8c0,0.1-0.1,0.1-0.2,0.1
		c-0.5-0.1-0.5-0.1-0.4-0.6c0.2-0.5,0.3-1,0.5-1.4C39.7,85.3,39.7,85.2,39.8,85.2z"/>
	<path class="st7" d="M90.1,84c-0.2,0.3-0.1,0.6-0.5,0.7C89.6,84.2,89.6,84.2,90.1,84z"/>
	<path class="st8" d="M96.2,76.1c-0.3,0-0.5,0-0.8-0.1c0,0,0.1,0,0.1-0.1C95.8,76,96,76,96.2,76.1z"/>
	<path d="M83.8,65.8c-0.1-0.6-0.3-1.1-0.3-1.7c0-0.4,0.2-0.8,0.3-1.3c0-0.2,0-0.3-0.1-0.4c-0.5-0.4-0.3-0.9-0.3-1.4
		c0-0.1,0.3-0.3,0.4-0.4c0.1-0.2,0.3-0.2,0.5-0.2c1.1-0.2,2.3-0.1,3.4-0.1c0.4,0,0.7,0,1.1-0.1c0.4-0.1,0.8,0,1.2,0
		c0.9,0.1,1.8,0.1,2.7,0c0.7-0.1,1.5-0.1,2.2,0c0.8,0.1,1.6,0.1,2.4,0c0.6-0.1,1.2-0.1,1.7-0.1c0.1,0,0.2,0.1,0.2,0.2
		c0,0.4,0,0.9,0.2,1.3c0,0,0,0.1,0,0.1c-0.1,0.6-0.2,1.2-0.4,1.8c-0.1,0.4-0.1,0.7,0.1,1c0.3,0.4,0.3,0.8,0.3,1.2
		c0,0.1,0,0.2-0.2,0.2c-0.4,0-0.8,0-1.2-0.2c-0.4-0.2-0.9-0.2-1.4-0.1c-0.7,0.2-1.5,0.2-2.2,0.4c-0.1,0-0.2,0-0.3-0.1
		c-0.3-0.1-0.6-0.3-0.9-0.3c-0.3-0.1-0.6-0.1-1,0c-0.5,0.1-0.9,0.1-1.4-0.1c-0.3-0.2-0.7-0.3-1.1-0.3c-0.3,0-0.6,0.1-0.9,0.2
		c-0.4,0.2-0.8,0.4-1.2,0.3c0,0-0.1,0-0.1,0c-0.9,0.1-1.7-0.1-2.4-0.5c-0.2-0.1-0.4,0-0.7-0.1c-0.1,0-0.1,0.1-0.2,0.1
		C84,65.4,83.9,65.6,83.8,65.8z"/>
	<path d="M84.6,40.3c0.1,0,0.2,0.1,0.3-0.1c0.3,0.1,0.6,0,0.9-0.1c1-0.3,2-0.6,3-0.8c0.5,0,0.9,0,1.4,0c0.3,0.3,0.6,0.3,1,0.3
		c0.6-0.1,1.2-0.1,1.7-0.1c0.1,0,0.2,0,0.4,0.1c0.6,0.2,1.2,0,1.8-0.1c0.8,0,1.5,0,2.3,0c0.1,0,0.2,0,0.3,0c0.6-0.1,1.3-0.2,1.9-0.3
		c0.2,0,0.2,0,0.2,0.2c0,0.5,0,1.1,0,1.7c0,0.3,0.1,0.5,0.2,0.7c0,0.2,0,0.4,0,0.5c-1.1,0.4-2.1,0.5-3.2,0.5c-0.5,0-1-0.1-1.4-0.1
		c-0.4,0-0.9,0-1.3,0c-0.1,0-0.2,0-0.3,0c-0.8,0-1.6-0.2-2.5-0.2c-0.5,0-1,0.1-1.4,0.1c-0.3,0-0.5,0.1-0.8,0c-0.4-0.1-0.8-0.1-1.2,0
		c-0.4,0-0.7,0.1-1.1,0.1c-0.4,0-0.7,0-1.1,0c-1.2,0-2.3,0-3.5,0c-0.1,0-0.2,0-0.3,0l0,0c0-0.2,0-0.4,0-0.5c0.1-0.6,0.2-1.2,0.2-1.9
		c0-0.1,0.1-0.2,0.2-0.2c0.1-0.1,0.2,0,0.2,0c0.1,0.1,0.3,0.2,0.4,0.3C83.5,40.7,84,40.5,84.6,40.3z"/>
	<path d="M45.6,42.4c-0.6,0.1-1.2,0.1-1.8,0.2c-0.1,0-0.1,0-0.2,0c-1.9,0-3.7,0-5.6,0c-0.1,0-0.1,0-0.2,0c-0.3-0.1-0.7-0.2-1-0.3
		c-0.4-0.2-0.9-0.1-1.3-0.1c-0.6,0.1-1.2,0.2-1.9,0.2c-1.6,0.1-3.3,0-4.9,0.1c-0.2,0-0.2,0-0.2-0.2c0-1.2,0-2.4,0-3.6
		c0-0.2,0.2-0.4,0.4-0.4c0.4,0,0.9,0,1.3,0c0.9,0,1.7,0,2.6-0.2c0.4,0,0.7,0,1.1,0c0.1,0,0.2,0,0.3,0c0.2,0,0.3,0,0.5-0.1
		c0.6-0.1,1.2,0,1.6,0.4c0.2,0.1,0.3,0.2,0.5,0.3c0.5,0.1,1,0.4,1.5,0.6c0.1,0,0.1,0.1,0.2,0.1c0.1,0.1,0.2,0,0.3,0
		c2.1,0,4.3,0,6.4,0c0.1,0,0.2,0,0.3,0l0,0c0,0.1,0,0.1,0,0.2c0,0.8,0,1.7,0,2.5C45.6,42.3,45.7,42.4,45.6,42.4z"/>
	<path d="M38.8,48.9c0.3-0.2,0.6-0.4,0.9-0.6c0.2-0.2,0.5,0,0.7,0c0.4,0,0.7,0.2,1.1,0.3c0.6,0.2,1.3,0.2,1.9,0.3c0.4,0,0.7,0,1.1,0
		c0.1,0,0.2,0,0.3,0c0,0.6,0,1.2,0.2,1.8c0.1,0.4,0.1,0.8,0,1.1c-0.1,0.4-0.2,0.9-0.4,1.3c-0.1,0.2-0.2,0.2-0.3,0.2
		c-0.8,0-1.6,0-2.4,0c-1,0-2.1,0.1-3.1,0.2c-0.4,0.1-0.8,0.1-1.2,0.1c-1.3,0-2.6,0-3.8,0c-0.8,0-1.5-0.1-2.1-0.4
		c-0.2-0.1-0.3-0.1-0.5,0c-0.6,0.1-1.2,0.3-1.8,0.5c-0.1,0-0.2,0.1-0.2-0.1c0-0.6-0.1-1.2-0.2-1.8c0-0.6,0-1.2,0-1.8
		c0.2-0.4,0.3-0.7,0.5-1.1c0.1-0.2,0.3-0.2,0.5-0.2c0.4,0.1,0.7,0.2,1.1,0.3c0.1,0,0.1,0,0.2,0c1.7,0,3.5,0,5.2,0c0.1,0,0.1,0,0.2,0
		c0.4,0,0.7-0.1,1.1-0.1C38,48.9,38.4,49,38.8,48.9z"/>
	<path d="M99.2,49c0.1,0.6,0.2,1.2,0.3,1.9c0,0.3,0,0.6,0,0.9c-0.1,0.3-0.2,0.6-0.2,0.9c0,0.4-0.1,0.9-0.5,1.2
		c-0.1,0.1-0.2,0.1-0.3,0.1c-1-0.1-2-0.2-2.9-0.3c-0.2,0-0.5,0-0.7,0.1c-0.3,0.1-0.5,0.1-0.8,0.1c-2.3,0-4.6,0-6.8,0
		c-0.4,0-0.7,0-1-0.2c-0.4-0.2-0.9-0.1-1.4-0.1c0,0-0.1,0-0.1,0c-0.8,0.2-0.8,0.2-1.3-0.4c-0.1-0.1-0.1-0.2-0.1-0.3
		c-0.1-0.7-0.1-1.5-0.3-2.2c0-0.1,0-0.1,0-0.1c0.2-0.1,0.1-0.3,0.2-0.5c0.1-0.3,0.1-0.6,0.3-0.8c0.1-0.1,0.2-0.1,0.3,0
		c1.5,0.3,2.9,0.3,4.4,0.3c0.4,0,0.7-0.1,1.1-0.2c0.9,0,1.8,0,2.8,0c0.1,0,0.2,0,0.3,0c0.5-0.2,1-0.4,1.5-0.6c0.1-0.1,0.2,0,0.4,0
		c0.4,0.1,0.7,0.2,1.1,0.4c0.1,0,0.1,0.1,0.2,0.1c0.4,0,0.8,0,1.3,0c0.6,0,1.3,0,1.9,0C99.1,48.9,99.2,48.9,99.2,49z"/>
	<path d="M36.9,55c0,0.2-0.1,0.4-0.1,0.6c0,0.1,0,0.2,0,0.3c0.4,0.6,0.3,1.2,0.2,1.9c-0.1,0.5-0.2,0.9-0.4,1.3
		c-0.1,0.2-0.2,0.5-0.2,0.7c0,0.1-0.1,0.2-0.2,0.2c-0.7,0.2-1.4,0.1-2.2,0c-0.4,0-0.7-0.2-0.9-0.4c-0.1-0.1-0.2-0.1-0.4,0
		c-0.5,0.4-1.1,0.5-1.7,0.3c-0.6-0.1-1.1,0-1.7,0.1c-0.1,0-0.2,0-0.3,0c0.1-0.3,0.2-0.6,0.3-0.9c0.2-0.5,0.2-0.9,0-1.4
		c-0.1-0.3,0-0.6,0.1-0.9c0-0.1,0-0.2,0-0.4c0.1-0.1,0-0.2,0-0.3c0-0.5,0-1.1,0-1.6c0-0.3,0.1-0.4,0.4-0.5c0.8-0.2,1.5-0.2,2.3,0
		c0.6,0.2,1.2,0.2,1.8,0.2c0.8,0,1.7,0.1,2.5-0.2c0.1,0,0.2,0,0.2,0.1C36.7,54.4,36.8,54.7,36.9,55z"/>
	<path d="M43.1,48.5c-0.4-0.1-0.9-0.1-1.3-0.2c-0.3,0-0.6-0.2-0.8-0.3c-0.2-0.1-0.5,0-0.7,0c-0.6,0-1.2,0-1.8,0
		c-0.2,0.1-0.3,0.3-0.5,0.4c-0.1,0.1-0.2,0.1-0.3,0c0,0,0,0,0,0c-0.7-0.3-0.7-0.3-0.7-1.1c0-0.7,0-1.4,0-2.1c0-0.3,0-0.5-0.1-0.8
		c-0.1-0.5-0.1-1-0.1-1.5c0-0.2,0.1-0.3,0.3-0.3c1.6,0.3,3.2,0.1,4.8,0.2c0.2,0,0.4,0,0.6,0.1c0.2,0,0.3,0.1,0.5,0.1
		c0.5-0.1,1,0.1,1.4,0.3c0.2,0.1,0.2,0.2,0.3,0.3c0.1,0.6,0.2,1.2,0.3,1.9c0,0.4,0,0.9,0,1.4c0,0.6,0,1.1-0.2,1.7
		C44.2,48.6,43.6,48.5,43.1,48.5z"/>
	<path d="M91.2,47.2c0.1-0.3,0.1-0.6,0.2-0.9c0-0.1,0.1-0.2,0.1-0.4c0-0.4,0-0.7-0.2-1.1c-0.2-0.3-0.1-0.6,0-0.9
		c0.1-0.2,0.2-0.4,0.2-0.6c0.2-0.4,0.2-0.5,0.6-0.4c0.9,0,1.7,0.1,2.6,0.3c0.1,0,0.1,0,0.2,0c0.3,0.1,0.6,0,0.9,0c0.6,0,1.3,0,1.9,0
		c0.2,0,0.5-0.1,0.7-0.1c0.1,0,0.2,0,0.3,0.1c0.6,0.8,0.7,1.7,1,2.6c0.1,0.3,0,0.5-0.1,0.8c-0.1,0.3-0.2,0.5-0.2,0.8
		c0,0.3-0.1,0.6-0.2,1c0,0.1-0.1,0.2-0.3,0.2c-0.7,0-1.3,0-2,0c-0.2,0-0.4-0.1-0.6-0.2c-0.4-0.2-0.9-0.2-1.3-0.2
		c-0.1,0-0.3-0.1-0.5-0.1c-0.7-0.1-1.4,0.2-2,0.3c-0.4,0.1-0.9-0.2-1-0.7c0-0.1,0-0.3-0.1-0.4C91.2,47.3,91.1,47.3,91.2,47.2z"/>
	<path d="M96.4,60.1c-1,0-1.8,0-2.5-0.2c-0.3-0.1-0.6-0.2-0.9-0.2c-0.4,0-0.8,0-1.1,0.2c-0.1,0-0.2,0-0.3-0.1
		c-0.2-0.3-0.2-0.5,0-0.7c0.2-0.2,0.2-0.5,0.2-0.8c0-0.5,0.3-0.9,0.3-1.4c0-0.1,0-0.2,0-0.3c-0.4-0.4-0.4-1-0.4-1.5
		c0-0.1,0-0.2,0-0.4c0-0.5,0.2-0.6,0.7-0.5c0.8,0.1,1.6,0.1,2.3-0.1c0.1,0,0.2,0,0.3,0c0.2,0.1,0.3,0.1,0.5,0c0.9-0.2,1.7-0.1,2.6,0
		c0.5,0.1,0.7,0.4,0.9,0.8c0.1,0.1,0.1,0.3,0.2,0.5c0.2,0.4,0.2,0.7-0.1,1c-0.2,0.2-0.1,0.5,0,0.8c0,0.1,0.1,0.2,0.1,0.3
		c0.1,0.4,0.3,0.8,0,1.3c-0.1,0.2-0.1,0.4-0.1,0.7c0,0.2-0.1,0.2-0.2,0.3C97.8,60.1,97,60.1,96.4,60.1z"/>
	<path d="M44.4,55.1c0.2,0.5,0.4,1.1,0.2,1.7c-0.1,0.4-0.1,0.9,0,1.3c0,0.1,0.1,0.3,0.1,0.4c0.1,0.6-0.1,1-0.6,1.3
		c-0.1,0.1-0.2,0.1-0.2,0.1c-1.3,0-2.5,0-3.8,0c-0.2,0-0.4-0.2-0.6-0.3c-0.3-0.2-0.6-0.3-0.9-0.2c-0.4,0.1-0.8,0.1-1.1,0.3
		c0,0-0.1,0-0.1,0c-0.2,0-0.5-0.7-0.4-0.9c0.3-0.5,0.5-1,0.6-1.6c0.1-0.5-0.1-0.9-0.2-1.3c0-0.3-0.2-0.5-0.1-0.8
		c0-0.2,0.1-0.4,0.1-0.6c0.1-0.4,0.2-0.5,0.5-0.6c0.5-0.1,0.9-0.1,1.4-0.1c1.1,0,2.2,0,3.3,0c0.1,0,0.2,0,0.3,0c0.5,0,0.8,0.3,1,0.7
		C44.1,54.7,44.3,54.9,44.4,55.1z"/>
	<path d="M91.4,55.8c-0.1,0.5,0,1,0.3,1.4c0,0.1,0.1,0.1,0.1,0.2c-0.1,0.4-0.2,0.8-0.4,1.2c-0.1,0.1-0.1,0.2-0.1,0.4
		c0,0.1,0,0.3-0.1,0.3c-0.2,0.1-0.3,0.3-0.3,0.6c0,0.1,0,0.1-0.1,0.1c-0.4,0-0.8,0.2-1.2,0.2c-0.8,0-1.5-0.3-2.2-0.4
		c-0.1,0-0.3,0-0.4,0c-0.5,0.2-1,0.3-1.5,0.1c-0.2-0.1-0.4-0.1-0.6,0c-0.3,0.1-0.6,0.1-1,0.1c-0.1,0-0.1-0.1-0.1-0.1
		c0-0.3-0.1-0.7,0.1-1c0.2-0.4,0-0.8-0.1-1.1c0-0.1,0-0.1-0.1-0.2c-0.2-0.3-0.2-0.6-0.1-1c0.1-0.4,0-0.7,0.1-1.1
		c0-0.4,0.2-0.7,0.4-1c0-0.1,0.2-0.2,0.4-0.2c0.4,0,0.8,0,1.2-0.1c0.3-0.1,0.6,0,0.8,0.1c0.4,0.1,0.9,0.1,1.3,0.1c1,0,1.9,0,2.9,0
		c0.2,0,0.3,0.1,0.5,0.2C91.3,54.8,91.5,55.2,91.4,55.8z"/>
	<path d="M36.7,47.6c-0.1,0.5-0.4,0.7-0.8,0.7c-0.2,0-0.4,0.1-0.6,0.2c-0.3,0.1-0.6,0-0.9,0c-0.5,0.1-1.1,0.1-1.6,0.2
		c-0.6,0.1-1.2,0.1-1.8-0.2c-0.1-0.1-0.3-0.2-0.4-0.2c-0.5-0.2-0.7-0.6-1-1c-0.1-0.1,0-0.2,0-0.3c0.2-0.5,0.1-1,0-1.5
		c-0.1-0.3-0.1-0.6-0.2-0.9c0-0.6-0.1-1.1,0-1.6c0.3-0.3,0.7-0.1,1-0.1c0.4,0,0.9,0.1,1.3,0.1c0.5,0.1,1,0,1.6,0c0.4,0,0.8,0,1.3,0
		c0.3-0.2,0.6-0.4,0.9-0.6c0.1-0.1,0.2-0.1,0.3,0c0,0,0.1,0.1,0.1,0.1c0.4,0.3,0.5,0.6,0.5,1.1c0,0.3,0.1,0.5,0.2,0.8
		c0,0.4,0,0.8,0,1.2c0,0.3,0.1,0.6,0.1,1C36.7,47,36.7,47.3,36.7,47.6z"/>
	<path d="M91.2,47.2c0,0,0,0.1,0.1,0.1c-0.1,0.1-0.2,0.2-0.2,0.4c-0.2,0.5-0.5,0.6-1,0.6c-0.7,0.1-1.4,0.1-2.1,0.3
		c-0.5,0.1-1,0.2-1.6,0.2c-0.6,0-1.1-0.2-1.7-0.3c0,0-0.1-0.1-0.1-0.1c-0.4-0.7-0.6-1.4-0.9-2.1c0-0.5,0-1,0-1.4
		c0.1-0.5,0.2-1,0.3-1.5c0-0.2,0.3,0,0.2-0.2c0.4,0,0.9,0,1.3,0c0.3,0.1,0.5,0.1,0.8,0.1c0.5,0,1,0,1.6,0c0.6-0.3,1.2-0.4,1.8-0.3
		c0.1,0,0.1,0,0.1,0c0.6,0.2,0.6,0.2,0.7,0.7c0.1,0.8,0.3,1.5,0.3,2.3C90.9,46.5,91.1,46.9,91.2,47.2z"/>
	<path class="st9" d="M66,55c-0.5,0.3-1,0.5-1.6,0.8c-0.1,0-0.1,0-0.2,0c-0.4-0.2-0.8-0.4-1.1-0.6c-0.1-0.2,0-0.3,0.2-0.3
		c0.8,0,1.6,0,2.4,0C65.8,54.9,65.9,54.9,66,55z"/>
	<path class="st10" d="M80.9,71.5c0.1,0.8,0.2,1.7,0.3,2.5c0,0.1,0,0.2-0.1,0.2c-0.1,0-0.4,0.1-0.4-0.1c-0.1-0.8-0.2-1.6-0.2-2.4
		C80.5,71.4,80.8,71.6,80.9,71.5z"/>
	<path class="st10" d="M89.8,71.7c-0.2,0.1-0.4,0.1-0.6,0.1c-0.5,0-1,0.1-1.5-0.1c0-0.2,0.1-0.1,0.2-0.1c0.6,0,1.1,0,1.7,0
		C89.6,71.5,89.7,71.6,89.8,71.7z"/>
	<path class="st3" d="M45.6,39.5c-2.2,0-4.5,0-6.7,0c-0.1,0-0.2,0-0.3-0.1c2.2,0,4.5,0,6.7,0C45.4,39.4,45.5,39.4,45.6,39.5z"/>
	<path class="st10" d="M86.2,71.6c-0.1,0.1-0.2,0.1-0.3,0.2c-0.4,0-0.8,0-1.2-0.1c-0.1-0.1,0.1-0.1,0.1-0.1c0.4-0.1,0.8,0,1.2,0
		C86.1,71.6,86.2,71.6,86.2,71.6z"/>
	<path class="st3" d="M37.9,42.6c2,0,3.9,0,5.9,0c-0.1,0.1-0.2,0-0.3,0c-1.8,0-3.6,0-5.4,0C38.1,42.6,38,42.7,37.9,42.6z"/>
	<path class="st3" d="M36.5,49.1c-0.1,0.1-0.2,0-0.3,0c-1.7,0-3.4,0-5.1,0c-0.1,0-0.2,0-0.2,0C32.8,49.1,34.6,49.1,36.5,49.1z"/>
	<path class="st3" d="M30,37.5c1.7,0,3.4,0,5.1,0c-0.1,0.1-0.1,0-0.2,0c-1.6,0-3.1,0-4.7,0C30.1,37.6,30.1,37.6,30,37.5z"/>
	<path class="st3" d="M82,42.6c1.5,0,3.1,0,4.6,0c0.1,0,0.2,0,0.3,0c-0.1,0.1-0.2,0-0.3,0c-1.5,0-2.9,0-4.4,0
		C82.2,42.6,82.1,42.7,82,42.6z"/>
	<path class="st3" d="M99.2,49c-0.1-0.1-0.2-0.1-0.3-0.1c-1,0-1.9,0-2.9,0c-0.1,0-0.2,0-0.3,0c1.1,0,2.2,0,3.3,0
		C99.2,48.9,99.2,48.9,99.2,49z"/>
	<path class="st3" d="M92.6,49.1c0,0.1-0.1,0-0.2,0c-1,0-1.9,0-2.9,0c0,0,0.1,0,0.1,0C90.7,49.1,91.7,49.1,92.6,49.1z"/>
	<path class="st3" d="M45.6,42.4c0-1,0-2,0-2.9c0.1,0,0.1,0.1,0.1,0.2c0,0.8,0,1.7,0,2.5C45.7,42.3,45.7,42.4,45.6,42.4z"/>
	<path class="st10" d="M94.3,71.8c-0.1,0-0.1,0-0.2-0.1c-0.1-0.1,0-0.1,0.1-0.1c0.2,0,0.3,0,0.5,0c0.1,0,0.1,0,0.1,0.1
		c0,0.1-0.1,0.1-0.1,0.1C94.6,71.7,94.5,71.7,94.3,71.8z"/>
	<path class="st3" d="M34.6,43.1C34.6,43.1,34.5,43.2,34.6,43.1c-1,0-1.8,0-2.7,0c0,0-0.1,0-0.1,0C32.7,43.1,33.7,43.1,34.6,43.1z"
		/>
	<path class="st3" d="M97.6,43.3c-0.1,0.1-0.1,0-0.2,0c-0.8,0-1.6,0-2.4,0c-0.1,0-0.1,0-0.2,0C95.7,43.3,96.7,43.3,97.6,43.3z"/>
	<path class="st3" d="M97.8,39.4c-0.1,0-0.1,0-0.2,0c-0.8,0-1.6,0-2.4,0c0,0,0.1,0,0.1,0C96.2,39.4,97,39.4,97.8,39.4z"/>
	<path class="st3" d="M38.4,48c0.8,0,1.7,0,2.5,0C40.1,48,39.2,48,38.4,48z"/>
	<path class="st3" d="M28.9,50.1c0,0.6,0,1.2,0,1.8c-0.1-0.4,0-0.8,0-1.2C28.8,50.5,28.8,50.3,28.9,50.1z"/>
	<path class="st3" d="M29.4,43.1c-0.1,0.5,0,1.1,0,1.6c-0.1-0.4,0-0.9,0-1.3C29.4,43.4,29.3,43.2,29.4,43.1z"/>
	<path class="st3" d="M43.1,48.5c0.6,0,1.1,0,1.7,0c0,0.1-0.1,0.1-0.2,0.1c-0.4,0-0.9,0-1.3,0C43.1,48.6,43.1,48.6,43.1,48.5z"/>
	<path class="st3" d="M93.8,42.6c0.5,0,1.1-0.1,1.6,0C94.9,42.6,94.3,42.7,93.8,42.6z"/>
	<path class="st3" d="M87.9,43.3c-0.2,0.1-0.5,0-0.8,0c-0.3,0-0.5,0.1-0.8,0C86.9,43.3,87.4,43.3,87.9,43.3z"/>
	<path class="st3" d="M83.7,44.9c0,0.5,0,1,0,1.4C83.7,45.9,83.7,45.4,83.7,44.9z"/>
	<path class="st3" d="M90.3,39.3c-0.5,0-0.9,0-1.4,0C89.3,39.3,89.8,39.2,90.3,39.3z"/>
	<path class="st3" d="M34.2,38.1c-0.5,0.1-0.9,0-1.4,0C33.3,38,33.7,38.1,34.2,38.1z"/>
	<path class="st3" d="M44.8,48.9c-0.4-0.1-0.7,0-1.1,0c-0.1,0-0.2,0-0.3,0c0.4,0,0.8,0,1.2,0C44.7,48.9,44.7,48.9,44.8,48.9z"/>
	<path class="st3" d="M85.6,43.2c-0.4,0-0.9,0-1.3,0c0.1-0.1,0.3-0.1,0.5-0.1C85,43.1,85.3,43.1,85.6,43.2z"/>
	<path class="st3" d="M36.6,45.7c-0.1-0.4,0-0.8,0-1.2C36.6,44.9,36.6,45.3,36.6,45.7z"/>
	<path class="st3" d="M67.4,41.6c-0.1-0.4,0-0.8,0-1.2C67.5,40.8,67.4,41.2,67.4,41.6z"/>
	<path class="st3" d="M38.8,48.9c-0.4,0.1-0.8,0-1.2,0C38,48.8,38.4,48.9,38.8,48.9z"/>
	<path class="st3" d="M67.3,39.2c-0.1-0.4,0-0.8,0-1.2C67.4,38.4,67.3,38.8,67.3,39.2z"/>
	<path class="st3" d="M67.5,44c-0.1-0.4,0-0.8,0-1.1C67.5,43.3,67.5,43.7,67.5,44z"/>
	<path class="st3" d="M36.7,47.6c0-0.3,0-0.6,0-0.9C36.8,47,36.8,47.3,36.7,47.6z"/>
	<path class="st3" d="M99.6,51.8c0-0.3,0-0.6,0-0.9C99.6,51.2,99.6,51.5,99.6,51.8z"/>
	<path class="st3" d="M34.4,48.6c0.3-0.1,0.6,0,0.9,0C35,48.6,34.7,48.6,34.4,48.6z"/>
	<path class="st3" d="M98.3,37.8c0-0.2,0-0.5,0-0.7C98.4,37.3,98.4,37.6,98.3,37.8z"/>
	<path class="st3" d="M82,42.1c0,0.2,0,0.4,0,0.5C81.9,42.4,81.9,42.2,82,42.1z"/>
	<path class="st3" d="M100.1,42.2c0-0.2,0-0.4,0-0.5C100.2,41.9,100.2,42,100.1,42.2z"/>
	<path d="M44.8,66.1c-0.4-0.1-0.7-0.2-1-0.3c0,0,0,0,0,0c0.2,0.1,0.4,0.3,0.6,0.4c0.1,0.1,0.2,0.1,0.2,0.3c0,1.1,0,2.2,0,3.3
		c0,0.4-0.2,0.7-0.4,1.1c0,0.1-0.1,0.1-0.2,0.1c-1.1,0.2-2.2,0.2-3.3,0c-0.1,0-0.2,0-0.3,0c-0.1,0.1-0.3,0.1-0.4,0.2
		c-0.3,0.2-0.3,0.2-0.4-0.2c-0.1-0.2-0.1-0.3-0.4-0.3c-0.5,0-1,0-1.4,0.3c-0.2,0.1-0.4,0.1-0.5,0c-0.2-0.1-0.5-0.1-0.6-0.3
		c-0.1-0.2,0.1-0.4,0.1-0.6c0.1-0.2,0-0.4-0.1-0.5c-0.1-0.2-0.1-0.4,0.1-0.6c0.2-0.3,0.3-0.6,0.5-0.9c0.1-0.2,0.1-0.3,0-0.5
		c-0.1-0.4-0.2-0.7-0.3-1.1c0-0.1,0-0.2,0.1-0.2c0.4-0.4,0.9-0.4,1.4-0.3c0.3,0.1,0.6,0.1,0.9,0.2c0.3,0.1,0.6,0,0.9-0.1
		c-0.2,0-0.4-0.1-0.7-0.1c-0.6,0-1.1-0.3-1.6-0.5c-0.1-0.1-0.3-0.1-0.4,0c-0.7,0.3-1.4,0.3-2-0.1c-0.3-0.1-0.5-0.1-0.8-0.1
		c-1.1,0.2-2.1,0.5-3.2,0.4c-0.4,0-0.8-0.1-1.2-0.3c-0.3-0.1-0.5-0.1-0.7,0.1c-0.1,0.1-0.3,0.2-0.5,0.2c-0.2-0.7-0.3-1.4-0.2-2.1
		c0-0.3,0.2-0.6,0.4-0.8c0.1-0.2,0.1-0.3-0.1-0.4c-0.2-0.1-0.3-0.3-0.2-0.5c0.1-0.4,0.2-0.9,0.3-1.3c0-0.2,0.2-0.3,0.4-0.3
		c0.8,0,1.7,0,2.5,0c0.2,0,0.5,0,0.7,0c1.2-0.2,2.4-0.2,3.6,0c0.1,0,0.2,0,0.3,0c1.3,0,2.7,0,4,0c0.3,0,0.6,0,0.9-0.1
		c0.8-0.2,1.6,0,2.4,0.1c0.1,0,0.1,0.1,0.2,0.2c0.2,0.6,0.1,1.2,0.2,1.8c0,0.4,0,0.9-0.3,1.2c-0.1,0.1,0,0.3,0,0.4
		C44.5,64.6,44.6,65.3,44.8,66.1z"/>
	<path d="M30.7,65.9c0.5-0.1,0.9,0.1,1.3,0.2c0.5,0.1,1.1,0.2,1.6,0c0.9-0.4,1.7-0.3,2.5,0.2c0.3,0.2,0.5,0.5,0.8,0.7
		c0.1,0.1,0,0.1,0,0.2c0,0.2,0,0.4,0,0.6c0,0.2,0,0.4-0.1,0.6c-0.3,0.4-0.2,0.9-0.2,1.4c0,0.3,0.1,0.6,0.2,0.9c0,0.2,0,0.2-0.2,0.2
		c-0.3,0-0.6-0.1-0.9-0.1c-0.2,0-0.3,0-0.5,0.1c-0.5,0.4-1.1,0.2-1.7,0.2c-0.2,0-0.4-0.1-0.7-0.1c-0.5-0.2-0.9-0.1-1.4,0.1
		c-0.4,0.2-0.9,0.1-1.3,0c-0.2-0.1-0.4-0.2-0.7-0.3c-0.1,0-0.2-0.1-0.2-0.2c-0.2-0.4-0.2-0.7,0.2-0.9c0.1-0.1,0.2-0.2,0.1-0.3
		c-0.3-0.4-0.3-0.9,0-1.3c0.1-0.3,0.1-0.5,0-0.8c-0.1-0.3-0.2-0.7-0.2-1c0-0.1,0-0.1,0.1-0.2C29.8,65.9,30.2,65.8,30.7,65.9z"/>
	<path class="st11" d="M49.9,61.3c-0.1,0.8-0.2,1.7-0.3,2.5c-0.2,1.7-0.4,3.3-0.6,5c-0.2,1.5-0.4,3.1-0.6,4.6c0,0.2,0,0.4,0.3,0.3
		c0,0,0.1,0,0.1,0c1.5,0.1,3-0.2,4.5-0.5c0.1,0,0.2,0,0.2,0c0,0,0,0,0,0c0,0,0,0,0,0c-0.7,0.2-1.4,0.5-2.1,0.5
		c-1.1,0.1-2.2,0.3-3.3,0.2c-0.1,0-0.2,0-0.2-0.2c0.4-3.1,0.8-6.2,1.2-9.3c0.1-1.1,0.3-2.1,0.4-3.2C49.6,61.3,49.8,61.3,49.9,61.3z"
		/>
	<path class="st10" d="M47.9,71.5c-0.1,0.8-0.2,1.6-0.3,2.4c0,0.2,0,0.3,0.2,0.3c0.1,0,0.3,0,0.4,0c-0.2,0-0.4,0-0.7,0
		c-0.1,0-0.2,0-0.1-0.1c0.1-0.9,0.2-1.7,0.3-2.6C47.8,71.5,47.8,71.5,47.9,71.5z"/>
	<path class="st10" d="M40.3,71.7c-0.2,0.1-0.4,0.2-0.6,0c0.2-0.2,0.4-0.1,0.6-0.1C40.4,71.6,40.4,71.6,40.3,71.7z"/>
	<path class="st12" d="M67.1,44.5c-0.9-0.4-1.8-0.8-2.6-1.2c-0.2-0.1-0.4-0.1-0.7,0c-1,0.3-1.9,0.6-2.9,1c-0.1,0-0.2,0-0.3,0.1
		c0.4-6.7,0.8-13.3,1.2-19.9c0.7,0.4,1.5,0.2,2.2,0.1c0.6,0,1.1-0.3,1.5-0.6c0.3-0.2,0.5-0.6,0.8-0.9c0.1-0.1,0.1-0.2,0.3-0.3
		C66.8,30,67,37.2,67.1,44.5z"/>
	<path class="st13" d="M62.9,24.3c-0.5,0.1-0.8-0.2-1.1-0.4c-0.6-0.5-0.6-1.2-0.8-1.8c-0.1-0.3-0.1-0.6-0.2-0.9
		c0-0.2-0.1-0.3-0.2-0.4c-0.6-0.4-1.1-0.9-1.6-1.5c-0.1-0.1-0.1-0.2-0.1-0.3c0-0.5-0.1-0.9-0.1-1.4c0-0.4,0.1-1,0.4-1.2
		c0.4-0.4,0.8-0.7,1.4-0.7c0.4,0,0.8,0,1.1,0.3c0.5,0.4,1,0.7,1.5,1.1c0.4,0.3,0.9,0.2,1.4,0.3c0,0,0.1-0.1,0.1-0.1
		c0.4-0.6,1.1-0.9,1.7-1.2c0.2-0.1,0.5-0.1,0.7,0c0.4,0.1,0.9,0.3,1.3,0.4c0.5,0.2,0.8,0.6,1.2,0.8c0,0,0,0,0,0.1
		c0,0.5,0.2,0.9,0,1.5c-0.3,0.7-0.6,1.4-1,2.1c-0.1,0.1-0.1,0.2-0.3,0.3c0,0,0,0,0,0c-1,0.4-1.8,1.1-2.4,1.9
		c-0.7,0.9-1.6,1.2-2.6,1.2C63.2,24.3,63.1,24.3,62.9,24.3z"/>
	<path class="st14" d="M52.9,15.5c-0.7-0.1-1.3-0.1-2-0.2c-0.2,0-0.2,0.1-0.2,0.2c0.3,0.8,0.5,1.6,0.7,2.4c0,0.3,0.1,0.5,0,0.8
		c-0.1,0.5-0.2,0.9-0.2,1.4c0,0.3-0.1,0.7-0.4,0.9c-0.2,0.2-0.3,0.4-0.4,0.6c0.1,0.1,0.1,0,0.2,0c1.4-0.1,2.8-0.1,4.3-0.2
		c0.2,0,0.3,0.1,0.3,0.3c0,0.2,0,0.4,0,0.6c-0.2,0.8-0.1,1.5,0.2,2.3c0.2,0.4,0.1,0.7-0.3,0.9c-0.7,0.3-1.4,0.6-2,1.1
		c-0.1,0.1-0.2,0-0.2,0c-0.6-0.6-1.2-1.2-1.8-1.8c-0.1-0.1-0.1-0.2-0.2-0.3c-0.3-0.7-0.7-1.2-1.3-1.6c-0.3-0.2-0.5-0.4-0.8-0.6
		c-0.6-0.4-1-1-1.3-1.7c-0.2-0.5-0.4-1-0.7-1.4c-0.4-0.6-0.5-1.3-0.5-2c0-0.3,0-0.5,0.2-0.7c0.2-0.2,0.2-0.5,0.1-0.7
		c-0.1-0.3-0.2-0.7-0.3-1.1c-0.1-0.2,0-0.3,0.2-0.4c0.9-0.6,1.8-1.1,2.8-1.6c0.5-0.3,1-0.4,1.5-0.6c0.1-0.1,0.2,0,0.2,0.1
		c0,0.1,0.1,0.2,0.1,0.2c0.4,0.9,0.9,1.6,1.5,2.3C52.8,14.9,52.7,15.2,52.9,15.5z"/>
	<path class="st14" d="M78,21.7c0-0.1,0-0.1,0-0.1c-0.8-1-0.8-2.3-0.8-3.5c0-0.1,0-0.2,0.1-0.3c0.2-0.4,0.3-0.8,0.4-1.2
		c0-0.3,0.2-0.5,0.3-0.7c0.1-0.2,0.3-0.5,0.4-0.7c-0.3,0-0.6,0.1-0.9,0c0,0,0,0,0,0c0.5-0.8,0.6-1.7,1.1-2.4
		c0.1-0.1,0.2-0.2,0.3-0.1c0.3,0.1,0.7,0.2,1,0.2c0.1,0,0.2,0,0.3,0.1c0.2,0.2,0.4,0.3,0.6,0.4c0.6,0.2,1.2,0.5,1.5,1
		c0.1,0.1,0.2,0.3,0.3,0.4c0.1,0.1,0.2,0.2,0.3,0.2c0.4,0.1,0.8,0.4,1.1,0.6c0.2,0.1,0.2,0.3,0.3,0.4c0,0,0,0.1,0,0.1
		c-0.2,0.2-0.3,0.5-0.6,0.6c-0.3,0.2-0.7,0.3-1,0.5c-0.4,0.4-0.7,0.8-0.9,1.3c-0.1,0.4-0.4,0.7-0.6,1.1c-0.2,0.3-0.4,0.6-0.6,1
		c-0.2,0.5-0.6,0.9-1.1,1.2c-0.1,0.1-0.2,0.1-0.3,0.2c-0.2,0.3-0.5,0.6-0.8,0.7c-0.6,0.3-0.9,0.8-1.4,1.2c-0.3,0.3-0.5,0.6-0.7,1
		c-0.2,0.7-0.6,1.2-1,1.8C75.5,27,75.4,27,75.3,27c-0.8-0.5-1.7-0.9-2.4-1.4c-0.1-0.1-0.1-0.1-0.1-0.3c0.4-0.9,0.8-1.7,1.2-2.6
		c0.2-0.3,0.5-0.5,0.6-0.8c0.2-0.4,0.5-0.3,0.8-0.3C76.3,21.6,77.1,21.6,78,21.7z"/>
	<path class="st12" d="M61,7.3c0.3,0.2,0.6,0.3,0.9,0.4c0.7,0.3,1.5,0.5,2.3,0.4c0.5,0,1,0.1,1.5-0.1c0.3-0.1,0.5-0.2,0.7-0.3
		c0.3-0.2,0.7-0.4,1.1-0.5c0,0.4,0,0.7-0.1,1c-0.1,1.4-0.2,2.8-0.3,4.2c-0.1,1-0.1,1.9-0.2,2.9c0,0.1-0.1,0.2-0.2,0.2
		c-0.2,0-0.4,0.1-0.6,0.2c-0.6,0.3-1.1,0.6-1.5,1.1c0,0-0.1,0.1-0.1,0.1c-0.4-0.1-1,0-1.3-0.4c-0.3-0.4-0.7-0.6-1.1-0.8
		c-0.1-0.1-0.2-0.2-0.2-0.3c-0.1-1-0.2-2.1-0.3-3.1c-0.1-1.1-0.2-2.1-0.3-3.2C61.1,8.5,61.1,7.9,61,7.3z"/>
	<path class="st12" d="M77.4,21.3c-2.9-0.1-5.7-0.2-8.5-0.3c0-0.1,0.1-0.2,0.1-0.3c0.3-0.6,0.5-1.1,0.8-1.7c0.2-0.5,0.2-1,0.1-1.6
		c0-0.3-0.2-0.6-0.5-0.8c-0.2-0.1-0.3-0.2-0.5-0.4c3-0.3,5.9-0.6,8.8-0.8c-0.6,0.7-0.5,1.6-0.9,2.3c0,0.1,0,0.1-0.1,0.2
		c-0.1,1,0,2,0.3,2.9C77.3,21.1,77.4,21.2,77.4,21.3z"/>
	<path class="st12" d="M60.5,21c-3.2,0.1-6.3,0.3-9.4,0.4c0.3-0.3,0.4-0.7,0.5-1.1c0.2-1.4,0.3-2.9-0.3-4.2c0-0.1-0.1-0.3-0.1-0.4
		c0.6,0,1.1,0.1,1.6,0.1c1,0.1,2,0.2,3,0.2c0.9,0.1,1.9,0.1,2.8,0.2c0.1,0,0.2,0.1,0.1,0.2c0,0,0,0.1,0,0.1
		c-0.4,0.8-0.1,1.7-0.1,2.5c0,0.1,0.1,0.2,0.2,0.3c0.5,0.5,1,1,1.6,1.4C60.4,20.9,60.4,21,60.5,21z"/>
	<path class="st14" d="M59.1,11.2c0,0.7,0.2,1.3,0.4,1.9c0.3,0.7,0.4,1.4,0.6,2.1c0,0.1,0,0.1-0.1,0.1c-0.4,0.1-0.7,0.4-1,0.6
		C58.9,16,58.8,16,58.7,16c-1.2-0.1-2.5-0.2-3.7-0.3c-0.3,0-0.5-0.1-0.7-0.3c-0.5-0.5-0.7-1.2-1-1.8c-0.1-0.3-0.3-0.6-0.4-0.9
		c-0.1-0.1-0.1-0.3-0.2-0.4c-0.3-0.5,0.1-1.3,0.7-1.4c1.7-0.4,3.5-0.7,5.2-1.1c0.2,0,0.2,0,0.3,0.2C59,10.3,59.2,10.7,59.1,11.2z"/>
	<path class="st14" d="M77.8,12.2c0.1,0.3,0,0.5-0.2,0.6c-0.4,0.4-0.5,1-0.7,1.5c-0.1,0.4-0.5,0.7-0.7,1.1c0,0.1-0.1,0-0.1,0.1
		c-1.1,0.1-2.2,0.2-3.4,0.3c-0.7,0.1-1.4,0.1-2.1,0.2c-0.1,0-0.2,0.1-0.3,0c-0.1-0.1,0-0.2,0.1-0.3c0.3-0.5,0.4-1,0.4-1.6
		c0-0.8,0-1.5-0.2-2.3c0-0.1,0-0.2,0-0.3c0.2-0.5,0.4-0.9,0.5-1.4c0-0.1,0.1-0.2,0.3-0.2c0.5,0.1,0.9,0.1,1.3,0.4
		c0.2,0.2,0.5,0.1,0.8,0.1c0.7,0.1,1.5,0.2,2.2,0.4c0.7,0.2,1.3,0.6,1.9,1C77.9,11.8,77.7,12,77.8,12.2z"/>
	<path class="st14" d="M70.2,9.4c-0.2,0.9-0.3,1.7-0.5,2.6c-0.1,0.5-0.2,1-0.1,1.5c0,0.6-0.1,1.2-0.2,1.7c0,0.3-0.2,0.5-0.4,0.8
		c-0.1,0.2-0.4,0.1-0.5,0.1c-0.4-0.1-0.8-0.3-1.2-0.4c-0.1,0-0.1-0.1-0.1-0.2c0.1-1.2,0.2-2.4,0.3-3.5c0.1-0.8,0.1-1.7,0.2-2.5
		c0-0.1,0-0.2,0.2-0.2C68.6,9.4,69.4,9.5,70.2,9.4z"/>
	<path class="st14" d="M71,21.5c0.7,0,1.5,0,2.2,0c0.2,0,0.2,0,0.2,0.2c-0.1,0.4-0.4,0.6-0.5,1c-0.1,0.3-0.3,0.5-0.5,0.6
		c-0.3,0.2-0.5,0.5-0.6,0.8c-0.1,0.2-0.2,0.2-0.4,0.2c-0.9-0.1-1.7-0.2-2.6-0.5c-0.4-0.1-0.7-0.4-1-0.6c-0.2-0.2-0.1-0.6,0-0.8
		c0.1-0.3,0.3-0.6,0.5-0.9c0.1-0.2,0.2-0.2,0.4-0.2c0.8,0,1.5,0,2.3,0C71,21.4,71,21.4,71,21.5z"/>
	<path class="st14" d="M60.5,22.5c0,0.3,0,0.6,0,0.9c0,0.1,0,0.2-0.1,0.2c-1.1,0.1-2.1,0.6-3.1,0.9c-0.2,0.1-0.3,0-0.3-0.2
		c-0.1-0.4-0.3-0.8-0.5-1.2c-0.2-0.5-0.2-1-0.3-1.5c0-0.1,0.1-0.1,0.2-0.1c0.8,0,1.6-0.1,2.3-0.1c0.5,0,1,0,1.5-0.1
		c0.2,0,0.2,0,0.3,0.2C60.5,21.9,60.5,22.3,60.5,22.5z"/>
	<path class="st15" d="M61.4,15.3c-0.2,0-0.3-0.1-0.3-0.3c-0.2-1.2-0.4-2.4-0.6-3.6c-0.1-0.3-0.2-0.6-0.3-0.9c-0.2-0.4,0-0.7,0-1.1
		c0-0.1,0.1-0.1,0.1-0.1c0.6,0.1,0.5,0,0.6,0.5c0.1,1.4,0.3,2.9,0.4,4.3C61.4,14.6,61.4,15,61.4,15.3z"/>
	<path class="st14" d="M37.9,20.6c0.2,0.5,0.6,0.8,0.6,1.3c0,0.5,0.3,0.9,0.5,1.3c0.6,1,1,2.1,1.3,3.2c0,0.2,0.1,0.3,0.3,0.3
		c0.4,0.1,0.9,0.2,1.3,0.3c-0.1,0.1-0.2,0.1-0.3,0.1c-0.3,0-0.5,0.3-0.8,0.5c-0.1,0.1-0.1,0.1,0,0.2c0.6,0.4,1.1,1,1.7,1.5
		c0.4,0.4,0.8,0.7,1.2,1.2c0.1,0.1,0.2,0.2,0.4,0.2c0.7,0.1,1.3,0.5,1.7,1.1c0.3,0.4,0.6,0.7,1,1c0.1,0.1,0.1,0.2,0,0.3
		c-0.4,0.5-0.7,1.1-0.9,1.7c-0.1,0.2-0.1,0.2-0.3,0.2c-0.3,0-0.6,0-0.8-0.3c-0.1-0.1-0.2-0.2-0.4-0.2c-1.1-0.4-2.2-0.5-3.3-0.7
		c-0.6-0.1-1.3-0.2-1.9-0.5c-0.3-0.1-0.6-0.3-0.9-0.3c-1.1-0.3-2-1-3.1-1.4c-0.9-0.4-1.9-0.8-2.9-0.8c-0.1,0-0.2,0-0.4-0.1
		c0.5-0.4,0.4-1,0.6-1.6c0-0.1,0-0.2,0.1-0.2c0.4-0.7,0.8-1.4,1.3-2.1c0.2-0.2,0.3-0.4,0.3-0.7c0.1-0.3,0.1-0.7,0.2-1
		c0-0.1,0.1-0.2,0.1-0.3c0.1-0.1,0.2-0.2,0.2-0.4c0.2-0.5,0.6-0.8,1.1-1.1c0.4-0.2,0.7-0.5,0.8-1C36.9,21.7,37.4,21.2,37.9,20.6z"/>
	<path class="st14" d="M45.5,16.4c-0.1,0.3-0.2,0.8-0.3,1.2c-0.1,0.3,0,0.6,0,0.9c0,0.3,0.1,0.6,0.1,0.8c0,0.1,0,0.2,0.1,0.2
		c0.4,0.3,0.7,0.8,0.9,1.3c0,0.1,0.1,0.2,0.1,0.2c0.6,0.7,0.4,1.4,0.3,2.2c-0.1,0.4-0.1,0.7-0.2,1c0,0.1-0.1,0.2-0.2,0.2
		c-0.6,0-1.1,0.3-1.5,0.8c-0.3,0.4-0.7,0.7-0.9,1.1c-0.1,0.1-0.1,0.1-0.3,0.1c-0.7-0.1-1.4-0.2-2.1-0.3c-0.1,0-0.2,0-0.2-0.1
		c-0.6-1.4-1.3-2.7-1.9-4.1c-0.3-0.6-0.5-1.3-0.7-1.9c-0.1-0.1,0-0.2,0.1-0.3c0.5-0.5,1-1,1.6-1.4c0.5-0.3,1-0.8,1.4-1.2
		c0.8-0.9,1.8-1.4,2.9-1.9c0,0,0.1-0.1,0.1,0C45,15.3,45.5,16,45.5,16.4z"/>
	<path class="st14" d="M47.4,32.1c-0.2-0.3-0.4-0.6-0.6-0.8c-0.2-0.2-0.4-0.5-0.6-0.7c-0.5-0.6-1.1-1-1.9-1.2
		c-0.6-0.2-1.1-0.5-1.5-0.9c-0.2-0.2-0.4-0.3-0.6-0.5c-0.1-0.1-0.1-0.1,0-0.2c0.3-0.2,0.6-0.3,1-0.3c0.4,0,0.7,0,1.1,0
		c0.1,0,0.3,0,0.3-0.2c0.3-0.8,1-1.3,1.6-1.9c0.2-0.2,0.6-0.2,0.8-0.3c0.3-0.1,0.6-0.3,0.7-0.7c0.1-0.3,0.2-0.6,0.4-0.8
		c0.1,0.1,0.1,0.1,0.2,0.2c0.5,0.5,1,0.9,1.6,1.3c0.1,0.1,0.2,0.2,0.3,0.3c0.3,0.4,0.5,0.9,0.8,1.3c0.2,0.3,0.2,0.5,0.3,0.8
		c0,0.5-0.1,0.7-0.5,1.1c-0.9,0.7-1.8,1.4-2.5,2.3c-0.1,0.1-0.1,0.2-0.2,0.3C47.8,31.4,47.6,31.7,47.4,32.1z"/>
	<path class="st14" d="M80.6,22.4c-0.1-0.2,0-0.3,0.2-0.5c0.8-0.5,1.2-1.3,1.5-2.1c0.2-0.6,0.6-1.1,0.8-1.8c0-0.1,0.1-0.2,0.3-0.2
		c0.4-0.1,0.8-0.3,1.1-0.6c0.3-0.3,0.7-0.4,1-0.6c0.1,0,0.1-0.1,0.2,0c0.3,0.2,0.8,0.2,0.9,0.6c0.1,0.2,0.2,0.2,0.4,0.3
		c0.2,0,0.3,0.2,0.4,0.4c0,0,0,0,0,0c0.1,0.7,0.6,1,1.2,1.1c0.3,0.1,0.4,0.2,0.5,0.5c0.1,0.5,0.1,0.5-0.4,0.4c-0.2,0-0.5,0-0.7-0.1
		c-0.1,0-0.2,0-0.2,0.2c0.1,0.3-0.1,0.6-0.3,0.8c-0.1,0.1-0.2,0.2-0.2,0.3c-0.4,0.9-1.1,1.5-1.9,2c-0.2,0.1-0.4,0.3-0.5,0.4
		c-0.4,0.6-1,0.9-1.7,1c-0.3,0-0.5,0-0.6-0.2c-0.4-0.4-0.8-0.8-1-1.3c-0.1-0.3-0.4-0.3-0.6-0.5C80.6,22.7,80.5,22.6,80.6,22.4z"/>
	<path class="st14" d="M80,23.2c0.3,0.1,0.7,0.2,1,0.3c0.1,0,0.1,0.1,0.1,0.2c-0.1,0.5,0.1,0.8,0.6,1c0.3,0.1,0.6,0.3,0.6,0.6
		c0,0.3-0.1,0.7-0.3,0.9c-0.6,0.5-1.2,0.9-1.8,1.2c-0.3,0.2-0.4,0.4-0.5,0.7c0,0-0.1,0.1-0.1,0.1c-0.2,0.5-0.6,0.8-1.1,1
		c-0.1,0-0.2,0-0.3,0c-0.3-0.2-0.7-0.4-1-0.6c-0.2-0.1-0.3-0.4-0.4-0.6c-0.4-0.4-0.3-0.8,0-1.3c0.6-0.9,1.2-1.8,2-2.7
		c0.3-0.3,0.8-0.6,1.1-0.8C79.9,23.3,79.9,23.3,80,23.2z"/>
	<path class="st16" d="M81.9,24.5c-0.2-0.2-0.5-0.2-0.5-0.5C81.6,24.2,81.8,24.4,81.9,24.5z"/>
	<path class="st14" d="M93.5,26c0,0.3-0.2,0.6-0.3,0.9c0,0.1-0.1,0.1-0.1,0.1c-0.1,0-0.2,0.1-0.3,0.1c-0.9,0.2-1.6,0.5-2.2,1.2
		c-0.1,0.1-0.2,0.1-0.2,0.2c-1.4,0.7-2.7,1.4-4.2,1.9c-0.5,0.2-1,0.5-1.4,0.8c-0.6,0.5-1.3,0.9-2.1,1.2c-0.4,0.1-0.8,0.1-1.2,0.2
		c0,0,0,0-0.1,0c-0.4-0.4-1-0.5-1.3-1.1c-0.2-0.5-0.4-0.9-0.7-1.4c-0.1-0.1-0.1-0.2,0.1-0.2c0,0,0,0,0.1,0c0.8-0.3,1.4-0.8,1.9-1.4
		c0.3-0.4,0.7-0.6,1.1-0.9c0.1-0.1,0.2-0.2,0.3-0.4c0.2-0.4,0.3-0.7,0.5-1.1c0.1-0.2,0.2-0.3,0.3-0.3c1.2-0.5,2.3-1.2,3.4-1.9
		c0.1-0.1,0.2-0.2,0.3-0.3c0.5-0.7,1.1-1.4,1.7-2c0.2-0.2,0.4-0.2,0.6-0.3c0.6-0.2,1,0,1.4,0.3c0.2,0.1,0.3,0.3,0.4,0.5
		c0.1,0.3,0.3,0.6,0.6,0.9c0.4,0.4,0.7,0.8,0.9,1.4c0.2,0.4,0.5,0.8,0.6,1.2C93.5,25.7,93.5,25.8,93.5,26z"/>
	<path class="st14" d="M95.2,38.8c-0.5,0-1,0-1.5,0c-0.6,0-1.2,0-1.8,0.1c-0.5,0.1-1,0-1.5-0.1c-1.7-0.3-3.2,0.1-4.7,0.8
		c0,0-0.1,0-0.1,0.1c-0.6,0.4-1.2,0.4-1.8,0.3c-0.1,0-0.2-0.1-0.2-0.2c0-0.5,0.1-1,0.1-1.5c0-0.1,0.1-0.2,0.2-0.2
		c0.6,0,1.1-0.2,1.7-0.5c0.5-0.3,1.1-0.4,1.6-0.6c1-0.4,2-0.5,3-0.6c0.2,0,0.3,0,0.5-0.1c0.6-0.2,1.3-0.4,1.9-0.6
		c0.2,0,0.4-0.1,0.6-0.2c0.7-0.3,1.4-0.4,2.2-0.5c0.7-0.1,1.3-0.4,1.9-0.5c0.2,0,0.2,0,0.4,0.1c0.2,0.3,0.3,0.5,0.3,0.9
		c0,0.6,0,1.1,0.2,1.7c0.1,0.5-0.1,1-0.3,1.6c0,0.1-0.2,0.1-0.2,0.1C96.7,38.8,96,38.8,95.2,38.8z"/>
	<path class="st14" d="M90.5,34.8c-0.5,0-0.9,0-1.4,0c-0.2,0-0.2,0-0.2-0.2c0.1-0.4,0-0.7-0.3-1.1c-0.1-0.2,0-0.5,0-0.7
		c0.1-0.5,0.1-0.5-0.3-0.6C88.2,32.1,88,32,87.8,32c-0.1,0-0.2-0.1-0.1-0.2c0.2-0.4,0.4-0.8,0.6-1.1c0.1-0.1,0.1-0.1,0.2-0.2
		c0.7-0.4,1.4-0.6,2.1-0.9c0.9-0.3,1.7-0.8,2.4-1.2c0.1,0,0.1-0.1,0.2-0.1c0.2-0.5,0.7-0.6,1.1-0.8c0.1-0.1,0.2,0.1,0.2,0.1
		c0.6,0.8,1,1.6,1.1,2.7c0,0.6,0.4,1.1,0.6,1.6c0.1,0.3,0.2,0.6,0.4,0.9c0.1,0.1,0,0.2-0.1,0.3c-0.3,0.2-0.6,0.5-0.9,0.7
		c-0.2,0.2-0.5,0.1-0.7,0.1c-0.5,0-1,0.2-1.5,0.5c-0.5,0.3-1.1,0.4-1.7,0.5C91.4,34.8,91,34.8,90.5,34.8z"/>
	<path class="st14" d="M32.6,37.2c-0.8,0-1.5,0-2.3,0c-0.4,0-0.6-0.3-0.5-0.7c0.2-0.8,0.5-1.5,0.8-2.3c0.3-0.6,0.4-1.2,0.6-1.8
		c0-0.1,0-0.2,0-0.4c0-0.2,0.1-0.3,0.3-0.2c0.5,0.2,1,0.3,1.6,0.4c0.1,0,0.3,0.1,0.4,0.1c0.5,0.2,0.9,0.3,1.5,0.4
		c0.1,0,0.3,0.1,0.4,0.1c0.5,0.4,1.1,0.7,1.7,1c0.1,0.1,0.2,0.2,0.2,0.3c0,0.7-0.2,1.4-0.3,2c-0.1,0.3-0.3,0.5-0.6,0.6
		c-0.6,0.2-1.3,0.4-1.9,0.4C33.8,37.2,33.2,37.2,32.6,37.2z"/>
	<path class="st14" d="M42.8,39c-1.9-0.1-3.6-0.5-5.3-1.4c-0.1-0.1-0.2-0.1,0-0.2c0.7-0.5,0.7-1.3,0.8-2.1c0-0.2,0-0.5,0-0.7
		c0-0.1,0-0.2,0.2-0.1c1,0.2,2.1,0.3,3.1,0.5c0.2,0,0.4,0.1,0.6,0.2c0.7,0.2,1.3,0.4,2,0.6c0.2,0,0.4,0.2,0.5,0.4
		c0.2,0.3,0.3,0.6,0.1,1c-0.2,0.5-0.2,1-0.3,1.5c0,0.2-0.1,0.2-0.2,0.3C43.8,39,43.3,39,42.8,39z"/>
	<path class="st14" d="M86.3,31.6c0,0.5,0,1,0.2,1.4c0.1,0.2,0.1,0.3,0.3,0.3c0.4-0.1,0.6,0.2,0.9,0.4c0.1,0.1,0,0.1,0.1,0.2
		c0,0.3,0,0.7,0,1c0,0.1,0,0.2-0.1,0.3c-0.2,0.4-0.5,0.5-0.9,0.4c-0.2,0-0.4,0-0.5,0.2c-0.9,0.7-2,0.9-3,1.2c-0.1,0-0.2-0.1-0.2-0.1
		c-0.3-0.4-0.5-0.9-0.5-1.3c-0.1-0.6-0.3-1.1-0.7-1.5c-0.3-0.3-0.2-0.4,0.1-0.5c0.4-0.1,0.8-0.3,1.2-0.5c0.6-0.3,1.3-0.4,1.9-0.8
		C85.5,32.2,85.9,32,86.3,31.6z"/>
	<path class="st17" d="M64.2,74c-0.4-0.2-0.8-0.3-1.1-0.5c-1.1-0.8-2.4-1.1-3.7-1.1c-0.2,0-0.5,0-0.7-0.1c-0.4-0.1-0.7-0.1-1.1,0
		c-0.8,0.2-1.6,0.1-2.4,0.2c-1.1,0.2-2.2,0.4-3.3,0.6c-0.9,0.2-1.9,0.3-2.9,0.3c-0.2,0-0.2,0-0.2-0.2c0.2-1.4,0.3-2.8,0.5-4.2
		c0.2-1.7,0.4-3.3,0.6-5c0.2-1.7,0.4-3.3,0.6-5c0.1-0.7,0.2-1.3,0.2-2c0-0.2,0.1-0.3,0.3-0.3c1,0.1,2,0,3-0.2
		c0.8-0.1,1.5-0.4,2.2-0.6c1.1-0.3,2.1-0.6,3.2-0.8c0.5-0.1,1-0.2,1.5-0.2c0.4,0,0.8,0.2,1.3,0.2c0.6,0.1,1,0.5,1.5,0.8
		c0.1,0,0.1,0.1,0.1,0.2c0,1.1,0,2.1,0,3.2c0,0.1,0,0.3-0.2,0.1c0,0-0.1,0-0.1,0.1c-0.2,0.3-0.4,0.5-0.6,0.8
		c-0.1,0.3-0.2,0.5-0.3,0.7c-0.3,0.5-0.4,0.9-0.3,1.4c0,0.4,0,0.9,0,1.3c0,0.5,0.1,1,0.4,1.5c0.1,0.1,0,0.2-0.1,0.3
		c-1,1.6-2,3.1-3.2,4.6c-0.2,0.2-0.4,0.5-0.5,0.7c-0.1,0.1-0.1,0.1,0,0.2c0.1,0,0.1,0.2,0.2,0.1c0.8-0.4,1.5-0.8,2.3-1.1
		c0.1-0.1,0.1-0.2,0.2-0.3c0.5-1.2,1.2-2.3,1.8-3.4c0.1-0.1,0.1-0.2,0.3-0.2c0.2,0.1,0.1,0.2,0.1,0.3c0,2.4,0,4.8,0.1,7.1
		C64.2,73.7,64.2,73.8,64.2,74z"/>
	<path class="st17" d="M64.4,73.9c0-2.5,0-4.9,0-7.4c0-0.1,0-0.2,0.2-0.2c0.3,0,0.7-0.2,1-0.2c0.8,0.1,1.4-0.3,2-0.7
		c0.8-0.5,1.3-1.2,1.7-2c0.1-0.2,0-0.4-0.3-0.4c0,0,0,0,0,0c-1.1-0.2-2.1,0.2-3.1,0.5c-0.3,0.1-0.6,0.4-0.9,0.6
		c-0.1,0-0.1,0.1-0.2,0.1c0-0.1,0.1-0.1,0.1-0.2c0.2-0.3,0.5-0.7,0.7-1c0.3-0.4,0.5-0.6,1.1-0.5c0.7,0.1,1.4,0.2,2,0
		c0.9-0.2,1.8-0.7,2.4-1.3c0.3-0.2,0.5-0.5,0.6-0.8c0-0.1,0.2-0.3,0-0.4c0,0,0-0.1,0.1-0.2c0.8-0.3,1.6-0.7,2.2-1.2
		c0.2-0.2,0.4-0.4,0.5-0.7c0.1-0.1,0-0.3-0.2-0.3c-0.1,0-0.3,0-0.4-0.1c0.7-0.2,1.3-0.5,1.9-0.7c0.2-0.1,0.3-0.1,0.5-0.1
		c0.5,0.1,0.9,0.1,1.4,0.2c0.2,0,0.2,0.1,0.1,0.2c-0.1,0.2,0.1,0.3,0.1,0.5c0,0.6,0.1,1.2,0.1,1.8c0.2,1.8,0.3,3.7,0.5,5.5
		c0.2,1.8,0.3,3.6,0.4,5.4c0.1,0.9,0.2,1.9,0.2,2.8c0,0.2,0,0.2-0.2,0.2c-0.8,0-1.6,0-2.4-0.1c-0.6-0.1-1.2,0-1.7-0.2
		c-1.4-0.3-2.7-0.5-4.1-0.7c-1.1-0.2-2.2-0.1-3.3,0.2c-0.2,0.1-0.5,0.1-0.8,0.2c-0.7,0.2-1.2,0.4-1.7,0.9c-0.2,0.2-0.5,0.3-0.7,0.5
		C64.5,73.9,64.4,73.9,64.4,73.9z"/>
	<path class="st18" d="M60,72.7c0.9,0.1,1.8,0.3,2.5,0.8c0.5,0.4,1.1,0.6,1.7,0.9c0.1,0,0.1,0,0.2,0c0.3-0.2,0.6-0.3,0.9-0.5
		c0.8-0.8,1.8-1,2.8-1.2c1.4-0.3,2.7-0.2,4,0.1c1.2,0.2,2.3,0.5,3.5,0.6c1.3,0.1,2.7,0.3,4,0.2c0.2,0,0.2-0.1,0.2-0.2
		c-0.1-1.3-0.2-2.6-0.3-4c-0.1-1.6-0.3-3.2-0.4-4.8c-0.2-1.8-0.3-3.7-0.5-5.5c0-0.5-0.1-1-0.1-1.5c0-0.1-0.1-0.2,0.1-0.3
		c0.1,0,0.1,0.1,0.1,0.2c0.1,1.1,0.2,2.2,0.3,3.4c0.2,1.7,0.3,3.3,0.5,5c0.2,1.7,0.3,3.3,0.5,5c0.1,1,0.2,1.9,0.3,2.9
		c0,0.2,0,0.3-0.2,0.3c-0.8,0-1.5-0.2-2.3-0.3c-2.1-0.3-4.2-0.8-6.3-1.1c-1-0.1-2.1,0-3.1,0.1c-1.5,0.2-2.7,1-3.9,1.7
		c-0.2,0.1-0.3,0.1-0.5,0c-1-0.6-2.1-1-3.1-1.5c-0.4-0.2-0.9-0.2-1.4-0.3c-0.1,0-0.2,0-0.4-0.1c0-0.1,0.1-0.1,0.2-0.1
		C59.6,72.6,59.8,72.6,60,72.7z"/>
	<path class="st19" d="M77,55.5c-0.4,0.6-0.8,1-1.5,1.2c-0.6,0.2-1.1,0.5-1.7,0.6c-0.2,0-0.4,0-0.7,0c-0.3-0.1-0.7-0.1-1-0.1
		c-0.3,0-0.5-0.1-0.8-0.3c0.5-0.4,0.9-1,1.5-1.3c0.3-0.1,0.7-0.1,1-0.3c0.7-0.2,1.5-0.2,2.2,0C76.4,55.4,76.7,55.4,77,55.5z"/>
	<path class="st19" d="M74.6,54.3c1.7-1.4,3.6-1.5,5.6-0.6c-0.6,0.6-1.2,1-1.9,1.2C76.7,55.3,76.1,55,74.6,54.3z"/>
	<path class="st19" d="M65.7,61.8c-0.2-0.3-0.3-0.7-0.5-1c0-0.1-0.1-0.1-0.1-0.2c-0.1-1.3,0.1-2.6,0.7-3.8c0.1-0.2,0.2-0.5,0.4-0.5
		c0.2,0,0.3,0.3,0.4,0.5c0.5,1,0.7,2,0.3,3c0,0.1,0,0.1,0,0.1C66.6,60.7,66.2,61.3,65.7,61.8z"/>
	<path class="st19" d="M74.3,57.9c-0.2,0.5-0.6,0.7-1,0.9c-0.4,0.3-0.9,0.5-1.4,0.7c-0.1,0-0.2,0-0.2,0c-0.7,0-1.3,0-2,0
		c-0.3,0-0.6-0.1-0.9-0.2c-0.1,0-0.2,0-0.1-0.1c0.2-0.2,0.3-0.4,0.5-0.5c0.2-0.1,0.4-0.2,0.5-0.3c1-0.8,2.2-0.9,3.5-0.7
		C73.7,57.8,74,57.8,74.3,57.9z"/>
	<path class="st19" d="M64,66c0.3-1,1.2-1.5,1.9-2c0.2-0.2,0.6-0.1,0.8-0.3c0.7-0.4,1.4-0.3,2.2-0.3c-0.3,0.6-0.5,1.2-1,1.5
		c-0.5,0.3-0.9,0.8-1.5,0.9C65.6,65.9,64.8,66,64,66z"/>
	<path class="st19" d="M81.9,49.6c-0.1,0.3-0.2,0.6-0.5,0.9c-0.1,0.1-0.1,0.1-0.2,0.2c-0.8,0.9-1.8,1.3-2.9,1.5
		c-0.2,0-0.4,0.1-0.6,0.1c-0.3,0.1-0.5,0-0.8,0c-0.1,0-0.1-0.1,0-0.2c0.3-0.7,0.8-1.2,1.5-1.6c0.9-0.5,1.8-0.8,2.8-0.9
		C81.4,49.6,81.6,49.6,81.9,49.6z"/>
	<path class="st19" d="M66.4,62.2c0.4-0.5,0.8-1,1.4-1.2c0.1,0,0.2-0.1,0.2-0.1c0.9-0.7,1.9-0.8,2.9-0.8c0.1,0,0.2,0,0.2,0
		c0.5,0.1,0.6,0.2,0.2,0.6c-0.4,0.4-0.8,0.8-1.3,1.1c-0.4,0.2-0.8,0.4-1.2,0.6c-0.1,0-0.2,0.1-0.3,0.1c-0.5,0-1,0-1.6,0
		C66.7,62.4,66.6,62.3,66.4,62.2z"/>
	<path class="st19" d="M69.3,53.4c0.5,1,0.5,2,0.3,3c-0.1,0.5-0.2,0.9-0.7,1.3c-0.3,0.3-0.5,0.7-0.9,0.9c0,0-0.1,0-0.1,0.1
		c-0.2-0.8-0.4-1.6-0.2-2.4c0.1-0.2,0.1-0.4,0.1-0.6c0-0.4,0.2-0.7,0.5-1C68.7,54.3,69,53.9,69.3,53.4z"/>
	<path class="st19" d="M76.6,48.7c0.2,0.6,0.2,1.2,0,1.8c-0.1,0.2-0.1,0.4-0.1,0.6c-0.1,0.7-0.5,1.1-0.9,1.5
		c-0.4,0.3-0.9,0.6-1.4,0.9c-0.1-0.5-0.2-0.9-0.1-1.4c0.2-0.9,0.6-1.8,1.4-2.5C75.8,49.3,76.2,48.9,76.6,48.7z"/>
	<path class="st19" d="M70.8,56c-0.1-1-0.2-1.8,0.1-2.7c0.3-1,1.1-1.6,1.8-2.4c0.1,0.7,0.4,1.3,0.3,2c0,0.2-0.1,0.4-0.2,0.5
		c-0.2,0.8-0.7,1.5-1.4,1.9C71.3,55.6,71.1,55.8,70.8,56z"/>
	<path class="st19" d="M64,59.8c0.5,0.6,0.8,1.1,0.7,1.8c0,0.5,0,1-0.1,1.6c0,0.1-0.1,0.3-0.2,0.4c-0.4,0.5-0.8,1-1.1,1.5
		c-0.3-0.3-0.3-0.6-0.3-1c0-0.7,0-1.4,0-2.2c0-0.1,0-0.2,0.1-0.3c0.2-0.4,0.4-0.8,0.5-1.2C63.6,60.2,63.8,60.1,64,59.8z"/>
	<path class="st17" d="M64.8,60.6c-0.1-0.3-0.2-0.5-0.4-0.7c-0.1-0.1-0.1-0.2-0.1-0.3c0-1,0-2.1,0-3.1c0-0.1,0-0.2,0.1-0.3
		c1.1-0.6,2.2-1,3.3-1.3c0,0,0.1,0,0.1,0c-0.2,0.2-0.3,0.4-0.3,0.7c-0.1,0.5-0.3,1-0.3,1.6c0,0.6,0.2,1.2,0.3,1.8
		c0.1,0.3,0,0.5-0.2,0.6c0.1-0.6,0.1-1.2-0.1-1.8c-0.2-0.6-0.4-1.2-0.9-1.7C66.4,56,66.1,56,66,56.1c-0.6,0.7-0.8,1.5-1,2.3
		C64.8,59.2,64.9,59.9,64.8,60.6z"/>
	<path class="st20" d="M65.4,62.9c-0.3,0.4-0.5,0.7-0.8,1.1c-0.2,0.2-0.3,0.5-0.4,0.8c-0.2,0.5-0.5,1-0.8,1.5
		c-0.6,1-1.2,2.1-1.7,3.2c-0.1,0.2-0.2,0.3-0.3,0.4c-0.5,0.2-1,0.5-1.5,0.8c0.1-0.1,0.1-0.2,0.2-0.2c1.3-1.6,2.4-3.3,3.5-5
		C64,64.5,64.7,63.7,65.4,62.9C65.4,62.9,65.4,62.9,65.4,62.9z"/>
	<path class="st21" d="M75.1,54.8c-0.4,0-0.8,0.1-1.2,0.2c-0.4,0.1-0.8,0.2-1.2,0.2c0.4-0.3,0.7-0.6,1.1-0.8c0,0,0.1,0,0.1,0
		C74.3,54.5,74.7,54.7,75.1,54.8z"/>
	<path class="st22" d="M69.8,56.9c0.1-0.3,0.1-0.7,0.2-1c0.1-0.2,0.1-0.5,0.1-0.7c0-0.1-0.1-0.2,0.1-0.2c0.1,0,0.3-0.1,0.3,0.2
		c0,0.3,0,0.6,0.1,0.9c0,0.1,0,0.1-0.1,0.2C70.3,56.5,70.1,56.7,69.8,56.9C69.8,57,69.8,56.9,69.8,56.9z"/>
	<path class="st23" d="M67.5,60.7c0.3-0.4,0.5-0.7,0.8-1.1c0.1-0.1,0.2-0.2,0.3-0.1c0.2,0.1,0.5,0.2,0.8,0.3c-0.4,0.1-0.7,0.1-1,0.3
		C68.1,60.4,67.8,60.6,67.5,60.7z"/>
	<path class="st24" d="M60,72.7c-0.3,0-0.5,0-0.8,0c-0.6-0.1-1.2-0.1-1.7,0c-0.6,0.1-1.2,0.1-1.8,0.1c-0.1,0-0.3,0.1-0.4-0.1
		c0.9-0.2,1.8-0.1,2.7-0.3c0,0,0,0,0.1,0C58.7,72.7,59.3,72.6,60,72.7z"/>
	<path class="st25" d="M66.4,61.6c1.2-2,2.8-3.6,4.4-5.1C69.1,58,67.7,59.8,66.4,61.6z"/>
	<path class="st26" d="M70.9,57c0.2,0.2,0.5,0.2,0.7,0.4c-0.7,0.1-1.5,0.2-2,0.8C70,57.8,70.4,57.4,70.9,57
		C70.8,56.9,70.9,56.9,70.9,57z"/>
	<path class="st27" d="M65,62.8c0-0.6,0-1.1,0-1.7c0.2,0.3,0.3,0.6,0.5,0.9c0,0.1,0,0.1,0,0.2C65.3,62.4,65.2,62.6,65,62.8z"/>
	<path class="st28" d="M75.1,53.5c0.5-0.3,0.9-0.6,1.4-0.9c0.1-0.1,0.3,0,0.4,0c0.1,0,0.3,0,0.4,0.1C76.5,52.8,75.8,53.2,75.1,53.5z
		"/>
	<path class="st29" d="M55.3,72.8c0.1,0.1,0.3,0,0.4,0.1c-0.7,0-1.4,0.3-2.1,0.4c0,0,0,0,0-0.1C54.1,73,54.7,72.9,55.3,72.8z"/>
	<path class="st30" d="M70.9,57C70.9,57,70.8,57,70.9,57c0.2-0.3,0.4-0.5,0.7-0.7C71.4,56.5,71.1,56.7,70.9,57z"/>
	<path class="st31" d="M76.3,52.3c0.1-0.2,0.2-0.3,0.4-0.4C76.5,52.1,76.5,52.3,76.3,52.3z"/>
	<path class="st14" d="M83.9,74.8c0-0.3,0.1-0.7,0.1-1.1c0.1-0.5,0.1-1,0-1.6c-0.1-0.3,0.1-0.3,0.2-0.2c0.4,0,0.7,0.1,1.1,0.2
		c0.3,0,0.5,0,0.8,0c0.1,0,0.2-0.1,0.3-0.2c0.1-0.1,0.2-0.2,0.4-0.1c0.3,0.1,0.5,0.1,0.8,0.2c0.9,0.2,1.7,0.2,2.6-0.1
		c0.5-0.2,0.9-0.2,1.4-0.1c0.5,0.1,0.9,0.1,1.4,0c0.3-0.1,0.6,0.1,1,0.2c0.3,0.1,0.7,0.2,1,0.1c0.1,0,0.3,0.1,0.3-0.1
		c0-0.1,0.1,0,0.2,0c0.6,0,1.2,0,1.9,0c0.4,0,0.9,0,1.3-0.1c0.2-0.1,0.3,0,0.3,0.2c0,0.2,0,0.3,0,0.5c0,0.2,0,0.3-0.2,0.4
		c-0.1,0-0.1,0.1-0.1,0.2c0.1,0.4,0.1,0.8,0.3,1.1c0.1,0.1,0.1,0.2,0,0.3c-0.2,0.4-0.4,0.7-0.9,0.9c-1.1,0.4-2.3,0.4-3.4,0.1
		c-0.9-0.2-1.7-0.2-2.6-0.2c-0.1,0-0.2,0.1-0.3,0.2c-0.1,0.2-0.2,0.2-0.3,0.2c-0.6,0.1-1.2-0.1-1.8-0.2c-0.9-0.2-1.7-0.1-2.6-0.1
		c-0.1,0-0.1,0-0.2,0c-0.7,0.4-1.5,0.6-2.4,0.5c-0.1,0-0.1,0-0.2,0c-0.4,0-0.5-0.1-0.5-0.5C83.9,75.1,83.9,75,83.9,74.8z"/>
	<path class="st14" d="M98.6,68.4c0,0.6,0,1.2,0,1.8c0,0.2-0.1,0.3-0.2,0.3c-0.1,0-0.2,0-0.3,0.1c-0.5,0.4-1.2,0.4-1.8,0.3
		c-0.2,0-0.4,0-0.5,0c-0.3,0-0.5,0-0.7-0.3c-0.1-0.1-0.1-0.2-0.2,0c-0.2,0.2-0.8,0.2-1,0.1c-0.3-0.3-0.6-0.2-1,0
		c-0.4,0.2-0.7,0.2-1.1,0c-0.1-0.1-0.1-0.2-0.2-0.3c-0.1-0.7,0.1-1.4,0.3-2.1c0.1-0.4,0.1-0.7,0-1.1c0-0.1-0.1-0.1-0.1-0.2
		c-0.1-0.4,0-0.5,0.4-0.5c0.2,0,0.4,0,0.6,0c0.4,0,0.8,0,1.2,0.3c0.3,0.2,0.6,0.1,0.9,0c0.6-0.1,1.1-0.3,1.7-0.4
		c0.6-0.1,1.2-0.1,1.8,0.1c0.2,0,0.2,0.2,0.2,0.3C98.6,67.2,98.6,67.8,98.6,68.4z"/>
	<path class="st14" d="M90.5,71c-0.3-0.5-0.7-0.4-1.1-0.2c-0.6,0.2-1.3,0.2-1.9-0.1c-0.3-0.2-0.6-0.2-0.9-0.3c-0.1,0-0.1,0-0.2,0
		c-0.6,0.4-1.2,0.5-1.9,0.5c-0.1,0-0.1,0-0.2-0.1c-0.2-0.4-0.3-0.8-0.2-1.2c0.1-0.3,0.1-0.6,0-0.8c-0.1-0.2-0.1-0.3,0.1-0.4
		c0.2-0.2,0.2-0.5,0.1-0.8c-0.1-0.3-0.1-0.7-0.1-1.1c0-0.1,0-0.2,0.2-0.2c0.4-0.1,0.7-0.1,1.1,0c0.5,0.1,1.1,0.2,1.6,0.4
		c0.6,0.2,1.1,0,1.6-0.2c0.5-0.2,0.9-0.2,1.4-0.2c0.1,0,0.1,0.1,0.2,0.1c0.1,0.1,0.2,0.2,0.3,0.2c0.5,0.2,0.5,0.6,0.6,1.1
		c0,0.2,0,0.5,0,0.7c0,0.4,0,0.7-0.3,1c-0.1,0.1-0.1,0.2-0.1,0.3C90.7,70.1,90.7,70.5,90.5,71z"/>
	<path class="st14" d="M29.4,74.2c0-0.7,0.1-1.5,0.1-2.3c0-0.2,0.1-0.2,0.2-0.2c0.4-0.1,0.9-0.1,1.3,0c0.4,0.1,0.7,0,1-0.1
		c0.2,0,0.3,0,0.4,0c0.3,0.1,0.6,0.1,0.9,0.1c0.9,0,1.9,0.1,2.8-0.2c0.1,0,0.2,0,0.2,0c0.7,0.2,1.4,0.2,2.1,0c0.1,0,0.2,0,0.3,0
		c0,0,0.1,0,0.1,0c0.5,0.3,1.1,0.4,1.7,0.3c0.6-0.1,1.2,0,1.8,0c0.6,0,1.2,0,1.8-0.2c0.1,0,0.2,0,0.2,0.1c0,0.3,0,0.5-0.2,0.7
		c-0.1,0.2-0.2,0.3-0.2,0.5c0,0.4,0,0.8,0.1,1.2c0.1,0.2,0,0.4-0.2,0.6c-0.4,0.3-1,0.5-1.5,0.7c-0.1,0.1-0.2,0-0.3,0
		c-0.7-0.1-1.3-0.2-2-0.3c-0.3,0-0.5-0.2-0.8-0.3c-0.1,0-0.2-0.1-0.4-0.1c-0.5,0.1-1,0.1-1.4,0.4c-0.5,0.2-1,0.2-1.5,0.3
		c-0.1,0-0.1,0-0.2-0.1c-0.6-0.4-1.4-0.4-2.1-0.4c-0.1,0-0.2,0-0.3,0c-0.6-0.1-1.1,0.1-1.6,0.4c-0.3,0.2-0.6,0.1-0.9,0.2
		c-0.5,0.1-1,0-1.5-0.1c-0.1,0-0.2-0.1-0.2-0.2C29.4,75.1,29.4,74.7,29.4,74.2z"/>
	<path class="st12" d="M91.9,78.2c0-0.5,0-0.9,0-1.4c0-0.2,0.1-0.2,0.2-0.2c0.5,0,1,0.1,1.4-0.2c0.9-0.4,1.8-0.2,2.7,0
		c0.7,0.1,1.3,0.1,2,0c0.3-0.1,0.7-0.1,1-0.3c0.4-0.1,0.8,0.2,0.7,0.6c-0.1,0.3-0.2,0.6-0.4,0.8c-0.1,0.1-0.1,0.2,0,0.3
		c0.2,0.2,0.3,0.5,0.5,0.8c0.1,0.1,0.1,0.2,0.1,0.3c0,0.3-0.1,0.4-0.4,0.4c-0.2,0-0.3,0.1-0.5,0.1c-0.3,0-0.6,0.1-0.9,0.3
		c-0.1,0.1-0.3,0.1-0.5,0.1c-0.9,0.2-1.7,0-2.6-0.1c-0.4-0.1-0.7-0.1-1.1-0.2c-0.4-0.1-0.7,0.1-1.1,0.1c-0.3,0-0.6,0.1-0.9,0.1
		c-0.2,0-0.3,0-0.3-0.3C91.9,79.1,91.9,78.7,91.9,78.2z"/>
	<path class="st12" d="M41.9,79.8c-0.6,0.1-1.3-0.1-2-0.3c-0.5-0.1-1.1-0.1-1.6,0c-0.2,0-0.3,0.1-0.5,0.1c-0.2,0-0.4,0.2-0.5,0.1
		c-0.2-0.2-0.4-0.4-0.4-0.8c0-0.7,0-1.4,0.1-2.1c0-0.1,0.1-0.2,0.2-0.2c0.7-0.1,1.3-0.3,1.9-0.6c0.1,0,0.3,0,0.4,0
		c1.2,0.5,2.5,0.5,3.7,0.3c0.3,0,0.7-0.1,1-0.2c0.2,0,0.6,0.2,0.6,0.5c0,0.1,0,0.3,0,0.4c-0.2,0.3-0.1,0.6,0,0.9
		c0.1,0.1,0.1,0.2,0.1,0.3c0.2,0.4,0.1,0.7-0.4,0.9c-0.5,0.2-1,0.3-1.5,0.6c-0.1,0-0.2,0-0.3,0C42.7,79.8,42.3,79.8,41.9,79.8z"/>
	<path class="st12" d="M84.8,76.8c0.4,0,0.7,0,1.1,0c0.4,0,0.8,0,1.2-0.1c0.4-0.1,0.8,0,1.2,0c0.8-0.1,1.5,0.2,2.2,0.4
		c0.1,0,0.2,0.1,0.1,0.2c-0.1,0.5-0.1,1.1,0,1.6c0.1,0.4-0.1,0.7-0.2,1c0,0.1-0.1,0-0.2,0c-0.6,0-1.3,0-1.9-0.2
		c-0.4-0.2-0.8-0.1-1,0.1c-0.5,0.4-1,0.3-1.5,0.3c-0.7-0.1-1.3-0.2-2-0.2c-0.1,0-0.2,0-0.2,0c-0.4,0-0.7-0.2-0.7-0.7
		c0-0.4-0.3-0.7-0.4-1c0-0.1-0.1-0.3,0-0.4c0.1-0.3,0.1-0.6,0.3-0.9c0.1-0.1,0.1-0.2,0.3-0.2C83.7,76.8,84.2,76.8,84.8,76.8z"/>
	<path class="st12" d="M35.9,78c0,0.3,0,0.7,0,1c0,0.2,0,0.3-0.1,0.5c0,0.1-0.1,0.2-0.2,0.2c-0.4,0-0.7-0.1-1-0.1
		c-0.7-0.1-1.4-0.1-2.1,0.2c-0.4,0.2-0.9,0.2-1.3,0.3c-0.8,0-1.6,0-2.3-0.6c-0.3-0.2-0.5-0.6-0.6-1c-0.1-0.3-0.2-0.6-0.3-0.9
		c0-0.1,0-0.2,0-0.3c0.1-0.2,0.2-0.4,0.2-0.5c0.2-0.4,0.2-0.4,0.6-0.3c0.9,0.2,1.7,0.2,2.6,0.1c1-0.1,2.1-0.1,3.1-0.1
		c0.4,0,0.8,0.2,1.2,0.3c0.1,0,0.1,0.1,0.1,0.2C35.9,77.2,35.9,77.6,35.9,78z"/>
	<path class="st32" d="M45.8,87.7c-0.1,0-0.3,0.1-0.3-0.2c0-0.1,0-0.3,0.1-0.3c0.2,0,0.5,0.1,0.5,0.3C46.1,87.6,46,87.7,45.8,87.7z"
		/>
	<path class="st33" d="M51.7,88.6c0,0.1,0,0.3-0.1,0.4c-0.1,0.2-0.4,0.3-0.6,0.2c-0.1,0,0-0.1,0-0.1c0-0.3,0.1-0.6,0.1-0.9
		c0-0.1,0.1-0.2,0.2-0.1C51.5,88.1,51.7,88.2,51.7,88.6z"/>
	<path class="st33" d="M77.6,88.5c0-0.1,0-0.1,0-0.2c0-0.1-0.1-0.3,0.1-0.3c0.2,0,0.4,0,0.5,0.2c0.1,0.2,0.1,0.5,0.1,0.8
		c0,0.2-0.4,0.3-0.5,0.2c-0.1,0-0.1-0.1-0.1-0.1C77.6,88.9,77.6,88.7,77.6,88.5C77.5,88.5,77.6,88.5,77.6,88.5z"/>
	<path class="st34" d="M56.2,89c0,0.5-0.2,0.6-0.5,0.6c-0.1,0-0.2,0-0.1-0.2c0-0.3,0-0.6,0.1-0.9c0-0.1,0.1-0.1,0.2-0.1
		C56.1,88.4,56.2,88.6,56.2,89z"/>
	<path class="st33" d="M68,89.1c0,0.4-0.2,0.6-0.5,0.6c-0.1,0-0.2-0.1-0.3-0.2c-0.1-0.3-0.2-0.6,0-0.8c0.1-0.2,0.2-0.2,0.4-0.2
		c0.2,0,0.3,0.1,0.4,0.2C68,88.8,68,89,68,89.1z"/>
	<path class="st35" d="M72.5,88.4c0.1,0.2,0.2,0.4,0.2,0.6c0,0,0.1,0.1,0,0.1c-0.1,0-0.2,0-0.3,0c-0.1,0-0.1-0.1,0-0.1
		C72.3,88.8,72.4,88.6,72.5,88.4z"/>
	<path class="st36" d="M92.6,84.6c-0.1,0.1-0.2,0.2-0.4,0.3c-0.1-0.2-0.2-0.5-0.2-0.7c0,0,0,0,0,0C92.2,84.3,92.4,84.4,92.6,84.6z"
		/>
	<path class="st37" d="M53.5,88.5c0,0.2,0.1,0.3,0.1,0.5c0.1,0.2,0,0.2-0.2,0.2c-0.2,0-0.3,0-0.2-0.2C53.4,88.8,53.4,88.6,53.5,88.5
		C53.5,88.5,53.5,88.5,53.5,88.5z"/>
	<path class="st38" d="M61.6,88.7c0.1,0.3,0.2,0.5,0.2,0.7c0,0,0,0-0.1,0c-0.4,0-0.4,0-0.3-0.4C61.5,89,61.6,88.8,61.6,88.7z"/>
	<path class="st39" d="M86.2,86.8c0.1,0.1,0.2,0.3,0.2,0.4c0.1,0.2,0.1,0.3-0.1,0.3c-0.2,0-0.2,0-0.2-0.2
		C86.1,87.2,86.1,87,86.2,86.8C86.1,86.9,86.2,86.9,86.2,86.8z"/>
	<path class="st40" d="M88.2,86c0.2,0,0.3,0.1,0.3,0.2c0,0.2-0.2,0.3-0.3,0.3c-0.2,0-0.2-0.2-0.2-0.3C87.9,86,88.1,86,88.2,86z"/>
	<path class="st14" d="M86.6,60.6c0.8,0,1.6,0.1,2.4-0.1c0.3-0.1,0.6,0.1,0.9,0.1c0.9,0.1,1.7,0.1,2.6-0.1c0.7-0.1,1.5-0.1,2.2,0
		c0.8,0.1,1.6,0.1,2.4,0c0.5-0.1,0.9-0.1,1.4-0.1c0.2,0,0.2,0,0.2,0.2c0,0.3,0,0.6,0.1,0.8c0,0.1,0,0.3,0,0.4
		c-0.2,0.6-0.2,1.2-0.4,1.8c-0.1,0.3,0.1,0.7,0.3,1c0.1,0.2,0.3,0.4,0.2,0.6c0,0.1,0,0.2-0.2,0.2c-0.2,0-0.4,0-0.7-0.1
		c-0.6-0.3-1.1-0.3-1.7-0.1c-0.7,0.2-1.4,0.2-2,0.4c-0.1,0-0.2,0-0.3-0.1c-0.4-0.2-0.8-0.3-1.3-0.4c-0.3-0.1-0.6,0.1-0.9,0.1
		c-0.3,0.1-0.7,0-1-0.1c-0.5-0.2-0.9-0.4-1.4-0.4c-0.3,0-0.5,0-0.7,0.2c-0.5,0.3-1,0.4-1.5,0.4c-0.8,0-1.5-0.1-2.2-0.4
		c-0.3-0.1-0.6-0.1-0.9-0.1c-0.3,0-0.3-0.1-0.3-0.3c0-0.3,0-0.6,0.1-0.9c0.1-0.2,0.1-0.4,0.1-0.6c0.1-0.4,0.1-0.7-0.2-0.9
		c-0.2-0.1-0.3-0.6-0.2-0.7c0.2-0.2,0.2-0.4,0.3-0.6c0.1-0.1,0.1-0.1,0.2-0.1c0.5-0.1,1-0.1,1.5-0.1C86,60.6,86.3,60.6,86.6,60.6z"
		/>
	<path class="st12" d="M82.5,40.3c0.2,0.1,0.4,0.2,0.5,0.3c0.3,0.2,0.6,0.2,0.9,0.2c1.4-0.1,2.7-0.6,4.1-1c0.7-0.2,1.4-0.2,2.1-0.2
		c0.2,0,0.3,0.1,0.4,0.2c0.2,0.1,0.3,0.2,0.5,0.1c0.6-0.1,1.2-0.1,1.8-0.1c0.2,0,0.5,0,0.7,0.1c0.4,0.1,0.8,0.1,1.2,0
		c0.5-0.1,0.9-0.1,1.4-0.1c1.1,0.1,2.2-0.1,3.3-0.3c0.2,0,0.2,0,0.2,0.2c0,0.3,0,0.7,0,1c0,0.3,0,0.6,0.1,0.9c0.1,0.2,0,0.4-0.2,0.4
		c-0.6,0.1-1.3,0.2-1.9,0.3c-0.8,0.1-1.5,0-2.3-0.1c-0.4,0-0.8,0-1.1,0c-0.6,0-1.2-0.1-1.9-0.1c-0.7-0.1-1.3,0-2,0.1
		c-0.5,0.1-1,0.1-1.5-0.1c-0.1,0-0.2,0-0.3,0c-0.8,0.1-1.7,0.2-2.5,0.2c-1.2,0-2.3,0-3.5,0c-0.1,0-0.3,0-0.2-0.2
		C82.4,41.5,82.5,40.9,82.5,40.3z"/>
	<path class="st12" d="M41.1,42.3c-0.7,0-1.4,0-2,0c-0.8,0-1.5-0.1-2.3-0.4c-0.4-0.2-0.9-0.1-1.3,0c-1.1,0.1-2.2,0.3-3.2,0.3
		c-1.1,0-2.1,0-3.2,0c-0.2,0-0.2,0-0.2-0.2c0-1,0-2,0-3.1c0-0.2,0-0.2,0.2-0.2c0.6,0,1.2,0,1.8,0c0.6,0,1.1-0.1,1.6-0.1
		c0.3,0,0.6,0,1,0c0.5,0,1,0,1.4-0.1c0.4-0.1,0.8,0,1.1,0.3c0.3,0.2,0.6,0.4,1,0.5c0.5,0.1,0.9,0.4,1.4,0.6c0.2,0.1,0.3,0.1,0.5,0.1
		c2,0,4.1,0,6.1,0c0.2,0,0.3,0.1,0.3,0.3c0,0.6,0,1.2,0,1.7c0,0.3-0.1,0.3-0.3,0.3C43.7,42.3,42.3,42.3,41.1,42.3z"/>
	<path class="st14" d="M42.3,53.1c-0.1,0-0.2,0-0.2,0c-1.2-0.1-2.5,0.1-3.7,0.3c-0.2,0-0.4,0-0.6,0c-1.4,0-2.9,0-4.3,0
		c-0.6,0-1.2-0.2-1.8-0.4c-0.2-0.1-0.3-0.1-0.5,0c-0.5,0.1-1,0.2-1.5,0.4c-0.1,0-0.2,0.1-0.2-0.1c0-0.9-0.2-1.9-0.2-2.8
		c0-0.5,0.3-0.8,0.4-1.2c0-0.1,0.1-0.1,0.2,0c1,0.4,2,0.3,3.1,0.3c1,0,2,0,3,0c0.6,0,1.2-0.1,1.8-0.2c0.1,0,0.2,0,0.2,0
		c0.7,0.1,1.2-0.1,1.7-0.5c0.2-0.1,0.3-0.1,0.5-0.1c0.4,0.1,0.7,0.2,1.1,0.3c0.9,0.3,1.9,0.4,2.9,0.3c0.2,0,0.3,0,0.3,0.3
		c0,0.5,0.1,1,0.3,1.5c0.1,0.4,0,0.7-0.1,1c-0.1,0.3-0.1,0.8-0.3,1c-0.2,0.2-0.6,0-0.9,0C43,53.1,42.6,53.1,42.3,53.1z"/>
	<path class="st14" d="M90.7,53.4c-1.2,0-2.3,0-3.5,0c-0.2,0-0.5,0-0.7-0.1c-0.6-0.3-1.2-0.3-1.8-0.1c-0.5,0.1-0.8-0.1-0.9-0.6
		c-0.1-0.6-0.2-1.3-0.3-1.9c0,0,0-0.1,0-0.1c0.3-0.3,0.1-0.8,0.2-1.1c0.1-0.1,0.1-0.2,0.3-0.2c1.4,0.3,2.8,0.4,4.2,0.3
		c1.4-0.2,2.8-0.1,4.2-0.1c0.1,0,0.2-0.1,0.4-0.1c0.5-0.2,0.9-0.3,1.4-0.5c0.3-0.1,0.5,0,0.8,0.1c0.5,0.3,1,0.3,1.5,0.3
		c0.7,0,1.4,0,2.1,0c0.2,0,0.2,0,0.3,0.2c0.1,0.7,0.3,1.4,0.3,2.1c0,0.1,0,0.3-0.1,0.4c-0.1,0.4-0.1,0.9-0.2,1.3
		c-0.1,0.3-0.3,0.4-0.5,0.4c-0.9-0.1-1.8-0.2-2.6-0.3c-0.2,0-0.4,0-0.5,0c-0.5,0.1-0.9,0.1-1.4,0.1C92.8,53.4,91.8,53.4,90.7,53.4z"
		/>
	<path class="st14" d="M31,54.1c0.6-0.1,1.2,0.2,1.9,0.3c0.5,0.1,1,0.1,1.6,0c0.6,0,1.2,0.1,1.8-0.1c0.1,0,0.1,0,0.1,0
		c0.1,0.3,0.3,0.5,0.2,0.9c-0.1,0.3-0.1,0.6,0.1,0.9c0.3,0.5,0.2,1,0.1,1.6c0,0.4-0.2,0.8-0.4,1.1c0,0.1-0.1,0.1-0.1,0.2
		c-0.1,0.2,0,0.5-0.2,0.5c-0.2,0.1-0.5,0.2-0.8,0.2c-0.5,0-1-0.1-1.5-0.2c-0.2,0-0.4-0.2-0.6-0.4c-0.2-0.1-0.3-0.2-0.5-0.1
		c-0.6,0.4-1.2,0.4-1.9,0.3c-0.4-0.1-0.7,0-1.1,0.1c-0.2,0-0.2,0-0.2-0.2c0.2-0.4,0.3-0.8,0.2-1.2c0-0.1,0-0.1,0-0.2
		c-0.2-0.5-0.1-1,0-1.5c0.1-0.6,0-1.3,0-1.9c0-0.2,0.1-0.3,0.3-0.3C30.3,54.1,30.6,54.1,31,54.1z"/>
	<path class="st14" d="M37.2,46.2c0-0.4,0-0.7,0-1.1c0-0.3,0-0.6-0.1-0.9c-0.1-0.4,0-0.8-0.1-1.1c0-0.1,0-0.1,0.1-0.1
		c1.6,0.3,3.2,0,4.8,0.2c0.7,0.1,1.4,0,2.1,0.4c0.1,0.1,0.2,0.1,0.2,0.2c0.3,1.3,0.3,2.7,0.3,4c0,0.4-0.1,0.4-0.5,0.4
		c-0.7,0-1.4,0-2.1-0.1c-0.2,0-0.3-0.1-0.5-0.1c-0.4-0.2-0.9-0.3-1.3-0.3c-0.5,0-1.1,0-1.6,0c-0.3,0-0.6,0.1-0.8,0.3
		c-0.1,0.1-0.2,0.2-0.3,0.1c-0.1-0.1-0.4-0.1-0.4-0.4C37.3,47.2,37.2,46.7,37.2,46.2z"/>
	<path class="st14" d="M97.8,48.4c-0.6,0.1-1.1-0.1-1.7-0.3c-0.5-0.2-1.1-0.2-1.6-0.2c-0.7-0.1-1.4,0.1-2.1,0.3
		c-0.3,0.1-0.6-0.1-0.7-0.4c-0.1-0.4-0.1-0.7,0-1.1c0.1-0.7,0.1-1.3-0.2-1.9c-0.1-0.1,0-0.2,0-0.3c0.1-0.3,0.2-0.6,0.3-0.9
		c0-0.1,0.1-0.2,0.3-0.2c0.5,0,1.1,0,1.6,0.1c1.2,0.3,2.5,0.2,3.7,0.2c0.2,0,0.5-0.1,0.7-0.1c0.2,0,0.2,0,0.3,0.1
		c0.5,0.7,0.6,1.5,0.8,2.2c0.1,0.2,0.1,0.5-0.1,0.7c-0.2,0.3-0.2,0.7-0.2,1.1c0,0.1,0,0.2,0,0.3c0,0.4-0.1,0.5-0.5,0.5
		C98.2,48.4,98,48.4,97.8,48.4z"/>
	<path class="st14" d="M96.1,59.7c-0.9,0-1.8,0-2.7-0.3c-0.4-0.1-0.9-0.1-1.3,0c-0.1,0-0.2,0.1-0.2,0c-0.1-0.1,0-0.2,0-0.3
		c0.2-0.3,0.2-0.7,0.3-1.1c0-0.4,0.2-0.8,0.3-1.3c0-0.2,0-0.4-0.1-0.6c-0.4-0.5-0.4-1.2-0.3-1.8c0-0.2,0.2-0.2,0.4-0.2
		c0.7,0.2,1.3,0.1,2,0c0.2,0,0.5-0.1,0.7,0.1c0.1,0.1,0.2,0,0.3,0c1-0.3,2-0.2,2.9,0c0.3,0.1,0.3,0.3,0.4,0.5
		c0.1,0.1,0.1,0.2,0.1,0.4c0.2,0.3,0.2,0.6-0.1,0.9c-0.2,0.3-0.1,0.6,0,0.9c0,0.1,0.1,0.2,0.1,0.3c0.1,0.4,0.2,0.8,0.1,1.3
		c-0.1,0.6-0.4,0.8-0.9,0.9C97.3,59.8,96.7,59.7,96.1,59.7z"/>
	<path class="st14" d="M42,59.6c-0.5,0-1,0-1.6,0c-0.2,0-0.5,0-0.6-0.2c-0.4-0.3-0.8-0.4-1.3-0.3c-0.3,0.1-0.5,0.1-0.8,0.2
		c-0.1,0-0.2,0.1-0.3,0c-0.1-0.1-0.2-0.3-0.1-0.4c0.3-0.5,0.5-1.1,0.6-1.7c0-0.4-0.1-0.8-0.2-1.2c-0.2-0.5-0.1-1,0-1.5
		c0-0.1,0.1-0.2,0.2-0.2c0.4,0,0.8-0.1,1.1-0.1c1.2,0,2.4,0,3.6,0c0.1,0,0.2,0,0.2,0c0.4,0.1,0.7,0.1,0.8,0.5c0,0.1,0.1,0.1,0.1,0.2
		c0.4,0.4,0.5,0.9,0.6,1.5c0,0,0,0.1,0,0.1c-0.3,0.6-0.1,1.3,0,1.9c0,0.2,0,0.4,0,0.7c0,0.2-0.4,0.5-0.6,0.5
		C43.2,59.6,42.6,59.6,42,59.6z"/>
	<path class="st14" d="M91.1,56c-0.1,0.4,0,0.8,0.3,1.2c0,0.1,0.1,0.1,0,0.2c-0.2,0.3-0.3,0.7-0.4,1c-0.1,0.3-0.2,0.7-0.4,1
		c-0.1,0.1-0.1,0.2-0.3,0.2c-0.3,0-0.5,0.1-0.8,0.1c-0.8,0-1.5-0.3-2.2-0.5c-0.2,0-0.3,0-0.5,0.1c-0.4,0.2-0.8,0.3-1.3,0.2
		c-0.3-0.1-0.5-0.1-0.8,0c-0.6,0.2-0.8,0-0.6-0.6c0.2-0.7,0.1-1.2-0.3-1.8c-0.1-0.2-0.1-0.4-0.1-0.6c0.1-0.4,0.1-0.7,0.1-1.1
		c0-0.4,0.2-0.6,0.3-1c0-0.1,0.1-0.1,0.2-0.1c0.4,0,0.8,0,1.2-0.1c0.3-0.1,0.5,0,0.8,0.1c0.3,0,0.6,0.1,0.9,0.1c1,0,2,0,3,0
		c0.3,0,0.7,0.4,0.8,0.7C91.1,55.4,91.1,55.6,91.1,56z"/>
	<path class="st14" d="M36.4,47.1c0,0.1,0,0.2,0,0.3c0,0.4-0.1,0.4-0.5,0.6c-0.6,0.3-1.3,0.2-2,0.3c-0.5,0.1-1,0.1-1.5,0.2
		c-0.4,0.1-0.8-0.1-1.2-0.2c-0.2-0.1-0.3-0.2-0.5-0.2c-0.4-0.1-0.5-0.4-0.8-0.7c0,0-0.1-0.1,0-0.1c0.3-0.8,0-1.5-0.2-2.3
		c-0.1-0.5,0-1,0-1.5c0-0.2,0.1-0.1,0.2-0.1c0.4,0,0.9,0,1.3,0.1c0.9,0.1,1.9,0,2.8,0.1c0.6,0,1-0.2,1.4-0.5
		c0.1-0.1,0.2-0.2,0.3-0.1c0.1,0.1,0.3,0.2,0.4,0.4c0.1,1.2,0.2,2.3,0.3,3.5C36.4,46.9,36.4,47,36.4,47.1
		C36.4,47.1,36.4,47.1,36.4,47.1z"/>
	<path class="st14" d="M84,45.7c0-0.7,0.2-1.4,0.3-2c0-0.2,0.1-0.1,0.2-0.1c0.6,0,1.2,0.1,1.8,0.1c0.7,0.1,1.5,0.1,2.2-0.2
		c0.5-0.2,1-0.1,1.6,0c0.1,0,0.1,0.1,0.1,0.2c0.1,0.8,0.3,1.6,0.3,2.4c0,0.4,0.2,0.8,0.3,1.2c0.1,0.4-0.2,0.9-0.6,1
		c-0.4,0.1-0.7,0.1-1.1,0.1c-0.8,0.1-1.7,0.3-2.5,0.4c-0.4,0-0.8-0.1-1.2-0.2c-0.4,0-0.7-0.2-0.8-0.6c-0.2-0.5-0.4-1-0.5-1.4
		C84,46.1,84,45.9,84,45.7z"/>
	<path class="st14" d="M31.3,60.6c0.8,0,1.6-0.1,2.3-0.1c1-0.1,2-0.1,2.9,0.1c0.1,0,0.2,0,0.4,0c1.4,0,2.7,0,4.1,0
		c0.3,0,0.6,0,0.9-0.1c0.7-0.2,1.4,0,2.1,0c0.1,0,0.2,0.1,0.2,0.2c0.1,0.2,0.1,0.5,0.1,0.7c0,0.2,0,0.5,0,0.7c0,0.4,0,0.8-0.3,1.1
		c-0.1,0.1-0.1,0.2-0.1,0.4c0.1,0.5,0.2,1.1,0.4,1.6c0,0.2,0,0.3-0.2,0.2c-0.6-0.2-1.2-0.3-1.8-0.5c-0.1,0-0.3,0-0.4,0
		c-0.3,0.2-0.7,0.3-1.1,0.5c-0.6,0.3-1.3,0.2-1.9-0.1c-0.7-0.3-1.4-0.5-2.1-0.1c-0.1,0-0.2,0-0.3,0c-0.4-0.2-0.9-0.5-1.3-0.4
		c-0.5,0-0.9,0.2-1.4,0.3c-0.6,0.1-1.1,0.2-1.7,0.2c-0.6,0-1.1,0-1.6-0.2C30.3,65,30,65,29.7,65.2c-0.1,0.1-0.2,0.1-0.2-0.1
		c-0.1-0.4-0.1-0.9-0.1-1.4c0-0.1,0-0.2,0.1-0.2c0.1-0.2,0.2-0.4,0.3-0.6c0.2-0.4,0.2-0.4-0.2-0.6c-0.2-0.1-0.2-0.2-0.2-0.4
		c0.1-0.3,0.2-0.7,0.2-1c0-0.2,0.1-0.2,0.3-0.2C30.4,60.6,30.9,60.6,31.3,60.6z"/>
	<path class="st14" d="M44.3,68.2c0,0.4,0,0.7,0,1.1c0,0.4-0.1,0.8-0.2,1.2c0,0.1-0.1,0.2-0.2,0.2c-0.9,0.2-1.8,0.2-2.7,0
		c-0.3-0.1-0.7-0.1-1,0.1c-0.1,0.1-0.2,0-0.2-0.1c0-0.2-0.2-0.3-0.4-0.3c-0.1,0-0.3,0-0.4,0c-0.5,0-0.9,0-1.3,0.3
		c-0.1,0.1-0.6-0.1-0.6-0.2c0-0.1,0-0.1,0-0.2c0.1-0.3,0.1-0.6,0-0.9c-0.1-0.2,0-0.3,0.1-0.5c0.2-0.3,0.3-0.6,0.4-0.9
		c0.1-0.2,0.1-0.4,0.1-0.6c-0.1-0.2-0.1-0.5-0.2-0.7c-0.1-0.4,0.1-0.6,0.5-0.6c0.4,0,0.8,0.1,1.3,0.2c0.4,0.1,0.8,0.1,1.3-0.1
		c0.9-0.3,1.9-0.4,2.9-0.3c0.3,0,0.5,0.3,0.8,0.4c0.1,0,0,0.1,0,0.2C44.3,67.2,44.3,67.7,44.3,68.2z"/>
	<path class="st41" d="M43.4,65.6c-0.8,0-1.6,0.1-2.4,0.2c0.4-0.1,0.7-0.3,1-0.5c0.1,0,0.1,0,0.2,0C42.7,65.4,43,65.5,43.4,65.6z"/>
	<path class="st14" d="M30.7,66.2c0.3,0,0.6,0,1,0.2c0.8,0.3,1.5,0.2,2.3-0.1c0.8-0.3,1.6-0.2,2.3,0.5c0.1,0.1,0.4,0.2,0.4,0.5
		c0,0.4,0.1,0.8-0.1,1.1c-0.4,0.6-0.2,1.2-0.2,1.8c0.1,0.5,0.1,0.5-0.4,0.4c-0.4-0.1-0.8,0-1.2,0.2c-0.4,0.2-0.9,0.1-1.3,0.1
		c-0.4,0-0.8-0.2-1.2-0.3c-0.2,0-0.3,0-0.4,0c-0.7,0.4-1.4,0.3-2.2,0c-0.2-0.1-0.3-0.4-0.1-0.5c0.3-0.3,0.4-0.5,0.2-0.9
		c-0.2-0.2-0.2-0.5,0-0.8c0.3-0.5,0.1-1,0-1.5c-0.1-0.5-0.1-0.6,0.5-0.6C30.3,66.2,30.5,66.2,30.7,66.2z"/>
</g>
</svg>
