<?xml version="1.0" encoding="utf-8"?>
<!-- Generator: Adobe Illustrator 22.0.0, SVG Export Plug-In . SVG Version: 6.00 Build 0)  -->
<svg version="1.1" id="Capa_1" xmlns="http://www.w3.org/2000/svg" xmlns:xlink="http://www.w3.org/1999/xlink" x="0px" y="0px"
	 viewBox="0 0 94 106" style="enable-background:new 0 0 94 106;" xml:space="preserve">
<style type="text/css">
	.st0{display:none;fill:#101012;}
	.st1{fill:#C80110;}
	.st2{fill:#F0CA30;}
</style>
<path class="st0" d="M93.9,21.8l-6.8,6.4l-1.4-1.5l1.2-7.2l-4.2,4L81.3,22l6.8-6.4l1.3,1.4l-1.2,7.4l4.4-4.1L93.9,21.8z M79.5,18.9
	c-1.3,0.2-2.5,0-3.7-0.8c-1.1-0.8-1.9-1.8-2.1-3.1c-0.3-1.3,0-2.5,0.7-3.6c0.8-1.1,1.8-1.8,3.1-2.1c1.3-0.2,2.5,0,3.7,0.8
	c1.1,0.8,1.9,1.8,2.1,3.1c0.3,1.3,0,2.5-0.7,3.6C81.8,18,80.8,18.7,79.5,18.9z M81.3,13.5c-0.1-0.8-0.5-1.4-1.2-1.8
	c-0.6-0.4-1.4-0.5-2.1-0.3c-0.8,0.2-1.4,0.6-1.8,1.3c-0.5,0.7-0.6,1.4-0.5,2.2s0.5,1.4,1.2,1.8c0.6,0.4,1.4,0.5,2.1,0.4
	c0.8-0.2,1.4-0.6,1.8-1.3C81.2,15,81.4,14.3,81.3,13.5z M70.1,6.4c-0.3-0.1-0.6-0.2-0.8-0.1c-0.2,0.1-0.4,0.2-0.5,0.5
	c-0.1,0.2-0.1,0.5,0.1,0.7s0.6,0.6,1.3,1.2c0.7,0.5,1.2,1.1,1.5,1.7c0.3,0.6,0.3,1.3-0.1,2c-0.3,0.8-0.9,1.3-1.6,1.5
	c-0.8,0.2-1.6,0.2-2.6-0.2c-1.4-0.6-2.4-1.6-3-3l1.7-0.9c0.6,1.2,1.3,2,2.1,2.3c0.4,0.1,0.7,0.2,0.9,0.1c0.3-0.1,0.4-0.2,0.6-0.5
	c0.1-0.3,0.1-0.5-0.1-0.7s-0.5-0.6-1.1-1c-0.9-0.7-1.5-1.3-1.8-1.8c-0.3-0.6-0.3-1.3,0-2.1s0.9-1.3,1.7-1.5c0.8-0.2,1.6-0.1,2.5,0.2
	c0.6,0.2,1.1,0.6,1.6,1s0.9,0.9,1.2,1.5l-1.6,1C71.6,7.3,70.9,6.7,70.1,6.4z M60.2,11.1l-3.1-6.6l-1.2,5.7l-2-0.4l2-9.1l1.9,0.4
	L61,7.9L62.2,2l2,0.4l-2,9.1L60.2,11.1z M48.2,39.6v4.2h7.7l2.3,4.2h-10v3.6h3.4v3.6h-3.4V73c5.4-0.6,9.9-3.4,12.5-7.4
	c-1.8-1.1-3.3-2.3-3.8-3.3c-0.9-1.8,3-1.5,6-4c0.7-0.6,1.3-1.3,1.9-2.2c0.8-1.3,1.2-0.9,1.5-0.6c0.4,0.3,0.9,1,1.4,1.9
	c1.9,3.3,3.8,9.4,1.7,10.5c-0.9,0.5-2.5,0.3-4.3-0.2c-3.7,6-10.9,10.2-19.1,10.2s-15.4-4.2-19.1-10.3c-1.8,0.5-3.4,0.7-4.3,0.2
	c-2.1-1.1-0.2-7.3,1.7-10.5c0.5-0.8,1-1.5,1.4-1.8s0.8-0.7,1.5,0.6c0.5,0.9,1.2,1.7,1.9,2.2c3,2.5,6.8,2.2,6,4
	c-0.5,1.1-2,2.3-3.8,3.3c2.5,3.9,7.1,6.8,12.5,7.4V55.2h-3.4v-3.6h3.4V48h-10l2.3-4.2h7.7v-4.2c-2.7-0.9-4.6-3.5-4.6-6.5
	c0-3.8,3.1-6.9,6.9-6.9c3.8,0,6.9,3.1,6.9,6.9C52.8,36.1,50.9,38.7,48.2,39.6z M46,30.8c-1.3,0-2.3,1-2.3,2.3c0,1.3,1,2.3,2.3,2.3
	s2.3-1,2.3-2.3C48.2,31.9,47.2,30.8,46,30.8z M47.6,1.9l-0.1,1.9L51.7,4l-0.1,1.8l-4.2-0.2l-0.1,1.9l4.8,0.2L52,9.6l-6.8-0.3L45.6,0
	l6.7,0.3l-0.1,1.8L47.6,1.9z M40.4,5.9l-3.7,0.4l0.4,3.6L35,10.2L34,1l2-0.2l0.5,3.9l3.7-0.4l-0.5-3.9l2.1-0.3l1.1,9.2l-2.1,0.3
	L40.4,5.9z M28.9,9.3l-1.2,0.4l0.8,2.5l-2,0.6l-2.7-8.9l3.1-1c1.4-0.4,2.4-0.4,3.2-0.1c0.8,0.3,1.3,1.1,1.7,2.2
	c0.3,1.1,0.3,2-0.2,2.7C31.1,8.3,30.2,8.9,28.9,9.3z M29.7,5.4c-0.2-0.5-0.4-0.8-0.8-1c-0.4-0.1-0.9-0.1-1.5,0.1l-1.1,0.3l0.9,3
	l1.3-0.4c0.7-0.2,1.1-0.5,1.2-0.8C29.9,6.4,29.9,5.9,29.7,5.4z M19.6,13.8l4.3-2.1l0.8,1.6l-6.1,3L14.5,8l6-3l0.8,1.7l-4.1,2.1
	l0.9,1.7l3.7-1.9l0.8,1.6L18.9,12L19.6,13.8z M15.1,18.7l-1.7,1.2L9,13.8l-2.1,1.5l-1.1-1.5l5.9-4.3l1.1,1.5l-2.1,1.5L15.1,18.7z
	 M2.1,20.2c0,0.3,0.1,0.5,0.3,0.7C2.5,21,2.8,21.1,3.1,21s0.8-0.3,1.6-0.8s1.5-0.7,2.1-0.8s1.3,0.2,1.9,0.8c0.6,0.6,0.9,1.3,0.8,2.1
	c-0.1,0.8-0.4,1.6-1.2,2.3c-1,1.1-2.3,1.6-3.9,1.7l-0.2-1.9c1.3-0.1,2.3-0.5,2.9-1.1c0.3-0.3,0.4-0.5,0.4-0.8s0-0.5-0.3-0.7
	c-0.2-0.2-0.4-0.3-0.7-0.2c-0.3,0.1-0.7,0.3-1.3,0.6c-0.9,0.6-1.7,0.9-2.4,1c-0.6,0.1-1.3-0.2-1.9-0.8c-0.6-0.6-0.9-1.3-0.8-2.1
	c0.1-0.8,0.5-1.5,1.1-2.2c0.4-0.4,0.9-0.8,1.5-1.1c0.6-0.3,1.2-0.5,1.8-0.5l0.4,1.8c-1,0.2-1.8,0.5-2.4,1.2
	C2.2,19.7,2.1,19.9,2.1,20.2z M7,81.5l-2,5.3l4.7-3.1l1.7,1.4l-2.1,5.2l4.8-2.9l1.7,1.4l-8.4,5.1l-1.2-1l2.6-6.3l-5.7,3.7l-1.2-1
	l3.4-9.2L7,81.5z M10.4,46.6v2.3c0,0.6-0.2,1.1-0.5,1.4c-0.3,0.3-0.8,0.5-1.3,0.5s-0.9-0.2-1.3-0.5C7,50,6.9,49.5,6.9,48.9v-2.3h0.9
	v2.3c0,0.3,0.1,0.6,0.2,0.8C8.2,49.9,8.4,50,8.6,50c0.3,0,0.5-0.1,0.6-0.3c0.2-0.2,0.2-0.5,0.2-0.8v-2.3
	C9.4,46.6,10.4,46.6,10.4,46.6z M15.1,46.6v4.1h-0.9l-2-2.6v2.6h-0.9v-4.1h0.9l2,2.6v-2.6H15.1z M19.4,54.5H6.3v-2h13.2v2H19.4z
	 M17,50.7v-3.3h-1.2v-0.8H19v0.8h-1.2v3.3H17z M23.3,92.3L22.5,94l-4.1-2.1l-0.9,1.7l3.7,1.9l-0.8,1.6l-3.7-1.9l-0.9,1.7l4.3,2.1
	l-0.8,1.6l-6.1-3.1l4.2-8.3L23.3,92.3z M29,94.3c0.6,0.2,1.1,0.4,1.5,0.7s0.7,0.6,0.8,0.9c0.3,0.6,0.3,1.2,0.1,1.7
	c-0.2,0.7-0.6,1.1-1.1,1.3C30,99,29.9,99,29.8,99s-0.2,0-0.4,0c0.5,0.3,0.9,0.7,1.1,1.1c0.2,0.5,0.2,1,0.1,1.6
	c-0.2,0.6-0.6,1.1-1.1,1.4c-0.7,0.4-1.6,0.4-2.8,0l-3.9-1.2l2.7-8.9L29,94.3z M29.2,97.2c0.1-0.4,0.1-0.7-0.1-0.9
	c-0.2-0.2-0.6-0.4-1.2-0.6l-1-0.3l-0.6,1.9l0.9,0.3c0.6,0.2,1,0.2,1.3,0.2C28.9,97.8,29.1,97.6,29.2,97.2z M26.6,101.4
	c0.6,0.2,1,0.2,1.3,0.2c0.3-0.1,0.6-0.3,0.7-0.7c0.1-0.4,0.1-0.7-0.2-1c-0.3-0.2-0.7-0.4-1.4-0.6L25.9,99l-0.6,2L26.6,101.4z
	 M41.5,96.6c1.7,0.1,2.9,0.6,3.7,1.5s1.2,2,1.1,3.5c-0.1,1.4-0.6,2.6-1.5,3.3c-0.9,0.8-2.3,1.1-4,1l-3.2-0.2l0.6-9.3L41.5,96.6z
	 M41.2,104c0.9,0.1,1.7-0.1,2.2-0.6c0.5-0.4,0.8-1.1,0.9-2c0.1-0.9-0.2-1.6-0.6-2.2c-0.5-0.5-1.2-0.8-2.3-0.9l-1.2-0.1l-0.4,5.6
	L41.2,104z M55.7,97.9l-4.6,0.5l0.2,1.9l4.1-0.4l0.2,1.8l-4.1,0.4l0.2,1.9l4.7-0.5l0.2,1.8l-6.8,0.7l-0.9-9.2l6.7-0.7L55.7,97.9z
	 M60.7,94.7c0.6-0.2,1.2-0.2,1.9-0.2s1.3,0.2,1.8,0.5l-0.6,1.7c-0.9-0.4-1.8-0.5-2.6-0.3c-0.3,0.1-0.6,0.2-0.7,0.4
	c-0.2,0.2-0.2,0.4-0.1,0.7c0.1,0.3,0.2,0.4,0.5,0.5s0.9,0.1,1.8,0.1c0.9,0,1.7,0.1,2.2,0.4c0.6,0.3,1,0.8,1.2,1.7
	c0.2,0.8,0.1,1.5-0.4,2.2s-1.2,1.1-2.2,1.4c-1.4,0.4-2.8,0.2-4.3-0.6l0.8-1.8c1.2,0.6,2.2,0.8,3,0.6c0.4-0.1,0.6-0.3,0.8-0.5
	s0.2-0.5,0.1-0.7c-0.1-0.3-0.2-0.5-0.5-0.6s-0.7-0.1-1.5-0.1c-1.1,0-2-0.1-2.5-0.4c-0.6-0.3-1-0.8-1.2-1.7c-0.2-0.9-0.1-1.6,0.4-2.2
	C59,95.3,59.7,94.9,60.7,94.7z M71.4,101.1l-1.9,0.8l-3.4-8.7l1.9-0.8L71.4,101.1z M74.1,89.2c1.2-0.7,2.4-0.8,3.7-0.6l-0.2,1.9
	c-0.5-0.1-1-0.1-1.4-0.1c-0.4,0.1-0.7,0.2-1.1,0.4c-0.7,0.4-1.1,0.9-1.3,1.7c-0.2,0.7-0.1,1.5,0.3,2.2c0.4,0.8,1,1.3,1.7,1.5
	s1.4,0.1,2-0.2c0.6-0.4,1.1-0.8,1.4-1.2l-1.3-2.2l1.8-1l1.6,2.9c-0.3,1.3-1.2,2.4-2.6,3.2c-1.2,0.7-2.4,0.8-3.7,0.5
	c-1.3-0.3-2.2-1.1-2.9-2.3c-0.7-1.2-0.8-2.4-0.5-3.7C72.2,90.8,72.9,89.9,74.1,89.2z M74.8,46.6v2.3c0,0.6-0.2,1.1-0.5,1.4
	c-0.3,0.3-0.8,0.5-1.3,0.5s-0.9-0.2-1.3-0.5c-0.3-0.3-0.5-0.8-0.5-1.4v-2.3h0.9v2.3c0,0.3,0.1,0.6,0.2,0.8c0.2,0.2,0.4,0.3,0.6,0.3
	c0.3,0,0.5-0.1,0.6-0.3c0.2-0.2,0.2-0.5,0.2-0.8v-2.3H74.8z M79.6,46.6v4.1h-0.9l-2-2.6v2.6h-0.9v-4.1h0.9l2,2.6v-2.6H79.6z
	 M83.9,54.5H70.7v-2h13.2C83.9,52.5,83.9,54.5,83.9,54.5z M81.4,50.7v-3.3h-1.2v-0.8h3.2v0.8h-1.2v3.3H81.4z M80.9,84.9l7.4,1.5
	l-4-4.5l1.6-1.4l6.2,7l-1.6,1.4l-7.2-1.4l3.9,4.4l-1.6,1.4l-6.2-7L80.9,84.9z"/>
<g>
	<path d="M93.4,50.8c0,0.2,0,0.3,0,0.5c-0.1,0.2,0,0.4,0,0.6c0,1.5-0.3,3-0.8,4.5c-0.6,2-1.5,3.9-2.4,5.7c-0.9,1.6-1.8,3.2-2.7,4.8
		c-0.7,1.1-1.3,2.3-1.9,3.5c-0.7,1.4-1.1,2.8-1.3,4.3c-0.2,1.1-0.4,2.2-0.4,3.3c0,0.6-0.1,1.1-0.1,1.7c0.1,1.3-0.9,2.3-2,2.5
		c-1,0.2-1.9-0.1-2.7-0.8c-0.6-0.6-1.3-1.3-1.9-1.9c-1.3-1.3-2.7-2.6-4-4c-0.7-0.7-1.5-1.5-2.3-2.2c-0.7-0.7-1.5-1.5-2.2-2.2
		c-0.1-0.1-0.2-0.1-0.3,0c-0.3,0.4-0.7,0.7-1.1,1.1c-0.1,0.1-0.2,0.2,0,0.4c0.7,0.6,1.3,1.3,1.9,1.8c0.1,0.1,0.2,0.2,0.3,0.3
		c1.1,1.2,2.4,2.3,3.5,3.5c0.9,0.9,1.8,1.8,2.8,2.7c0.8,0.8,1.7,1.7,2.5,2.5c0.2,0.2,0.4,0.5,0.5,0.8c0.2,1,0.1,1.9-0.6,2.7
		c-0.5,0.5-1.1,0.7-1.8,0.7c-2.2,0.1-4.4,0.3-6.5,0.7c-1,0.2-2,0.6-2.9,1.1c-2.7,1.3-5.2,2.8-7.9,4.1c-1.8,0.9-3.7,1.8-5.6,2.4
		c-1.4,0.4-2.7,0.8-4.2,1c-0.3,0-0.7,0-1,0.1c-0.7,0-1.3,0-2,0c-0.4-0.1-0.9,0-1.3-0.1c-1.7-0.2-3.3-0.7-4.8-1.2
		c-1.3-0.5-2.5-1-3.7-1.7c-1.6-0.8-3.2-1.7-4.8-2.6c-1.6-0.9-3.2-1.7-4.8-2.4c-1.1-0.4-2.2-0.6-3.3-0.9c-1.1-0.2-2.2-0.3-3.3-0.4
		c-0.7-0.1-1.4-0.1-2-0.1c-1.8,0-3-1.7-2.4-3.4c0.1-0.4,0.3-0.7,0.7-1c0.6-0.5,1-1,1.6-1.5c0.7-0.6,1.3-1.3,1.9-1.9
		c1.3-1.3,2.7-2.6,4-3.9c0.8-0.7,1.5-1.5,2.3-2.2c0.3-0.3,0.7-0.6,1-0.9c0.2-0.2,0.2-0.2,0-0.4c-0.4-0.3-0.7-0.7-1.1-1
		c-0.2-0.1-0.3-0.1-0.4,0c-0.4,0.4-0.8,0.8-1.2,1.2c-0.7,0.7-1.3,1.3-2,2c-1.3,1.3-2.6,2.5-3.9,3.8c-0.8,0.8-1.6,1.6-2.4,2.3
		c-0.4,0.4-0.9,0.9-1.3,1.3c-0.9,0.8-2.3,0.9-3.4,0.1c-0.6-0.5-0.9-1.1-0.9-1.9c-0.1-2.6-0.4-5.2-1.1-7.7c-0.3-1-0.8-1.9-1.3-2.8
		c-1.2-2.3-2.6-4.5-3.8-6.8c-1-1.8-1.8-3.6-2.4-5.5c-0.4-1.2-0.7-2.4-0.9-3.7c-0.1-0.7-0.1-1.4-0.2-2.1c0-0.1,0-0.3,0-0.4
		c0.1-0.3,0-0.6,0.1-0.9c0.1-1.2,0.4-2.3,0.7-3.5c0.7-2.6,1.9-5,3.2-7.3c1-1.9,2.1-3.7,3.1-5.6c0.5-1,1.1-1.9,1.5-3
		c0.2-0.5,0.3-1,0.5-1.6c0.3-1.4,0.5-2.7,0.6-4.1c0.1-0.8,0.1-1.7,0.2-2.5c0.1-0.9,0.8-1.8,1.8-2.1c0.7-0.2,1.3-0.1,2,0.2
		c0.1,0,0.2,0.1,0.3,0.2c0.3,0.3,0.6,0.6,1,0.9c0.7,0.7,1.3,1.3,2,2c1.2,1.1,2.3,2.3,3.5,3.4c1.1,1.1,2.2,2.1,3.3,3.2
		c0.3,0.3,0.7,0.7,1.1,1c0.2,0.2,0.3,0.2,0.5,0c0.3-0.3,0.6-0.6,0.9-0.9c0.1-0.1,0.1-0.2,0-0.3c-0.2-0.2-0.3-0.4-0.5-0.5
		c-1-0.9-1.9-1.8-2.8-2.7c-0.9-0.9-1.9-1.8-2.8-2.7c-1.4-1.3-2.7-2.6-4.1-4c-0.2-0.2-0.3-0.3-0.5-0.5c-0.5-0.4-0.6-1-0.7-1.6
		c-0.1-1.8,1.2-2.7,2.5-2.7c2.3-0.1,4.7-0.3,7-0.8c1-0.2,1.9-0.7,2.8-1.1c2.6-1.3,5.2-2.8,7.8-4.1c2.3-1.1,4.6-2.1,7-2.8
		c1.3-0.4,2.7-0.6,4.1-0.6c0.4,0,0.7,0,1.1,0c0.1,0,0.3,0,0.4,0c0.1,0,0.3,0,0.5,0c1.3,0,2.6,0.3,3.8,0.7c2.4,0.7,4.7,1.8,6.9,2.9
		c1.5,0.8,3,1.7,4.5,2.5c1.3,0.7,2.5,1.3,3.9,1.9c1.1,0.5,2.3,0.7,3.5,0.9c1.1,0.2,2.3,0.4,3.4,0.4c0.7,0.1,1.3,0.1,2,0.1
		c1.9,0,3,2,2.1,3.8c-0.1,0.3-0.3,0.5-0.5,0.7c-0.8,0.7-1.5,1.5-2.3,2.2c-1.3,1.3-2.7,2.6-4,3.9c-0.8,0.7-1.5,1.5-2.3,2.2
		c-0.6,0.6-1.1,1.2-1.7,1.7c-0.3,0.3-0.3,0.3,0,0.6c0.2,0.2,0.5,0.4,0.7,0.7c0.2,0.2,0.3,0.2,0.4,0c0.4-0.4,0.8-0.8,1.2-1.2
		c1-1,2-1.9,3-2.9c1.3-1.3,2.6-2.5,3.9-3.8c0.4-0.4,0.8-0.8,1.2-1.2c0.5-0.5,1.1-1,1.6-1.5c0.1-0.1,0.2-0.2,0.3-0.2
		c0.6-0.2,1.1-0.3,1.7-0.2c1.1,0.2,2,1.2,2,2.4c0.1,1.9,0.2,3.8,0.6,5.6c0.3,1.5,0.9,2.9,1.6,4.2c1.3,2.4,2.7,4.8,4,7.2
		c1,2,2,4,2.7,6.2c0.4,1.1,0.7,2.3,0.8,3.5c0,0.3,0.1,0.6,0,1C93.4,50.6,93.3,50.7,93.4,50.8z"/>
	<path class="st1" d="M47.1,23.3c0.6,0,1.2,0,1.8,0.1c2.5,0.2,4.9,0.6,7.2,1.4c1.8,0.6,3.5,1.3,5.1,2.2c1.5,0.8,2.9,1.8,4.3,2.9
		c0.9,0.8,1.8,1.6,2.6,2.5c0.6,0.6,1.2,1.3,1.7,2c0.7,0.9,1.3,1.8,1.9,2.8c0.3,0.5,0.6,1.1,0.9,1.7c0.3,0.7,0.7,1.3,0.9,2
		c0.4,0.9,0.7,1.8,1,2.7c0.2,0.8,0.4,1.7,0.6,2.5c0.1,0.6,0.2,1.3,0.3,1.9c0.1,0.5,0.1,1,0.1,1.6c0.1,1,0.1,2,0,3
		c0,0.5-0.1,1.1-0.1,1.6c-0.1,0.5-0.1,1-0.2,1.5c-0.1,0.7-0.3,1.4-0.4,2.2c-0.1,0.5-0.2,0.9-0.4,1.4c-0.3,0.8-0.6,1.7-0.9,2.5
		s-0.7,1.6-1.1,2.4c-0.5,0.9-1,1.8-1.6,2.6c-0.7,1-1.5,2-2.3,2.9c-0.5,0.6-1.1,1.2-1.7,1.8C66,72.3,65,73.1,64,73.8
		c-1.3,0.9-2.7,1.7-4.1,2.4C58.5,77,57,77.5,55.6,78c-1.3,0.4-2.6,0.7-3.9,0.9c-0.7,0.1-1.4,0.2-2.1,0.3c-1.2,0.1-2.4,0.1-3.5,0.1
		c-0.7,0-1.4-0.1-2.1-0.2c-1.3-0.1-2.5-0.3-3.7-0.6c-1.6-0.4-3.2-0.9-4.8-1.6s-3.1-1.5-4.5-2.5c-1-0.7-2-1.4-2.9-2.2
		c-0.6-0.5-1.2-1.1-1.7-1.6s-1-1-1.4-1.6c-0.5-0.6-1-1.2-1.4-1.8c-0.4-0.5-0.7-1.1-1.1-1.7c-0.4-0.7-0.8-1.3-1.1-2
		c-0.2-0.4-0.3-0.7-0.5-1.1c-0.3-0.6-0.5-1.2-0.7-1.9c-0.1-0.4-0.2-0.7-0.4-1.1c-0.2-0.6-0.4-1.3-0.5-1.9c-0.2-0.7-0.3-1.4-0.4-2.2
		c-0.1-0.4-0.1-0.8-0.1-1.2c-0.1-0.7-0.1-1.5-0.1-2.3c0-0.4,0-0.9,0-1.3c0-0.2,0-0.4,0-0.7c0.1-0.9,0.1-1.8,0.3-2.7
		c0.1-0.5,0.2-1.1,0.3-1.6c0.2-1.2,0.6-2.3,0.9-3.4c0.3-0.7,0.6-1.5,0.9-2.2s0.7-1.5,1.1-2.2c0.4-0.8,0.9-1.5,1.4-2.2
		c0.5-0.8,1.1-1.5,1.7-2.2c0.6-0.8,1.3-1.5,2-2.1c0.5-0.4,0.9-0.9,1.4-1.3s1-0.8,1.6-1.2c1-0.7,2-1.4,3.1-2c1.2-0.7,2.5-1.2,3.8-1.7
		c1.6-0.6,3.2-1,4.8-1.3c0.8-0.1,1.6-0.3,2.4-0.3c0.6-0.1,1.2-0.1,1.8-0.1C46.3,23.3,46.7,23.3,47.1,23.3z"/>
	<g>
		<path class="st1" d="M75.2,84.7C75.2,84.6,75.2,84.6,75.2,84.7c-1-0.9-1.8-1.8-2.7-2.6c-1-1-2-1.9-3-2.9c-0.7-0.7-1.4-1.3-2-2
			c-0.9-0.9-1.7-1.7-2.6-2.6l-0.1-0.1c-0.1-0.1-0.1-0.2,0-0.3c0.5-0.4,0.9-0.7,1.4-1.1c0.1-0.1,0.1-0.1,0.2,0
			c0.3,0.3,0.5,0.5,0.8,0.8c0.9,0.9,1.8,1.7,2.6,2.6c0.8,0.8,1.5,1.5,2.3,2.3s1.6,1.6,2.4,2.4c0.4,0.4,0.9,0.9,1.3,1.3
			c0.3,0.3,0.5,0.5,0.8,0.8c0.3,0.2,0.5,0.5,0.7,0.8s0.3,0.5,0.4,0.8c0.1,0.5-0.1,0.9-0.4,1.3c-0.3,0.3-0.7,0.5-1.1,0.5
			c-0.6,0.1-1.1,0.1-1.7,0.1c-0.3,0-0.5,0-0.8,0c-0.4,0-0.8,0-1.1,0.1c-0.8,0.1-1.5,0.2-2.2,0.4c-1.3,0.3-2.6,0.8-3.9,1.4
			c-1.2,0.5-2.4,1.2-3.6,1.8c-1.1,0.6-2.2,1.2-3.3,1.8c-0.9,0.5-1.7,0.9-2.6,1.3c-1.8,0.9-3.7,1.6-5.7,2c-0.7,0.2-1.5,0.3-2.2,0.4
			c-1.1,0-2.2,0.1-3.4,0c-0.7,0-1.4-0.1-2.1-0.2c-1.9-0.3-3.6-1-5.4-1.7c-1.3-0.6-2.5-1.2-3.8-1.9c-0.9-0.5-1.7-1-2.6-1.4
			c-0.8-0.4-1.5-0.8-2.3-1.2c-1.5-0.8-3.1-1.4-4.7-1.9c-1-0.3-2-0.5-2.9-0.6c-0.5-0.1-1-0.1-1.6-0.1c-0.5,0-1,0-1.5,0
			c-0.4,0-0.9,0-1.3-0.2c-0.3-0.1-0.6-0.2-0.8-0.5c-0.3-0.4-0.5-0.8-0.3-1.3c0.1-0.4,0.3-0.8,0.6-1.2c0.3-0.3,0.6-0.6,0.9-0.9
			c0.8-0.8,1.6-1.5,2.4-2.3c1-0.9,1.9-1.9,2.9-2.8c0.6-0.6,1.2-1.2,1.9-1.8c0.9-0.9,1.8-1.8,2.7-2.6l0.1-0.1c0.1,0,0.1,0,0.2,0
			c0.1,0.1,0.2,0.1,0.2,0.2c0.4,0.3,0.8,0.6,1.2,1c0,0,0.1,0,0.1,0.1s-0.1,0.1-0.2,0.2c0,0.1-0.1,0.1-0.2,0.2
			c-0.6,0.6-1.2,1.1-1.7,1.7c-0.7,0.7-1.4,1.3-2,2c-0.7,0.7-1.4,1.3-2.1,2s-1.4,1.3-2,2c-0.6,0.5-1.1,1.1-1.7,1.6
			c-0.2,0.2-0.4,0.4-0.6,0.6c-0.1,0.1-0.2,0.2-0.4,0.2c-0.1,0-0.1,0-0.1,0.1s0.1,0,0.1,0c0.3-0.1,0.6-0.2,0.8-0.2
			c0.8,0,1.5,0,2.3,0.1c1.7,0.2,3.4,0.6,5,1.2c1.2,0.4,2.3,0.9,3.5,1.5s2.3,1.2,3.4,1.8c1.3,0.7,2.7,1.5,4.1,2.2
			c1.3,0.7,2.6,1.2,4,1.7c1,0.3,2,0.6,3.1,0.7c0.9,0.1,1.7,0.2,2.6,0.1c2-0.1,4-0.5,6-1.2c1.1-0.4,2.2-0.9,3.3-1.4
			c1.3-0.6,2.6-1.3,3.9-2c1.4-0.8,2.8-1.5,4.3-2.2c1.4-0.7,2.9-1.3,4.4-1.7c0.8-0.2,1.5-0.4,2.3-0.5C72.7,84.7,73.9,84.6,75.2,84.7
			C75.1,84.7,75.1,84.7,75.2,84.7z"/>
		<path class="st1" d="M13.2,78.9c0.1-0.1,0.2-0.2,0.3-0.3c1.1-1,2.1-2.1,3.2-3.1c0.6-0.6,1.1-1.1,1.7-1.7c1-1,2.1-2,3.1-3
			c0.6-0.6,1.2-1.2,1.9-1.8c0.1-0.1,0.2-0.2,0.3-0.3h0.1c0,0,0,0,0.1,0.1c0.4,0.5,0.8,0.9,1.2,1.4c0.1,0.1,0.1,0.1,0,0.2
			c-0.3,0.3-0.6,0.6-0.9,0.8c-0.6,0.5-1.1,1.1-1.7,1.6c-0.6,0.6-1.2,1.1-1.7,1.7c-0.7,0.7-1.4,1.3-2.1,2c-0.6,0.5-1.1,1.1-1.7,1.6
			c-0.5,0.5-0.9,0.9-1.4,1.4c-0.3,0.3-0.7,0.7-1,1S14,81,13.7,81.2c-0.3,0.1-0.6,0.2-0.9,0.2c-0.5,0-1-0.3-1.3-0.7
			c-0.2-0.3-0.3-0.6-0.3-0.9c0-0.2-0.1-0.5-0.1-0.7c0-0.3,0-0.5,0-0.8c0-0.7,0-1.4-0.1-2.1c-0.1-0.5-0.1-1-0.2-1.4
			c-0.2-0.7-0.4-1.5-0.6-2.2c-0.4-1.1-0.8-2.1-1.3-3.1c-0.4-0.7-0.7-1.4-1.1-2.1c-0.3-0.6-0.7-1.2-1.1-1.9c-0.3-0.5-0.5-0.9-0.8-1.4
			c-0.4-0.7-0.7-1.3-1.1-2C4.5,61.6,4.2,61,4,60.5c-0.3-0.5-0.5-1.1-0.7-1.6c-0.1-0.3-0.3-0.7-0.4-1c-0.2-0.5-0.3-1-0.5-1.5
			c-0.2-0.7-0.3-1.3-0.5-2c-0.1-0.4-0.1-0.8-0.2-1.3c-0.1-1-0.2-1.9-0.1-2.9c0-0.4,0.1-0.9,0.1-1.3c0.1-0.4,0.1-0.8,0.2-1.2
			C2,46.8,2.3,46,2.6,45.2c0.2-0.4,0.3-0.9,0.5-1.3c0.2-0.5,0.5-1.1,0.7-1.6c0.3-0.5,0.5-1,0.8-1.6c0.3-0.5,0.5-0.9,0.8-1.4
			s0.5-0.9,0.8-1.4C6.5,37.5,6.7,37,7,36.6c0.2-0.4,0.5-0.9,0.7-1.3c0.3-0.5,0.5-1,0.8-1.5c0.3-0.5,0.5-1.1,0.8-1.6
			c0.3-0.7,0.6-1.3,0.8-2c0.2-0.6,0.4-1.2,0.5-1.9c0.2-0.9,0.3-1.8,0.4-2.7c0.1-0.5,0-1,0-1.5c0-0.4,0-0.8,0.1-1.2
			c0.1-0.3,0.2-0.6,0.3-0.9c0.3-0.5,1-0.8,1.5-0.7c0.5,0.1,0.8,0.3,1.2,0.6c0.2,0.2,0.5,0.4,0.7,0.6c1.3,1.2,2.5,2.5,3.8,3.7
			c0.6,0.6,1.2,1.2,1.9,1.9c1.1,1.1,2.2,2.1,3.3,3.2c0.3,0.3,0.6,0.6,0.9,0.9l0,0c0.1,0.1,0.1,0.1,0,0.3c-0.1,0.1-0.2,0.2-0.3,0.3
			c-0.3,0.3-0.6,0.7-0.8,1l-0.1,0.1c-0.1,0-0.1-0.1-0.2-0.1c-0.4-0.4-0.9-0.9-1.3-1.3c-0.8-0.8-1.6-1.6-2.4-2.3
			c-0.5-0.5-0.9-0.9-1.4-1.4c-0.8-0.8-1.6-1.6-2.4-2.4c-0.9-0.8-1.7-1.7-2.5-2.5c-0.1-0.1-0.2-0.3-0.3-0.4c0,0,0-0.1-0.1-0.1v0.1
			c0.1,0.3,0.2,0.6,0.2,0.9c0,1.1-0.1,2.3-0.3,3.4c-0.2,0.9-0.4,1.7-0.6,2.5c-0.3,1.1-0.8,2.1-1.2,3.2c-0.4,0.8-0.8,1.6-1.2,2.4
			c-0.5,1-1.1,2-1.7,2.9C7.7,39.4,7.4,40,7,40.6c-0.4,0.7-0.8,1.4-1.1,2.1c-0.3,0.5-0.5,1.1-0.8,1.7c-0.3,0.6-0.5,1.3-0.7,1.9
			c0,0.1-0.1,0.2-0.1,0.2c-0.2,0.7-0.4,1.5-0.5,2.2c-0.2,1-0.2,2-0.2,3.1c0.1,1,0.2,1.9,0.4,2.8c0.2,0.9,0.5,1.8,0.8,2.7
			S5.5,59.1,6,60c0.1,0.3,0.2,0.5,0.4,0.8c0.4,0.7,0.8,1.5,1.2,2.2c0.4,0.7,0.7,1.3,1.1,2c0.4,0.8,0.9,1.6,1.3,2.4
			c0.3,0.5,0.6,1.1,0.9,1.7c0.3,0.6,0.5,1.1,0.8,1.7c0.1,0.3,0.2,0.5,0.3,0.8c0.2,0.4,0.3,0.9,0.4,1.3c0.2,0.7,0.4,1.4,0.5,2.1
			c0.1,0.6,0.2,1.1,0.2,1.7C13.2,77.4,13.2,78.1,13.2,78.9C13.2,78.8,13.2,78.9,13.2,78.9z"/>
		<path class="st1" d="M70.4,68.8c3.5,3.4,6.9,6.7,10.4,10.1c0-0.1,0-0.2,0-0.3c0-0.5,0-1,0-1.5c0,0,0,0,0-0.1
			c0-0.8,0.1-1.6,0.3-2.4c0.1-0.7,0.3-1.4,0.5-2c0.2-0.8,0.5-1.5,0.8-2.2c0.2-0.6,0.5-1.1,0.7-1.6c0.3-0.5,0.5-1,0.8-1.6
			c0.3-0.5,0.5-1,0.8-1.4c0.2-0.4,0.5-0.8,0.7-1.2c0.3-0.5,0.5-1,0.8-1.4c0.3-0.5,0.5-0.9,0.8-1.4c0.1-0.2,0.3-0.5,0.4-0.7
			c0.4-0.8,0.8-1.5,1.1-2.3c0.4-0.9,0.7-1.7,1-2.6c0.3-0.9,0.5-1.9,0.6-2.8c0.1-0.8,0.2-1.6,0.2-2.4c0-0.6,0-1.1-0.1-1.7
			c-0.1-0.5-0.1-0.9-0.2-1.3c-0.2-0.8-0.4-1.5-0.7-2.3c-0.1-0.4-0.3-0.7-0.4-1.1c-0.2-0.5-0.5-1.1-0.8-1.6s-0.5-1-0.8-1.6
			c-0.2-0.4-0.5-0.9-0.8-1.3c-0.3-0.5-0.5-0.9-0.8-1.4c-0.4-0.6-0.7-1.3-1.1-1.9c-0.2-0.4-0.5-0.8-0.7-1.3c-0.3-0.6-0.6-1.1-0.8-1.7
			c-0.2-0.4-0.3-0.7-0.5-1.1c-0.3-0.7-0.5-1.4-0.8-2.1c-0.2-0.7-0.4-1.4-0.6-2.1c-0.1-0.5-0.2-1-0.3-1.5c-0.1-0.5-0.1-1-0.2-1.5
			c0-0.4,0-0.7,0-1.1c0-0.3,0-0.6,0.2-0.9v-0.1l0,0c-0.1,0-0.1,0.1-0.1,0.2c-0.1,0.1-0.2,0.3-0.3,0.4c-0.9,0.9-1.8,1.8-2.7,2.7
			c-1.1,1.1-2.3,2.2-3.4,3.4c-1.2,1.1-2.3,2.3-3.5,3.4c-0.2,0.2-0.3,0.3-0.5,0.5c-0.4-0.5-0.9-1.1-1.3-1.6c0-0.1,0.1-0.1,0.1-0.1
			c0.5-0.5,1.1-1,1.6-1.6c0.9-0.9,1.8-1.7,2.6-2.6c0.9-0.9,1.8-1.8,2.7-2.7c0.8-0.8,1.6-1.6,2.4-2.3c0.3-0.3,0.6-0.6,0.9-0.8
			c0.3-0.3,0.6-0.5,1-0.6c0.3-0.1,0.7-0.2,1.1-0.2c0.5,0.1,0.8,0.3,1.1,0.8c0.2,0.4,0.3,0.8,0.4,1.3c0,0.2,0,0.4,0,0.5
			c0,0.6,0,1.2,0,1.8c0,0.5,0.1,0.9,0.2,1.4c0.1,0.7,0.3,1.4,0.5,2.1c0.2,0.8,0.5,1.6,0.8,2.3c0.3,0.6,0.6,1.3,0.9,1.9
			c0.3,0.5,0.5,1,0.8,1.5c0.2,0.5,0.5,0.9,0.8,1.4c0.3,0.4,0.5,0.9,0.8,1.3c0.3,0.4,0.5,0.9,0.8,1.3c0.3,0.5,0.5,0.9,0.8,1.4
			s0.5,1,0.8,1.5c0.1,0.3,0.3,0.5,0.4,0.8c0.4,0.9,0.8,1.7,1.1,2.7c0.2,0.7,0.5,1.4,0.6,2.2c0.2,0.7,0.2,1.4,0.3,2.1
			c0.1,0.6,0.1,1.3,0.1,1.9c0,0.3,0,0.7-0.1,1c0,0.3,0,0.5-0.1,0.8c-0.1,1-0.3,2-0.6,2.9c-0.1,0.5-0.3,1-0.4,1.5
			c-0.2,0.7-0.5,1.4-0.8,2.1c-0.3,0.8-0.7,1.5-1.1,2.3c-0.3,0.7-0.7,1.3-1.1,1.9c-0.3,0.5-0.5,1-0.8,1.5c-0.2,0.4-0.5,0.8-0.7,1.2
			c-0.3,0.5-0.5,1-0.8,1.4c-0.3,0.5-0.6,1-0.8,1.6c-0.3,0.5-0.5,1-0.7,1.6c-0.3,0.7-0.6,1.4-0.8,2.1c0,0.1-0.1,0.2-0.1,0.3
			c-0.2,0.8-0.4,1.6-0.5,2.4c-0.1,0.7-0.2,1.4-0.2,2.2c0,0.1,0,0.2,0,0.4c0,0.5,0,1-0.1,1.5c-0.1,0.4-0.2,0.8-0.5,1.1
			c-0.3,0.2-0.5,0.4-0.9,0.4c-0.5,0-0.9-0.1-1.3-0.4c-0.3-0.2-0.6-0.4-0.8-0.7c-0.6-0.6-1.3-1.2-1.9-1.8c-0.5-0.5-1.1-1-1.6-1.6
			c-0.6-0.6-1.2-1.1-1.7-1.7c-0.5-0.4-0.9-0.9-1.4-1.3c-0.7-0.7-1.4-1.3-2-2c-0.5-0.4-0.9-0.9-1.4-1.3L69.4,71v-0.1
			c0-0.1,0.1-0.1,0.1-0.2c0.2-0.3,0.5-0.6,0.7-0.8C70,69.2,70.2,69,70.4,68.8z"/>
		<path class="st1" d="M18.8,18.5c3.4,3.4,6.8,6.7,10.2,10.1c-0.2,0.2-0.4,0.3-0.5,0.5c-0.2,0.1-0.3,0.3-0.5,0.4s-0.4,0.3-0.5,0.4
			c-0.2-0.2-0.4-0.4-0.6-0.5c-0.9-0.9-1.7-1.7-2.6-2.6c-1.1-1-2.1-2.1-3.2-3.1c-0.6-0.6-1.2-1.2-1.8-1.8c-0.5-0.5-1.1-1.1-1.6-1.6
			c-0.2-0.2-0.5-0.4-0.7-0.7c-0.3-0.3-0.5-0.6-0.6-1c-0.3-0.7,0-1.4,0.6-1.8c0.3-0.2,0.7-0.3,1.1-0.4c0.5-0.1,1.1-0.1,1.6,0
			c0.2,0,0.4,0,0.6,0c1.6,0,3.1-0.3,4.7-0.8c1.2-0.4,2.3-0.8,3.4-1.4c1.3-0.6,2.5-1.3,3.7-1.9c1.2-0.7,2.5-1.4,3.8-2
			c1.7-0.9,3.4-1.6,5.2-2.2c1.1-0.3,2.2-0.6,3.3-0.8c0.6-0.1,1.1-0.2,1.7-0.2c0.8-0.1,1.6-0.1,2.4,0c0.7,0,1.4,0.1,2.1,0.2
			c1.7,0.3,3.4,0.9,5,1.6c1.3,0.6,2.5,1.2,3.7,1.9c1.1,0.6,2.2,1.2,3.3,1.8c0.8,0.5,1.7,0.9,2.5,1.3c1.4,0.7,2.7,1.2,4.2,1.6
			c0.9,0.3,1.9,0.5,2.8,0.6c0.7,0.1,1.4,0.2,2.1,0.2c0.3,0,0.6,0,0.8,0c0.5,0,1,0,1.5,0.2c0.3,0.1,0.7,0.2,0.9,0.5
			c0.4,0.4,0.5,0.9,0.3,1.4c-0.1,0.4-0.4,0.8-0.6,1.1c-0.3,0.3-0.6,0.6-0.9,0.9c-0.7,0.7-1.4,1.3-2.1,2c-0.6,0.5-1.1,1.1-1.7,1.6
			c-0.5,0.5-1,0.9-1.5,1.4c-0.6,0.5-1.1,1.1-1.7,1.6c-0.7,0.7-1.4,1.3-2,2c-0.2,0.2-0.4,0.4-0.6,0.5c-0.1,0.1-0.1,0.1-0.2,0
			c-0.2-0.2-0.4-0.4-0.7-0.6c-0.2-0.2-0.4-0.3-0.6-0.5c-0.1,0-0.1-0.1-0.2-0.2c0-0.1,0.1-0.1,0.2-0.2c0.9-0.9,1.9-1.8,2.8-2.7
			c0.9-0.9,1.9-1.8,2.8-2.7c0.6-0.6,1.3-1.2,1.9-1.8c0.7-0.7,1.4-1.4,2.2-2.1c0.1-0.1,0.2-0.2,0.3-0.3c0.1-0.1,0.3-0.2,0.5-0.3
			c0-0.1-0.1,0-0.1,0c-0.3,0.1-0.6,0.2-0.9,0.1c-0.8,0-1.6-0.1-2.4-0.2c-2.3-0.3-4.5-0.9-6.7-1.9c-1.3-0.6-2.6-1.2-3.9-1.9
			c-1.2-0.7-2.5-1.4-3.7-2c-0.8-0.5-1.7-0.9-2.5-1.3C54,10.6,52.5,10,51,9.6c-0.8-0.2-1.6-0.3-2.5-0.4c-0.5,0-1.1-0.1-1.6,0
			c-0.6,0-1.2,0.1-1.8,0.2c-1,0.1-1.9,0.3-2.8,0.6c-1,0.3-2.1,0.7-3.1,1.1c-1.4,0.6-2.8,1.3-4.1,2c-1.4,0.8-2.9,1.6-4.3,2.3
			c-1.3,0.7-2.7,1.3-4.1,1.8c-1.2,0.5-2.5,0.8-3.7,1c-0.8,0.1-1.5,0.2-2.3,0.3c-0.3,0-0.6,0-0.9,0c-0.2,0-0.4,0-0.6,0
			C19.1,18.5,19,18.5,18.8,18.5z"/>
	</g>
	<path d="M21.9,51.3c0-0.8,0-1.6,0.1-2.4c0.1-1,0.2-1.9,0.5-2.8C22.7,45,23,44,23.4,43c0.3-0.7,0.6-1.5,0.9-2.2
		c0.4-0.8,0.9-1.6,1.4-2.4c0.3-0.5,0.7-1.1,1.1-1.6c0.4-0.6,0.8-1.1,1.3-1.6c0.4-0.4,0.7-0.8,1.1-1.1c0.7-0.7,1.5-1.4,2.4-2.1
		c1-0.7,2-1.4,3-2c0.9-0.5,1.8-0.9,2.7-1.3c1.2-0.5,2.4-0.9,3.6-1.2c0.9-0.2,1.7-0.4,2.6-0.5c0.8-0.1,1.7-0.2,2.6-0.2
		c0.5,0,1,0,1.5,0c0.8,0,1.6,0.1,2.3,0.1c1.4,0.1,2.8,0.4,4.2,0.8c1.1,0.3,2.2,0.7,3.2,1.1c1.2,0.5,2.3,1.1,3.4,1.8
		c1.1,0.7,2.1,1.4,3,2.2c0.8,0.7,1.6,1.5,2.3,2.3c0.6,0.7,1.2,1.4,1.7,2.1c0.7,1,1.3,2,1.9,3.1c0.5,0.9,0.9,1.9,1.3,2.9
		c0.4,1.1,0.7,2.3,1,3.5c0.1,0.7,0.2,1.4,0.3,2.1c0.1,0.7,0.1,1.4,0.1,2.1c0,0.6,0,1.3,0,1.9c0,0.4-0.1,0.9-0.1,1.3
		c-0.1,0.5-0.1,0.9-0.2,1.4c-0.1,0.6-0.2,1.2-0.4,1.8c-0.1,0.2-0.1,0.4-0.1,0.6c-0.3,0.9-0.6,1.8-0.9,2.6c-0.4,1-0.9,2-1.5,3
		c-0.3,0.6-0.7,1.1-1.1,1.7s-0.9,1.3-1.4,1.8c-0.5,0.6-1.1,1.2-1.7,1.8c-0.7,0.6-1.4,1.2-2.1,1.8c-0.9,0.7-1.9,1.3-2.8,1.9
		c-1.4,0.8-2.8,1.5-4.3,2c-1.2,0.4-2.5,0.8-3.8,1c-0.6,0.1-1.2,0.2-1.8,0.3c-1.4,0.2-2.8,0.2-4.2,0.1c-0.7,0-1.4-0.1-2.1-0.2
		c-0.9-0.1-1.9-0.3-2.8-0.5c-1.5-0.4-3-0.9-4.4-1.5s-2.7-1.4-4-2.3c-0.7-0.5-1.4-1-2.1-1.6c-0.8-0.7-1.6-1.5-2.3-2.3
		c-0.5-0.5-1-1.1-1.4-1.7C26,64.9,25.5,64,24.9,63c-0.3-0.5-0.5-1-0.8-1.5c-0.4-0.9-0.8-1.8-1.1-2.7c-0.2-0.6-0.3-1.1-0.5-1.7
		c-0.2-0.7-0.3-1.4-0.4-2.1C22,54.7,22,54.4,22,54.2c-0.1-0.6-0.1-1.2-0.1-1.9C21.9,52,21.9,51.7,21.9,51.3z"/>
	<g>
		<path class="st2" d="M36,20.7c0,0.3,0,0.6-0.2,0.9c-0.2,0.4-0.5,0.8-0.9,1.1c-0.7,0.4-1.4,0.7-2.2,0.8c-0.5,0.1-1-0.1-1.4-0.3
			c-0.5-0.2-0.9-0.6-1.2-1.1c-0.3-0.5-0.5-1-0.7-1.6c-0.1-0.4-0.1-0.9,0-1.3c0.2-0.6,0.5-1.1,1-1.5c0.6-0.4,1.2-0.7,1.9-0.8
			c0.7-0.1,1.4,0,2,0.5c0.1,0.1,0.3,0.2,0.4,0.4v0.1c-0.1,0.1-0.2,0.2-0.4,0.3c-0.3,0.2-0.6,0.4-0.9,0.7h-0.1l-0.1-0.1
			c-0.2-0.2-0.5-0.3-0.8-0.3c-0.7,0-1.3,0.6-1.2,1.4c0.1,0.4,0.2,0.8,0.4,1.1c0.1,0.2,0.3,0.4,0.4,0.6c0.2,0.2,0.4,0.3,0.7,0.3
			s0.7-0.1,0.9-0.3c0.2-0.2,0.3-0.4,0.4-0.7c0-0.2,0-0.4,0-0.6c0-0.1,0-0.1,0.1-0.1c0.3,0,0.6-0.1,0.9-0.1c0.2,0,0.4-0.1,0.6-0.1
			c0.1,0,0.1,0,0.1,0.1C36,20.3,36,20.5,36,20.7z"/>
		<path class="st2" d="M54,19.2l0.1-0.1c0.4-0.7,0.7-1.4,1.1-2.1c0.3-0.6,0.6-1.2,0.9-1.8c0.1-0.1,0.1-0.1,0.2-0.1
			c0.5,0.1,1,0.2,1.6,0.3c0.1,0,0.1,0,0.2,0.1c-0.1,0.2-0.2,0.4-0.3,0.6c-0.3,0.5-0.6,1-0.9,1.4c-0.4,0.6-0.7,1.2-1.1,1.8
			c-0.3,0.6-0.7,1.2-1,1.7c-0.1,0.1-0.1,0.1-0.2,0.1c-0.6-0.1-1.2-0.2-1.7-0.3c-0.2,0-0.2,0-0.2-0.2c-0.1-0.6-0.2-1.3-0.4-1.9
			c-0.1-0.7-0.3-1.4-0.4-2.1c-0.1-0.3-0.1-0.6-0.2-0.9c-0.1-0.4-0.2-0.8-0.2-1.2v-0.1c0-0.1,0-0.1,0.1-0.1h0.1
			c0.5,0.1,1.1,0.2,1.6,0.3c0.1,0,0.2,0.1,0.2,0.2c0,0.2,0.1,0.4,0.1,0.6c0.1,0.5,0.1,1,0.2,1.5C53.8,17.6,53.9,18.4,54,19.2
			C54,19.1,54,19.2,54,19.2z"/>
		<path class="st2" d="M83.1,40.8c-0.2,0-0.4,0-0.6,0.1c-0.8,0.1-1.6,0.1-2.4,0.2c-0.9,0.1-1.7,0.1-2.6,0.2h-0.1
			c-0.1,0-0.2,0-0.2-0.1S77.1,41,77,40.9c-0.2-0.4-0.4-0.8-0.6-1.2c-0.1-0.1-0.1-0.1,0-0.2c0.5-0.6,1-1.2,1.6-1.7
			c0.5-0.5,0.9-1.1,1.4-1.6c0.3-0.3,0.5-0.6,0.8-0.8c0,0,0,0,0.1,0c0.3,0.5,0.5,1,0.8,1.4c0.1,0.1,0.1,0.1,0,0.2
			c-0.3,0.3-0.7,0.7-1,1c-0.5,0.5-1.1,1.1-1.6,1.6c0,0,0,0,0,0.1c0.1,0.1,0.1,0,0.2,0c0.7-0.1,1.5-0.2,2.2-0.3
			c0.5-0.1,1-0.1,1.5-0.2c0.1,0,0.1,0,0.2,0.1c0.2,0.3,0.3,0.6,0.5,0.8c0.1,0.2,0.2,0.3,0.3,0.5C83.1,40.7,83.1,40.8,83.1,40.8z"/>
		<path class="st2" d="M82.3,49.3c0.8,0,1.7,0,2.5,0h0.1c0.1,0,0.1,0,0.1,0.1v0.1c0,0.5,0,0.9,0,1.4c0,0.2,0,0.2-0.2,0.2h-0.1
			c-1.2,0-2.4,0-3.6,0.1H81c-0.1,0-0.1,0-0.1,0.1c0,0.3,0,0.6,0,0.9c0,0.5,0,1,0,1.4c0,0.1,0,0.2,0,0.2s0,0.1-0.1,0.1l0,0
			c-0.4,0-0.7,0-1.1,0c-0.1,0-0.1,0-0.1-0.1v-0.1c0-1.3-0.1-2.6-0.1-3.9c0-0.4-0.1-0.3,0.3-0.4C80.7,49.3,81.5,49.3,82.3,49.3
			L82.3,49.3z"/>
		<path class="st2" d="M16.2,33.3c0.2-0.3,0.4-0.5,0.6-0.7c0.1-0.1,0.1-0.1,0.2,0c0.5,0.4,1.1,0.7,1.6,1.1c0.4,0.3,0.8,0.5,1.2,0.8
			l0.1,0.1c0,0.1-0.1,0.1-0.1,0.2c-0.2,0.2-0.3,0.4-0.5,0.6c-0.1,0.1-0.2,0.1-0.3,0.1c-0.4,0-0.9,0-1.3,0c-0.3,0-0.7,0-1,0
			c0,0.1,0.1,0.1,0.1,0.1c0.4,0.3,0.9,0.6,1.3,0.9c0,0,0.1,0,0.1,0.1c-0.2,0.3-0.5,0.5-0.7,0.8c-1-0.7-2-1.3-3-2v-0.1
			c0.2-0.2,0.4-0.5,0.6-0.7c0-0.1,0.1-0.1,0.2-0.1c0.1,0,0.1,0,0.2,0c0.6,0,1.3,0,1.9,0c0.1,0,0.2,0,0.3,0c0-0.1,0-0.1-0.1-0.1
			c-0.4-0.2-0.7-0.5-1.1-0.7C16.4,33.5,16.3,33.4,16.2,33.3z"/>
		<path class="st2" d="M12.7,60.7c-0.1,0-0.2,0-0.3,0.1c-0.5,0.1-0.9,0.3-1.4,0.4h-0.1c-0.1,0-0.1,0-0.1-0.1
			c-0.1-0.3-0.2-0.6-0.3-0.9v-0.1h0.1c1.1-0.3,2.1-0.6,3.2-1c0.1,0,0.1,0,0.2,0h0.1c0.1,0.3,0.2,0.6,0.3,0.8c0,0.1,0,0.1,0,0.2
			c-0.2,0.2-0.3,0.4-0.5,0.6c-0.3,0.3-0.5,0.7-0.8,1c0,0,0,0.1-0.1,0.1c0,0.1,0.1,0,0.1,0c0.5-0.2,1-0.3,1.5-0.5
			c0.1,0,0.1,0,0.2-0.1c0.1,0,0.1,0,0.1,0.1c0.1,0.2,0.2,0.4,0.2,0.6c0,0.1,0,0.1,0.1,0.2c0,0.1,0,0.1-0.1,0.1
			c-0.4,0.1-0.8,0.2-1.2,0.4c-0.7,0.2-1.3,0.4-2,0.6c-0.1,0-0.1,0-0.2,0c-0.1,0-0.1,0-0.2-0.1c0-0.1,0-0.1-0.1-0.2
			c0-0.1-0.1-0.2-0.1-0.3s-0.1-0.2-0.1-0.4c0.1-0.1,0.2-0.3,0.3-0.4c0.3-0.4,0.7-0.9,1.1-1.3C12.6,60.8,12.7,60.7,12.7,60.7z"/>
		<path class="st2" d="M55.2,87.8c0-0.1,0-0.2,0-0.3c-0.1-0.4-0.3-0.9-0.4-1.3v-0.1c0-0.1,0-0.1,0.1-0.1c0.3-0.1,0.5-0.1,0.8-0.2
			c0.1,0,0.1,0,0.2,0.1c0.1,0.2,0.1,0.4,0.2,0.6c0.2,0.6,0.3,1.1,0.5,1.7c0.1,0.3,0.2,0.5,0.2,0.8c0,0,0,0.1,0,0.2
			c-0.2,0.1-0.3,0.1-0.5,0.1c-0.6,0.2-0.4,0.2-0.9-0.2c-0.4-0.3-0.8-0.6-1.2-1C54.1,88,54,88,53.9,87.9V88c0.1,0.5,0.3,0.9,0.4,1.4
			c0,0.1,0,0.1,0,0.2v0.1c-0.2,0-0.3,0.1-0.5,0.1s-0.3,0.1-0.5,0.1c-0.1-0.1-0.1-0.3-0.1-0.5c-0.3-0.9-0.5-1.8-0.8-2.7
			c0,0,0,0,0-0.1s0-0.1,0.1-0.1s0.2,0,0.2-0.1c0.2,0,0.4-0.1,0.5-0.2c0.1,0,0.2,0,0.2,0c0.3,0.3,0.6,0.5,1,0.8
			C54.7,87.4,54.9,87.5,55.2,87.8C55.1,87.7,55.2,87.7,55.2,87.8z"/>
		<path class="st2" d="M10.1,51.4c0.1,0.3,0.1,0.6,0.2,1c0,0.1,0,0.1-0.1,0.1c-0.1,0.1-0.2,0.2-0.3,0.3c-0.1,0.4,0,0.8,0.4,0.9
			c0.1,0,0.2,0.1,0.2,0.1c0.4,0.1,0.7,0.1,1.1,0c0.4-0.1,0.6-0.4,0.6-0.8c0-0.2-0.1-0.4-0.2-0.6c-0.1-0.1-0.1-0.2-0.3-0.1h-0.1
			c-0.1,0-0.1,0-0.1,0.1c0,0.2,0,0.4,0,0.5s0,0.1-0.1,0.1c-0.2,0-0.4,0-0.5,0s-0.1,0-0.1-0.1c0-0.5,0-1,0-1.5c0-0.1,0-0.1,0.1-0.1
			c0.5,0,0.9,0,1.4,0c0.1,0,0.1,0,0.2,0.1c0.5,0.7,0.7,1.4,0.5,2.2c-0.1,0.6-0.4,1-1,1.2c-0.6,0.3-1.2,0.3-1.8,0.1
			c-0.7-0.2-1.1-0.8-1.1-1.5c0-0.3,0-0.6,0-0.9C9.1,51.9,9.4,51.5,10.1,51.4C10,51.4,10,51.4,10.1,51.4z"/>
		<path class="st2" d="M43.9,82.9L43.9,82.9c0-0.2,0.1-0.5,0.1-0.7c0-0.3,0.1-0.7,0.1-1c0-0.1,0-0.1,0.1-0.1c0.3,0,0.6,0.1,0.8,0.1
			c0,0,0.1,0,0.1,0.1s0,0.1,0,0.2C45,81.9,45,82.4,45,82.8c-0.1,0.4-0.1,0.8-0.1,1.2c0,0.1,0,0.2,0,0.4c0,0.2,0,0.2-0.2,0.2
			s-0.4,0-0.6-0.1c-0.1,0-0.2-0.1-0.2-0.2c-0.1-0.2-0.2-0.4-0.4-0.7c-0.2-0.3-0.3-0.6-0.5-0.8c0-0.1-0.1-0.2-0.2-0.3
			c-0.1,0.1-0.1,0.1-0.1,0.2c-0.1,0.5-0.1,1-0.2,1.4c0,0.1,0,0.1-0.1,0.1c-0.3,0-0.5-0.1-0.8-0.1c-0.1,0-0.1,0-0.1-0.2
			c0-0.3,0.1-0.7,0.1-1c0.1-0.5,0.1-1,0.2-1.5c0-0.2,0-0.4,0.1-0.7c0-0.1,0-0.1,0.1-0.1c0.3,0,0.5,0.1,0.8,0.1c0.1,0,0.2,0,0.2,0.1
			c0.1,0.2,0.2,0.4,0.4,0.7C43.4,82.1,43.6,82.5,43.9,82.9C43.8,82.9,43.8,82.9,43.9,82.9z"/>
		<path class="st2" d="M10.1,59L10.1,59c-0.2,0-0.2,0-0.2-0.1c0-0.2-0.1-0.4-0.1-0.6c-0.1-0.7-0.3-1.4-0.4-2.1v-0.1
			c0,0,0-0.1,0.1-0.1c0.2,0,0.4-0.1,0.7-0.1c0.1,0,0.1,0,0.1,0.1c0.1,0.5,0.2,0.9,0.3,1.4c0.1,0.4,0,0.3,0.4,0.3
			c0.3,0,0.3,0,0.2-0.4S11,56.5,11,56.1c0-0.1,0-0.1,0-0.2c0,0,0-0.1,0.1-0.1c0.2,0,0.4-0.1,0.6-0.1c0.1,0,0.1,0,0.1,0.1
			c0,0.2,0.1,0.4,0.1,0.6c0.1,0.3,0.1,0.6,0.2,0.9c0,0.1,0.1,0.1,0.1,0.1c0.2,0,0.4-0.1,0.6-0.1c0,0,0.1,0,0.1-0.1
			c0-0.2-0.1-0.3-0.1-0.5c-0.1-0.4-0.2-0.8-0.2-1.2c0-0.1,0-0.1,0.1-0.1c0.2,0,0.4-0.1,0.6-0.1c0.1,0,0.1,0,0.1,0.1
			c0,0.2,0.1,0.4,0.1,0.5c0.1,0.7,0.3,1.5,0.4,2.2c0,0,0,0,0,0.1s0,0.2-0.1,0.2c-0.2,0-0.4,0.1-0.6,0.1c-0.9,0.1-1.7,0.3-2.6,0.4
			C10.3,59,10.2,59,10.1,59z"/>
		<path class="st2" d="M33.7,85.1c0.3,0.2,0.7,0.3,1,0.5c0.2,0.1,0.3,0.1,0.5,0.2c0.1,0,0.1,0.1,0.1,0.2c-0.1,0.2-0.2,0.4-0.3,0.5
			c-0.2-0.1-0.5-0.2-0.7-0.3c-0.2-0.1-0.5-0.2-0.7-0.4c-0.1,0-0.1,0-0.2,0.1c-0.1,0.1-0.1,0.3-0.2,0.4c0,0.1,0,0.1,0,0.1
			c0.2,0.1,0.4,0.2,0.6,0.3c0.3,0.1,0.6,0.3,0.9,0.5c0,0,0.1,0,0.1,0.1c0,0,0,0,0,0.1c-0.1,0.2-0.2,0.5-0.4,0.6
			c-0.2-0.1-0.4-0.2-0.6-0.3c-0.6-0.3-1.3-0.6-1.9-0.9h-0.1c0,0-0.1-0.1,0-0.1c0-0.1,0-0.1,0.1-0.2c0.4-0.7,0.7-1.3,1.1-2
			c0.1-0.3,0.3-0.5,0.4-0.8c0.1-0.1,0.1-0.1,0.2-0.1c0.3,0.1,0.6,0.3,0.9,0.5c0.5,0.2,0.9,0.5,1.4,0.7c0.1,0,0.1,0.1,0.2,0.1
			c-0.1,0.2-0.2,0.4-0.3,0.7c-0.4-0.2-0.7-0.4-1.1-0.5c-0.2-0.1-0.3-0.2-0.5-0.2c-0.1,0-0.1,0-0.1,0C33.8,84.9,33.8,85,33.7,85.1z"
			/>
		<path class="st2" d="M44.9,90.5c-0.5-0.1-1-0.1-1.5-0.2c-0.4,0-0.8-0.1-1.2-0.1h-0.1c-0.1,0-0.1,0-0.1-0.1s0-0.3,0.1-0.4
			c0.1-0.8,0.2-1.6,0.3-2.4c0-0.1,0-0.3,0.1-0.4c0-0.1,0-0.1,0.1-0.1c0.3,0,0.6,0.1,0.8,0.1c0.6,0.1,1.2,0.1,1.8,0.2
			c0.1,0,0.1,0,0.2,0c0.1,0,0.1,0,0.1,0.1c0,0.2-0.1,0.4-0.1,0.6c0,0.1-0.1,0.1-0.1,0.1c-0.1,0-0.2,0-0.3,0c-0.4,0-0.8-0.1-1.2-0.1
			c-0.1,0-0.1,0-0.2,0h-0.1c0,0.1,0,0.3-0.1,0.4c0,0.1,0,0.1,0.1,0.1c0.2,0,0.4,0,0.6,0.1c0.3,0,0.6,0.1,0.9,0.1
			c0.1,0,0.1,0,0.1,0.2s0,0.3-0.1,0.5c0,0,0,0.1-0.1,0.1s-0.2,0-0.3,0c-0.4,0-0.8-0.1-1.1-0.1h-0.1c0,0,0,0-0.1,0.1c0,0,0,0,0,0.1
			c-0.1,0.7-0.2,0.5,0.5,0.6c0.4,0.1,0.8,0.1,1.2,0.2c0.1,0,0.1,0,0.1,0.2C45,90.1,45,90.3,44.9,90.5z"/>
		<path class="st2" d="M38.3,80c0.2,0,0.8,0.2,1,0.3c0,0.1,0,0.2-0.1,0.3c-0.2,0.6-0.3,1.1-0.4,1.7c0,0.1-0.1,0.2,0,0.3
			c0,0.2,0.1,0.3,0.3,0.4c0.1,0,0.2,0.1,0.3,0.1c0.3,0,0.5-0.1,0.6-0.3c0.1-0.2,0.1-0.3,0.2-0.5c0.1-0.5,0.3-1,0.4-1.5v-0.1
			c0,0,0-0.1,0.1-0.1l0,0c0.3,0.1,0.6,0.2,0.9,0.3c-0.1,0.4-0.2,0.7-0.3,1s-0.2,0.6-0.3,1c-0.1,0.3-0.2,0.5-0.4,0.7
			c-0.3,0.3-0.7,0.4-1.1,0.3c-0.4-0.1-0.8-0.2-1.1-0.3c-0.5-0.2-0.7-0.6-0.7-1.2c0-0.2,0-0.3,0.1-0.5c0.2-0.6,0.3-1.2,0.5-1.7
			C38.2,80.1,38.3,80.1,38.3,80z"/>
		<path class="st2" d="M11.6,42.9L11.6,42.9c0,0.3,0,0.6,0,0.9c0,0.1,0,0.1-0.1,0.1s-0.3,0.1-0.4,0.2c-0.3,0.3-0.4,0.8,0.1,1.1
			c0.1,0.1,0.2,0.1,0.3,0.1c0.2,0.1,0.4,0.1,0.6,0.1c0.2,0,0.4,0,0.6-0.2c0.3-0.3,0.3-0.8,0-1c-0.1-0.1-0.2-0.1-0.3-0.2
			c0.2-0.3,0.4-0.6,0.6-0.9c0.3,0.1,0.6,0.3,0.7,0.6C14,44,14,44.3,14,44.6c0,0.4-0.2,0.8-0.4,1.1s-0.4,0.5-0.7,0.6
			c-0.5,0.2-0.9,0.2-1.4,0.1c-0.3-0.1-0.5-0.1-0.8-0.3s-0.6-0.5-0.7-0.9c-0.1-0.3-0.1-0.6,0-0.9c0-0.2,0.1-0.3,0.2-0.5
			c0.2-0.5,0.6-0.8,1.1-1C11.4,42.9,11.5,42.8,11.6,42.9z"/>
		<path class="st2" d="M36.7,85.2c0.5,0,1,0.2,1.4,0.5c0.3,0.2,0.5,0.6,0.4,1c0,0.2,0,0.2-0.2,0.1s-0.5-0.1-0.7-0.2
			c-0.1,0-0.1,0-0.1-0.2c0-0.1,0-0.3-0.2-0.4c-0.1-0.1-0.3-0.2-0.4-0.2c-0.1,0-0.1,0-0.2,0.1c-0.1,0.1-0.1,0.2-0.1,0.3
			c0,0.1,0.1,0.1,0.2,0.1c0.2,0.1,0.4,0.2,0.5,0.3c0.2,0.1,0.4,0.3,0.6,0.5c0.2,0.3,0.3,0.7,0.1,1.1s-0.5,0.5-0.9,0.6
			c-0.2,0-0.4,0-0.6,0c-0.4-0.1-0.7-0.2-1-0.4c-0.5-0.3-0.6-0.8-0.5-1.3c0-0.1,0.1-0.1,0.1-0.1c0.3,0.1,0.5,0.1,0.8,0.2
			c0.1,0,0.1,0,0.1,0.2l0,0c-0.1,0.4,0.3,0.6,0.6,0.6c0.1,0,0.1,0,0.2,0c0.2-0.1,0.2-0.3,0.1-0.5c-0.1-0.1-0.2-0.2-0.2-0.2
			c-0.2-0.1-0.4-0.2-0.6-0.4c-0.1-0.1-0.2-0.2-0.4-0.3c-0.4-0.5-0.3-1.2,0.3-1.5C36.4,85.2,36.6,85.2,36.7,85.2z"/>
		<path class="st2" d="M57.9,85.7c-0.4,0.2-0.8,0.3-1.2,0.5h-0.1c-0.3,0.1-0.2,0.2-0.4-0.2c0-0.1-0.1-0.2-0.1-0.3
			c0-0.1,0-0.1,0.1-0.2c0.4-0.2,0.8-0.3,1.3-0.5s0.9-0.4,1.4-0.5c0.1,0,0.1,0,0.2,0.1c0,0.1,0,0.1,0.1,0.2c0.2,0.4,0.2,0.3,0,0.7
			c-0.3,0.7-0.6,1.4-0.9,2.1c0,0-0.1,0.1,0,0.1c0.6-0.2,1.2-0.5,1.9-0.7c0.1,0.2,0.2,0.4,0.2,0.6v0.1c-0.1,0-0.1,0-0.2,0.1
			c-0.9,0.4-1.9,0.7-2.8,1.1h-0.1h-0.1c-0.1-0.2-0.1-0.4-0.2-0.6c0-0.1,0-0.1,0-0.2c0.2-0.4,0.4-0.8,0.5-1.3
			C57.6,86.5,57.8,86.1,57.9,85.7C57.9,85.8,57.9,85.7,57.9,85.7z"/>
		<path class="st2" d="M11,41.7c0.1-0.3,0.2-0.5,0.3-0.7c0-0.1,0.1-0.2,0.1-0.3c0.1,0,0.2,0,0.3,0.1c1,0.3,2,0.6,3,1
			c0.3,0.1,0.2,0.1,0.1,0.3c-0.1,0.2-0.2,0.5-0.3,0.7c-0.1,0.1-0.1,0.1-0.2,0.1c-0.4-0.1-0.9-0.3-1.3-0.4c-0.6-0.2-1.2-0.4-1.9-0.6
			C11.1,41.8,11.1,41.7,11,41.7z"/>
		<path class="st2" d="M46.3,84.7c-0.3,0-0.5,0-0.8-0.1c-0.1,0-0.1,0-0.1-0.1c0-0.3,0-0.6,0.1-1c0-0.3,0.1-0.6,0.1-0.9
			c0-0.4,0.1-0.8,0.1-1.2v-0.1c0-0.1,0-0.1,0.1-0.1c0.3,0,0.6,0,0.9,0.1c0.1,0,0.1,0,0.1,0.1c0,0.3,0,0.7-0.1,1
			c0,0.4-0.1,0.8-0.1,1.2c0,0.3,0,0.6-0.1,1c0,0.1,0,0.2-0.1,0.1C46.4,84.7,46.4,84.7,46.3,84.7L46.3,84.7z"/>
		<path class="st2" d="M39.7,21.1c-0.1,0-0.1,0-0.2,0.1c-0.5,0.1-1,0.3-1.5,0.4c-0.1,0-0.1,0-0.2-0.1c-0.1-0.3-0.2-0.6-0.2-0.8
			c-0.1-0.2-0.1-0.4-0.2-0.6c0-0.1,0-0.1,0.1-0.1c0.2,0,0.3-0.1,0.5-0.1c0.4-0.1,0.7-0.2,1.1-0.3c0.1,0,0.2,0,0.2,0.1
			c0.1,0.4,0.2,0.7,0.3,1.1C39.6,20.8,39.6,21,39.7,21.1z"/>
		<path class="st2" d="M56.4,21.6c0.1-0.4,0.3-0.8,0.4-1.1c0-0.1,0.1-0.3,0.1-0.4S57,20,57,20c0.1,0,0.3,0.1,0.4,0.1
			c0.4,0.1,0.8,0.3,1.2,0.4c0.1,0,0.1,0.1,0.1,0.1c-0.2,0.5-0.3,0.9-0.5,1.4c0,0.1,0,0.1-0.2,0.1C57.6,22,57,21.9,56.4,21.6
			C56.5,21.7,56.5,21.7,56.4,21.6z"/>
		<path class="st2" d="M48.7,20.4c-0.3,0-0.5,0-0.8,0c-0.1,0-0.1,0-0.1-0.1v-0.1c0-0.5,0-0.9,0-1.4c0,0,0,0,0-0.1s0-0.1,0.1-0.1
			c0.5,0,1.1,0,1.6,0c0.1,0,0.1,0,0.1,0.1c0,0.5,0,1,0,1.5c0,0.1,0,0.1-0.1,0.1C49.3,20.4,49,20.4,48.7,20.4L48.7,20.4z"/>
		<path class="st2" d="M46.2,17.7c-0.2-0.3-0.5-0.5-0.9-0.6c-0.1,0-0.2,0-0.3-0.1c0.1-0.1,0.2-0.1,0.2-0.1c0.7-0.4,0.8-1.4,0.3-2
			c-0.2-0.3-0.5-0.5-0.9-0.6c-0.3-0.1-0.6-0.1-0.9,0c-0.2,0-0.5,0.1-0.7,0.1c-0.7,0.1-1.4,0.2-2.1,0.3c-0.2,0-0.5,0.1-0.7,0.1
			c-0.1,0-0.1,0-0.1,0.1c0.1,0.5,0.1,0.9,0.2,1.4c0.1,0.9,0.2,1.9,0.4,2.8c0.1,0.5,0.1,1,0.2,1.6c0,0.1,0,0.2,0,0.3
			c0,0,0,0.1,0.1,0.1c0.2,0,0.3,0,0.5-0.1c0.9-0.1,1.7-0.2,2.6-0.3c0.5-0.1,0.9-0.2,1.4-0.3c0.2,0,0.3-0.1,0.5-0.2
			c0.5-0.4,0.7-0.8,0.7-1.4C46.5,18.3,46.4,18,46.2,17.7z M42.3,16.8c0-0.3-0.1-0.6-0.1-1c0-0.1,0-0.1,0.1-0.1
			c0.3,0,0.6-0.1,0.9-0.1c0.1,0,0.2,0,0.3,0c0.4,0.1,0.6,0.5,0.4,0.9c0,0.1-0.1,0.1-0.2,0.2c-0.1,0-0.2,0.1-0.3,0.1
			c-0.3,0-0.6,0.1-0.9,0.1C42.4,16.9,42.4,16.9,42.3,16.8z M44.3,19c-0.1,0.1-0.3,0.2-0.5,0.2c-0.4,0.1-0.7,0.1-1.1,0.1
			c-0.1,0-0.1,0-0.1-0.1c0-0.3-0.1-0.6-0.1-1c0-0.1,0-0.1,0.1-0.2c0.4,0,0.7-0.1,1.1-0.1c0.1,0,0.2,0,0.3,0.1
			c0.2,0.1,0.3,0.2,0.4,0.4C44.5,18.6,44.5,18.8,44.3,19z"/>
		<path class="st2" d="M65.9,18.9c-0.2-0.2-0.4-0.3-0.7-0.4c-0.6-0.3-1.2-0.6-1.8-0.9c-0.4-0.2-0.8-0.4-1.2-0.6
			c-0.2,0.2-0.3,0.5-0.4,0.7c-0.4,0.8-0.8,1.5-1.2,2.3c-0.2,0.5-0.5,1-0.8,1.4c-0.2,0.3-0.3,0.6-0.5,0.9c-0.1,0.1,0,0.1,0.1,0.2
			s0.2,0.1,0.3,0.2c0.4,0.2,0.9,0.4,1.3,0.7c0.2-0.3,0.4-0.7,0.5-1c0.2-0.3,0.4-0.7,0.5-1c0.1,0,0.1,0,0.2,0.1
			c0.3,0.1,0.5,0.3,0.8,0.4c0.3,0.2,0.6,0.3,1,0.3c0.6,0.1,1.1,0,1.5-0.4c0.4-0.3,0.6-0.7,0.7-1.2C66.5,19.9,66.4,19.4,65.9,18.9z
			 M64.5,20.2c-0.1,0.3-0.3,0.5-0.6,0.5c-0.1,0-0.2,0-0.3,0c-0.3-0.1-0.5-0.2-0.7-0.3c0,0-0.1-0.1,0-0.1c0.2-0.4,0.4-0.8,0.6-1.1
			c0.2,0.1,0.4,0.2,0.6,0.3c0.1,0,0.2,0.1,0.2,0.2C64.5,19.7,64.6,19.9,64.5,20.2z"/>
		<path class="st2" d="M77.9,61L77.9,61c-0.3,0.5-0.5,0.9-0.7,1.4c-0.1,0.2-0.1,0.2,0.1,0.3c0,0,0,0,0.1,0c0.5,0.2,1,0.5,1.6,0.7
			c0.1,0,0.1,0,0.2,0.1C79,63.8,78.8,64,78.5,64c-0.1,0-0.2,0-0.3,0c-0.3,0-0.6,0-0.9,0.1c-0.3,0-0.5,0.1-0.8,0.1
			c-0.1,0-0.1,0.1-0.2,0.1c-0.2,0.5-0.5,1-0.8,1.5v0.1c0.1,0,0.2,0,0.3,0c0.4,0,0.9-0.1,1.3-0.1c0.3,0,0.5-0.1,0.8-0.2
			c0.1,0,0.3-0.1,0.4-0.2c0,0,0.1-0.1,0.2-0.1c0,0.1,0,0.1,0,0.2c-0.1,0.6,0.2,1.2,0.8,1.5c0.7,0.3,1.4,0.1,1.8-0.5
			c0.2-0.3,0.4-0.6,0.5-0.9c0.2-0.4,0.4-0.7,0.5-1.1c0.2-0.5,0.5-0.9,0.7-1.4V63C82.6,63.1,78.2,61.1,77.9,61z M81,64.4
			c-0.1,0.3-0.3,0.6-0.4,0.9c0,0.1-0.1,0.1-0.2,0.2s-0.2,0.1-0.3,0.1c-0.3,0-0.5-0.1-0.5-0.4c0-0.1,0-0.1,0-0.2
			c0.1-0.3,0.1-0.5,0.3-0.8c0,0,0-0.1,0.1-0.1c0.1-0.1,0.1-0.2,0.2-0.2s0.2,0.1,0.3,0.1c0.2,0.1,0.4,0.2,0.6,0.3
			C81,64.3,81.1,64.3,81,64.4z"/>
		<path class="st2" d="M84.5,57.1c-0.1-0.7-0.4-1.2-1-1.6c-0.4-0.3-0.8-0.4-1.3-0.5c-0.4-0.1-0.8-0.1-1.2,0
			c-0.9,0.2-1.5,0.7-1.9,1.6C79,57,78.8,57.5,78.8,58c-0.1,1,0.3,1.9,1.2,2.3c0.6,0.3,1.2,0.5,1.8,0.5c0.9,0,1.6-0.3,2.1-1.1
			c0.3-0.4,0.4-0.8,0.5-1.3C84.5,58,84.6,57.5,84.5,57.1z M83.2,58.1c-0.1,0.4-0.3,0.7-0.7,0.9c-0.1,0.1-0.3,0.1-0.6,0.1
			c-0.4,0-0.9-0.1-1.3-0.4c-0.4-0.2-0.5-0.5-0.5-1c0-0.4,0.2-0.7,0.5-0.9c0.2-0.1,0.3-0.2,0.5-0.2c0.6,0,1.1,0.1,1.6,0.3
			C83.1,57.2,83.3,57.7,83.2,58.1z"/>
		<path class="st2" d="M84.4,45.4c-0.1-0.4-0.2-0.7-0.3-1.1c0-0.1-0.1-0.3-0.1-0.4c0-0.1-0.1-0.1-0.2-0.2c-0.6-0.1-1.2-0.2-1.8-0.3
			c-1-0.2-1.9-0.3-2.9-0.4c-0.3,0-0.6-0.1-0.8-0.1c-0.1,0-0.1,0-0.1,0.1c0.1,0.5,0.2,1,0.4,1.5c0,0.1,0.1,0.1,0.1,0.1
			c0.2,0,0.3,0,0.5,0c0.1,0,0.1,0,0.2,0s0.1,0,0.1,0.1v0.1c0.1,0.5,0.3,1.1,0.4,1.6l0,0c0,0.1,0,0.1-0.1,0.2
			c-0.2,0.1-0.4,0.2-0.6,0.3c-0.1,0.1-0.1,0.1-0.1,0.2c0.1,0.3,0.1,0.6,0.2,0.9c0.1,0.2,0.1,0.4,0.2,0.7c0,0.1,0.1,0.1,0.1,0
			c0.1-0.1,0.2-0.1,0.3-0.2c1.1-0.7,2.2-1.5,3.3-2.2c0.3-0.2,0.6-0.4,1-0.6C84.4,45.6,84.4,45.5,84.4,45.4z M82.7,45
			c-0.1,0.1-0.3,0.2-0.4,0.3c-0.3,0.2-0.7,0.4-1,0.6c0,0-0.1,0-0.1,0.1c0,0-0.1,0-0.1-0.1c-0.1-0.3-0.2-0.6-0.2-1
			c0-0.1,0-0.1,0.1-0.1s0.1,0,0.2,0l0,0C81.6,44.8,82.1,44.9,82.7,45C82.7,44.9,82.7,44.9,82.7,45L82.7,45z"/>
		<path class="st2" d="M52.9,89.9c-0.1-0.3-0.3-0.5-0.4-0.8c-0.4-0.7-0.7-1.4-1.1-2.1c-0.2-0.4-0.1-0.3-0.5-0.3c-0.1,0-0.1,0-0.2,0
			c-0.2,0-0.4,0-0.6,0.1c-0.1,0-0.1,0-0.1,0.1V87c-0.1,0.5-0.3,1-0.4,1.5c-0.1,0.6-0.3,1.1-0.4,1.7c0,0,0,0.1-0.1,0.2
			c-0.1-0.1-0.1-0.2-0.2-0.3c-0.1-0.2-0.2-0.3-0.3-0.5c-0.2-0.3-0.3-0.6-0.7-0.7c0.2-0.1,0.3-0.1,0.4-0.2c0.3-0.3,0.4-0.6,0.3-1
			c-0.1-0.4-0.3-0.7-0.7-0.7c-0.2,0-0.5,0-0.8,0c-0.5,0-1,0-1.5,0.1c-0.1,0-0.1,0-0.2,0c0,0-0.1,0-0.1,0.1s0,0.1,0,0.2
			c0,0.4,0,0.9,0,1.3c0,0.6,0,1.2,0.1,1.7c0,0.2,0,0.2,0.2,0.2c0.3,0,0.5,0,0.8,0c0.1,0,0.1,0,0.1-0.1c0-0.4,0-0.7,0-1.1
			c0-0.2,0-0.2,0.2-0.2c0.1,0,0.1,0.1,0.2,0.1c0.1,0.1,0.1,0.2,0.2,0.3c0.2,0.3,0.4,0.6,0.5,0.9c0,0.1,0.1,0.1,0.2,0.1
			c0.1,0,0.1,0,0.2,0c0.3,0,0.6,0,0.9,0c0.4,0,0.7-0.1,1.1-0.1c0,0,0.1,0,0.1-0.1s0.1-0.3,0.1-0.4s0-0.1,0.1-0.1s0.2,0,0.3,0
			c0.2,0,0.4-0.1,0.6-0.1c0.2,0,0.2,0,0.2,0.1s0.1,0.2,0.1,0.2c0.1,0.1,0.1,0.2,0.2,0.1c0.3,0,0.5-0.1,0.8-0.1c0.1,0,0.1,0,0.2-0.1
			C53,90,52.9,89.9,52.9,89.9z M47.6,88.3L47.6,88.3c-0.2,0.1-0.2,0.2-0.3,0.2c-0.2,0-0.4,0.1-0.6,0c-0.1-0.2,0-0.4,0-0.6
			c0-0.1,0-0.1,0.1-0.1s0.2,0,0.3,0s0.3,0,0.4,0C47.6,87.8,47.7,88.1,47.6,88.3z M51.2,88.9c-0.2,0-0.4,0.1-0.6,0.1
			c0,0-0.1,0-0.1-0.1s0-0.1,0-0.2s0-0.1,0-0.2c0-0.2,0.1-0.5,0.2-0.8C50.9,88.1,51.1,88.5,51.2,88.9L51.2,88.9z"/>
		<path class="st2" d="M17.2,65.9L17.2,65.9c-0.3-0.5-0.6-1-0.9-1.5c-0.1-0.2-0.3-0.4-0.5-0.6c-0.3-0.4-1-0.5-1.4-0.2
			C14.1,63.8,14,64,14,64.3c0,0.1,0,0.1,0,0.2c-0.1,0-0.1-0.1-0.2-0.1c-0.3-0.2-0.7-0.1-1,0.1s-0.4,0.5-0.3,0.8
			c0,0.2,0.1,0.3,0.2,0.5c0.3,0.5,0.6,1.1,0.9,1.6c0,0.1,0.1,0.1,0.1,0.2h0.1c0.1,0,0.1,0,0.2-0.1c0.6-0.2,1.1-0.5,1.7-0.7
			c0.5-0.2,0.9-0.4,1.4-0.6C17.3,66,17.3,66,17.2,65.9z M14.6,65.9c-0.2,0.1-0.3,0.2-0.5,0.2H14c-0.1-0.2-0.2-0.3-0.3-0.5l0,0
			c-0.1-0.3,0-0.5,0.3-0.5c0.1,0,0.2,0,0.3,0.1C14.4,65.4,14.5,65.6,14.6,65.9L14.6,65.9z M15.5,65.5h-0.1c-0.1,0-0.1,0-0.1,0
			c-0.1-0.2-0.2-0.3-0.3-0.5c0-0.1-0.1-0.2-0.1-0.3c0-0.2,0.2-0.3,0.4-0.3c0.1,0,0.2,0,0.2,0.1c0.1,0.1,0.1,0.2,0.2,0.2
			c0.1,0.2,0.2,0.3,0.2,0.5C15.8,65.4,15.6,65.4,15.5,65.5z"/>
		<path class="st2" d="M16.2,37.5c-0.1-0.1-0.3-0.2-0.4-0.3c-0.4-0.2-0.8-0.4-1.2-0.4c-0.6,0-1,0.2-1.3,0.5s-0.6,0.7-0.7,1.2
			c-0.2,0.6-0.1,1.1,0.3,1.5c0.4,0.4,1,0.6,1.6,0.7c0.5,0,0.9-0.1,1.3-0.5c0.4-0.3,0.7-0.8,0.8-1.3C16.7,38.3,16.6,37.9,16.2,37.5z
			 M15.5,39c-0.1,0.4-0.5,0.6-0.8,0.5c-0.1,0-0.2,0-0.2,0c-0.3-0.1-0.5-0.2-0.7-0.3c-0.1-0.1-0.1-0.1-0.2-0.2
			c-0.1-0.2-0.2-0.4-0.1-0.6c0.2-0.4,0.5-0.6,0.9-0.5c0.3,0.1,0.7,0.2,0.9,0.4C15.6,38.5,15.7,38.7,15.5,39z"/>
		<path class="st2" d="M57.2,80.7c-0.2-0.4-0.6-0.6-1.1-0.7c-0.2,0-0.4,0-0.6,0.1c-0.5,0.1-1.1,0.3-1.6,0.4c-0.1,0-0.1,0.1-0.1,0.2
			s0,0.1,0.1,0.2c0.2,0.8,0.4,1.5,0.7,2.3c0.1,0.2,0.1,0.4,0.2,0.6c0,0.1,0.1,0.1,0.1,0.1H55c0.4-0.1,0.8-0.2,1.2-0.3
			c0.2-0.1,0.4-0.1,0.6-0.3c0.5-0.3,0.6-0.7,0.7-1.2C57.5,81.5,57.4,81.1,57.2,80.7z M56.1,82.7c-0.1,0-0.2,0.1-0.3,0.1
			s-0.1,0-0.2,0c-0.1-0.1-0.1-0.2-0.1-0.3c-0.1-0.4-0.3-0.9-0.4-1.3v-0.1c0-0.1,0-0.1,0.1-0.1c0.2-0.1,0.4-0.1,0.6-0.1
			c0.1,0,0.3,0.1,0.4,0.2c0,0.1,0.1,0.1,0.1,0.2c0.1,0.3,0.2,0.6,0.2,0.9C56.5,82.4,56.4,82.5,56.1,82.7z"/>
		<path class="st2" d="M13.2,47c-0.2,0.1-0.4,0.1-0.6,0.2c-1,0.3-2,0.6-3.1,0.8c-0.2,0-0.2,0.1-0.2,0.3c0,0.3-0.1,0.5-0.1,0.8
			c0,0.2,0,0.2,0.2,0.3c0.9,0.4,1.9,0.8,2.8,1.3c0.2,0.1,0.4,0.2,0.6,0.3l0,0c0.1-0.3,0.1-0.7,0.1-1c0-0.1,0-0.1-0.1-0.1
			s-0.3-0.1-0.4-0.1c-0.1,0-0.1-0.1-0.1-0.2c0-0.3,0.1-0.7,0.1-1c0-0.1,0.1-0.1,0.1-0.2c0.1,0,0.3-0.1,0.4-0.1
			c0.1,0,0.1-0.1,0.1-0.1c0-0.3,0.1-0.6,0.1-0.9C13.2,47.1,13.2,47,13.2,47z M11.6,48.5c0,0.2,0,0.4-0.1,0.7
			c-0.4-0.1-0.8-0.3-1.2-0.5c0-0.1,0-0.1,0.1-0.1C10.8,48.5,11.1,48.4,11.6,48.5C11.6,48.4,11.6,48.5,11.6,48.5z"/>
		<path class="st2" d="M20.1,69.4c-0.2-0.2-0.3-0.4-0.5-0.6c-0.2-0.3-0.2-0.2-0.5-0.2c-0.1,0-0.2,0.1-0.3,0.1
			c-0.1,0-0.2-0.2-0.2-0.3l-0.1-0.1c-0.2-0.2-0.3-0.4-0.5-0.6c0.1-0.2,0.3-0.3,0.4-0.5c-0.1-0.2-0.2-0.3-0.4-0.5
			c-0.1-0.1-0.2-0.3-0.4-0.5c-0.7,1-1.4,2-2.2,3.1c0.2,0.3,0.4,0.5,0.6,0.7c0,0.1,0.1,0.1,0.1,0.2c0.1,0.1,0.1,0.1,0.2,0.1h0.1
			c1-0.2,2.1-0.4,3.1-0.7C19.7,69.6,19.9,69.5,20.1,69.4C20.1,69.4,20.1,69.4,20.1,69.4z M16.6,69.3c0.1-0.2,0.2-0.4,0.7-1
			c0.2,0.1,0.3,0.3,0.5,0.6C17.5,69.1,17.1,69.2,16.6,69.3z"/>
		<path class="st2" d="M50.3,82.1c-0.2-0.4-0.5-0.8-0.9-0.9c-0.2,0-0.4-0.1-0.5-0.1c-0.6,0-1.2,0.1-1.7,0.1c-0.1,0-0.1,0-0.1,0.1
			c0,0.3,0.1,0.6,0.1,1c0,0.5,0.1,0.9,0.1,1.4c0,0.3,0,0.6,0.1,1c0.2,0,0.3,0,0.4,0c0.4,0,0.7-0.1,1.1-0.1c0.2,0,0.5-0.1,0.7-0.1
			c0.5-0.2,0.8-0.5,0.9-1C50.5,83,50.5,82.5,50.3,82.1z M49.4,83.2c0,0.3-0.2,0.5-0.5,0.6c-0.1,0-0.2,0-0.4,0c-0.1,0-0.1,0-0.1-0.1
			c0-0.3-0.1-0.7-0.1-1c0-0.2,0-0.4,0-0.6c0-0.1,0-0.1,0.1-0.1s0.1,0,0.2,0c0.5,0,0.7,0.1,0.8,0.6C49.4,82.8,49.4,83,49.4,83.2z"/>
		<path class="st2" d="M63.7,85.7c-0.6-0.5-1.2-0.9-1.8-1.4c-0.3-0.2-0.6-0.5-0.9-0.7c-0.1-0.1-0.1-0.1-0.2,0
			c-0.3,0.2-0.5,0.3-0.8,0.5c-0.1,0.1-0.1,0.1-0.1,0.2c0,0.2,0.1,0.4,0.1,0.7c0.2,0.9,0.3,1.7,0.5,2.6c0,0.1,0,0.2,0.1,0.3
			c0.3-0.1,0.5-0.3,0.7-0.4s0.3-0.1,0.2-0.4c0-0.1,0-0.1,0-0.2s0-0.2,0.1-0.2c0.3-0.2,0.6-0.3,0.9-0.5c0.1-0.1,0.1-0.1,0.2,0
			c0.1,0.1,0.2,0.2,0.4,0.3c0.3-0.2,0.6-0.4,1-0.6C63.8,85.7,63.8,85.7,63.7,85.7z M61.2,85.8c-0.1-0.2-0.3-0.8-0.3-1.2
			c0.2,0.1,0.8,0.6,0.9,0.8C61.6,85.6,61.4,85.7,61.2,85.8z"/>
		<path class="st2" d="M54.4,83.8c-0.3-0.5-0.6-0.9-0.9-1.4c-0.3-0.5-0.6-1-0.9-1.5c-0.1-0.1-0.1-0.1-0.2-0.1
			c-0.3,0.1-0.6,0.1-0.9,0.2c-0.1,0-0.1,0.1-0.1,0.1c-0.1,0.3-0.1,0.6-0.2,0.8c-0.1,0.8-0.3,1.6-0.4,2.3c0,0.1,0,0.2,0,0.3h0.1
			c0.3,0,0.6-0.1,0.9-0.1c0.1,0,0.1,0,0.1-0.1s0-0.2,0-0.3c0-0.1,0.1-0.1,0.1-0.1c0.3-0.1,0.7-0.1,1-0.2c0,0,0.1,0,0.1,0.1
			s0.1,0.2,0.1,0.3c0.1,0.2,0.1,0.2,0.3,0.2s0.3-0.1,0.5-0.1c0.1,0,0.3,0,0.4-0.1C54.4,83.9,54.4,83.8,54.4,83.8z M52.1,83
			c-0.2,0-0.2,0-0.2-0.2c0-0.3,0.1-0.6,0.1-0.9v-0.1l0,0c0.2,0.3,0.3,0.7,0.5,1C52.5,83,52.3,83,52.1,83z"/>
		<path class="st2" d="M41.7,86.7c-0.2-0.2-0.4-0.3-0.6-0.3c-0.3-0.1-0.6-0.1-0.9-0.2c-0.3-0.1-0.7-0.2-1.1-0.3c0,0.1,0,0.1-0.1,0.2
			c-0.1,0.4-0.2,0.7-0.3,1.1c-0.2,0.7-0.3,1.3-0.5,2c0,0.1,0,0.1,0.1,0.2c0.3,0.1,0.6,0.1,0.8,0.2c0.1,0,0.1,0,0.2-0.1
			c0-0.2,0.1-0.4,0.1-0.6s0.1-0.4,0.2-0.5c0.2,0,0.4,0.1,0.6,0.1c0.2,0,0.4,0.1,0.6,0.1c0.4,0,0.7-0.2,0.9-0.5
			c0.1-0.2,0.2-0.4,0.2-0.7C42,87.1,41.9,86.9,41.7,86.7z M40.9,87.4c0,0.2-0.2,0.3-0.4,0.3c-0.1,0-0.3-0.1-0.5-0.1
			c0-0.2,0.1-0.4,0.1-0.6c0-0.1,0-0.1,0.1-0.1s0.3,0.1,0.4,0.1C40.8,87.1,40.9,87.2,40.9,87.4z"/>
		<path class="st2" d="M52.2,41.8c0.2-0.1,0.3-0.3,0.4-0.4c1.1-1,2.3-2,3.4-2.9c0.2-0.1,0.3-0.3,0.5-0.4c0.1-0.1,0.1-0.1,0-0.2
			c-0.1-0.1-0.2-0.3-0.4-0.4C56,37.4,56,37.3,56,37.1c0.1-0.2,0.1-0.5,0.1-0.7c0-0.7-0.1-1.4-0.4-2c-0.3-0.7-0.7-1.3-1.2-1.9
			c-0.3-0.3-0.6-0.7-0.9-1c0,0,0,0,0-0.1c0.2,0.1,0.3,0.2,0.4,0.3c1.4,0.9,2.8,1.9,4.2,2.8c1.6,1.1,3.2,2.1,4.8,3.2
			c0.1,0.1,0.2,0.1,0.3,0.2c0.3,0.2,0.3,0.2,0,0.4c-0.9,0.7-1.8,1.5-2.8,2.2c-0.2,0.2-0.5,0.4-0.7,0.5c-0.1,0.1-0.1,0.1-0.2,0
			c-0.3-0.4-0.7-0.8-1-1.2c-0.3-0.3-0.2-0.3-0.5-0.1s-0.5,0.4-0.7,0.6c-0.5,0.5-1.1,1-1.7,1.5c-0.4,0.3-0.8,0.7-1.1,1l0,0
			c-0.2,0.1-0.3,0.3-0.5,0.4c-0.2-0.1-0.3-0.2-0.5-0.4C53.2,42.4,52.7,42.1,52.2,41.8C52.4,41.9,52.3,41.9,52.2,41.8z"/>
		<path class="st2" d="M30.2,38c0.2-0.2,9.6-6.4,9.9-6.6v0.1c0,0,0,0-0.1,0.1c-0.4,0.3-0.7,0.7-1,1.1c-0.6,0.7-1,1.5-1.3,2.4
			c-0.2,0.7-0.2,1.3,0,2v0.1c0,0.1,0,0.1-0.1,0.2c-0.1,0.1-0.2,0.2-0.3,0.4c-0.1,0.1-0.1,0.1-0.2,0.2v0.1l0.1,0.1
			c0.5,0.4,0.9,0.8,1.4,1.2c0.4,0.3,0.8,0.7,1.2,1c0.1,0.1,0.1,0.1,0,0.2c-0.2,0.5-0.4,1-0.6,1.5c-0.1,0.3-0.2,0.5-0.3,0.8
			c0,0.1-0.1,0.1-0.1,0c-0.1-0.1-0.3-0.2-0.4-0.3c-0.5-0.4-1-0.8-1.5-1.3c-0.3-0.2-0.5-0.5-0.8-0.7c-0.3-0.3-0.6-0.5-0.9-0.7
			c0,0-0.1,0-0.1-0.1c-0.1-0.1-0.2-0.1-0.3,0c-0.3,0.4-0.7,0.8-1,1.2c0,0.1-0.1,0.1-0.2,0.2C32.7,40,31.5,39,30.2,38z"/>
		<path class="st2" d="M40.4,66.9c0,0.1,0,0.2,0,0.3c0,0.7,0,1.4,0,2.1c0,0.1,0,0.1,0,0.2s0,0.2-0.1,0.2c-0.4,0-0.9,0-1.3,0
			c-0.1,0-0.1,0-0.1-0.1v-0.1c0-1.5,0-3.1,0-4.6c0-0.3,0-0.3,0.3-0.3c0.4,0,0.7,0,1.1,0c0.1,0,0.2,0,0.3,0.1
			c0.6,0.8,1.1,1.6,1.7,2.4c0.1,0.1,0.1,0.2,0.2,0.2c0.1,0,0.1-0.1,0.1-0.1c0-0.8,0-1.6,0-2.4c0-0.3,0-0.3,0.2-0.3
			c0.4,0,0.8,0,1.2,0c0.1,0,0.1,0,0.1,0.2c0,0.1,0,0.1,0,0.2c0,1.5,0,3,0,4.5c0,0.1,0,0.1,0,0.2c0,0.2,0,0.2-0.2,0.2
			c-0.4,0-0.8,0-1.3,0c-0.1,0-0.2,0-0.2-0.1c-0.2-0.2-0.3-0.4-0.5-0.7C41.3,68.2,40.9,67.6,40.4,66.9L40.4,66.9z"/>
		<path class="st2" d="M37.7,66.2c0,0.5,0,1,0,1.5c0,0.3-0.1,0.6-0.2,0.9c-0.3,0.6-0.8,0.9-1.4,1.1c-0.5,0.1-1,0.1-1.4,0
			c-0.2,0-0.5,0-0.7-0.1c-0.6-0.2-1-0.6-1.2-1.3c-0.1-0.2-0.1-0.5-0.1-0.7c0-1,0-1.9,0-2.9v-0.1c0,0,0,0,0.1-0.1h0.1
			c0.4,0,0.9,0,1.3,0c0.1,0,0.1,0,0.1,0.1c0,0.6,0,1.1,0,1.7c0,0.4,0,0.8,0,1.3c0,0.1,0,0.2,0,0.2c0,0.4,0.3,0.7,0.6,0.7
			c0.2,0,0.3,0.1,0.5,0c0.4-0.1,0.7-0.4,0.7-0.8c0-0.1,0-0.2,0-0.3c0-0.9,0-1.8,0-2.6c0-0.1,0-0.2,0-0.2c0-0.1,0-0.1,0.1-0.1
			c0.5,0,0.9,0,1.4,0c0.1,0,0.1,0,0.1,0.1C37.7,65.1,37.7,65.7,37.7,66.2L37.7,66.2z"/>
		<path class="st2" d="M52.5,66.9c0-0.4,0-0.7,0-1.1c0-0.1,0-0.1,0.1-0.1c0.2-0.1,0.3-0.1,0.5-0.2c0.4-0.2,0.7-0.4,0.9-0.7
			c0.1-0.1,0.2-0.3,0.3-0.4c0-0.1,0.1-0.1,0.1-0.1c0.3,0,0.7,0,1,0c0.1,0,0.1,0,0.1,0.1s0,0.1,0,0.2c0,1.6,0,3.2,0,4.8
			c0,0.3,0,0.3-0.3,0.3s-0.7,0-1,0h-0.1c-0.1,0-0.1,0-0.1-0.1s0-0.2,0-0.2c0-1,0-1.9,0-2.9c0-0.1,0-0.1,0-0.2c0,0,0-0.1-0.1,0
			l-0.1,0.1C53.4,66.6,53,66.8,52.5,66.9z"/>
		<path class="st2" d="M47.5,66.9c0-0.4,0-0.7,0-1.1c0-0.1,0-0.1,0.1-0.1c0.3-0.1,0.5-0.2,0.7-0.3c0.4-0.2,0.7-0.5,0.9-0.9
			c0.1-0.1,0.1-0.2,0.3-0.2c0.3,0,0.6,0,0.9,0c0.2,0,0.2,0,0.2,0.2v0.1c0,1.6,0,3.1,0,4.7c0,0.3,0,0.3-0.3,0.3c-0.4,0-0.7,0-1.1,0
			c-0.1,0-0.1,0-0.1-0.1s0-0.2,0-0.2c0-0.9,0-1.9,0-2.8c0-0.1,0-0.1,0-0.2c0,0,0-0.1-0.1,0s-0.3,0.2-0.4,0.3
			C48.3,66.7,47.9,66.8,47.5,66.9z"/>
		<path class="st2" d="M28.7,39.3c0.2-0.2,0.4-0.4,0.6-0.7c0.1-0.1,0.1-0.1,0.2,0c0.3,0.3,0.6,0.6,0.9,0.8c0.6,0.5,1.2,1,1.8,1.5
			c0.4,0.2,0.7,0.5,1.1,0.6c0.1,0,0.1,0.1,0,0.1c-0.2,0.4-0.4,0.8-0.6,1.2c0,0.1-0.1,0.1-0.2,0c-0.3-0.1-0.7-0.4-1-0.6
			c-0.9-0.7-1.7-1.4-2.5-2.3C29.1,39.8,28.9,39.6,28.7,39.3z"/>
		<path class="st2" d="M64.4,38.6c0.2,0.2,0.5,0.5,0.7,0.7c-0.1,0.3-0.3,0.5-0.5,0.7c-0.6,0.7-1.3,1.4-2,2c-0.4,0.3-0.8,0.6-1.2,0.8
			c-0.1,0-0.1,0.1-0.2,0.1C61,43,61,43,60.9,42.8c-0.2-0.4-0.4-0.7-0.5-1.1c-0.1-0.1,0-0.1,0.1-0.2c0.8-0.3,1.4-0.8,2.1-1.4
			c0.6-0.5,1.1-1,1.6-1.4C64.3,38.7,64.3,38.6,64.4,38.6z"/>
		<path class="st2" d="M45.6,68.3c-0.3,0-0.6,0-0.9,0c-0.1,0-0.1,0-0.1-0.1c0-0.3,0-0.6,0-0.9c0-0.1,0-0.1,0.1-0.1h0.1
			c0.6,0,1.1,0,1.7,0h0.1c0.1,0,0.1,0,0.1,0.1s0,0.2,0,0.3c0,0.2,0,0.4,0,0.6c0,0.1,0,0.1-0.1,0.1c-0.2,0-0.4,0-0.6,0
			C45.9,68.3,45.7,68.3,45.6,68.3L45.6,68.3z"/>
		<path class="st2" d="M63.9,56.1c-0.1-0.1-0.1-0.2-0.2-0.3c-0.2-0.2-0.5-0.4-0.7-0.5c-0.6-0.4-1.2-0.7-1.8-1
			c-1.3-0.6-2.7-1.2-4.1-1.6H57c-0.1,0-0.1,0-0.1-0.2c0-0.3,0-0.5,0-0.7c0-0.5,0-0.9,0-1.3c-0.1-1-0.2-1.9-0.5-2.8
			c-0.1-0.3-0.2-0.6-0.4-1c-0.5-1-1-1.9-1.8-2.7c-0.4-0.5-0.9-0.9-1.4-1.2c-1.1-0.7-2.2-1.2-3.4-1.5c-0.8-0.2-1.5-0.3-2.3-0.4
			c-0.8-0.1-1.7-0.2-2.6-0.3c-0.6-0.1-1.2-0.1-1.8-0.2c-0.3,0-0.6,0-0.8-0.1s-0.5-0.1-0.7-0.2c-0.2-0.1-0.3,0-0.4,0.1
			c-0.1,0.1-0.1,0.2-0.1,0.4c0,0.1,0,0.1,0,0.2c-0.1,0.2-0.2,0.5-0.3,0.7c-0.3,0.7-0.5,1.3-0.8,2c-0.2,0.5-0.3,1.1-0.5,1.6
			c-0.3,1-0.5,2-0.7,3c-0.2,0.8-0.3,1.6-0.5,2.4c0,0.1,0,0.1-0.2,0.1c-0.3,0-0.6,0-0.9,0.1c-0.4,0.1-0.9,0.2-1.2,0.4
			c-0.1,0.1-0.3,0.2-0.3,0.3c-0.1,0.2-0.1,0.4,0,0.6c0.1,0.1,0.2,0.2,0.3,0.2c0.2,0.1,0.5,0.2,0.7,0.2c0.5,0.1,0.9,0.1,1.4,0.1
			c0.4,0,0.7,0,1.1-0.1c2,0,4,0,6,0.1c1.1,0.1,2.2,0.1,3.3,0.2c0.8,0.1,1.6,0.2,2.4,0.3c1.2,0.2,2.4,0.4,3.7,0.6
			c2.4,0.5,4.7,1.2,6.9,2c0.5,0.2,1,0.4,1.5,0.5c0.3,0.1,0.6,0.2,0.9,0.2c0.1,0,0.2,0,0.2,0C63.9,56.4,64,56.3,63.9,56.1z
			 M50.2,41.9c0.9,0.3,1.7,0.7,2.5,1.2c0.5,0.4,1,0.8,1.4,1.3c0.7,0.8,1.3,1.7,1.7,2.7c0.3,0.8,0.5,1.6,0.6,2.4
			c0.1,0.9,0.2,1.8,0.1,2.7c0,0.4,0,0.4-0.3,0.3h-0.1L56,52.4c0,0,0,0,0-0.1c0-0.6,0-1.1,0-1.7c-0.1-0.9-0.2-1.8-0.5-2.6
			c-0.1-0.3-0.2-0.7-0.4-1c-0.7-1.6-1.8-2.9-3.2-3.8c-0.4-0.3-0.9-0.5-1.4-0.7c-0.1,0-0.2-0.1-0.3-0.2c-0.1-0.1-0.1-0.2-0.2-0.3
			C50.1,41.8,50.2,41.9,50.2,41.9z M51.1,46c0-0.5-0.1-1-0.2-1.5c-0.1-0.6-0.2-1.2-0.4-1.7c0,0-0.1-0.1,0-0.1s0.1,0,0.2,0
			c0.8,0.4,1.6,0.9,2.3,1.5c0.8,0.8,1.5,1.7,1.9,2.7c0.3,0.6,0.5,1.1,0.6,1.7c0.2,0.8,0.3,1.5,0.3,2.3c0,0.3,0,0.6,0,0.8
			c0,0.1,0,0.3,0,0.5c-0.1,0-0.3-0.1-0.4-0.1c-1.2-0.3-2.3-0.5-3.5-0.7c-0.3,0-0.5-0.1-0.8-0.1c-0.1,0-0.2,0-0.1-0.2
			c0.1-0.8,0.1-1.6,0.1-2.4C51.2,47.9,51.2,47,51.1,46z M49.1,42.4c0.1,0.2,0.3,0.3,0.4,0.5c0.2,0.4,0.3,0.8,0.4,1.2
			c0.2,0.9,0.2,1.7,0.3,2.6c0.1,1.4,0,2.9,0,4.3v0.1c0,0.1,0,0.1-0.1,0.1c-0.2,0-0.4,0-0.6,0c-0.3,0-0.7-0.1-1-0.1
			c-0.6,0-1.2-0.1-1.7-0.1c-1,0-2.1,0-3.1,0c-0.3,0-0.3,0-0.2-0.3c0.1-0.6,0.2-1.2,0.3-1.9c0.2-0.8,0.4-1.6,0.6-2.4
			c0.2-0.7,0.5-1.3,0.9-1.9c0.7-1.1,1.6-2,2.9-2.5c0.1-0.1,0.3-0.1,0.4-0.1c0.1,0,0.2,0,0.2,0C48.9,42.2,49,42.3,49.1,42.4z
			 M43.1,48.2c-0.1,0.6-0.2,1.2-0.3,1.8c-0.1,0.3-0.1,0.6-0.1,0.9c0,0.2,0,0.2-0.2,0.2c-0.1,0-0.2,0-0.3,0c-0.7,0-1.3,0.1-2,0.1
			c-0.2,0-0.3,0-0.5,0v-0.1c0.2-0.3,0.4-0.6,0.5-0.9c0.2-0.4,0.4-0.7,0.7-0.9c0.3-0.3,0.5-0.7,0.7-1.1c0.1-0.1,0.1-0.3,0.1-0.5
			c0-0.3,0-0.5,0.1-0.8c0-0.3,0-0.6,0-0.9c0-0.5,0.2-0.9,0.3-1.3c0.1-0.2,0.2-0.4,0.2-0.6c0-0.1,0.1-0.2,0.1-0.3
			c0.1-0.2,0.2-0.3,0.3-0.4c0.9-0.5,1.7-0.9,2.7-1.1c0.3-0.1,0.7-0.1,1-0.2c0.1,0,0.2,0,0.3,0c-0.1,0.1-0.1,0.1-0.2,0.2
			c-0.7,0.5-1.3,1.1-1.8,1.9c-0.4,0.6-0.7,1.2-1,1.8C43.5,46.8,43.3,47.5,43.1,48.2z M41.7,40.5c0.3,0.1,0.7,0.2,1.1,0.2
			c0.6,0.1,1.2,0.1,1.8,0.2c1.2,0.1,2.5,0.3,3.7,0.5h0.1c0,0,0.1,0,0.1,0.1c-0.1,0.5,0.1,0.4-0.4,0.4c-1.6-0.1-3.1,0.3-4.5,0.9
			c-0.2,0.1-0.5,0.2-0.7,0.4c-0.1,0-0.1,0.1-0.2,0.1v-0.1c0.1-0.4,0-0.8-0.2-1.2s-0.4-0.7-0.6-1.1C41.7,40.8,41.7,40.7,41.7,40.5
			C41.6,40.5,41.7,40.5,41.7,40.5z M38.1,50.6c0-0.3,0.1-0.6,0.1-0.8c0.1-0.7,0.3-1.4,0.4-2.2c0.2-0.9,0.4-1.9,0.7-2.8
			c0.1-0.5,0.3-1,0.5-1.4c0.2-0.7,0.5-1.4,0.8-2.1c0.1-0.1,0.1-0.3,0.2-0.4c0.1,0,0.1,0.1,0.2,0.2c0.2,0.3,0.4,0.6,0.6,1
			c0.3,0.4,0.3,0.9,0.2,1.4c-0.1,0.3-0.2,0.5-0.3,0.8c-0.2,0.5-0.4,1-0.5,1.6c0,0.3-0.1,0.5-0.1,0.8s0,0.6,0,0.8
			c0,0.5-0.1,0.9-0.4,1.3c-0.2,0.2-0.3,0.5-0.5,0.7c-0.1,0.2-0.3,0.4-0.4,0.7v0.1c-0.2,0.4-0.5,0.6-0.9,0.7c-0.2,0-0.4,0-0.6,0
			C38.1,50.7,38.1,50.7,38.1,50.6z M37.6,51.3c0.1,0,0.3,0,0.3,0.2c-0.3,0.1-1.1,0.2-1.5,0.1C36.9,51.4,37.2,51.3,37.6,51.3z
			 M62.6,56.2c-0.4-0.1-0.8-0.3-1.2-0.4c-2.5-1-5.2-1.7-7.8-2.3c-1.2-0.2-2.5-0.4-3.8-0.6c-0.8-0.1-1.6-0.2-2.4-0.3
			c-1.5-0.1-3-0.2-4.4-0.2c-1.1,0-2.3,0-3.4,0c-0.6,0-1.1,0-1.7,0.1c-0.5,0-1,0-1.6-0.1c-0.1,0-0.3-0.1-0.4-0.2c0.9,0.1,1.7,0,2.5,0
			c0.5,0,1-0.1,1.6-0.1c0.7-0.1,1.4-0.1,2.1-0.1c0.2,0,0.5,0,0.7,0c1.2,0,2.4,0,3.6,0c0.9,0,1.8,0.1,2.8,0.2
			c0.8,0.1,1.6,0.1,2.3,0.3c2.7,0.4,5.4,1,7.9,2.1c1.2,0.5,2.3,1.1,3.4,1.7c0,0,0.1,0,0.1,0.1C62.8,56.2,62.7,56.2,62.6,56.2z"/>
		<path class="st2" d="M50.3,38.3c0-0.9,0-1.7,0-2.6c0-1.7,0-3.4,0-5.1c0-0.1,0-0.2,0-0.3c0-0.1,0-0.1-0.1-0.1c-0.3,0-0.5,0-0.8,0
			c-0.1,0-0.1,0-0.1,0.1c0,0.3,0,0.5,0,0.8c0,0.1,0,0.1-0.1,0.1c-0.2,0-0.5,0-0.7,0c-1.3,0-2.5,0-3.8-0.1c-0.3,0-0.3,0.1-0.3-0.3
			c0-0.2,0-0.4,0-0.6c0-0.1,0-0.1-0.1-0.1c-0.2,0-0.3,0-0.5,0c-0.5,0-0.4-0.1-0.4,0.5c0,1.8,0,3.6,0,5.3c0,1.3,0,2.5,0,3.8
			c0,0.1,0,0.1,0,0.2c0,0.1,0,0.1,0.1,0.1c0.3,0,0.6,0.1,0.9,0.1c0.1,0,0.1,0,0.1-0.1s0-0.1,0-0.2c0-0.5,0-0.9,0-1.4
			c0-0.3-0.1-0.3,0.3-0.3c0.3,0,0.7,0,1,0c1.1,0,2.2,0,3.3,0.1c0.3,0,0.3,0,0.3,0.3c0,0.6,0,1.3,0,1.9c0,0.1,0,0.3,0,0.4
			c0.1,0.1,0.2,0.1,0.3,0.1c0.2,0.1,0.5,0.1,0.7,0.2c0-0.1,0-0.1,0-0.2C50.3,40,50.3,39.1,50.3,38.3z M49.2,36.3L49.2,36.3
			c0,0.2,0,0.2-0.1,0.2s-0.3,0-0.4,0c-0.4,0-0.8,0-1.1,0s-0.6,0-0.9,0c-0.7,0-1.4,0-2.1-0.1h-0.1c-0.1,0-0.1,0-0.1-0.1s0-0.1,0-0.2
			c0-1,0-2,0-3c0,0,0,0,0-0.1c0-0.3,0-0.3,0.3-0.3c0.7,0,1.4,0,2,0c0.8,0,1.6,0,2.3,0h0.1c0.1,0,0.1,0,0.1,0.1v0.1
			C49.2,34.2,49.2,35.2,49.2,36.3z"/>
		<path class="st2" d="M50.2,54.1L50.2,54.1c0-0.2,0-0.2-0.1-0.3H50c-0.4,0-0.7-0.1-1.1-0.1c-0.8-0.1-1.7-0.2-2.5-0.2
			c-0.5,0-0.9-0.1-1.4-0.1c-0.6,0-1.1,0-1.7,0c-0.1,0-0.1,0-0.1,0.1s0,0.1,0,0.2c0,2.2,0,4.4,0,6.6c0,0.1,0,0.1,0,0.2
			c0,0.1,0,0.1,0.1,0.1c0.3,0,0.6,0,0.9,0c0,0,0-0.1,0.1-0.1c0-0.1,0-0.2,0-0.3s0-0.3,0-0.4c0-0.2,0-0.2,0.2-0.2c0.3,0,0.6,0,0.8,0
			c1.2,0,2.4,0,3.6,0c0.1,0,0.1,0,0.2,0c0.1,0,0.1,0,0.1,0.1s0,0.1,0,0.2c0,0.2,0,0.4,0,0.6c0,0.1,0,0.1,0.1,0.1c0.2,0,0.4,0,0.6,0
			c0.5,0,0.4,0.1,0.4-0.4C50.2,58.1,50.2,56.1,50.2,54.1z M49.1,57.8C49.1,57.9,49.1,57.9,49.1,57.8c-0.2,0.1-0.2,0.1-0.3,0.1
			c-0.8,0-1.6,0-2.4,0c-0.7,0-1.3,0-2,0c-0.2,0-0.2,0-0.2-0.3c0-1.1,0-2.2,0-3.3v-0.1c0-0.1,0-0.1,0.1-0.1s0.1,0,0.2,0
			c0.7,0,1.4,0,2.2,0l0,0c0.7,0,1.5,0,2.2,0c0.2,0,0.2,0,0.2,0.3C49.1,55.5,49.1,56.6,49.1,57.8L49.1,57.8z"/>
		<path class="st2" d="M61.6,67.7C61.6,67.6,61.6,67.6,61.6,67.7c-0.3-0.1-0.4-0.1-0.6-0.1c-0.1,0-0.1,0-0.1-0.1s0-0.2,0-0.2
			c0-0.4,0-0.8,0-1.3c0-0.4,0-0.9,0-1.3c0-0.1,0-0.1,0-0.2s0-0.1-0.1-0.1c-0.4,0-0.7,0-1.1,0c-0.1,0-0.1,0-0.2,0.1l-0.1,0.1
			c-0.4,0.4-0.8,0.9-1.1,1.3c-0.4,0.5-0.9,1-1.3,1.5c0,0.1,0,0.2,0,0.3c0,0.2,0,0.4,0,0.6c0,0.5-0.1,0.4,0.4,0.4c0.7,0,1.3,0,2,0
			c0.3,0,0.3,0,0.3,0.3c0,0.2,0,0.3,0,0.5c0,0.1,0,0.2,0.2,0.2c0.3,0,0.7,0,1,0c0.1,0,0.1,0,0.1-0.1s0-0.2,0-0.3c0-0.1,0-0.3,0-0.4
			s0-0.1,0.1-0.1s0.3,0,0.4,0c0.1,0,0.1,0,0.1-0.1C61.6,68.3,61.6,68,61.6,67.7z M59.6,67.6c-0.4,0-0.8,0-1.2,0h-0.1c0,0,0,0,0-0.1
			c0.4-0.5,0.8-1,1.3-1.5c0,0,0,0,0.1,0l0,0c0,0.5,0,1,0,1.4C59.7,67.5,59.7,67.6,59.6,67.6z"/>
	</g>
</g>
</svg>
